<?xml version="1.0" encoding="UTF-8" standalone="no"?>
<!DOCTYPE svg PUBLIC "-//W3C//DTD SVG 1.1//EN" "http://www.w3.org/Graphics/SVG/1.1/DTD/svg11.dtd">
<svg width="144px" height="141px" version="1.1" xmlns="http://www.w3.org/2000/svg" xmlns:xlink="http://www.w3.org/1999/xlink" xml:space="preserve" xmlns:serif="http://www.serif.com/" style="fill-rule:evenodd;clip-rule:evenodd;stroke-linejoin:round;stroke-miterlimit:2;">
    <g transform="matrix(1,0,0,1,-3483.54,-9142.04)">
        <g transform="matrix(3.5866,0,0,3.1788,24379.8,595.649)">
            <g id="speak" transform="matrix(0.278816,0,0,0.314584,-6160.15,1979.25)">
                <path id="シェイプ-1543" serif:id="シェイプ 1543" d="M1219.26,2369.25C1218.75,2368.91 1218.24,2368.55 1217.72,2368.16C1216.01,2366.83 1214.15,2365.24 1212.34,2363.27C1210.49,2361.33 1208.68,2359.02 1206.94,2356.38C1205.2,2353.74 1203.6,2350.72 1202.22,2347.38C1200.83,2344.03 1199.68,2340.35 1198.89,2336.38C1197.3,2328.45 1197.21,2319.32 1199.46,2309.97C1200.58,2305.31 1202.27,2300.61 1204.57,2296.05C1206.87,2291.49 1209.79,2287.12 1213.26,2283.06C1216.75,2279.01 1220.79,2275.25 1225.35,2272.07C1229.91,2268.9 1234.93,2266.2 1240.28,2264.24C1241.65,2263.72 1243.07,2263.26 1244.51,2262.84C1247.13,2261.49 1249.89,2260.32 1252.77,2259.35C1256.49,2258.1 1260.25,2257.23 1264,2256.72C1264.07,2256.71 1264.14,2256.7 1264.21,2256.69C1265.06,2256.54 1265.92,2256.47 1266.78,2256.36C1273.69,2255.64 1281.08,2256.27 1287.95,2258.25C1289.82,2258.78 1291.64,2259.42 1293.41,2260.14C1309.63,2266.32 1323.07,2279.43 1329.04,2297.17C1330.22,2300.66 1331.06,2304.19 1331.58,2307.71C1331.81,2308.27 1332.04,2308.85 1332.25,2309.47C1332.96,2311.52 1333.64,2313.87 1334.07,2316.51C1334.55,2319.14 1334.79,2322.07 1334.78,2325.23C1334.79,2328.4 1334.47,2331.79 1333.78,2335.35C1333.1,2338.9 1332.04,2342.62 1330.51,2346.37C1327.48,2353.86 1322.53,2361.54 1315.52,2368.11C1312.02,2371.39 1308.02,2374.39 1303.6,2376.93C1301.06,2378.39 1298.38,2379.68 1295.59,2380.8C1291.64,2383.22 1287.33,2385.21 1282.89,2386.59C1281.04,2387.17 1279.17,2387.64 1277.3,2388.01C1260.35,2391.76 1241.91,2388.19 1227.17,2376.67C1224.26,2374.39 1221.62,2371.91 1219.26,2369.25Z" style="fill:white;fill-rule:nonzero;"/>
                <path id="シェイプ-1544" serif:id="シェイプ 1544" d="M1271.23,2394.77C1258.81,2394.77 1247.02,2392.14 1237.14,2387.17C1229.41,2383.29 1222.46,2377.68 1217.03,2370.94C1211.63,2364.26 1207.85,2356.62 1206.08,2348.83C1205.82,2348.74 1205.64,2348.48 1205.64,2348.19L1205.64,2346.57C1205.64,2346.22 1205.9,2345.93 1206.26,2345.89C1206.61,2345.86 1206.93,2346.1 1206.99,2346.45C1209.91,2362.75 1221.7,2377.88 1237.75,2385.95C1252.1,2393.17 1270.11,2395.24 1288.45,2391.77C1298.96,2389.79 1312.87,2385 1319.45,2373.49C1324.1,2365.35 1324.14,2355.5 1324.19,2345.97C1324.23,2337.08 1324.27,2327.88 1327.99,2319.84C1323.18,2316.21 1320.12,2309.01 1319.79,2300.54C1319.69,2298.04 1319.75,2295.48 1319.81,2293.01L1319.81,2292.98C1319.95,2287.2 1320.1,2281.22 1318.17,2275.78C1315.3,2267.72 1307.78,2261.14 1298.06,2258.16C1290.44,2255.84 1281.86,2255.52 1270.23,2257.12C1269.86,2257.17 1269.51,2256.9 1269.46,2256.54C1269.41,2256.17 1269.67,2255.82 1270.05,2255.77C1281.88,2254.14 1290.64,2254.48 1298.46,2256.86C1308.59,2259.96 1316.44,2266.86 1319.45,2275.33C1321.47,2281 1321.32,2287.11 1321.17,2293.03C1321.11,2295.49 1321.05,2298.03 1321.15,2300.49C1321.46,2308.42 1324.24,2315.16 1328.6,2318.6C1330.14,2315.63 1331.92,2313.79 1334.05,2312.96C1335.55,2312.38 1337.39,2312.45 1338.86,2313.16C1340.06,2313.74 1340.92,2314.69 1341.27,2315.84C1341.77,2317.42 1341.33,2318.96 1340.06,2320.18C1338.07,2322.09 1334.4,2322.82 1331.7,2321.85C1330.81,2321.53 1329.94,2321.12 1329.13,2320.62C1325.63,2328.35 1325.59,2337.31 1325.55,2345.98C1325.51,2355.68 1325.46,2365.71 1320.63,2374.16C1313.79,2386.13 1299.5,2391.07 1288.71,2393.11C1282.86,2394.21 1276.98,2394.77 1271.23,2394.77ZM1336.2,2313.93C1335.62,2313.93 1335.05,2314.03 1334.54,2314.23C1332.72,2314.94 1331.16,2316.6 1329.77,2319.3L1329.72,2319.39C1330.49,2319.87 1331.31,2320.27 1332.16,2320.57C1334.38,2321.37 1337.5,2320.75 1339.12,2319.2C1339.74,2318.6 1340.4,2317.6 1339.97,2316.24C1339.66,2315.24 1338.87,2314.68 1338.27,2314.38C1337.65,2314.09 1336.93,2313.93 1336.2,2313.93Z" style="fill:rgb(79,79,79);"/>
                <g id="いつでも-カンタン-入会！" serif:id="いつでも カンタン 入会！" transform="matrix(1,0,0,1,1266.09,2301.78)">
                    <text x="-35.46px" y="0px" style="font-family:'MalgunGothic', 'Malgun Gothic', sans-serif;font-size:18px;fill:rgb(79,79,79);">い<tspan x="-17.82px -0.18px 17.46px " y="0px 0px 0px ">つでも</tspan></text>
                    <text x="-35.46px" y="28.8px" style="font-family:'MalgunGothic', 'Malgun Gothic', sans-serif;font-size:18px;fill:rgb(79,79,79);">カ<tspan x="-17.82px -0.18px 17.46px " y="28.8px 28.8px 28.8px ">ンタン</tspan></text>
                    <text x="-26.64px" y="57.6px" style="font-family:'MalgunGothic', 'Malgun Gothic', sans-serif;font-size:18px;fill:rgb(79,79,79);">入</text>
                    <text x="-9px" y="57.6px" style="font-family:'MS-UIGothic', 'MS UI Gothic', sans-serif;font-size:18px;fill:rgb(79,79,79);">会</text>
                    <g transform="matrix(18,0,0,18,26.64,57.6)">
                    </g>
                    <text x="8.64px" y="57.6px" style="font-family:'MalgunGothic', 'Malgun Gothic', sans-serif;font-size:18px;fill:rgb(79,79,79);">！</text>
                </g>
            </g>
        </g>
    </g>
</svg>
