<?xml version="1.0" encoding="UTF-8" standalone="no"?>
<!DOCTYPE svg PUBLIC "-//W3C//DTD SVG 1.1//EN" "http://www.w3.org/Graphics/SVG/1.1/DTD/svg11.dtd">
<svg width="91px" height="91px" version="1.1" xmlns="http://www.w3.org/2000/svg" xmlns:xlink="http://www.w3.org/1999/xlink" xml:space="preserve" xmlns:serif="http://www.serif.com/" style="fill-rule:evenodd;clip-rule:evenodd;stroke-linejoin:round;stroke-miterlimit:2;">
    <g transform="matrix(1,0,0,1,-240,-1244)">
        <g id="icon">
            <rect id="長方形-33-のコピー" serif:id="長方形 33 のコピー" x="240" y="1244" width="90.003" height="90.003" style="fill:rgb(129,215,207);fill-opacity:0.95;"/>
            <path id="シェイプ-548" serif:id="シェイプ 548" d="M301.917,1311.4C301.51,1311.2 301.175,1310.85 301.098,1310.42C300.559,1309.04 300.145,1307.63 299.865,1306.18C299.387,1303.71 299.366,1301.25 299.366,1298.75L299.366,1290.31C299.366,1285.19 299.294,1280.06 299.366,1274.94C299.385,1273.55 300.078,1272.1 301.588,1271.85C303.011,1271.61 304.863,1271.7 305.688,1273.05C306.263,1273.98 306.266,1275.36 306.215,1276.61C306.721,1276.6 307.232,1276.62 307.691,1276.77C308.705,1277.12 309.408,1278.12 309.37,1279.19C309.31,1280.91 308.669,1282.97 309.348,1284.63C309.761,1285.64 308.121,1286.08 307.714,1285.08C307.091,1283.56 307.424,1281.5 307.592,1279.91C307.652,1279.35 307.859,1278.62 307.131,1278.36C306.849,1278.26 306.505,1278.26 306.162,1278.28L306.162,1296.48C306.162,1297.99 306.17,1299.5 306.162,1301.01C306.148,1303.79 305.751,1306.59 304.865,1309.23C304.594,1310.04 304.337,1310.99 303.611,1311.41L303.611,1312.87C303.611,1313.96 301.917,1313.96 301.917,1312.87L301.917,1311.4ZM304.468,1276.63L304.468,1276.3C304.468,1275.81 304.486,1275.32 304.468,1274.84C304.445,1274.23 304.256,1273.64 303.594,1273.51C303.145,1273.42 302.479,1273.45 302.026,1273.51C300.91,1273.64 300.965,1275.43 301.029,1276.63L304.468,1276.63ZM301.06,1278.32L301.06,1294.04C301.06,1299.37 300.728,1304.72 302.667,1309.8C302.707,1309.87 302.737,1309.94 302.755,1310.03L302.767,1310.06L302.787,1310.06C302.849,1309.56 303.167,1308.99 303.333,1308.47C303.568,1307.73 303.766,1306.98 303.929,1306.23C304.272,1304.63 304.444,1303 304.465,1301.37C304.472,1300.88 304.468,1300.39 304.468,1299.91L304.468,1278.32L301.06,1278.32ZM278.075,1281.18C276.983,1281.18 276.985,1279.49 278.075,1279.49L287.538,1279.49C288.63,1279.49 288.629,1281.18 287.538,1281.18L278.075,1281.18ZM270.93,1281.21L274.027,1277.66C274.746,1276.84 275.939,1278.04 275.225,1278.86L271.611,1283C271.293,1283.36 270.739,1283.29 270.412,1283L268.341,1281.19C267.517,1280.48 268.72,1279.28 269.539,1280L270.93,1281.21ZM278.075,1291.56C276.983,1291.56 276.985,1289.86 278.075,1289.86L287.538,1289.86C288.63,1289.86 288.629,1291.56 287.538,1291.56L278.075,1291.56ZM270.93,1291.59L274.027,1288.04C274.746,1287.22 275.939,1288.42 275.225,1289.24L271.611,1293.38C271.293,1293.74 270.739,1293.66 270.412,1293.38L268.341,1291.57C267.517,1290.86 268.72,1289.66 269.539,1290.38L270.93,1291.59ZM278.075,1301.94C276.983,1301.94 276.985,1300.24 278.075,1300.24L287.538,1300.24C288.63,1300.24 288.629,1301.94 287.538,1301.94L278.075,1301.94ZM270.93,1301.97L274.027,1298.42C274.746,1297.6 275.939,1298.8 275.225,1299.62L271.611,1303.76C271.293,1304.12 270.739,1304.04 270.412,1303.76L268.341,1301.95C267.517,1301.24 268.72,1300.04 269.539,1300.76L270.93,1301.97ZM268.053,1267.71C269.145,1267.71 269.143,1269.4 268.053,1269.4L262.923,1269.4C262.487,1269.4 262.024,1269.35 261.658,1269.64C261.217,1270 261.252,1270.5 261.252,1270.99L261.252,1308.01C261.252,1308.96 261.159,1309.96 261.252,1310.91C261.354,1311.95 262.154,1312.02 262.966,1312.02L293.432,1312.02C294.261,1312.02 295.117,1312 295.226,1310.92C295.253,1310.66 295.226,1310.38 295.226,1310.12L295.226,1272.82C295.226,1272.06 295.514,1270.46 294.983,1269.81C294.373,1269.05 292.472,1269.4 291.646,1269.4L288.426,1269.4C287.333,1269.4 287.335,1267.71 288.426,1267.71L291.738,1267.71C292.853,1267.71 294.328,1267.49 295.363,1268C296.411,1268.53 296.902,1269.55 296.921,1270.68C296.944,1272.04 296.921,1273.39 296.921,1274.75L296.921,1308.32C296.921,1309.33 297.072,1310.5 296.853,1311.51C296.266,1314.21 293.155,1313.71 291.095,1313.71L277.774,1313.71C272.728,1313.71 267.679,1313.76 262.633,1313.71C261.273,1313.7 260.016,1313.03 259.647,1311.63C259.537,1311.2 259.558,1310.77 259.558,1310.34L259.558,1272.17C259.558,1270.62 259.397,1268.95 261.01,1268.05C262.03,1267.48 263.53,1267.71 264.649,1267.71L268.053,1267.71ZM264.032,1272.18L264.032,1309.24L292.447,1309.24L292.447,1272.18L287.326,1272.18C286.234,1272.18 286.236,1270.48 287.326,1270.48L293.294,1270.48C293.753,1270.48 294.141,1270.87 294.141,1271.33L294.141,1310.09C294.141,1310.55 293.752,1310.94 293.294,1310.94L263.184,1310.94C262.725,1310.94 262.337,1310.55 262.337,1310.09L262.337,1271.33C262.337,1270.87 262.726,1270.48 263.184,1270.48L269.154,1270.48C270.246,1270.48 270.244,1272.18 269.154,1272.18L264.032,1272.18ZM282.689,1271.86L282.595,1271.86L274.618,1271.86C273.32,1271.86 272.107,1271.7 271.066,1270.83C269.664,1269.64 268.613,1266.74 270.605,1265.58C271.317,1265.16 272.249,1265.28 273.041,1265.28L277.024,1265.28C279.534,1265.28 282.053,1265.22 284.563,1265.28C286.185,1265.32 287.148,1266.52 286.916,1268.12C286.605,1270.27 284.796,1271.74 282.689,1271.86ZM282.595,1270.17C283.661,1270.13 284.633,1269.55 285.063,1268.55C285.321,1267.95 285.477,1267.1 284.67,1266.97C283.966,1266.86 283.143,1266.97 282.431,1266.97L272.411,1266.97C272.216,1266.97 271.971,1266.93 271.777,1266.97C271.084,1267.11 271.152,1267.72 271.323,1268.28C272.061,1270.7 275.097,1270.17 277.04,1270.17L282.595,1270.17Z" style="fill:white;"/>
        </g>
    </g>
</svg>
