<?xml version="1.0" encoding="UTF-8" standalone="no"?>
<!DOCTYPE svg PUBLIC "-//W3C//DTD SVG 1.1//EN" "http://www.w3.org/Graphics/SVG/1.1/DTD/svg11.dtd">
<svg width="91px" height="91px" version="1.1" xmlns="http://www.w3.org/2000/svg" xmlns:xlink="http://www.w3.org/1999/xlink" xml:space="preserve" xmlns:serif="http://www.serif.com/" style="fill-rule:evenodd;clip-rule:evenodd;stroke-linejoin:round;stroke-miterlimit:2;">
    <g transform="matrix(1,0,0,1,-980,-4848)">
        <g id="icon">
            <rect id="長方形-33-のコピー" serif:id="長方形 33 のコピー" x="980" y="4848" width="90.003" height="90.003" style="fill:rgb(129,215,207);fill-opacity:0.95;"/>
            <path id="シェイプ-1365" serif:id="シェイプ 1365" d="M1024.9,4873.25L1024.96,4873.25C1027.44,4873.27 1029.76,4874.22 1031.5,4875.94C1033.24,4877.66 1034.19,4879.94 1034.18,4882.36C1034.15,4887.32 1029.99,4891.36 1024.91,4891.36L1024.85,4891.36C1019.76,4891.34 1015.62,4887.28 1015.64,4882.25C1015.67,4877.29 1019.83,4873.25 1024.9,4873.25M1024.89,4889.09C1024.89,4889.09 1024.94,4889.09 1024.94,4889.09C1028.77,4889.06 1031.87,4886 1031.84,4882.26C1031.82,4878.54 1028.7,4875.52 1024.85,4875.52L1024.85,4875.52C1021.04,4875.54 1017.95,4878.58 1017.95,4882.3C1017.95,4882.3 1017.95,4882.35 1017.95,4882.35C1017.98,4886.07 1021.09,4889.09 1024.89,4889.09M1027.11,4892.75C1035.48,4892.78 1042.27,4899.46 1042.26,4907.64L1042.26,4912.13C1042.26,4912.43 1042.14,4912.72 1041.92,4912.93C1041.7,4913.14 1041.41,4913.26 1041.11,4913.26L1008.6,4913.26C1008.29,4913.26 1008,4913.14 1007.78,4912.93C1007.57,4912.71 1007.45,4912.43 1007.45,4912.13L1007.45,4907.64C1007.44,4899.47 1014.23,4892.79 1022.59,4892.75L1027.11,4892.75M1010.01,4910.99L1039.7,4910.99C1039.84,4910.99 1039.96,4910.88 1039.96,4910.74L1039.96,4907.64C1039.96,4900.71 1034.2,4895.05 1027.11,4895.02L1022.59,4895.02C1015.5,4895.05 1009.74,4900.71 1009.75,4907.64L1009.75,4910.74C1009.75,4910.88 1009.87,4910.99 1010.01,4910.99" style="fill:white;fill-rule:nonzero;"/>
        </g>
    </g>
</svg>
