<?xml version="1.0" encoding="UTF-8" standalone="no"?>
<!DOCTYPE svg PUBLIC "-//W3C//DTD SVG 1.1//EN" "http://www.w3.org/Graphics/SVG/1.1/DTD/svg11.dtd">
<svg width="91px" height="91px" version="1.1" xmlns="http://www.w3.org/2000/svg" xmlns:xlink="http://www.w3.org/1999/xlink" xml:space="preserve" xmlns:serif="http://www.serif.com/" style="fill-rule:evenodd;clip-rule:evenodd;stroke-linejoin:round;stroke-miterlimit:2;">
    <g transform="matrix(1,0,0,1,-240,-1032)">
        <g id="icon">
            <rect id="長方形-33-のコピー" serif:id="長方形 33 のコピー" x="240" y="1032" width="90.003" height="90.003" style="fill:rgb(129,215,207);fill-opacity:0.95;"/>
            <path id="シェイプ-548" serif:id="シェイプ 548" d="M304.718,1079.2L304.045,1080.8L297.542,1096.24C297.408,1096.55 297.176,1096.8 296.802,1096.8L260.936,1096.8C259.947,1096.8 259.948,1095.27 260.936,1095.27L284.865,1095.27C284.385,1095.19 283.93,1095 283.581,1094.66C282.525,1093.63 282.541,1091.5 282.345,1090.14C282.218,1089.25 282.136,1088.36 282.039,1087.47C281.959,1086.74 281.95,1085.96 281.374,1085.44C280.767,1084.89 280.042,1084.43 279.386,1083.94C279.083,1083.71 278.78,1083.49 278.476,1083.26C278.459,1083.55 278.453,1083.84 278.416,1084.08C278.313,1084.76 278.196,1085.43 278.05,1086.09C277.802,1087.22 277.552,1088.66 276.705,1089.52C275.825,1090.42 274.38,1090.38 273.216,1090.55C271.74,1090.77 270.261,1090.98 268.785,1091.21C267.565,1091.4 266.441,1091.62 265.512,1090.61C264.76,1089.79 264.449,1088.5 265.094,1087.54C265.78,1086.51 267.193,1086.24 268.32,1086.07C269.057,1085.96 269.793,1085.86 270.525,1085.72C271.12,1085.6 271.875,1085.56 272.479,1085.37C272.613,1084.67 272.581,1083.88 272.634,1083.2C272.702,1082.33 272.768,1081.47 272.836,1080.61C272.954,1079.12 272.907,1077.57 273.606,1076.21C274.376,1074.71 275.296,1073.27 276.122,1071.8L277.42,1069.49L278.005,1068.46C278.028,1068.42 278.077,1068.31 278.134,1068.2C277.846,1068.17 277.558,1068.13 277.27,1068.09C276.742,1068.03 276.16,1067.87 275.612,1067.85C275.186,1068.41 274.858,1069.12 274.496,1069.71C274.056,1070.41 273.63,1071.13 273.193,1071.84C272.623,1072.76 272.076,1074.19 270.785,1074.17C269.775,1074.15 268.538,1073.42 268.256,1072.41C267.937,1071.27 268.718,1070.24 269.28,1069.33C270.56,1067.24 271.413,1064.43 273.793,1063.34C276.233,1062.21 279.073,1062.94 281.621,1063.25C284.011,1063.55 286.118,1064.42 287.433,1066.52L287.48,1066.6L287.521,1066.67C288.193,1067.92 288.555,1069.27 288.9,1070.64C288.987,1070.98 289.073,1071.33 289.167,1071.67C289.192,1071.76 289.416,1072.42 289.297,1072.35C289.603,1072.53 290.444,1072.24 290.793,1072.21C292.739,1072.01 296.701,1071.93 296.271,1074.95C296.062,1076.42 294.863,1076.78 293.558,1076.96C292.047,1077.17 290.409,1077.42 288.884,1077.39C287.603,1077.37 286.45,1076.92 285.568,1075.98C284.989,1075.36 284.637,1074.63 284.36,1073.87L283.415,1075.38C283.295,1075.58 282.064,1077.42 281.688,1078.09L282.062,1078.42L282.557,1078.87C282.972,1079.24 283.39,1079.6 283.809,1079.97C284.506,1080.57 285.253,1081.15 285.897,1081.81C287.078,1083.03 287.32,1084.39 287.403,1086.04C287.501,1087.98 287.677,1089.91 287.894,1091.84C288.046,1093.2 288.032,1094.4 286.632,1095.02C286.37,1095.14 286.082,1095.22 285.785,1095.27L296.299,1095.27L296.973,1093.67L303.067,1079.2L301.592,1079.2C299.719,1079.2 296.772,1079.49 296.772,1076.75C296.772,1075.34 297.923,1074.35 299.271,1074.29C299.966,1074.27 300.669,1074.29 301.364,1074.29C303.421,1074.29 305.481,1074.26 307.538,1074.29C308.709,1074.31 309.79,1074.9 310.119,1076.1C310.544,1077.64 309.41,1078.99 307.918,1079.18C307.863,1079.19 307.806,1079.2 307.747,1079.2C307.706,1079.2 307.665,1079.2 307.626,1079.2L304.718,1079.2ZM286.155,1067.37C284.473,1064.61 280.979,1064.7 278.12,1064.36C276.639,1064.18 275.006,1064.17 273.758,1065.12C272.592,1066 271.989,1067.66 271.287,1068.9C270.959,1069.48 270.627,1070.06 270.27,1070.62C269.981,1071.08 269.49,1071.71 269.887,1072.22C270.159,1072.57 270.752,1072.69 271.038,1072.42C271.185,1072.28 271.295,1071.99 271.401,1071.82C271.77,1071.22 272.14,1070.62 272.506,1070.02C272.89,1069.38 273.283,1068.75 273.676,1068.13C273.983,1067.64 274.255,1066.99 274.674,1066.59C275.126,1066.15 275.764,1066.36 276.32,1066.44C277.006,1066.53 277.692,1066.63 278.38,1066.7C279.083,1066.77 280.059,1066.8 279.997,1067.77C279.961,1068.33 279.525,1068.88 279.259,1069.35C278.924,1069.94 278.591,1070.54 278.258,1071.13L275.988,1075.17C275.645,1075.78 275.251,1076.36 274.931,1076.98C274.612,1077.6 274.534,1078.29 274.483,1078.97C274.374,1080.43 274.272,1081.9 274.156,1083.36C274.096,1084.11 274.041,1084.87 273.959,1085.62C273.907,1086.09 273.814,1086.46 273.353,1086.66C272.689,1086.96 271.806,1087.02 271.093,1087.16C270.412,1087.3 269.729,1087.4 269.041,1087.5C268.34,1087.6 267.554,1087.68 266.907,1087.99C266.154,1088.36 266.117,1089.17 266.766,1089.7C267.299,1090.13 268.388,1089.73 269.004,1089.64L271.054,1089.33L273.447,1088.98C274.026,1088.89 274.776,1088.9 275.311,1088.65C275.903,1088.38 276.057,1087.62 276.223,1087.05C276.414,1086.4 276.567,1085.74 276.697,1085.07C276.917,1083.94 276.86,1082.63 277.313,1081.58C277.436,1081.29 277.896,1081.12 278.179,1081.22C278.873,1081.48 279.504,1082.13 280.089,1082.57C280.767,1083.07 281.45,1083.57 282.122,1084.09C283.308,1084.99 283.43,1086.18 283.586,1087.58C283.768,1089.22 283.909,1090.89 284.262,1092.51C284.4,1093.13 284.512,1093.71 285.232,1093.77C285.595,1093.8 286.142,1093.69 286.373,1093.38C286.746,1092.87 286.316,1091.47 286.254,1090.88C286.163,1090.02 286.081,1089.16 286.013,1088.3C285.889,1086.73 286.181,1084.58 285.154,1083.28C284.157,1082.01 282.672,1081.02 281.472,1079.95C280.98,1079.51 280.116,1078.99 280.063,1078.25C280.017,1077.61 280.636,1076.94 280.956,1076.43L283.922,1071.67C284.276,1071.1 285.126,1071.22 285.325,1071.85C285.681,1072.99 285.924,1074.22 286.828,1075.08C287.748,1075.94 288.901,1075.91 290.085,1075.79C291.294,1075.67 292.553,1075.62 293.746,1075.39C293.94,1075.35 294.425,1075.3 294.581,1075.15C294.809,1074.95 294.817,1074.46 294.666,1074.22C294.454,1073.88 293.953,1073.77 293.587,1073.71C292.59,1073.54 291.49,1073.64 290.497,1073.77C289.72,1073.88 288.797,1074.09 288.222,1073.39C287.642,1072.7 287.537,1071.5 287.32,1070.64C287.032,1069.52 286.722,1068.4 286.155,1067.37ZM307.747,1077.67C308.521,1077.62 309.005,1076.68 308.401,1076.09C308.151,1075.85 307.857,1075.83 307.538,1075.82C306.822,1075.8 306.102,1075.82 305.386,1075.82L300.117,1075.82C299.716,1075.82 299.126,1075.73 298.765,1075.95C297.801,1076.53 298.489,1077.64 299.386,1077.67C302.166,1077.77 304.965,1077.67 307.747,1077.67ZM286.66,1056.61C286.704,1056.59 286.751,1056.58 286.8,1056.56C286.85,1056.55 286.899,1056.54 286.947,1056.53C289.159,1056.12 291.417,1057.36 291.995,1059.61C292.568,1061.85 291.19,1064.22 288.94,1064.8C286.701,1065.37 284.321,1063.99 283.746,1061.75C283.17,1059.5 284.511,1057.31 286.66,1056.61ZM287.208,1058.04C285.738,1058.47 284.807,1059.95 285.259,1061.45C285.672,1062.83 287.132,1063.67 288.532,1063.32C289.977,1062.96 290.872,1061.46 290.515,1060.02C290.151,1058.55 288.655,1057.72 287.208,1058.04Z" style="fill:white;"/>
        </g>
    </g>
</svg>
