<?xml version="1.0" encoding="UTF-8" standalone="no"?>
<!DOCTYPE svg PUBLIC "-//W3C//DTD SVG 1.1//EN" "http://www.w3.org/Graphics/SVG/1.1/DTD/svg11.dtd">
<svg width="91px" height="91px" version="1.1" xmlns="http://www.w3.org/2000/svg" xmlns:xlink="http://www.w3.org/1999/xlink" xml:space="preserve" xmlns:serif="http://www.serif.com/" style="fill-rule:evenodd;clip-rule:evenodd;stroke-linejoin:round;stroke-miterlimit:2;">
    <g transform="matrix(1,0,0,1,-240,-3357)">
        <g id="icon">
            <rect id="長方形-33-のコピー" serif:id="長方形 33 のコピー" x="240" y="3357" width="90.003" height="90.003" style="fill:rgb(151,165,181);fill-opacity:0.95;"/>
            <path id="シェイプ-563" serif:id="シェイプ 563" d="M299.466,3404.27C300.882,3405.68 301.665,3407.57 301.665,3409.57L301.665,3420.98C301.665,3422.14 301.324,3423.26 300.682,3424.22L300.141,3425.04C300.049,3425.17 299.999,3425.34 299.999,3425.51L300.007,3426.66C300.007,3426.88 299.924,3427.1 299.766,3427.26C299.607,3427.41 299.399,3427.5 299.174,3427.5L286.666,3427.5C286.208,3427.5 285.833,3427.12 285.833,3426.66L285.833,3424.41L285.5,3423.91C284.225,3422.01 283.725,3419.72 284.058,3417.5L272.501,3417.5C270.201,3417.5 268.335,3415.63 268.335,3413.33L268.335,3381.67C268.335,3379.37 270.201,3377.5 272.501,3377.5L290.833,3377.5C293.133,3377.5 294.999,3379.37 294.999,3381.67L294.999,3399.8L299.466,3404.27ZM270.001,3381.67L270.001,3382.5L293.333,3382.5L293.333,3381.67C293.333,3380.29 292.208,3379.17 290.833,3379.17L272.501,3379.17C271.126,3379.17 270.001,3380.29 270.001,3381.67ZM280.834,3381.67C280.373,3381.67 280,3381.3 280,3380.83C280,3380.38 280.373,3380 280.834,3380L282.5,3380C282.961,3380 283.333,3380.38 283.333,3380.83C283.333,3381.3 282.961,3381.67 282.5,3381.67L280.834,3381.67ZM270.001,3384.17L270.001,3410.83L288.2,3410.83L286.408,3409.05C285.117,3407.74 285.117,3405.63 286.408,3404.33C287.7,3403.06 289.85,3403.07 291.125,3404.32L293.333,3406.53L293.333,3384.17L270.001,3384.17ZM281.667,3387.5C285.802,3387.5 289.166,3390.87 289.166,3395C289.166,3399.13 285.802,3402.5 281.667,3402.5C277.531,3402.5 274.168,3399.13 274.168,3395C274.168,3390.87 277.531,3387.5 281.667,3387.5ZM281.667,3400.83C284.882,3400.83 287.5,3398.22 287.5,3395C287.5,3391.78 284.882,3389.17 281.667,3389.17C278.451,3389.17 275.834,3391.78 275.834,3395C275.834,3398.22 278.451,3400.83 281.667,3400.83ZM284.411,3391.91C284.737,3391.59 285.263,3391.59 285.589,3391.91C285.915,3392.24 285.915,3392.76 285.589,3393.09L280.59,3398.09C280.427,3398.25 280.214,3398.33 280,3398.33C279.787,3398.33 279.574,3398.25 279.411,3398.09L276.912,3395.59C276.586,3395.26 276.586,3394.74 276.912,3394.41C277.237,3394.09 277.764,3394.09 278.09,3394.41L280,3396.32L284.411,3391.91ZM272.501,3415.83L289.316,3415.83C289.383,3414.81 289.691,3413.8 290.275,3412.91L289.866,3412.5L270.001,3412.5L270.001,3413.33C270.001,3414.71 271.126,3415.83 272.501,3415.83ZM282.5,3413.33C282.961,3413.33 283.333,3413.7 283.333,3414.16C283.333,3414.62 282.961,3415 282.5,3415L280.834,3415C280.373,3415 280,3414.62 280,3414.16C280,3413.7 280.373,3413.33 280.834,3413.33L282.5,3413.33ZM299.999,3420.98L299.999,3409.57C299.999,3408.01 299.391,3406.55 298.291,3405.44L294.999,3402.15L294.999,3408.2L297.024,3410.22C297.349,3410.54 297.349,3411.07 297.024,3411.4C296.699,3411.72 296.166,3411.72 295.841,3411.4L289.95,3405.51C289.325,3404.89 288.233,3404.87 287.583,3405.51C286.941,3406.16 286.941,3407.22 287.592,3407.87L291.966,3412.24C292.274,3412.55 292.291,3413.04 292.008,3413.37C290.641,3414.97 290.6,3417.34 291.924,3419L292.316,3419.47C292.599,3419.83 292.549,3420.36 292.191,3420.65C292.033,3420.77 291.849,3420.83 291.666,3420.83C291.424,3420.83 291.183,3420.72 291.016,3420.52L290.625,3420.04C290.016,3419.27 289.625,3418.41 289.433,3417.5L285.758,3417.5C285.4,3419.4 285.8,3421.36 286.883,3422.98L287.358,3423.71C287.45,3423.84 287.5,3424 287.5,3424.16L287.5,3425.83L298.332,3425.83L298.332,3425.51C298.332,3425.01 298.474,3424.53 298.757,3424.11L299.299,3423.3C299.757,3422.61 299.999,3421.81 299.999,3420.98Z" style="fill:white;"/>
        </g>
    </g>
</svg>
