<?xml version="1.0" encoding="UTF-8" standalone="no"?>
<!DOCTYPE svg PUBLIC "-//W3C//DTD SVG 1.1//EN" "http://www.w3.org/Graphics/SVG/1.1/DTD/svg11.dtd">
<svg width="91px" height="91px" version="1.1" xmlns="http://www.w3.org/2000/svg" xmlns:xlink="http://www.w3.org/1999/xlink" xml:space="preserve" xmlns:serif="http://www.serif.com/" style="fill-rule:evenodd;clip-rule:evenodd;stroke-linejoin:round;stroke-miterlimit:2;">
    <g transform="matrix(1,0,0,1,-240,-789)">
        <g id="icon">
            <rect id="長方形-33-のコピー" serif:id="長方形 33 のコピー" x="240" y="789" width="90.003" height="90.003" style="fill:rgb(129,215,207);fill-opacity:0.95;"/>
            <path id="シェイプ-549" serif:id="シェイプ 549" d="M307.555,818.79C308.906,818.792 310,819.896 310.001,821.257L310.001,831.324C310,832.685 308.906,833.788 307.555,833.79L299.38,833.79L298.946,834.278L298.946,853.424C298.942,855.453 297.309,857.094 295.297,857.094L274.281,857.094C272.271,857.092 270.643,855.451 270.64,853.424L270.64,847.012C270.642,846.945 262.465,847.012 262.445,846.989C261.094,846.988 260,845.884 259.999,844.524L259.999,834.455C260,833.094 261.094,831.991 262.445,831.99L270.64,831.99L270.64,813.455C270.643,811.43 272.271,809.788 274.281,809.785L295.297,809.785C297.309,809.785 298.942,811.427 298.946,813.455L298.946,818.79L307.555,818.79ZM308.215,831.324L308.215,821.257C308.215,820.889 307.92,820.591 307.555,820.59L292.303,820.59C291.938,820.591 291.643,820.889 291.643,821.257L291.643,831.324C291.643,831.691 291.938,831.989 292.303,831.99L294.206,831.99C294.699,831.99 295.099,832.393 295.098,832.889L295.098,835.909L297.427,833.29C297.701,833.035 298.363,832.062 298.77,832.032C298.84,832.012 307.555,831.99 307.555,831.99C307.92,831.989 308.215,831.691 308.215,831.324ZM305.158,827.338C305.638,827.348 306.024,827.738 306.034,828.221C306.043,828.718 305.651,829.129 305.158,829.139L294.699,829.139C294.206,829.139 293.806,828.736 293.806,828.239C293.806,827.742 294.206,827.338 294.699,827.338L305.158,827.338ZM296.822,825.242C296.34,825.234 295.951,824.841 295.943,824.355C295.935,823.858 296.329,823.449 296.822,823.441L303.035,823.441C303.517,823.448 303.906,823.841 303.914,824.327C303.922,824.824 303.528,825.234 303.035,825.242L296.822,825.242ZM261.785,844.524C261.785,844.891 262.08,845.188 262.445,845.189C262.473,845.186 271.017,845.19 271.043,845.194C271.52,845.193 271.879,845.714 272.168,846.033L274.902,849.108L274.902,846.088C274.902,845.592 275.302,845.189 275.795,845.189L277.697,845.189C278.061,845.188 278.357,844.891 278.357,844.524L278.357,834.455C278.357,834.088 278.061,833.79 277.697,833.79L262.445,833.79C262.08,833.79 261.785,834.088 261.785,834.455L261.785,844.524ZM276.194,841.439C276.194,841.935 275.794,842.338 275.301,842.338L264.842,842.338C264.349,842.338 263.949,841.935 263.949,841.438C263.949,840.941 264.349,840.537 264.842,840.537L275.302,840.537C275.794,840.538 276.194,840.942 276.194,841.439ZM266.965,838.44C266.485,838.431 266.099,838.041 266.09,837.558C266.08,837.061 266.472,836.65 266.965,836.64L273.178,836.64C273.654,836.652 274.037,837.038 274.048,837.519C274.061,838.015 273.671,838.428 273.178,838.44L266.965,838.44ZM297.16,853.424L297.16,836.287L296.222,837.342C295.91,837.684 295.471,837.881 295.01,837.886C294.084,837.898 293.324,837.15 293.313,836.217L293.313,833.79L292.303,833.79C290.953,833.788 289.858,832.685 289.857,831.324L289.857,821.257C289.858,819.896 290.952,818.792 292.303,818.79L297.16,818.79L297.16,813.455C297.157,812.421 296.323,811.585 295.297,811.586L292.844,811.586L291.944,814.14C291.46,815.506 290.178,816.42 288.739,816.422L280.845,816.422C279.406,816.42 278.123,815.506 277.641,814.14L276.741,811.586L274.281,811.586C273.257,811.587 272.427,812.423 272.426,813.455L272.426,831.99L277.697,831.99C279.047,831.991 280.142,833.094 280.143,834.455L280.143,844.524C280.142,845.884 279.047,846.988 277.697,846.989L276.687,846.989L276.687,849.416C276.688,849.894 276.487,850.349 276.135,850.669C275.45,851.29 274.395,851.233 273.779,850.543L272.426,849.021L272.426,853.424C272.427,854.456 273.257,855.293 274.281,855.294L295.297,855.294C296.323,855.295 297.157,854.459 297.16,853.424ZM286.739,849.392C287.201,849.413 287.571,849.787 287.592,850.253C287.613,850.749 287.231,851.171 286.739,851.192L282.841,851.192C282.348,851.192 281.948,850.79 281.948,850.293C281.948,849.795 282.348,849.392 282.841,849.392L286.739,849.392ZM290.948,811.586L278.636,811.586L279.324,813.537C279.553,814.186 280.162,814.62 280.845,814.621L288.739,814.621C289.422,814.62 290.031,814.187 290.261,813.538L290.948,811.586Z" style="fill:white;"/>
        </g>
    </g>
</svg>
