<?xml version="1.0" encoding="UTF-8" standalone="no"?>
<!DOCTYPE svg PUBLIC "-//W3C//DTD SVG 1.1//EN" "http://www.w3.org/Graphics/SVG/1.1/DTD/svg11.dtd">
<svg width="91px" height="91px" version="1.1" xmlns="http://www.w3.org/2000/svg" xmlns:xlink="http://www.w3.org/1999/xlink" xml:space="preserve" xmlns:serif="http://www.serif.com/" style="fill-rule:evenodd;clip-rule:evenodd;stroke-linejoin:round;stroke-miterlimit:2;">
    <g transform="matrix(1,0,0,1,-240,-2482)">
        <g id="icon">
            <rect id="長方形-33-のコピー" serif:id="長方形 33 のコピー" x="240" y="2482" width="90.003" height="90.003" style="fill:rgb(151,165,181);fill-opacity:0.95;"/>
            <path id="シェイプ-549" serif:id="シェイプ 549" d="M290.32,2552C290.196,2552 290.077,2551.97 289.966,2551.92L280.246,2547.16L269.428,2547.16C268.983,2547.16 268.622,2546.8 268.622,2546.35L268.622,2541.47L262.158,2538.31C261.758,2538.11 261.592,2537.63 261.787,2537.23L268.622,2523.23L268.622,2507.65C268.622,2507.2 268.983,2506.84 269.428,2506.84L276.623,2506.84L278.764,2502.45C278.9,2502.18 279.178,2502 279.489,2502C279.612,2502 279.731,2502.03 279.842,2502.08L289.562,2506.84L300.381,2506.84C300.825,2506.84 301.187,2507.2 301.187,2507.65L301.187,2512.53L307.651,2515.69C307.844,2515.79 307.99,2515.95 308.06,2516.15C308.13,2516.36 308.116,2516.58 308.022,2516.77L304.493,2524L304.541,2524.05C305.689,2525.37 306.321,2527.06 306.321,2528.8C306.321,2531.97 304.289,2534.74 301.264,2535.7L301.187,2535.72L301.187,2546.35C301.187,2546.8 300.825,2547.16 300.381,2547.16L293.186,2547.16L291.045,2551.55C290.95,2551.74 290.786,2551.89 290.582,2551.95C290.498,2551.98 290.41,2552 290.32,2552ZM301.187,2521.88L301.264,2521.9C301.367,2521.93 301.468,2521.97 301.569,2522.01L301.601,2522.02C301.694,2522.05 301.786,2522.09 301.876,2522.13L301.929,2522.15C302.126,2522.23 302.319,2522.33 302.505,2522.43L302.603,2522.48C302.658,2522.51 302.713,2522.54 302.768,2522.58L302.891,2522.65L303.003,2522.72L303.063,2522.76L303.138,2522.81L303.244,2522.88L306.219,2516.79L301.187,2514.33L301.187,2521.88ZM270.234,2545.55L299.575,2545.55L299.575,2536.02L299.458,2536.02L299.379,2536.02C299.286,2536.03 299.193,2536.03 299.099,2536.03L299.041,2536.03C295.686,2536 292.74,2533.6 292.037,2530.32L292.034,2530.3C292.011,2530.19 291.992,2530.09 291.974,2529.98L291.964,2529.93C291.95,2529.83 291.938,2529.74 291.927,2529.64L291.921,2529.6L291.916,2529.55C291.906,2529.46 291.9,2529.37 291.894,2529.28L291.89,2529.23L291.886,2529.18C291.88,2529.05 291.877,2528.93 291.877,2528.8C291.877,2528.68 291.88,2528.55 291.887,2528.42L291.89,2528.38C292.11,2524.58 295.257,2521.59 299.056,2521.57L299.1,2521.57C299.198,2521.57 299.288,2521.57 299.378,2521.58L299.458,2521.58L299.575,2521.58L299.575,2508.45L270.234,2508.45L270.234,2545.55ZM282.586,2518.7C282.141,2518.7 281.78,2518.34 281.78,2517.89C281.78,2517.45 282.141,2517.09 282.586,2517.09L295.203,2517.09C295.647,2517.09 296.009,2517.45 296.009,2517.89C296.009,2518.34 295.647,2518.7 295.203,2518.7L282.586,2518.7ZM273.218,2518.7C272.774,2518.7 272.412,2518.34 272.412,2517.89L272.412,2512.58C272.412,2512.14 272.774,2511.77 273.218,2511.77L278.525,2511.77C278.969,2511.77 279.331,2512.14 279.331,2512.58L279.331,2517.89C279.331,2518.34 278.969,2518.7 278.525,2518.7L273.218,2518.7ZM274.024,2517.09L277.719,2517.09L277.719,2513.39L274.024,2513.39L274.024,2517.09ZM282.586,2515.01C282.141,2515.01 281.78,2514.65 281.78,2514.21C281.78,2513.76 282.141,2513.4 282.586,2513.4L295.203,2513.4C295.647,2513.4 296.009,2513.76 296.009,2514.21C296.009,2514.65 295.647,2515.01 295.203,2515.01L282.586,2515.01ZM273.218,2529.61C272.774,2529.61 272.412,2529.24 272.412,2528.8L272.412,2523.49C272.412,2523.04 272.774,2522.68 273.218,2522.68L278.525,2522.68C278.969,2522.68 279.331,2523.04 279.331,2523.49L279.331,2528.8C279.331,2529.24 278.969,2529.61 278.525,2529.61L273.218,2529.61ZM274.024,2527.99L277.719,2527.99L277.719,2524.29L274.024,2524.29L274.024,2527.99ZM282.586,2525.92C282.141,2525.92 281.78,2525.56 281.78,2525.11C281.78,2524.67 282.141,2524.31 282.586,2524.31L290.01,2524.31C290.455,2524.31 290.816,2524.67 290.816,2525.11C290.816,2525.56 290.455,2525.92 290.01,2525.92L282.586,2525.92ZM282.586,2540.51C282.141,2540.51 281.78,2540.15 281.78,2539.71C281.78,2539.26 282.141,2538.9 282.586,2538.9L295.203,2538.9C295.647,2538.9 296.009,2539.26 296.009,2539.71C296.009,2540.15 295.647,2540.51 295.203,2540.51L282.586,2540.51ZM282.586,2536.83C282.141,2536.83 281.78,2536.47 281.78,2536.02C281.78,2535.58 282.141,2535.21 282.586,2535.21L291.164,2535.21C291.608,2535.21 291.97,2535.58 291.97,2536.02C291.97,2536.47 291.608,2536.83 291.164,2536.83L282.586,2536.83ZM273.218,2540.51C272.774,2540.51 272.412,2540.15 272.412,2539.71L272.412,2534.39C272.412,2533.95 272.774,2533.59 273.218,2533.59L278.525,2533.59C278.969,2533.59 279.331,2533.95 279.331,2534.39L279.331,2539.71C279.331,2540.15 278.969,2540.51 278.525,2540.51L273.218,2540.51ZM274.024,2538.9L277.719,2538.9L277.719,2535.2L274.024,2535.2L274.024,2538.9ZM282.586,2529.61C282.141,2529.61 281.78,2529.24 281.78,2528.8C281.78,2528.36 282.141,2527.99 282.586,2527.99L289.246,2527.99C289.691,2527.99 290.052,2528.36 290.052,2528.8C290.052,2529.24 289.691,2529.61 289.246,2529.61L282.586,2529.61ZM278.418,2506.84L285.408,2506.84L285.457,2506.63L279.858,2503.89L278.418,2506.84ZM299.099,2523.18C296.005,2523.18 293.489,2525.7 293.489,2528.8C293.489,2531.9 296.005,2534.42 299.099,2534.42C299.193,2534.42 299.287,2534.41 299.381,2534.41C299.616,2534.4 299.862,2534.37 300.113,2534.32C302.776,2533.83 304.709,2531.51 304.709,2528.8C304.709,2527.26 304.096,2525.82 302.982,2524.75L302.969,2524.74C302.636,2524.42 302.272,2524.15 301.882,2523.93L301.846,2523.91L301.709,2523.83L301.62,2523.78L301.488,2523.72C301.429,2523.69 301.369,2523.66 301.309,2523.64L301.236,2523.61C301.178,2523.58 301.119,2523.56 301.06,2523.54L301.009,2523.52C300.929,2523.49 300.849,2523.46 300.768,2523.44C300.681,2523.41 300.602,2523.39 300.522,2523.37L300.478,2523.36C300.397,2523.34 300.315,2523.32 300.232,2523.3L300.147,2523.28L300.067,2523.27L299.948,2523.25L299.85,2523.24L299.764,2523.22L299.667,2523.21L299.559,2523.2L299.473,2523.2L299.384,2523.19C299.29,2523.19 299.194,2523.18 299.099,2523.18ZM298.329,2532.24C298.094,2532.24 297.872,2532.14 297.719,2531.97L295.401,2529.28C295.261,2529.12 295.192,2528.91 295.207,2528.7C295.223,2528.48 295.321,2528.28 295.485,2528.14C295.63,2528.02 295.817,2527.95 296.01,2527.95C296.245,2527.95 296.468,2528.05 296.622,2528.23L298.251,2530.11L300.932,2526.15C301.082,2525.93 301.333,2525.79 301.601,2525.79C301.762,2525.79 301.918,2525.84 302.052,2525.93C302.23,2526.05 302.351,2526.23 302.392,2526.45C302.433,2526.66 302.388,2526.87 302.268,2527.05L298.997,2531.89C298.857,2532.1 298.625,2532.23 298.376,2532.24L298.329,2532.24ZM284.352,2547.37L289.95,2550.11L291.391,2547.16L284.401,2547.16L284.352,2547.37ZM263.59,2537.21L268.622,2539.68L268.622,2527.39L268.41,2527.34L263.59,2537.21Z" style="fill:rgb(251,253,253);"/>
        </g>
    </g>
</svg>
