<?xml version="1.0" encoding="UTF-8" standalone="no"?>
<!DOCTYPE svg PUBLIC "-//W3C//DTD SVG 1.1//EN" "http://www.w3.org/Graphics/SVG/1.1/DTD/svg11.dtd">
<svg width="24px" height="20px" version="1.1" xmlns="http://www.w3.org/2000/svg" xmlns:xlink="http://www.w3.org/1999/xlink" xml:space="preserve" xmlns:serif="http://www.serif.com/" style="fill-rule:evenodd;clip-rule:evenodd;stroke-linejoin:round;stroke-miterlimit:2;">
    <g transform="matrix(1,0,0,1,-290.078,-3571)">
        <path id="シェイプ-753" serif:id="シェイプ 753" d="M313.605,3589.62C313.774,3589.9 313.778,3590.25 313.616,3590.54C313.455,3590.82 313.153,3591 312.825,3591L290.988,3591C290.66,3591 290.358,3590.82 290.196,3590.54C290.035,3590.25 290.039,3589.9 290.208,3589.62L301.126,3571.44C301.29,3571.17 301.586,3571 301.906,3571C302.226,3571 302.522,3571.17 302.687,3571.44L313.605,3589.62ZM292.595,3589.18L311.218,3589.18L301.906,3573.68L292.595,3589.18ZM301.906,3584.64C302.409,3584.64 302.816,3585.04 302.816,3585.54L302.816,3586.45C302.816,3586.95 302.409,3587.36 301.906,3587.36C301.404,3587.36 300.996,3586.95 300.996,3586.45L300.996,3585.54C300.996,3585.04 301.404,3584.64 301.906,3584.64ZM300.996,3578.27C300.996,3577.77 301.404,3577.37 301.906,3577.37C302.409,3577.37 302.816,3577.77 302.816,3578.27L302.816,3582.82C302.816,3583.32 302.409,3583.73 301.906,3583.73C301.404,3583.73 300.996,3583.32 300.996,3582.82L300.996,3578.27Z" style="fill:white;"/>
    </g>
</svg>
