<?xml version="1.0" encoding="UTF-8" standalone="no"?>
<!DOCTYPE svg PUBLIC "-//W3C//DTD SVG 1.1//EN" "http://www.w3.org/Graphics/SVG/1.1/DTD/svg11.dtd">
<svg width="91px" height="91px" version="1.1" xmlns="http://www.w3.org/2000/svg" xmlns:xlink="http://www.w3.org/1999/xlink" xml:space="preserve" xmlns:serif="http://www.serif.com/" style="fill-rule:evenodd;clip-rule:evenodd;stroke-linejoin:round;stroke-miterlimit:2;">
    <g transform="matrix(1,0,0,1,-240,-4601)">
        <g id="icon">
            <rect id="長方形-33-のコピー" serif:id="長方形 33 のコピー" x="240" y="4601" width="90.003" height="90.003" style="fill:rgb(129,215,207);fill-opacity:0.95;"/>
            <path id="シェイプ-1093" serif:id="シェイプ 1093" d="M310.403,4665.95C310.862,4665.99 311.23,4666.35 311.281,4666.81C311.331,4667.25 311.048,4667.67 310.616,4667.78C308.426,4668.32 306.12,4668.13 304.051,4667.23C293.188,4675.33 277.127,4667.91 276.197,4654.37C275.166,4643.79 284.622,4634.34 295.174,4635.39C298.502,4635.67 301.683,4636.88 304.346,4638.9C312.093,4644.78 313.623,4655.83 307.762,4663.59C309.687,4665.86 310.396,4665.95 310.403,4665.95ZM304.427,4665.36C305.429,4665.86 306.527,4666.15 307.648,4666.2C307.219,4665.78 306.732,4665.25 306.176,4664.59C305.71,4664.03 305.699,4663.22 306.151,4662.65C308.563,4659.54 309.73,4655.65 309.424,4651.73C308.416,4638.44 291.997,4632.32 282.615,4641.8C273.042,4651.29 279.337,4667.97 292.807,4668.71C296.612,4668.93 300.369,4667.76 303.376,4665.42C303.68,4665.18 304.098,4665.15 304.427,4665.36ZM294.821,4643.27C299.693,4644.28 300.221,4651.26 295.584,4653.02C295.043,4653.2 294.675,4653.71 294.658,4654.28L294.658,4656.28C294.648,4656.77 294.248,4657.17 293.75,4657.18C293.239,4657.19 292.816,4656.79 292.806,4656.28L292.806,4654.28C292.82,4652.94 293.657,4651.75 294.909,4651.29C296.155,4650.8 296.976,4649.6 296.975,4648.26C296.975,4646.46 295.522,4645.01 293.732,4645.01C291.942,4645.01 290.491,4646.47 290.492,4648.26C290.491,4648.77 290.077,4649.19 289.567,4649.19C289.056,4649.19 288.641,4648.77 288.64,4648.26C288.643,4647.92 288.679,4647.58 288.749,4647.25C289.33,4644.47 292.049,4642.69 294.821,4643.27ZM293.75,4659.37C294.262,4659.37 294.676,4659.78 294.676,4660.3C294.676,4660.81 294.262,4661.23 293.75,4661.23C293.255,4661.21 292.856,4660.81 292.845,4660.32C292.834,4659.81 293.239,4659.38 293.75,4659.37ZM273.62,4653.5C274.116,4653.62 274.427,4654.11 274.318,4654.61C274.208,4655.11 273.714,4655.42 273.215,4655.31C270.882,4654.79 268.681,4653.8 266.75,4652.39C264.68,4653.29 262.372,4653.48 260.181,4652.94C259.766,4652.83 259.474,4652.46 259.474,4652.03C259.475,4651.52 259.889,4651.11 260.401,4651.11C260.401,4651.11 261.104,4651.02 263.035,4648.75C260.439,4645.31 259.19,4641.04 259.524,4636.74C261.302,4617.83 287.13,4614.44 293.66,4632.27C293.818,4632.75 293.571,4633.26 293.101,4633.44C292.621,4633.61 292.089,4633.37 291.913,4632.89C291.348,4631.28 290.527,4629.77 289.481,4628.42C284.139,4621.55 274.25,4620.32 267.393,4625.67C260.536,4631.03 259.307,4640.94 264.649,4647.81C265.744,4649.12 263.844,4650.59 263.136,4651.37C264.292,4651.32 265.423,4651.01 266.447,4650.47C266.765,4650.31 267.144,4650.35 267.423,4650.57C269.245,4652 271.362,4653 273.62,4653.5ZM286.324,4633.48C286.323,4633.99 285.909,4634.41 285.398,4634.41L266.881,4634.41C266.37,4634.41 265.956,4633.99 265.956,4633.48C265.956,4632.97 266.37,4632.55 266.881,4632.55L285.398,4632.55C285.909,4632.55 286.324,4632.97 286.324,4633.48ZM266.881,4639.97L277.297,4639.97C277.794,4639.98 278.195,4640.38 278.205,4640.88C278.215,4641.4 277.808,4641.82 277.297,4641.83L266.881,4641.83C266.386,4641.82 265.987,4641.42 265.976,4640.92C265.965,4640.41 266.37,4639.98 266.881,4639.97Z" style="fill:rgb(251,253,253);"/>
        </g>
    </g>
</svg>
