<?xml version="1.0" encoding="UTF-8" standalone="no"?>
<!DOCTYPE svg PUBLIC "-//W3C//DTD SVG 1.1//EN" "http://www.w3.org/Graphics/SVG/1.1/DTD/svg11.dtd">
<svg width="91px" height="91px" version="1.1" xmlns="http://www.w3.org/2000/svg" xmlns:xlink="http://www.w3.org/1999/xlink" xml:space="preserve" xmlns:serif="http://www.serif.com/" style="fill-rule:evenodd;clip-rule:evenodd;stroke-linejoin:round;stroke-miterlimit:2;">
    <g transform="matrix(1,0,0,1,-240,-1629)">
        <g id="icon">
            <rect id="長方形-33-のコピー" serif:id="長方形 33 のコピー" x="240" y="1629" width="90.003" height="90.003" style="fill:rgb(129,215,207);fill-opacity:0.95;"/>
            <path id="シェイプ-549" serif:id="シェイプ 549" d="M302.002,1693.33L300.764,1664.36C300.69,1662.68 299.309,1661.37 297.635,1661.38L294.141,1661.38L294.141,1657.9C294.141,1652.96 290.123,1648.94 285.184,1648.94L284.934,1648.94C279.996,1648.94 275.978,1652.96 275.978,1657.9L275.978,1661.38L272.364,1661.38C270.689,1661.37 269.305,1662.68 269.233,1664.36L267.997,1693.33C267.932,1694.79 268.47,1696.21 269.486,1697.26C270.51,1698.34 271.932,1698.94 273.416,1698.94L296.583,1698.94C298.068,1698.94 299.491,1698.34 300.516,1697.26C301.531,1696.21 302.068,1694.79 302.002,1693.33ZM277.901,1657.9C277.905,1654.02 281.051,1650.87 284.934,1650.86L285.184,1650.86C289.067,1650.87 292.214,1654.01 292.218,1657.9L292.218,1661.38L277.901,1661.38L277.901,1657.9ZM293.179,1667.83C294.047,1667.83 294.75,1668.54 294.751,1669.4C294.751,1670.27 294.047,1670.98 293.179,1670.98C292.31,1670.98 291.607,1670.27 291.607,1669.4C291.607,1668.54 292.31,1667.83 293.179,1667.83ZM276.939,1667.83C277.807,1667.83 278.51,1668.54 278.511,1669.4L278.511,1669.4C278.511,1670.27 277.807,1670.98 276.938,1670.98C276.07,1670.98 275.366,1670.27 275.367,1669.4C275.367,1668.53 276.071,1667.83 276.939,1667.83ZM271.156,1664.44C271.186,1663.8 271.72,1663.3 272.364,1663.3L275.978,1663.3L275.978,1666.04C274.515,1666.46 273.444,1667.81 273.444,1669.4C273.444,1671.34 275.009,1672.9 276.939,1672.9C278.868,1672.9 280.431,1671.33 280.434,1669.4L280.434,1669.4C280.433,1667.81 279.363,1666.46 277.901,1666.04L277.901,1663.3L292.218,1663.3L292.218,1666.04C290.755,1666.46 289.684,1667.81 289.684,1669.4C289.684,1671.33 291.249,1672.9 293.179,1672.9C295.108,1672.9 296.671,1671.33 296.674,1669.4C296.674,1667.81 295.603,1666.46 294.141,1666.04L294.141,1663.3L297.635,1663.3C298.28,1663.3 298.814,1663.8 298.843,1664.44L299.906,1689.35L270.093,1689.35L271.156,1664.44ZM299.125,1695.93C298.462,1696.63 297.543,1697.02 296.583,1697.01L273.416,1697.01C272.456,1697.02 271.537,1696.63 270.875,1695.93C270.223,1695.26 269.878,1694.35 269.92,1693.41L270.011,1691.27L299.988,1691.27L300.079,1693.41C300.121,1694.35 299.776,1695.26 299.125,1695.93Z" style="fill:white;fill-rule:nonzero;"/>
        </g>
    </g>
</svg>
