<?xml version="1.0" encoding="UTF-8" standalone="no"?>
<!DOCTYPE svg PUBLIC "-//W3C//DTD SVG 1.1//EN" "http://www.w3.org/Graphics/SVG/1.1/DTD/svg11.dtd">
<svg width="91px" height="91px" version="1.1" xmlns="http://www.w3.org/2000/svg" xmlns:xlink="http://www.w3.org/1999/xlink" xml:space="preserve" xmlns:serif="http://www.serif.com/" style="fill-rule:evenodd;clip-rule:evenodd;stroke-linejoin:round;stroke-miterlimit:2;">
    <g transform="matrix(1,0,0,1,-240,-4848)">
        <g id="icon">
            <rect id="長方形-33-のコピー" serif:id="長方形 33 のコピー" x="240" y="4848" width="90.003" height="90.003" style="fill:rgb(129,215,207);fill-opacity:0.95;"/>
            <path id="シェイプ-1093" serif:id="シェイプ 1093" d="M305.489,4880.81C305.488,4880.8 305.488,4880.79 305.487,4880.78C305.485,4880.76 305.481,4880.74 305.477,4880.72C305.475,4880.71 305.474,4880.7 305.473,4880.69C305.469,4880.67 305.464,4880.65 305.459,4880.64C305.455,4880.62 305.453,4880.61 305.449,4880.6C305.446,4880.59 305.442,4880.58 305.439,4880.57C305.431,4880.55 305.424,4880.53 305.416,4880.51C305.413,4880.5 305.41,4880.5 305.408,4880.49C305.397,4880.47 305.386,4880.44 305.373,4880.42C305.37,4880.42 305.366,4880.41 305.362,4880.4C305.35,4880.38 305.337,4880.36 305.323,4880.34C305.322,4880.34 305.321,4880.34 305.32,4880.34C305.315,4880.33 305.309,4880.32 305.303,4880.31C305.291,4880.3 305.279,4880.28 305.266,4880.27C305.256,4880.25 305.245,4880.24 305.235,4880.23C305.224,4880.22 305.214,4880.21 305.202,4880.2C305.19,4880.19 305.177,4880.17 305.163,4880.16C305.153,4880.15 305.143,4880.14 305.133,4880.14C305.119,4880.12 305.104,4880.11 305.09,4880.1C305.079,4880.1 305.068,4880.09 305.057,4880.08C305.043,4880.07 305.028,4880.06 305.014,4880.05C305.001,4880.05 304.988,4880.04 304.974,4880.03C304.961,4880.03 304.948,4880.02 304.935,4880.01C304.919,4880.01 304.904,4880 304.888,4879.99C304.876,4879.99 304.864,4879.98 304.851,4879.98C304.834,4879.97 304.816,4879.97 304.799,4879.96C304.786,4879.96 304.774,4879.95 304.761,4879.95C304.744,4879.95 304.726,4879.94 304.708,4879.94C304.694,4879.94 304.679,4879.94 304.664,4879.93C304.648,4879.93 304.632,4879.93 304.616,4879.93C304.597,4879.92 304.577,4879.92 304.557,4879.92C304.547,4879.92 304.537,4879.92 304.527,4879.92L266.467,4879.92C266.447,4879.92 266.426,4879.92 266.406,4879.92C266.394,4879.93 266.381,4879.93 266.369,4879.93C266.356,4879.93 266.343,4879.93 266.329,4879.93C266.221,4879.95 266.118,4879.98 266.025,4880.03C266.021,4880.03 266.017,4880.04 266.014,4880.04C266.002,4880.04 265.99,4880.05 265.978,4880.06C265.898,4880.11 265.823,4880.17 265.758,4880.24C265.747,4880.25 265.736,4880.26 265.726,4880.28C265.719,4880.28 265.712,4880.29 265.706,4880.3C265.693,4880.32 265.68,4880.34 265.668,4880.35C265.667,4880.36 265.666,4880.36 265.665,4880.36C265.66,4880.37 265.656,4880.37 265.651,4880.38C265.64,4880.4 265.629,4880.42 265.619,4880.44C265.613,4880.45 265.608,4880.46 265.603,4880.47C265.594,4880.49 265.586,4880.51 265.579,4880.52C265.573,4880.54 265.569,4880.55 265.564,4880.56C265.558,4880.58 265.552,4880.6 265.548,4880.61C265.543,4880.63 265.539,4880.64 265.535,4880.66C265.532,4880.67 265.528,4880.69 265.525,4880.7C265.522,4880.72 265.519,4880.74 265.517,4880.76C265.515,4880.77 265.513,4880.78 265.512,4880.8C265.51,4880.82 265.509,4880.84 265.509,4880.86C265.508,4880.87 265.507,4880.88 265.507,4880.89L265.507,4905.11C265.507,4905.65 265.94,4906.08 266.473,4906.08L304.527,4906.08C305.06,4906.08 305.493,4905.65 305.493,4905.11L305.493,4880.89C305.493,4880.89 305.492,4880.88 305.492,4880.88C305.492,4880.86 305.491,4880.84 305.489,4880.81ZM301.444,4881.85L286.054,4892.54L269.713,4881.85L301.444,4881.85ZM267.438,4904.15L267.438,4882.67L285.542,4894.51C285.703,4894.62 285.887,4894.67 286.07,4894.67C286.263,4894.67 286.456,4894.61 286.621,4894.49L303.562,4882.73L303.562,4904.15L267.438,4904.15Z" style="fill:rgb(251,253,253);fill-rule:nonzero;"/>
        </g>
    </g>
</svg>
