<?xml version="1.0" encoding="UTF-8" standalone="no"?>
<!DOCTYPE svg PUBLIC "-//W3C//DTD SVG 1.1//EN" "http://www.w3.org/Graphics/SVG/1.1/DTD/svg11.dtd">
<svg width="91px" height="91px" version="1.1" xmlns="http://www.w3.org/2000/svg" xmlns:xlink="http://www.w3.org/1999/xlink" xml:space="preserve" xmlns:serif="http://www.serif.com/" style="fill-rule:evenodd;clip-rule:evenodd;stroke-linejoin:round;stroke-miterlimit:2;">
    <g transform="matrix(1,0,0,1,-980,-4601)">
        <g id="icon">
            <rect id="長方形-33-のコピー" serif:id="長方形 33 のコピー" x="980" y="4601" width="90.003" height="90.003" style="fill:rgb(129,215,207);fill-opacity:0.95;"/>
            <path id="シェイプ-1094" serif:id="シェイプ 1094" d="M1043.15,4655.86C1044.99,4657.7 1046.01,4660.15 1046.01,4662.76C1046.01,4665.36 1044.99,4667.81 1043.15,4669.65C1041.31,4671.49 1038.86,4672.5 1036.26,4672.5C1033.65,4672.5 1031.2,4671.49 1029.36,4669.65C1028.46,4668.75 1027.76,4667.71 1027.28,4666.58L1008.82,4666.58C1008.36,4666.58 1007.99,4666.21 1007.99,4665.75L1007.99,4627.72C1007.99,4627.26 1008.36,4626.9 1008.82,4626.9L1015.59,4626.9L1015.59,4625.86C1015.59,4625.4 1015.96,4625.04 1016.41,4625.04L1020.23,4625.04C1020.6,4623.58 1021.92,4622.5 1023.49,4622.5C1025.06,4622.5 1026.38,4623.58 1026.75,4625.03L1030.57,4625.03C1030.79,4625.03 1031,4625.12 1031.15,4625.27C1031.3,4625.43 1031.39,4625.64 1031.39,4625.85L1031.39,4626.9L1038.17,4626.9C1038.63,4626.9 1039,4627.26 1039,4627.72L1039,4653.4C1040.55,4653.85 1041.97,4654.69 1043.15,4655.86ZM1009.64,4664.93L1026.75,4664.93C1026.59,4664.23 1026.51,4663.5 1026.51,4662.76C1026.51,4660.15 1027.52,4657.7 1029.36,4655.86C1031.2,4654.02 1033.65,4653.01 1036.26,4653.01C1036.62,4653.01 1036.99,4653.03 1037.35,4653.07L1037.35,4628.54L1031.39,4628.54L1031.39,4629.64C1031.39,4630.09 1031.02,4630.46 1030.57,4630.46L1016.41,4630.46C1015.96,4630.46 1015.59,4630.09 1015.59,4629.64L1015.59,4628.54L1009.64,4628.54L1009.64,4664.93ZM1025.22,4654.17C1025.67,4654.17 1026.04,4654.54 1026.04,4654.99C1026.04,4655.44 1025.67,4655.81 1025.22,4655.81L1013.48,4655.81C1013.03,4655.81 1012.66,4655.44 1012.66,4654.99C1012.66,4654.54 1013.03,4654.17 1013.48,4654.17L1025.22,4654.17ZM1013.48,4636.53C1013.03,4636.53 1012.66,4636.16 1012.66,4635.71C1012.66,4635.26 1013.03,4634.89 1013.48,4634.89L1033.51,4634.89C1033.96,4634.89 1034.33,4635.26 1034.33,4635.71C1034.33,4636.16 1033.96,4636.53 1033.51,4636.53L1013.48,4636.53ZM1013.48,4641.35C1013.03,4641.35 1012.66,4640.98 1012.66,4640.53C1012.66,4640.08 1013.03,4639.71 1013.48,4639.71L1033.51,4639.71C1033.96,4639.71 1034.33,4640.08 1034.33,4640.53C1034.33,4640.98 1033.96,4641.35 1033.51,4641.35L1013.48,4641.35ZM1013.48,4646.17C1013.03,4646.17 1012.66,4645.8 1012.66,4645.35C1012.66,4644.9 1013.03,4644.53 1013.48,4644.53L1033.51,4644.53C1033.96,4644.53 1034.33,4644.9 1034.33,4645.35C1034.33,4645.8 1033.96,4646.17 1033.51,4646.17L1013.48,4646.17ZM1013.48,4650.99C1013.03,4650.99 1012.66,4650.62 1012.66,4650.17C1012.66,4649.72 1013.03,4649.35 1013.48,4649.35L1033.51,4649.35C1033.96,4649.35 1034.33,4649.72 1034.33,4650.17C1034.33,4650.62 1033.96,4650.99 1033.51,4650.99L1013.48,4650.99ZM1017.54,4658.99C1018,4658.99 1018.37,4659.36 1018.37,4659.81C1018.37,4660.27 1018,4660.63 1017.54,4660.63L1013.48,4660.63C1013.03,4660.63 1012.66,4660.27 1012.66,4659.81C1012.66,4659.36 1013.03,4658.99 1013.48,4658.99L1017.54,4658.99ZM1036.26,4670.86C1040.73,4670.86 1044.36,4667.22 1044.36,4662.76C1044.36,4658.89 1041.64,4655.65 1038.02,4654.85L1037.99,4654.84C1037.43,4654.72 1036.85,4654.65 1036.26,4654.65C1031.79,4654.65 1028.15,4658.29 1028.15,4662.76C1028.15,4667.22 1031.79,4670.86 1036.26,4670.86ZM1038.82,4659.96C1039.14,4659.64 1039.66,4659.64 1039.99,4659.96C1040.31,4660.28 1040.31,4660.8 1039.99,4661.12L1035.55,4665.56C1035.39,4665.71 1035.18,4665.8 1034.96,4665.8C1034.75,4665.8 1034.54,4665.71 1034.38,4665.56L1032.53,4663.7C1032.2,4663.38 1032.2,4662.86 1032.53,4662.53C1032.85,4662.21 1033.37,4662.21 1033.69,4662.53L1034.96,4663.81L1038.82,4659.96ZM1020.95,4626.68L1017.24,4626.68L1017.24,4627.64C1017.24,4627.66 1017.24,4627.69 1017.24,4627.72C1017.24,4627.74 1017.24,4627.77 1017.24,4627.8L1017.24,4628.81L1029.75,4628.81L1029.75,4626.68L1026.03,4626.68C1025.81,4626.68 1025.6,4626.59 1025.45,4626.44C1025.3,4626.28 1025.21,4626.08 1025.21,4625.86C1025.21,4624.91 1024.44,4624.14 1023.49,4624.14C1022.55,4624.14 1021.77,4624.91 1021.77,4625.86C1021.77,4626.31 1021.41,4626.68 1020.95,4626.68Z" style="fill:white;"/>
        </g>
    </g>
</svg>
