<svg xmlns="http://www.w3.org/2000/svg" width="1131" height="286" viewBox="0 0 1131 286">
  <defs>
    <style>
      .cls-1 {
        fill: #fff;
        fill-rule: evenodd;
        opacity: 0.6;
      }
    </style>
  </defs>
  <path id="シェイプ_719" data-name="シェイプ 719" class="cls-1" d="M29.144,285.645c59.78-52.127,190.7-145.017,350.652-157.985-5.471-.124-11.159-0.1-17.1.085C192.505,133.205,63.552,213.621.972,268.188ZM563,205.583q2.517,0.308,5.155.423l23.3,1.909a61.028,61.028,0,0,0,9.626.791,77.323,77.323,0,0,0,12.23-.983c74.932-11.758,147.41-125.652,220.769-145.666,17.023-4.644,33.264-8.984,48-9.629A82.39,82.39,0,0,1,914.814,68.78c-24.184,19.064-43.644,39.047-54.642,55.571-36.086,54.213-29.107,114.725,1.648,122.042a28.161,28.161,0,0,0,7.768.7l21.634,1.945a29.33,29.33,0,0,0,11.436.371c42.322-6.5,70.176-66.513,65.073-132.412-1.346-17.378-9.234-31.773-21.34-42.654C998.825,39.129,1072.43,12.08,1130.6,25.171L1102.87,2.783C1047.59-9.656,977.643,22.3,925.383,60.734c-14.883-6.844-32.5-10.314-50.9-9.957h0l0.34,0.068c-20.171-2.226-44.161,1.436-70.229,8.548C731.237,79.406,658.759,193.3,583.826,205.058c-0.761.119-1.509,0.221-2.255,0.317-44.437-15.845-58.336-82.881-179.116-79q-10.854.348-21.545,1.194c-0.372.029-.742,0.066-1.114,0.1,0.373,0.008.753,0.01,1.124,0.021C494.536,130.717,509.9,199.079,563,205.583Zm375.24-91.252c4.746,61.3-19.028,117.5-56.435,130.28-22.28-16.494-24.148-69.519,7.852-117.593,8.727-13.112,22.675-27.182,40.025-40.636A65.484,65.484,0,0,1,938.243,114.331Z"/>
</svg>
