<?xml version="1.0" encoding="UTF-8" standalone="no"?>
<!DOCTYPE svg PUBLIC "-//W3C//DTD SVG 1.1//EN" "http://www.w3.org/Graphics/SVG/1.1/DTD/svg11.dtd">
<svg width="100%" height="100%" viewBox="0 0 24 20" version="1.1" xmlns="http://www.w3.org/2000/svg" xmlns:xlink="http://www.w3.org/1999/xlink" xml:space="preserve" xmlns:serif="http://www.serif.com/" style="fill-rule:evenodd;clip-rule:evenodd;stroke-linejoin:round;stroke-miterlimit:2;">
    <g transform="matrix(1,0,0,1,-290.078,-1846)">
        <path id="シェイプ-753" serif:id="シェイプ 753" d="M313.605,1864.62C313.774,1864.9 313.778,1865.25 313.616,1865.54C313.455,1865.82 313.153,1866 312.825,1866L290.988,1866C290.66,1866 290.358,1865.82 290.196,1865.54C290.035,1865.25 290.039,1864.9 290.208,1864.62L301.126,1846.44C301.29,1846.17 301.586,1846 301.906,1846C302.226,1846 302.522,1846.17 302.687,1846.44L313.605,1864.62ZM292.595,1864.18L311.218,1864.18L301.906,1848.68L292.595,1864.18ZM300.996,1853.27C300.996,1852.77 301.404,1852.37 301.906,1852.37C302.409,1852.37 302.816,1852.77 302.816,1853.27L302.816,1857.82C302.816,1858.32 302.409,1858.73 301.906,1858.73C301.404,1858.73 300.996,1858.32 300.996,1857.82L300.996,1853.27ZM301.906,1859.64C302.409,1859.64 302.816,1860.04 302.816,1860.54L302.816,1861.45C302.816,1861.95 302.409,1862.36 301.906,1862.36C301.404,1862.36 300.996,1861.95 300.996,1861.45L300.996,1860.54C300.996,1860.04 301.404,1859.64 301.906,1859.64Z" style="fill:white;"/>
    </g>
</svg>
