<?xml version="1.0" encoding="UTF-8" standalone="no"?>
<!DOCTYPE svg PUBLIC "-//W3C//DTD SVG 1.1//EN" "http://www.w3.org/Graphics/SVG/1.1/DTD/svg11.dtd">
<svg width="71px" height="71px" version="1.1" xmlns="http://www.w3.org/2000/svg" xmlns:xlink="http://www.w3.org/1999/xlink" xml:space="preserve" xmlns:serif="http://www.serif.com/" style="fill-rule:evenodd;clip-rule:evenodd;stroke-linejoin:round;stroke-miterlimit:2;">
    <g transform="matrix(1,0,0,1,-240,-3953)">
        <rect id="長方形-33-のコピー" serif:id="長方形 33 のコピー" x="240" y="3953" width="70.005" height="70.005" style="fill:rgb(151,165,181);fill-opacity:0.95;"/>
        <path id="シェイプ-640" serif:id="シェイプ 640" d="M275.48,3986.81C271.759,3986.8 268.743,3983.81 268.738,3980.12C268.738,3976.42 271.757,3973.42 275.48,3973.42C279.204,3973.42 282.223,3976.42 282.223,3980.12C282.223,3983.81 279.204,3986.81 275.48,3986.81ZM275.48,3975.7C273.025,3975.7 271.034,3977.68 271.032,3980.12C271.032,3982.55 273.024,3984.53 275.48,3984.53C277.938,3984.53 279.929,3982.55 279.929,3980.12C279.929,3977.67 277.937,3975.7 275.48,3975.7ZM282.497,3988.46C287.249,3990.83 290.449,3995.45 290.976,4000.71C291.045,4001.39 290.817,4002.08 290.349,4002.59C289.874,4003.12 289.199,4003.41 288.49,4003.41L262.471,4003.41C261.762,4003.41 261.087,4003.12 260.612,4002.59C260.144,4002.08 259.916,4001.4 259.984,4000.71C260.513,3995.45 263.712,3990.83 268.463,3988.46C268.954,3988.21 269.532,3988.2 270.033,3988.43C273.505,3989.95 277.458,3989.95 280.929,3988.43C281.429,3988.2 282.006,3988.21 282.497,3988.46ZM288.648,4001.07C288.682,4001.03 288.699,4000.98 288.694,4000.93C288.252,3996.53 285.61,3992.65 281.664,3990.6C277.712,3992.26 273.249,3992.26 269.296,3990.6C265.352,3992.65 262.71,3996.54 262.266,4000.93C262.262,4000.98 262.278,4001.03 262.313,4001.07C262.353,4001.11 262.41,4001.14 262.471,4001.14L288.49,4001.14C288.55,4001.14 288.608,4001.11 288.648,4001.07Z" style="fill:white;"/>
    </g>
</svg>
