<?xml version="1.0" encoding="UTF-8" standalone="no"?>
<!DOCTYPE svg PUBLIC "-//W3C//DTD SVG 1.1//EN" "http://www.w3.org/Graphics/SVG/1.1/DTD/svg11.dtd">
<svg width="71px" height="71px" version="1.1" xmlns="http://www.w3.org/2000/svg" xmlns:xlink="http://www.w3.org/1999/xlink" xml:space="preserve" xmlns:serif="http://www.serif.com/" style="fill-rule:evenodd;clip-rule:evenodd;stroke-linejoin:round;stroke-miterlimit:2;">
    <g transform="matrix(1,0,0,1,-240,-3518)">
        <rect id="長方形-33-のコピー" serif:id="長方形 33 のコピー" x="240" y="3518" width="70.005" height="70.005" style="fill:rgb(129,215,207);fill-opacity:0.95;"/>
        <path id="logo-のコピー" serif:id="logo のコピー" d="M282.315,3562.85L282.593,3561.06C282.732,3560.71 282.732,3560.09 282.805,3559.75C282.877,3559.41 282.931,3559.05 282.967,3558.68C283.045,3558.01 283.117,3557.35 283.181,3556.71C283.246,3556.07 283.333,3555.42 283.445,3554.74C283.439,3554.67 283.399,3554.59 283.325,3554.5C283.249,3554.4 283.179,3554.36 283.113,3554.36C283.077,3554.34 283.025,3554.32 282.959,3554.33L282.212,3554.39C281.951,3554.48 281.699,3554.56 281.453,3554.62C281.208,3554.7 280.955,3554.78 280.695,3554.86C279.983,3555.16 279.278,3555.42 278.579,3555.66C277.879,3555.9 277.173,3556.17 276.462,3556.46C275.553,3556.8 274.664,3557.17 273.792,3557.56C272.921,3557.95 272.069,3558.36 271.235,3558.79C271.074,3558.87 270.932,3558.98 270.809,3559.1C270.686,3559.23 270.563,3559.37 270.441,3559.51C270.41,3559.54 270.397,3559.58 270.4,3559.61C270.402,3559.65 270.387,3559.66 270.354,3559.67C270.182,3560.01 270.008,3560.34 269.832,3560.63C269.656,3560.93 269.48,3561.24 269.305,3561.55C268.878,3562.46 268.676,3562.78 268.248,3563.66C267.819,3564.55 265.896,3568.56 265.538,3569.49C265.402,3569.87 265.241,3570.25 265.055,3570.63C264.869,3571.01 264.675,3571.4 264.473,3571.78C264.356,3571.99 264.185,3572.15 263.962,3572.27C263.834,3572.35 263.673,3572.43 263.479,3572.51C263.022,3572.65 262.604,3572.65 262.225,3572.51C262.158,3572.52 262.107,3572.51 262.072,3572.48C262.035,3572.45 261.983,3572.42 261.914,3572.39C261.744,3572.37 261.607,3572.32 261.499,3572.22C261.391,3572.13 260.622,3571.7 261.377,3571.06C261.466,3570.98 261.518,3570.84 261.571,3570.67C261.97,3569.84 261.831,3570.29 262.214,3569.46C262.596,3568.62 264.802,3563.94 265.163,3563.05C265.333,3562.66 265.198,3562.46 264.761,3562.43L264.562,3562.45C264.298,3562.5 264.056,3562.5 263.835,3562.45C263.613,3562.41 263.382,3562.34 263.142,3562.26C263.075,3562.27 262.97,3562.21 262.826,3562.09C262.543,3561.91 262.494,3561.71 262.677,3561.5C262.763,3561.33 262.821,3561.22 262.852,3561.18C263.093,3560.86 263.433,3560.53 263.875,3560.2C264.129,3560.04 264.369,3559.91 264.593,3559.79C264.817,3559.67 265.04,3559.53 265.262,3559.39C265.614,3559.19 265.942,3559.01 266.247,3558.85C266.552,3558.69 266.864,3558.52 267.182,3558.33C267.534,3558.13 267.826,3557.91 268.057,3557.68C268.289,3557.44 268.509,3557.18 268.72,3556.9C269.047,3556.4 269.382,3555.9 269.725,3555.39C270.067,3554.88 270.401,3554.38 270.729,3553.88L272.076,3551.97C272.526,3551.33 272.976,3550.71 273.428,3550.11C274.063,3549.28 274.681,3548.47 275.283,3547.65C275.884,3546.83 276.503,3546.01 277.137,3545.2C277.53,3544.7 277.926,3544.22 278.322,3543.75L279.557,3542.3C279.832,3541.97 280.097,3541.65 280.355,3541.33C280.613,3541.01 280.88,3540.69 281.154,3540.36C281.306,3540.18 281.434,3540.02 281.538,3539.86C281.642,3539.7 281.77,3539.53 281.923,3539.35C282.109,3539.17 282.294,3538.98 282.478,3538.78C282.662,3538.58 282.846,3538.37 283.029,3538.16C283.27,3537.84 283.593,3537.49 283.997,3537.13C284.119,3536.98 284.243,3536.86 284.368,3536.75C284.492,3536.63 284.633,3536.53 284.792,3536.41C285.504,3535.72 286.011,3534.98 286.314,3534.18C286.369,3534.05 286.434,3533.92 286.507,3533.79C286.58,3533.67 286.643,3533.53 286.697,3533.35C286.81,3533.11 286.964,3532.94 287.156,3532.84C287.349,3532.74 287.576,3532.66 287.839,3532.61C287.939,3532.6 288.047,3532.6 288.165,3532.61C288.283,3532.62 288.408,3532.61 288.541,3532.6C288.71,3532.62 288.859,3532.71 288.99,3532.87C289.119,3533.02 289.208,3533.18 289.255,3533.34C289.34,3533.57 289.347,3533.85 289.275,3534.19C289.238,3534.56 289.175,3534.91 289.085,3535.23C288.994,3535.56 288.915,3535.91 288.845,3536.28C288.508,3537.88 288.218,3539.41 287.972,3540.91C287.914,3541.41 287.832,3541.93 287.726,3542.48C287.62,3543.02 287.505,3543.54 287.38,3544.06C287.187,3544.97 287.021,3545.89 286.879,3546.8C286.736,3547.71 286.569,3548.63 286.378,3549.54C286.352,3549.64 286.344,3549.74 286.35,3549.82C286.357,3549.91 286.346,3549.98 286.319,3550.05C286.215,3550.83 286.525,3551.13 287.249,3550.97C287.445,3550.92 287.625,3550.88 287.791,3550.85C287.955,3550.82 288.136,3550.78 288.333,3550.73C288.399,3550.73 288.483,3550.73 288.584,3550.74C288.685,3550.75 288.785,3550.75 288.885,3550.74L288.993,3550.83C289.07,3550.96 289.08,3551.07 289.022,3551.18C288.941,3551.42 288.788,3551.6 288.564,3551.71C288.126,3552.09 287.664,3552.36 287.176,3552.53C287.015,3552.61 286.854,3552.68 286.692,3552.74C286.53,3552.81 286.369,3552.88 286.208,3552.96C285.95,3553.08 285.798,3553.26 285.751,3553.5C285.695,3553.64 285.642,3553.81 285.593,3554.01C285.275,3555.44 284.976,3556.87 284.693,3558.31C284.52,3559.2 283.926,3562.15 283.754,3563.04C283.646,3563.73 283.53,3564.31 283.405,3564.78C283.294,3565.06 283.161,3565.26 283.006,3565.41C282.944,3565.49 282.837,3565.5 282.684,3565.46C282.53,3565.43 282.432,3565.36 282.391,3565.26C282.35,3565.17 282.326,3565.08 282.319,3564.99C282.312,3564.91 282.287,3564.82 282.246,3564.72C282.271,3564.62 282.27,3564.51 282.243,3564.38C282.214,3564.24 282.213,3564.13 282.239,3564.03C282.263,3563.62 282.288,3563.23 282.315,3562.85ZM285.931,3538.67C285.959,3538.6 285.966,3538.49 285.952,3538.32C285.939,3538.15 285.881,3538.06 285.778,3538.03C285.706,3537.97 285.591,3537.99 285.434,3538.11C285.281,3538.29 285.121,3538.49 284.955,3538.7C284.789,3538.91 284.613,3539.11 284.427,3539.3C284.178,3539.51 283.97,3539.74 283.806,3539.97C283.641,3540.2 283.451,3540.44 283.238,3540.69C282.819,3541.29 282.416,3541.88 282.03,3542.47C281.643,3543.05 281.186,3543.6 280.66,3544.11C280.596,3544.15 280.522,3544.25 280.436,3544.43C280.191,3544.71 279.965,3545.02 279.758,3545.33C279.55,3545.65 279.325,3545.97 279.084,3546.29L278.329,3547.18C278.07,3547.48 277.872,3547.82 277.737,3548.2L277.576,3548.39L277.416,3548.58C277.111,3548.94 276.84,3549.3 276.603,3549.67C276.366,3550.04 276.13,3550.42 275.894,3550.8C275.597,3551.26 275.3,3551.71 275.002,3552.15C274.704,3552.59 274.406,3553.05 274.11,3553.5L273.752,3554.03C273.633,3554.21 273.531,3554.38 273.444,3554.56C273.383,3554.63 273.36,3554.75 273.373,3554.91C273.346,3554.99 273.377,3555.06 273.467,3555.13C273.556,3555.21 273.634,3555.24 273.701,3555.24C273.765,3555.2 273.847,3555.18 273.946,3555.17C274.046,3555.16 274.127,3555.14 274.192,3555.1C274.842,3554.87 275.501,3554.66 276.169,3554.43C276.836,3554.21 277.497,3554.01 278.151,3553.82C278.804,3553.64 279.455,3553.42 280.105,3553.19C280.754,3552.95 281.404,3552.72 282.056,3552.5C282.645,3552.35 283.194,3552.11 283.701,3551.76C283.981,3551.51 284.145,3551.28 284.196,3551.07L284.496,3549.85C284.596,3549.44 284.68,3549.03 284.746,3548.63C284.855,3547.92 284.947,3547.21 285.023,3546.5C285.098,3545.8 285.157,3545.09 285.199,3544.39C285.249,3544.18 285.267,3543.99 285.252,3543.81C285.237,3543.62 285.255,3543.45 285.308,3543.27C285.445,3542.5 285.557,3541.73 285.645,3540.97C285.733,3540.21 285.828,3539.45 285.931,3538.67Z" style="fill:white;"/>
    </g>
</svg>
