<?xml version="1.0" encoding="UTF-8" standalone="no"?>
<!DOCTYPE svg PUBLIC "-//W3C//DTD SVG 1.1//EN" "http://www.w3.org/Graphics/SVG/1.1/DTD/svg11.dtd">
<svg width="1130px" height="286px" version="1.1" xmlns="http://www.w3.org/2000/svg" xmlns:xlink="http://www.w3.org/1999/xlink" xml:space="preserve" xmlns:serif="http://www.serif.com/" style="fill-rule:evenodd;clip-rule:evenodd;stroke-linejoin:round;stroke-miterlimit:2;">
    <g transform="matrix(1,0,0,1,-16242.5,-2576.22)">
        <g transform="matrix(1,0,0,1,15406.5,590.168)">
            <path id="シェイプ-719" serif:id="シェイプ 719" d="M1214.8,2113.66C1054.85,2126.63 923.924,2219.52 864.144,2271.64L835.972,2254.19C898.552,2199.62 1027.51,2119.2 1197.7,2113.74C1203.64,2113.55 1209.33,2113.54 1214.8,2113.66ZM1214.8,2113.66C1215.17,2113.63 1215.54,2113.59 1215.91,2113.56C1223.04,2113 1230.22,2112.6 1237.45,2112.37C1358.24,2108.49 1372.13,2175.53 1416.57,2191.38C1417.32,2191.28 1418.07,2191.18 1418.83,2191.06C1493.76,2179.3 1566.24,2065.41 1639.6,2045.39C1665.66,2038.28 1689.65,2034.62 1709.82,2036.84L1709.48,2036.78C1727.88,2036.42 1745.5,2039.89 1760.38,2046.73C1812.64,2008.3 1882.59,1976.34 1937.87,1988.78L1965.6,2011.17C1907.43,1998.08 1833.83,2025.13 1781.39,2060.34C1793.5,2071.22 1801.38,2085.62 1802.73,2103C1807.83,2168.89 1779.98,2228.91 1737.66,2235.41C1733.55,2236.04 1729.73,2235.89 1726.22,2235.04L1704.59,2233.09C1701.86,2233.21 1699.26,2232.97 1696.82,2232.39C1666.07,2225.08 1659.09,2164.56 1695.17,2110.35C1706.17,2093.83 1725.63,2073.84 1749.81,2054.78C1740.91,2047.29 1729.81,2041.7 1717.08,2038.43C1702.35,2039.07 1686.11,2043.41 1669.08,2048.06C1595.73,2068.07 1523.25,2181.97 1448.32,2193.72C1443.97,2194.41 1439.91,2194.72 1436.09,2194.7C1432.7,2194.69 1429.51,2194.41 1426.46,2193.92L1403.16,2192.01C1401.4,2191.93 1399.68,2191.79 1398,2191.58C1344.9,2185.08 1329.54,2116.72 1215.92,2113.68C1215.55,2113.67 1215.17,2113.67 1214.8,2113.66ZM1773.24,2100.33C1772.45,2090.07 1769.48,2080.67 1764.68,2072.38C1747.34,2085.84 1733.39,2099.91 1724.66,2113.02C1692.66,2161.09 1694.53,2214.12 1716.81,2230.61C1754.22,2217.83 1777.99,2161.63 1773.24,2100.33Z" style="fill:white;fill-opacity:0.6;"/>
        </g>
    </g>
</svg>
