<?xml version="1.0" encoding="UTF-8" standalone="no"?>
<!DOCTYPE svg PUBLIC "-//W3C//DTD SVG 1.1//EN" "http://www.w3.org/Graphics/SVG/1.1/DTD/svg11.dtd">
<svg width="1589px" height="1026px" version="1.1" xmlns="http://www.w3.org/2000/svg" xmlns:xlink="http://www.w3.org/1999/xlink" xml:space="preserve" xmlns:serif="http://www.serif.com/" style="fill-rule:evenodd;clip-rule:evenodd;stroke-linejoin:round;stroke-miterlimit:2;">
    <g transform="matrix(1,0,0,1,-8126.83,-16839.1)">
        <g transform="matrix(2.11612,0,0,3.1788,14384.3,595.649)">
            <g id="シェイプ-1116" serif:id="シェイプ 1116" transform="matrix(0.472562,0,0,0.314584,-3046.03,2465.41)">
                <path d="M1296.72,8600.19L1277.27,8595.02L1271.18,8592.57C1213.29,8646.93 1110.52,8706.34 965.969,8716.64L954.47,8695.62C1099.7,8685.27 1200.91,8630.41 1256.93,8580.63L1254.42,8577.49C1239.16,8555.23 1261.69,8492.41 1298.54,8494.72L1316.63,8497.66C1338.2,8499.02 1324.47,8540.21 1277.37,8586.57C1281.13,8590.85 1285.23,8594.24 1289.67,8596.77C1330.81,8597.85 1388.26,8551.43 1435.19,8512.27C1464.96,8487.43 1479.15,8486.12 1482.89,8495.22L1494.21,8515.82C1498.79,8525.71 1489.99,8549.06 1475.18,8567.06C1470.94,8572.22 1464.7,8579.37 1459.52,8586.43C1470.21,8583.23 1485.6,8576.99 1507.14,8566.68C1580.24,8531.68 1696.67,8468.57 1765,8406.44L1776.5,8427.46C1708.17,8489.58 1591.74,8552.69 1518.64,8587.69C1470.95,8610.52 1453.44,8613.36 1450.23,8607.61L1438.17,8584.25C1438.09,8575.36 1455.03,8556.56 1463.68,8546.04C1472.64,8535.16 1479.39,8522.32 1482.29,8511.67C1474.46,8513.23 1462.88,8519.78 1446.69,8533.29C1399.53,8572.64 1345.47,8609.14 1306.14,8602.69L1301.3,8601.65L1296.72,8600.19ZM1438.17,8584.25L1440.12,8588.02L1438.65,8586.44L1438.17,8584.25ZM1306.72,8498.8C1280.34,8505.61 1263.93,8545.76 1268.44,8569.84C1301.29,8537.49 1314.2,8508.95 1306.72,8498.8Z" style="fill:rgb(129,215,207);fill-opacity:0.6;"/>
            </g>
        </g>
        <g transform="matrix(2.11612,0,0,3.1788,14384.3,595.649)">
            <g id="シェイプ-1110" serif:id="シェイプ 1110" transform="matrix(0.472562,0,0,0.314584,-3046.03,2465.41)">
                <path d="M369.954,9256.6C312.133,9260.42 189.214,9273.99 188.326,9328.82C188.264,9332.66 188.801,9336.69 189.995,9340.94L191.506,9351.9C191.391,9356.01 191.962,9360.35 193.3,9364.93C194.527,9369.13 196.398,9373.54 198.974,9378.17C241.64,9454.8 363.073,9438.29 406.668,9400.03L403.499,9376.52C359.904,9414.78 238.471,9431.29 195.804,9354.66C194.305,9351.97 193.054,9349.35 192.02,9346.8C200.795,9296.58 317.298,9283.79 373.123,9280.11C436.706,9275.92 553.119,9257.82 555.343,9220.52C555.428,9219.1 555.347,9217.66 555.092,9216.18C554.953,9215.38 554.761,9214.61 554.529,9213.89L552.155,9194.56C552.11,9193.94 552.033,9193.31 551.923,9192.67C545.279,9154.24 431.348,9210.94 398.196,9162.11C429.354,9106.89 734.896,9045.54 750.966,8902.85L747.797,8879.34C730.464,9033.24 376.626,9092.38 393.028,9151.54L395.645,9171.16C395.66,9172.37 395.81,9173.59 396.133,9174.81C396.413,9175.87 396.784,9176.94 397.249,9178.03C420.741,9233.28 522.353,9188.32 548.984,9206.5C529.674,9237.42 427.889,9252.78 369.954,9256.6Z" style="fill:rgb(129,215,207);fill-opacity:0.6;fill-rule:nonzero;"/>
            </g>
        </g>
    </g>
</svg>
