<?xml version="1.0" encoding="UTF-8" standalone="no"?>
<!DOCTYPE svg PUBLIC "-//W3C//DTD SVG 1.1//EN" "http://www.w3.org/Graphics/SVG/1.1/DTD/svg11.dtd">
<svg width="60px" height="60px" version="1.1" xmlns="http://www.w3.org/2000/svg" xmlns:xlink="http://www.w3.org/1999/xlink" xml:space="preserve" xmlns:serif="http://www.serif.com/" style="fill-rule:evenodd;clip-rule:evenodd;stroke-linejoin:round;stroke-miterlimit:2;">
    <g transform="matrix(1,0,0,1,-15856.5,-7409.17)">
        <g transform="matrix(1,0,0,1,15406.5,590.168)">
            <g id="icon">
                <path id="シェイプ-1211" serif:id="シェイプ 1211" d="M508.8,6823.8L498,6823.8L498,6820.2C498,6819.54 497.464,6819 496.8,6819C496.136,6819 495.6,6819.54 495.6,6820.2L495.6,6823.8L464.4,6823.8L464.4,6820.2C464.4,6819.54 463.862,6819 463.2,6819C462.538,6819 462,6819.54 462,6820.2L462,6823.8L451.2,6823.8C450.538,6823.8 450,6824.34 450,6825L450,6877.8C450,6878.46 450.538,6879 451.2,6879L508.8,6879C509.464,6879 510,6878.46 510,6877.8L510,6825C510,6824.34 509.464,6823.8 508.8,6823.8ZM462,6826.2L462,6829.8C462,6830.46 462.538,6831 463.2,6831C463.862,6831 464.4,6830.46 464.4,6829.8L464.4,6826.2L495.6,6826.2L495.6,6829.8C495.6,6830.46 496.136,6831 496.8,6831C497.464,6831 498,6830.46 498,6829.8L498,6826.2L507.6,6826.2L507.6,6838.2L452.4,6838.2L452.4,6826.2L462,6826.2ZM452.4,6876.6L452.4,6840.6L507.6,6840.6L507.6,6876.6L452.4,6876.6Z" style="fill:white;fill-rule:nonzero;"/>
                <path id="シェイプ-1213" serif:id="シェイプ 1213" d="M490.504,6847.39L476.895,6863.74L469.311,6858.67C468.647,6858.23 467.752,6858.41 467.309,6859.07C466.867,6859.74 467.046,6860.63 467.709,6861.08L476.373,6866.86C476.618,6867.02 476.897,6867.1 477.174,6867.1C477.59,6867.1 478,6866.92 478.284,6866.58L492.724,6849.24C493.236,6848.63 493.152,6847.71 492.54,6847.2C491.925,6846.69 491.016,6846.78 490.504,6847.39Z" style="fill:rgb(239,243,245);fill-rule:nonzero;"/>
            </g>
        </g>
    </g>
</svg>
