<?xml version="1.0" encoding="UTF-8" standalone="no"?>
<!DOCTYPE svg PUBLIC "-//W3C//DTD SVG 1.1//EN" "http://www.w3.org/Graphics/SVG/1.1/DTD/svg11.dtd">
<svg width="60px" height="60px" version="1.1" xmlns="http://www.w3.org/2000/svg" xmlns:xlink="http://www.w3.org/1999/xlink" xml:space="preserve" xmlns:serif="http://www.serif.com/" style="fill-rule:evenodd;clip-rule:evenodd;stroke-linejoin:round;stroke-miterlimit:2;">
    <g transform="matrix(1,0,0,1,-492.867,-4431.02)">
        <path id="シェイプ-714-のコピー" serif:id="シェイプ 714 のコピー" d="M550.085,4448.41C549.679,4447.54 548.671,4447.17 547.83,4447.57C546.954,4447.98 546.583,4448.99 546.988,4449.83C551.666,4459.89 549.547,4471.9 541.67,4479.77C531.338,4490.14 514.474,4490.14 504.073,4479.77C499.058,4474.76 496.299,4468.1 496.299,4461C496.299,4453.9 499.058,4447.24 504.073,4442.19C509.088,4437.14 515.751,4434.38 522.855,4434.38L522.889,4434.38C528.579,4434.38 534.01,4436.15 538.523,4439.45L537.023,4439.5C536.079,4439.54 535.34,4440.31 535.374,4441.25C535.374,4442.16 536.147,4442.9 537.057,4442.9C537.057,4442.9 537.091,4442.9 537.155,4442.86L542.943,4442.7C542.974,4442.7 543.004,4442.69 543.035,4442.69C543.236,4442.67 543.436,4442.61 543.624,4442.52C543.809,4442.44 543.978,4442.32 544.119,4442.16C544.484,4441.8 544.64,4441.31 544.589,4440.83L544.426,4435.49C544.391,4434.55 543.618,4433.81 542.674,4433.84C541.73,4433.88 540.991,4434.65 541.026,4435.6L541.068,4437.16C535.853,4433.18 529.515,4431.02 522.855,4431.02L522.821,4431.02C514.811,4431.02 507.307,4434.15 501.651,4439.8C489.939,4451.52 489.939,4470.56 501.651,4482.2C507.507,4488.05 515.213,4490.98 522.889,4490.98C530.595,4490.98 538.27,4488.06 544.058,4482.19C552.947,4473.35 555.369,4459.76 550.085,4448.41Z" style="fill:white;"/>
        <g id="_24" serif:id="24" transform="matrix(1,0,0,1,523.827,4473)">
            <g transform="matrix(34,0,0,34,18.5692,0)">
            </g>
            <text x="-18.569px" y="0px" style="font-family:'ArialMT', 'Arial', sans-serif;font-size:34px;fill:rgb(129,216,208);">2<tspan x="-0.34px " y="0px ">4</tspan></text>
        </g>
    </g>
</svg>
