<?xml version="1.0" encoding="UTF-8" standalone="no"?><!DOCTYPE svg PUBLIC "-//W3C//DTD SVG 1.1//EN" "http://www.w3.org/Graphics/SVG/1.1/DTD/svg11.dtd"><svg width="70px" height="84px" version="1.1" xmlns="http://www.w3.org/2000/svg" xmlns:xlink="http://www.w3.org/1999/xlink" xml:space="preserve" xmlns:serif="http://www.serif.com/" style="fill-rule:evenodd;clip-rule:evenodd;stroke-linejoin:round;stroke-miterlimit:2;"><path id="シェイプ-868" serif:id="シェイプ 868" d="M39.093,13.418c17.4,2.027 30.905,16.809 30.905,34.749c-0,19.321 -15.67,34.987 -34.999,34.987c-19.33,0 -34.999,-15.666 -34.999,-34.987c0,-17.94 13.505,-32.722 30.905,-34.749l-0,-3.401l-3.671,0c-0.618,0 -1.119,-0.502 -1.119,-1.121l-0,-7.776c-0,-0.618 0.501,-1.12 1.119,-1.12l15.529,0c0.619,0 1.12,0.502 1.12,1.12l0,7.776c0,0.619 -0.501,1.121 -1.12,1.121l-3.67,0l-0,3.401Zm17.486,56.322c5.765,-5.764 8.939,-13.425 8.939,-21.573c0,-8.149 -3.174,-15.812 -8.939,-21.575c-5.764,-5.762 -13.428,-8.935 -21.58,-8.935c-8.152,-0 -15.816,3.173 -21.58,8.935c-5.765,5.763 -8.939,13.426 -8.939,21.575c-0,8.148 3.174,15.809 8.939,21.573c5.764,5.763 13.428,8.936 21.58,8.936c8.152,-0 15.816,-3.173 21.58,-8.936Zm-51.562,-49.077l-2.54,-2.998c-0.24,-0.282 -0.205,-0.706 0.078,-0.945l8.749,-7.413c0.284,-0.24 0.708,-0.206 0.948,0.078l2.54,2.996c0.24,0.283 0.205,0.708 -0.078,0.946l-8.75,7.413c-0.283,0.241 -0.707,0.205 -0.947,-0.077Zm59.016,0.077l-8.749,-7.413c-0.283,-0.238 -0.318,-0.663 -0.078,-0.946l2.54,-2.996c0.24,-0.284 0.664,-0.318 0.947,-0.078l8.75,7.413c0.283,0.239 0.318,0.663 0.078,0.945l-2.54,2.998c-0.24,0.282 -0.664,0.318 -0.948,0.077Z" style="fill:#81d7cf;"/><circle id="楕円形-1497" serif:id="楕円形 1497" cx="35.497" cy="48.757" r="31" style="fill:#fff;"/><g id="_30" serif:id="30" transform="matrix(31.5,0,0,31.5,52.7904,52.5386)"></g><text x="17.123px" y="52.539px" style="font-family:'ArialMT', 'Arial', sans-serif;font-size:31.5px;fill:#4f4f4f;">3<tspan x="35.272px " y="52.539px ">0</tspan></text><g id="min" transform="matrix(17.5,0,0,17.5,49.7182,68.1636)"></g><text x="20.82px" y="68.164px" style="font-family:'ArialMT', 'Arial', sans-serif;font-size:17.5px;fill:#4f4f4f;">m<tspan x="35.748px 39.986px " y="68.164px 68.164px ">in</tspan></text></svg>