<?xml version="1.0" encoding="UTF-8" standalone="no"?><!DOCTYPE svg PUBLIC "-//W3C//DTD SVG 1.1//EN" "http://www.w3.org/Graphics/SVG/1.1/DTD/svg11.dtd"><svg width="22px" height="21px" version="1.1" xmlns="http://www.w3.org/2000/svg" xmlns:xlink="http://www.w3.org/1999/xlink" xml:space="preserve" xmlns:serif="http://www.serif.com/" style="fill-rule:evenodd;clip-rule:evenodd;stroke-linejoin:round;stroke-miterlimit:2;"><path id="シェイプ-714-のコピー" serif:id="シェイプ 714 のコピー" d="M20.036,6.09c-0.143,-0.306 -0.495,-0.435 -0.79,-0.294c-0.307,0.142 -0.437,0.495 -0.295,0.79c1.638,3.522 0.896,7.728 -1.862,10.485c-3.618,3.628 -9.523,3.628 -13.165,0c-1.756,-1.755 -2.722,-4.086 -2.722,-6.573c-0,-2.488 0.966,-4.821 2.722,-6.586c1.756,-1.769 4.089,-2.735 6.577,-2.735l0.012,0c1.992,0 3.894,0.62 5.474,1.776l-0.525,0.017c-0.331,0.013 -0.59,0.283 -0.578,0.614c0,0.318 0.271,0.576 0.59,0.576c-0,0 0.012,0 0.034,-0.012l2.027,-0.059c0.011,-0 0.021,-0.003 0.032,-0.003c0.07,-0.006 0.14,-0.026 0.206,-0.057c0.065,-0.031 0.124,-0.073 0.174,-0.127c0.127,-0.126 0.182,-0.298 0.164,-0.466l-0.057,-1.871c-0.012,-0.329 -0.283,-0.588 -0.613,-0.577c-0.331,0.012 -0.59,0.283 -0.578,0.614l0.015,0.55c-1.826,-1.394 -4.045,-2.152 -6.377,-2.152l-0.012,0c-2.805,0 -5.433,1.096 -7.413,3.074c-4.101,4.104 -4.101,10.771 -0,14.847c2.05,2.05 4.749,3.075 7.437,3.075c2.698,-0 5.385,-1.023 7.412,-3.077c3.113,-3.098 3.961,-7.857 2.111,-11.829Z" style="fill:#81d7cf;"/><g id="_24" serif:id="24" transform="matrix(12,0,0,12,17.3948,14.6996)"></g><text x="4.287px" y="14.7px" style="font-family:'ArialMT', 'Arial', sans-serif;font-size:12px;fill:#81d8d0;">2<tspan x="10.721px " y="14.7px ">4</tspan></text></svg>