<?xml version="1.0" encoding="UTF-8" standalone="no"?>
<!DOCTYPE svg PUBLIC "-//W3C//DTD SVG 1.1//EN" "http://www.w3.org/Graphics/SVG/1.1/DTD/svg11.dtd">
<svg width="443px" height="435px" version="1.1" xmlns="http://www.w3.org/2000/svg" xmlns:xlink="http://www.w3.org/1999/xlink" xml:space="preserve" xmlns:serif="http://www.serif.com/" style="fill-rule:evenodd;clip-rule:evenodd;stroke-linejoin:round;stroke-miterlimit:2;">
    <g transform="matrix(1,0,0,1,4.62447,-9418.27)">
        <path id="シェイプ-1110" serif:id="シェイプ 1110" d="M138.228,9714.98C92.752,9717.98 -3.922,9728.66 -4.621,9771.78C-4.669,9774.8 -4.247,9777.97 -3.308,9781.31L-2.12,9789.94C-2.21,9793.17 -1.761,9796.58 -0.709,9800.18C0.256,9803.49 1.727,9806.95 3.753,9810.59C37.31,9870.86 132.816,9857.88 167.102,9827.79L164.61,9809.3C130.323,9839.39 34.817,9852.37 1.261,9792.1C0.082,9789.99 -0.903,9787.93 -1.716,9785.93C5.186,9746.42 96.814,9736.37 140.72,9733.47C190.727,9730.17 282.285,9715.94 284.034,9686.6C284.101,9685.49 284.037,9684.35 283.837,9683.19C283.727,9682.56 283.576,9681.96 283.394,9681.39L281.527,9666.19C281.491,9665.7 281.431,9665.2 281.344,9664.7C276.119,9634.47 186.513,9679.07 160.439,9640.66C184.945,9597.23 425.25,9548.99 437.89,9436.76L435.397,9418.27C421.765,9539.31 143.475,9585.82 156.375,9632.35L158.434,9647.78C158.445,9648.74 158.563,9649.69 158.817,9650.65C159.037,9651.48 159.329,9652.33 159.695,9653.19C178.171,9696.64 258.088,9661.28 279.033,9675.58C263.846,9699.89 183.793,9711.98 138.228,9714.98Z" style="fill:rgb(129,215,207);fill-opacity:0.6;fill-rule:nonzero;"/>
    </g>
</svg>
