<?xml version="1.0" encoding="UTF-8" standalone="no"?>
<!DOCTYPE svg PUBLIC "-//W3C//DTD SVG 1.1//EN" "http://www.w3.org/Graphics/SVG/1.1/DTD/svg11.dtd">
<svg width="71px" height="56px" version="1.1" xmlns="http://www.w3.org/2000/svg" xmlns:xlink="http://www.w3.org/1999/xlink" xml:space="preserve" xmlns:serif="http://www.serif.com/" style="fill-rule:evenodd;clip-rule:evenodd;stroke-linejoin:round;stroke-miterlimit:2;">
    <g transform="matrix(1,0,0,1,-15960.1,-8286.81)">
        <g transform="matrix(1,0,0,1,15406.5,590.168)">
            <g id="icon">
                <path id="シェイプ-1223-のコピー" serif:id="シェイプ 1223 のコピー" d="M591.484,7712.96L604.385,7696.65L606.624,7698.42L593.721,7714.73L591.484,7712.96ZM623.794,7742.05L603.103,7740.14L603.366,7737.3L624.055,7739.2L623.794,7742.05Z" style="fill:rgb(79,79,79);"/>
                <path id="シェイプ-1223-のコピー-2" serif:id="シェイプ 1223 のコピー 2" d="M555.189,7734.9L560.301,7736.04C561.045,7736.21 562.085,7735.9 562.614,7735.35L585.152,7711.93C585.68,7711.38 586.359,7711.5 586.658,7712.2L600.32,7744.16C600.62,7744.86 600.241,7745.44 599.479,7745.44L567.001,7745.61C566.239,7745.61 565.296,7746.15 564.904,7746.81L562.206,7751.31C561.453,7752.48 560.043,7752.05 559.919,7750.88C559.919,7750.88 559.481,7747.24 558.049,7743.89C556.619,7740.55 553.922,7736.85 553.922,7736.85C553.163,7735.95 553.82,7734.63 555.189,7734.9Z" style="fill:rgb(129,215,207);fill-rule:nonzero;"/>
            </g>
        </g>
    </g>
</svg>
