<?xml version="1.0" encoding="UTF-8" standalone="no"?>
<!DOCTYPE svg PUBLIC "-//W3C//DTD SVG 1.1//EN" "http://www.w3.org/Graphics/SVG/1.1/DTD/svg11.dtd">
<svg width="153px" height="69px" version="1.1" xmlns="http://www.w3.org/2000/svg" xmlns:xlink="http://www.w3.org/1999/xlink" xml:space="preserve" xmlns:serif="http://www.serif.com/" style="fill-rule:evenodd;clip-rule:evenodd;stroke-linejoin:round;stroke-miterlimit:2;">
    <g transform="matrix(1,0,0,1,-16374.3,-9039.35)">
        <g transform="matrix(1,0,0,1,15406.5,590.168)">
            <g id="グループ-46" serif:id="グループ 46">
                <path id="シェイプ-713" serif:id="シェイプ 713" d="M1001.75,8503.19C1001.59,8504.23 1001.42,8505.1 1001.23,8505.8C1001.06,8506.22 1000.86,8506.53 1000.63,8506.75C1000.54,8506.86 1000.38,8506.89 1000.15,8506.83C999.921,8506.77 999.774,8506.67 999.712,8506.53C999.65,8506.38 999.614,8506.25 999.604,8506.12C999.594,8506 999.557,8505.86 999.496,8505.72C999.532,8505.57 999.531,8505.39 999.49,8505.2C999.448,8505 999.447,8504.82 999.484,8504.67C999.52,8504.06 999.558,8503.48 999.598,8502.91C999.6,8502.91 1000.01,8500.22 1000.01,8500.22C1000.22,8499.7 1000.22,8498.76 1000.33,8498.25C1000.44,8497.74 1000.52,8497.21 1000.58,8496.66C1000.69,8495.65 1000.8,8494.66 1000.89,8493.7C1000.99,8492.75 1001.12,8491.76 1001.29,8490.75C1001.28,8490.65 1001.22,8490.52 1001.11,8490.39C1001,8490.24 1000.89,8490.18 1000.79,8490.18C1000.74,8490.14 1000.66,8490.12 1000.56,8490.13L999.444,8490.22C999.054,8490.36 998.676,8490.47 998.309,8490.58C997.943,8490.68 997.564,8490.8 997.175,8490.93C996.109,8491.37 995.053,8491.77 994.007,8492.13C992.959,8492.49 991.903,8492.89 990.839,8493.33C989.478,8493.84 988.147,8494.39 986.843,8494.97C985.54,8495.56 984.264,8496.17 983.016,8496.83C982.775,8496.94 982.562,8497.1 982.378,8497.29C982.193,8497.48 982.01,8497.69 981.828,8497.9C981.782,8497.95 981.761,8498.01 981.765,8498.05C981.77,8498.1 981.746,8498.13 981.697,8498.14C981.44,8498.66 981.179,8499.14 980.916,8499.59C980.652,8500.03 980.389,8500.49 980.128,8500.97C979.488,8502.32 979.187,8502.8 978.545,8504.13C977.904,8505.45 975.025,8511.47 974.49,8512.87C974.286,8513.43 974.045,8514.01 973.767,8514.58C973.488,8515.15 973.197,8515.72 972.895,8516.3C972.721,8516.61 972.465,8516.86 972.13,8517.04C971.939,8517.15 971.699,8517.27 971.409,8517.4C970.724,8517.6 970.099,8517.61 969.532,8517.4C969.431,8517.41 969.355,8517.39 969.302,8517.35C969.247,8517.3 969.169,8517.26 969.066,8517.22C968.812,8517.18 968.606,8517.1 968.444,8516.97C968.283,8516.83 967.132,8516.18 968.263,8515.22C968.396,8515.1 968.473,8514.89 968.552,8514.63C969.15,8513.38 968.941,8514.06 969.514,8512.82C970.087,8511.57 973.388,8504.55 973.929,8503.2C974.182,8502.63 973.98,8502.32 973.327,8502.28L973.028,8502.3C972.634,8502.38 972.272,8502.39 971.941,8502.32C971.609,8502.24 971.262,8502.15 970.903,8502.02C970.803,8502.03 970.646,8501.95 970.431,8501.77C970.008,8501.5 969.934,8501.2 970.208,8500.88C970.337,8500.62 970.423,8500.46 970.469,8500.41C970.83,8499.93 971.34,8499.44 972,8498.93C972.381,8498.7 972.74,8498.5 973.076,8498.32C973.411,8498.14 973.745,8497.94 974.077,8497.71C974.603,8497.42 975.094,8497.15 975.551,8496.92C976.007,8496.68 976.473,8496.41 976.95,8496.12C977.476,8495.83 977.913,8495.51 978.26,8495.15C978.606,8494.8 978.936,8494.41 979.252,8493.98C979.741,8493.24 980.243,8492.49 980.755,8491.72C981.267,8490.96 981.768,8490.2 982.259,8489.46C982.931,8488.5 983.603,8487.55 984.275,8486.59C984.947,8485.64 985.622,8484.7 986.298,8483.8C987.248,8482.57 988.173,8481.34 989.074,8480.12C989.974,8478.89 990.9,8477.67 991.849,8476.44C992.438,8475.69 993.029,8474.96 993.623,8474.27C994.216,8473.57 994.831,8472.84 995.471,8472.09C995.882,8471.61 996.279,8471.12 996.666,8470.64C997.051,8470.16 997.45,8469.67 997.861,8469.19C998.088,8468.92 998.28,8468.67 998.436,8468.43C998.592,8468.19 998.783,8467.94 999.012,8467.67C999.29,8467.4 999.567,8467.11 999.843,8466.81C1000.12,8466.51 1000.39,8466.2 1000.67,8465.88C1001.03,8465.4 1001.51,8464.89 1002.12,8464.34C1002.3,8464.12 1002.48,8463.93 1002.67,8463.76C1002.86,8463.6 1003.07,8463.43 1003.31,8463.26C1004.37,8462.23 1005.13,8461.11 1005.58,8459.92C1005.67,8459.72 1005.76,8459.52 1005.87,8459.34C1005.98,8459.15 1006.08,8458.93 1006.16,8458.68C1006.33,8458.31 1006.56,8458.05 1006.84,8457.91C1007.13,8457.76 1007.47,8457.64 1007.87,8457.56C1008.02,8457.55 1008.18,8457.55 1008.36,8457.56C1008.53,8457.57 1008.72,8457.57 1008.92,8457.55C1009.17,8457.58 1009.39,8457.71 1009.59,8457.94C1009.78,8458.18 1009.91,8458.42 1009.99,8458.66C1010.11,8459 1010.12,8459.43 1010.01,8459.93C1009.96,8460.49 1009.87,8461.01 1009.73,8461.5C1009.6,8461.98 1009.48,8462.51 1009.37,8463.06C1008.87,8465.46 1008.43,8467.77 1008.07,8470C1007.98,8470.76 1007.86,8471.54 1007.7,8472.36C1007.54,8473.17 1007.37,8473.96 1007.18,8474.73C1006.89,8476.1 1006.64,8477.47 1006.43,8478.84C1006.22,8480.21 1005.97,8481.58 1005.68,8482.95C1005.64,8483.11 1005.63,8483.25 1005.64,8483.37C1005.65,8483.5 1005.63,8483.61 1005.59,8483.71C1005.44,8484.88 1005.9,8485.34 1006.98,8485.1C1007.28,8485.03 1007.55,8484.96 1007.79,8484.92C1008.04,8484.87 1008.31,8484.81 1008.61,8484.74C1008.7,8484.73 1008.83,8484.73 1008.98,8484.75C1009.13,8484.76 1009.28,8484.76 1009.43,8484.75L1009.59,8484.88C1009.71,8485.07 1009.72,8485.25 1009.64,8485.41C1009.51,8485.76 1009.29,8486.03 1008.95,8486.21C1008.3,8486.76 1007.6,8487.17 1006.87,8487.43C1006.63,8487.55 1006.39,8487.66 1006.15,8487.75C1005.91,8487.85 1005.67,8487.96 1005.43,8488.08C1005.04,8488.26 1004.81,8488.53 1004.74,8488.88C1004.66,8489.09 1004.58,8489.35 1004.5,8489.65C1004.03,8491.8 1003.58,8493.95 1003.16,8496.11C1002.9,8497.43 1002.01,8501.86 1001.75,8503.19C1001.69,8503.18 1001.63,8503.18 1001.58,8503.19C1001.63,8503.19 1001.69,8503.19 1001.75,8503.19ZM986.323,8490.47C986.231,8490.58 986.196,8490.76 986.216,8491.01C986.175,8491.11 986.221,8491.22 986.356,8491.34C986.49,8491.45 986.607,8491.5 986.707,8491.49C986.802,8491.44 986.925,8491.4 987.074,8491.39C987.223,8491.38 987.345,8491.34 987.441,8491.28C988.414,8490.96 989.401,8490.62 990.4,8490.29C991.398,8489.96 992.387,8489.65 993.366,8489.37C994.344,8489.09 995.319,8488.77 996.291,8488.42C997.263,8488.06 998.236,8487.72 999.211,8487.39C1000.09,8487.17 1000.91,8486.8 1001.67,8486.28C1002.09,8485.9 1002.34,8485.56 1002.41,8485.25L1002.86,8483.41C1003.01,8482.8 1003.14,8482.18 1003.24,8481.58C1003.4,8480.52 1003.54,8479.45 1003.65,8478.39C1003.76,8477.33 1003.85,8476.27 1003.92,8475.22C1003.99,8474.91 1004.02,8474.62 1003.99,8474.35C1003.97,8474.08 1004,8473.81 1004.08,8473.55C1004.28,8472.39 1004.45,8471.24 1004.58,8470.1C1004.71,8468.96 1004.86,8467.81 1005.01,8466.65C1005.05,8466.55 1005.06,8466.37 1005.04,8466.12C1005.02,8465.87 1004.94,8465.73 1004.78,8465.69C1004.67,8465.6 1004.5,8465.64 1004.27,8465.81C1004.04,8466.08 1003.8,8466.38 1003.55,8466.69C1003.3,8467.02 1003.04,8467.31 1002.76,8467.59C1002.39,8467.92 1002.08,8468.25 1001.83,8468.6C1001.58,8468.95 1001.3,8469.31 1000.98,8469.68C1000.35,8470.59 999.75,8471.47 999.172,8472.34C998.593,8473.22 997.909,8474.04 997.122,8474.81C997.026,8474.86 996.915,8475.02 996.786,8475.28C996.42,8475.71 996.082,8476.17 995.771,8476.64C995.46,8477.11 995.124,8477.59 994.763,8478.07L993.633,8479.41C993.245,8479.86 992.95,8480.37 992.746,8480.94C992.655,8481.05 992.575,8481.14 992.507,8481.22L992.267,8481.51C991.811,8482.04 991.405,8482.59 991.05,8483.15C990.695,8483.7 990.341,8484.27 989.989,8484.84C989.545,8485.53 989.099,8486.21 988.654,8486.87C988.207,8487.53 987.762,8488.2 987.319,8488.89L986.783,8489.69C986.604,8489.95 986.451,8490.21 986.323,8490.47ZM1009.18,8490.47C1009.41,8489.88 1009.6,8489.27 1009.75,8488.66C1009.82,8488.35 1009.97,8488.09 1010.21,8487.87C1010.28,8487.62 1010.47,8487.48 1010.77,8487.45C1011.06,8487.33 1011.33,8487.26 1011.58,8487.24C1011.87,8487.11 1012.08,8487.22 1012.21,8487.56C1012.43,8487.79 1012.56,8488.16 1012.6,8488.65L1012.63,8489.02C1012.64,8489.17 1012.74,8489.28 1012.92,8489.34C1013.1,8489.4 1013.26,8489.38 1013.4,8489.26C1013.49,8489.15 1013.66,8489.04 1013.9,8488.92L1014.24,8488.52C1014.38,8488.35 1014.54,8488.22 1014.73,8488.1C1014.82,8488 1014.94,8487.93 1015.09,8487.92C1015.24,8487.91 1015.39,8487.87 1015.53,8487.81C1015.73,8487.75 1016.05,8487.69 1016.5,8487.66C1017.19,8487.55 1017.81,8487.82 1018.37,8488.48C1018.38,8488.63 1018.41,8488.75 1018.47,8488.84C1018.64,8489.03 1018.84,8489.07 1019.08,8488.95C1019.18,8488.89 1019.27,8488.82 1019.37,8488.73C1019.46,8488.65 1019.55,8488.58 1019.65,8488.52L1020.67,8487.31C1020.95,8487.04 1021.19,8486.77 1021.4,8486.5C1021.6,8486.24 1021.82,8485.97 1022.04,8485.7C1022.13,8485.49 1022.25,8485.32 1022.41,8485.18C1022.58,8485.04 1022.73,8484.92 1022.87,8484.8C1023.25,8484.52 1023.62,8484.23 1024,8483.92C1024.38,8483.62 1024.75,8483.3 1025.12,8482.97C1025.69,8482.57 1026.3,8482.42 1026.96,8482.52C1027.42,8482.58 1027.74,8482.78 1027.91,8483.12L1027.94,8483.49C1027.88,8483.99 1027.81,8484.45 1027.72,8484.86C1027.63,8485.27 1027.48,8485.7 1027.26,8486.17C1026.89,8487.15 1026.55,8488.13 1026.23,8489.1C1025.91,8490.08 1025.54,8491.04 1025.11,8491.98C1024.92,8492.64 1024.71,8493.31 1024.49,8493.98C1024.27,8494.65 1024.04,8495.32 1023.79,8495.99C1023.58,8496.5 1023.4,8497.01 1023.24,8497.51C1023.08,8498 1022.9,8498.54 1022.7,8499.12C1022.7,8499.17 1022.7,8499.25 1022.68,8499.35C1022.66,8499.46 1022.66,8499.55 1022.67,8499.66C1022.69,8499.86 1022.74,8499.95 1022.84,8499.95C1022.9,8500.04 1022.97,8500.04 1023.07,8499.93C1023.17,8499.92 1023.33,8499.83 1023.57,8499.66C1024.08,8499.22 1024.59,8498.78 1025.08,8498.34C1025.56,8497.9 1026.04,8497.41 1026.49,8496.87C1026.54,8496.81 1026.59,8496.77 1026.63,8496.74C1026.68,8496.72 1026.72,8496.65 1026.77,8496.55C1027.13,8496.12 1027.53,8495.75 1027.95,8495.43C1028.38,8495.13 1028.77,8494.76 1029.14,8494.32C1029.3,8494.13 1029.47,8493.94 1029.65,8493.76C1029.74,8493.41 1029.85,8493.18 1029.96,8493.09C1030.18,8492.67 1030.4,8492.31 1030.62,8491.99C1030.84,8491.67 1031.12,8491.35 1031.44,8491.02C1031.67,8490.75 1031.9,8490.47 1032.12,8490.17C1032.35,8489.88 1032.58,8489.6 1032.81,8489.33C1032.94,8489.12 1033.1,8488.93 1033.28,8488.77C1033.47,8488.6 1033.65,8488.39 1033.83,8488.12C1034.06,8487.9 1034.26,8487.68 1034.42,8487.47C1034.57,8487.26 1034.74,8487.05 1034.93,8486.83C1035.61,8485.97 1036.36,8485.36 1037.18,8484.99L1039.12,8483.93C1039.26,8483.82 1039.43,8483.75 1039.62,8483.7C1039.82,8483.66 1040.02,8483.61 1040.21,8483.54C1040.5,8483.37 1040.82,8483.34 1041.18,8483.46L1041.33,8483.45C1041.64,8483.57 1041.99,8483.65 1042.36,8483.67C1042.74,8483.68 1043.11,8483.7 1043.46,8483.73C1043.96,8483.78 1044.31,8483.94 1044.51,8484.2C1044.71,8484.46 1044.77,8484.77 1044.7,8485.12C1044.76,8485.82 1044.64,8486.53 1044.35,8487.25C1044.23,8487.67 1044.09,8488.08 1043.92,8488.49C1043.76,8488.91 1043.64,8489.31 1043.58,8489.72C1043.5,8489.98 1043.42,8490.22 1043.34,8490.45C1043.25,8490.68 1043.17,8490.93 1043.1,8491.18L1042.75,8492.42C1042.63,8492.82 1042.54,8493.21 1042.47,8493.56L1042.51,8494.09C1042.51,8494.14 1042.57,8494.19 1042.67,8494.26C1042.78,8494.33 1042.88,8494.35 1042.98,8494.35C1043.23,8494.33 1043.43,8494.28 1043.57,8494.22C1043.96,8494.04 1044.35,8493.83 1044.76,8493.6C1045.16,8493.37 1045.56,8493.14 1045.94,8492.9C1046.51,8492.46 1047.09,8492 1047.7,8491.52C1048.32,8491.04 1048.9,8490.58 1049.47,8490.14C1050.28,8489.62 1051.09,8489.18 1051.91,8488.81C1052.06,8488.75 1052.23,8488.71 1052.43,8488.69C1052.53,8488.68 1052.63,8488.73 1052.74,8488.81C1052.85,8488.91 1052.9,8489 1052.91,8489.1L1052.52,8489.81L1051.7,8490.78C1051.42,8491.1 1051.15,8491.4 1050.87,8491.67C1050.21,8492.17 1049.61,8492.7 1049.05,8493.25C1048.49,8493.79 1047.91,8494.32 1047.3,8494.82C1046.97,8495.09 1046.62,8495.36 1046.24,8495.62C1045.86,8495.87 1045.48,8496.14 1045.11,8496.42C1044.39,8496.88 1043.49,8497.16 1042.39,8497.25C1041.75,8497.3 1041.12,8497.25 1040.51,8497.1C1040.4,8497.06 1040.3,8497.01 1040.19,8496.94C1040.08,8496.87 1039.98,8496.82 1039.88,8496.78C1039.38,8496.27 1039.14,8495.76 1039.15,8495.26C1039.18,8494.96 1039.23,8494.68 1039.31,8494.42C1039.39,8494.17 1039.39,8493.94 1039.33,8493.75C1039.31,8493.55 1039.2,8493.46 1039,8493.48C1038.96,8493.53 1038.91,8493.56 1038.86,8493.56C1038.81,8493.56 1038.76,8493.59 1038.72,8493.65C1038.41,8494.17 1038.09,8494.57 1037.77,8494.85C1037.53,8495.07 1037.32,8495.26 1037.14,8495.43C1036.95,8495.59 1036.74,8495.76 1036.5,8495.93C1036.27,8496.15 1036.05,8496.38 1035.85,8496.62C1035.64,8496.87 1035.39,8497.07 1035.11,8497.24C1034.08,8498.18 1032.82,8498.64 1031.32,8498.61C1030.92,8498.64 1030.45,8498.48 1029.92,8498.12C1029.7,8497.84 1029.51,8497.63 1029.35,8497.5C1029.23,8497.37 1029.15,8497.24 1029.09,8497.12C1028.99,8497.23 1028.89,8497.33 1028.79,8497.43C1028.25,8498.08 1027.71,8498.7 1027.18,8499.3C1026.65,8499.9 1026.12,8500.52 1025.57,8501.17C1024.9,8502.12 1024.19,8502.91 1023.44,8503.52C1023.2,8503.74 1022.95,8503.9 1022.69,8504C1022.42,8504.09 1022.14,8504.18 1021.85,8504.25C1021.35,8504.29 1020.94,8504.15 1020.61,8503.83C1019.65,8503.11 1019.29,8502.16 1019.55,8500.99C1019.69,8500.31 1019.87,8499.76 1020.09,8499.33C1020.29,8498.81 1020.5,8498.29 1020.71,8497.79C1020.92,8497.29 1021.13,8496.76 1021.33,8496.19C1021.54,8495.72 1021.74,8495.24 1021.93,8494.75C1022.11,8494.26 1022.31,8493.78 1022.52,8493.31C1022.6,8493.06 1022.68,8492.82 1022.76,8492.58C1022.84,8492.35 1022.9,8492.11 1022.93,8491.85C1023.13,8491.29 1023.31,8490.74 1023.47,8490.2C1023.62,8489.66 1023.8,8489.11 1024.01,8488.54C1024.14,8488.33 1024.22,8488.12 1024.25,8487.92C1024.3,8487.82 1024.31,8487.64 1024.29,8487.39C1024.28,8487.29 1024.21,8487.22 1024.08,8487.18C1023.95,8487.14 1023.84,8487.15 1023.75,8487.21C1023.64,8487.22 1023.55,8487.28 1023.46,8487.38C1023.23,8487.6 1023.03,8487.79 1022.87,8487.96C1022.71,8488.12 1022.53,8488.31 1022.35,8488.52C1021.57,8489.34 1020.83,8490.2 1020.12,8491.11C1019.42,8492.02 1018.73,8492.93 1018.06,8493.83C1017.84,8494.2 1017.6,8494.56 1017.36,8494.9C1017.11,8495.25 1016.88,8495.58 1016.65,8495.9C1016.47,8496.16 1016.31,8496.41 1016.15,8496.65C1015.99,8496.89 1015.83,8497.14 1015.65,8497.41C1015.48,8497.77 1015.21,8498.13 1014.84,8498.46C1014.37,8498.91 1013.82,8498.96 1013.19,8498.6C1012.93,8498.42 1012.71,8498.22 1012.54,8498.01C1012.38,8497.79 1012.23,8497.54 1012.11,8497.25C1012.09,8497.05 1012.11,8496.95 1012.16,8496.94C1012.23,8496.69 1012.3,8496.42 1012.35,8496.14C1012.4,8495.86 1012.49,8495.57 1012.62,8495.25C1012.7,8495.05 1012.76,8494.62 1012.81,8493.96C1012.8,8493.86 1012.76,8493.79 1012.68,8493.75C1012.6,8493.71 1012.54,8493.71 1012.5,8493.76C1012.05,8493.8 1011.76,8493.97 1011.64,8494.28C1011.41,8494.55 1011.21,8494.83 1011.03,8495.12C1010.85,8495.41 1010.71,8495.76 1010.59,8496.17C1010.42,8496.49 1010.25,8496.8 1010.11,8497.11C1009.95,8497.43 1009.82,8497.76 1009.7,8498.12C1009.49,8498.65 1009.18,8499.16 1008.77,8499.65C1008.69,8499.86 1008.54,8499.99 1008.32,8500.03C1008.1,8500.08 1007.88,8500.06 1007.67,8499.97C1007.38,8500 1007.14,8499.89 1006.97,8499.65C1006.65,8499.37 1006.47,8499 1006.43,8498.54C1006.43,8497.89 1006.56,8497.35 1006.82,8496.93C1007.04,8496.51 1007.25,8496.05 1007.46,8495.53C1007.67,8495.01 1007.88,8494.55 1008.09,8494.13C1008.17,8493.87 1008.25,8493.65 1008.34,8493.47C1008.43,8493.29 1008.53,8493.06 1008.66,8492.8C1008.66,8492.76 1008.69,8492.58 1008.77,8492.27C1008.82,8491.67 1008.96,8491.07 1009.18,8490.47ZM1034.42,8491.64C1033.94,8492.45 1033.45,8493.25 1032.97,8494.05L1032.99,8494.34C1032.95,8494.45 1032.94,8494.51 1032.97,8494.53C1033,8494.56 1033.01,8494.59 1033.02,8494.64L1033.54,8494.59C1033.68,8494.44 1033.82,8494.31 1033.96,8494.23C1034.1,8494.14 1034.24,8494.01 1034.38,8493.85C1034.98,8493.25 1035.58,8492.64 1036.18,8492.02C1036.78,8491.39 1037.36,8490.78 1037.91,8490.19C1038.41,8489.65 1038.91,8489.12 1039.39,8488.6C1039.87,8488.09 1040.34,8487.56 1040.8,8487.02C1040.94,8486.86 1041.05,8486.71 1041.14,8486.58C1041.23,8486.45 1041.31,8486.26 1041.39,8486C1041.43,8485.89 1041.44,8485.83 1041.41,8485.81C1041.39,8485.79 1041.37,8485.75 1041.37,8485.7C1041.34,8485.4 1041.2,8485.26 1040.96,8485.28C1040.77,8485.4 1040.6,8485.46 1040.45,8485.48C1040.3,8485.49 1040.15,8485.55 1040.01,8485.66C1039.62,8485.79 1039.29,8485.96 1039,8486.16C1038.72,8486.36 1038.44,8486.59 1038.16,8486.86C1037.79,8487.19 1037.42,8487.57 1037.05,8488C1036.69,8488.44 1036.32,8488.87 1035.96,8489.29C1035.42,8490.04 1034.9,8490.82 1034.42,8491.64ZM1104.67,8483.4C1103.77,8483 1103.21,8482.37 1103.03,8481.53C1102.84,8480.72 1102.94,8479.85 1103.33,8478.94L1103.33,8478.93C1103.54,8478.51 1103.92,8478.09 1104.46,8477.69C1104.98,8477.29 1105.56,8476.93 1106.18,8476.62C1106.81,8476.32 1107.44,8476.06 1108.08,8475.88C1108.71,8475.7 1109.26,8475.61 1109.72,8475.61C1109.75,8475.6 1109.78,8475.6 1109.81,8475.6C1110.18,8475.6 1110.49,8475.78 1110.72,8476.13L1110.74,8476.15L1110.75,8476.17C1110.9,8476.53 1110.81,8476.78 1110.71,8476.92C1110.57,8477.1 1110.39,8477.21 1110.19,8477.23C1109.88,8477.3 1109.5,8477.42 1109.05,8477.62C1108.59,8477.82 1108.13,8478.05 1107.69,8478.32C1107.25,8478.59 1106.83,8478.88 1106.45,8479.2C1106.08,8479.5 1105.8,8479.8 1105.62,8480.08C1105.49,8480.3 1105.45,8480.53 1105.51,8480.8C1105.54,8480.99 1105.6,8481.13 1105.68,8481.21C1105.7,8481.22 1105.73,8481.23 1105.76,8481.23L1107.54,8481.09C1107.63,8481.08 1107.73,8481.07 1107.83,8481.07C1108.33,8481.07 1108.9,8481.17 1109.54,8481.37C1110.32,8481.62 1110.87,8482 1111.19,8482.49C1111.49,8483.01 1111.54,8483.62 1111.36,8484.33C1111.19,8485 1110.88,8485.72 1110.44,8486.48C1110.01,8487.24 1109.48,8488 1108.89,8488.74C1108.29,8489.49 1107.64,8490.17 1106.97,8490.76C1106.3,8491.34 1105.65,8491.84 1105.04,8492.24C1104.4,8492.66 1103.87,8492.89 1103.43,8492.92C1103.32,8492.93 1103.21,8492.94 1103.11,8492.94C1102.86,8492.94 1102.64,8492.91 1102.46,8492.85C1102.26,8492.78 1102.13,8492.69 1102.07,8492.56C1102.04,8492.48 1102.01,8492.36 1102.07,8492.21L1102.09,8492.15L1102.14,8492.11C1102.95,8491.44 1103.62,8490.92 1104.17,8490.49C1104.72,8490.08 1105.33,8489.5 1105.98,8488.77L1105.98,8488.76C1106.21,8488.45 1106.56,8487.98 1107.03,8487.33C1107.5,8486.68 1107.89,8486.03 1108.22,8485.4C1108.53,8484.78 1108.71,8484.24 1108.76,8483.8C1108.78,8483.66 1108.76,8483.57 1108.71,8483.51C1108.65,8483.44 1108.51,8483.4 1108.32,8483.4C1108.27,8483.4 1108.22,8483.41 1108.17,8483.41C1107.89,8483.43 1107.6,8483.48 1107.29,8483.56C1106.96,8483.64 1106.67,8483.7 1106.44,8483.72C1106.35,8483.72 1106.25,8483.73 1106.15,8483.73C1105.95,8483.73 1105.75,8483.71 1105.56,8483.67C1105.29,8483.62 1104.99,8483.52 1104.67,8483.4ZM1120.06,8495.64C1120.59,8495.72 1120.58,8495.86 1120.03,8496.04C1119.48,8496.22 1118.01,8496.42 1115.6,8496.66C1110.16,8497.13 1099.54,8498.14 1094.24,8498.74C1088.93,8499.33 1083.48,8499.94 1077.88,8500.56C1071.29,8501.41 1064.75,8502.24 1058.26,8503.03C1058.29,8503 1058.19,8503.03 1058.13,8503.03C1058.12,8503.04 1058.12,8503.04 1058.12,8503.04C1053.11,8503.64 1032.76,8506.11 1028.54,8506.62L1028.54,8506.63C1023.34,8507.27 1006.8,8509.33 1001.77,8509.97C993.935,8510.97 996.274,8510.86 988.666,8511.93C987.321,8512.13 986.26,8512.29 985.474,8512.4L983.321,8512.69C982.67,8512.77 981.974,8512.87 981.235,8512.98C980.501,8513.1 979.571,8513.25 978.444,8513.44C977.039,8513.3 976.445,8513.1 976.661,8512.84C976.881,8512.58 977.578,8512.31 978.75,8512.02C979.924,8511.74 981.346,8511.46 983.011,8511.19C984.681,8510.93 986.15,8510.73 987.416,8510.6C992.644,8509.93 988.252,8510.36 994.349,8509.6C1000.45,8508.84 1006.61,8508.07 1012.82,8507.3C1014.49,8507.09 1027.22,8505.52 1028.88,8505.32L1028.87,8505.32C1029.46,8505.25 1030.96,8505.07 1031.16,8505.05C1035.34,8504.54 1055.65,8502.15 1059.26,8501.71L1061.76,8501.42C1066.98,8500.81 1072.27,8500.2 1077.64,8499.6C1083.01,8498.99 1088.32,8498.4 1093.56,8497.82C1098.81,8497.24 1108.88,8496.23 1113.29,8495.75C1114.69,8495.59 1116.04,8495.52 1117.32,8495.51C1118.62,8495.51 1119.53,8495.55 1120.06,8495.64ZM1064.56,8491.13C1064.19,8491.45 1063.75,8491.78 1063.41,8492.04C1062.4,8492.8 1060.92,8493.02 1059.91,8493.3C1059.43,8493.44 1058.95,8493.59 1058.46,8493.74C1058.15,8493.73 1057.82,8493.74 1057.46,8493.8C1057.26,8493.82 1057.03,8493.87 1056.76,8493.97C1056.49,8494.06 1056.18,8494.12 1055.84,8494.15C1055.14,8494.2 1054.63,8494.45 1054.32,8494.87C1054.05,8495.29 1053.72,8495.52 1053.32,8495.55C1052.92,8495.58 1052.52,8495.61 1052.12,8495.64C1051.77,8495.57 1051.51,8495.4 1051.34,8495.14C1051.16,8494.88 1050.97,8494.6 1050.75,8494.32C1051.41,8493.17 1052.22,8492.03 1053.18,8490.91C1053.54,8490.28 1053.95,8489.71 1054.44,8489.2C1054.92,8488.68 1055.29,8488.07 1055.54,8487.35C1054.94,8487.4 1054.35,8487.45 1053.78,8487.52C1053.21,8487.59 1052.65,8487.55 1052.09,8487.39C1051.88,8486.71 1052.12,8486.22 1052.8,8485.91C1053.47,8485.56 1054.15,8485.18 1054.85,8484.78C1055.54,8484.37 1056.26,8484.09 1057,8483.93C1057.98,8483.66 1058.75,8483.61 1059.31,8483.79C1059.88,8483.97 1060.52,8484.54 1061.25,8485.48C1060.92,8486.51 1060.36,8487.42 1059.55,8488.24C1058.73,8489.05 1058.07,8490.03 1057.56,8491.17C1057.87,8491.34 1058.2,8491.43 1058.55,8491.43C1058.9,8491.43 1059.18,8491.42 1059.38,8491.4C1060.21,8491.47 1061.49,8491.29 1062.47,8490.59C1062.65,8490.46 1063.23,8490.09 1063.75,8489.57C1064.35,8488.97 1064.74,8488.26 1065.54,8487.4L1065.57,8487.36C1065.67,8487.04 1065.79,8486.69 1065.92,8486.29L1066.28,8485.21C1066.4,8484.85 1066.55,8484.49 1066.72,8484.12C1066.89,8483.76 1067.08,8483.42 1067.28,8483.11C1067.47,8482.79 1067.68,8482.47 1067.91,8482.15C1068.12,8481.73 1068.32,8481.34 1068.49,8480.98C1068.66,8480.61 1068.85,8480.23 1069.07,8479.81C1069.24,8479.49 1069.5,8479.29 1069.85,8479.22C1070.03,8479 1070.29,8478.88 1070.64,8478.85C1071.18,8478.71 1071.79,8478.56 1072.48,8478.4C1073.17,8478.24 1073.73,8478.35 1074.16,8478.71C1074.27,8478.8 1074.37,8478.86 1074.47,8478.87C1074.57,8478.89 1074.68,8478.94 1074.79,8479.03C1074.96,8479.27 1075.1,8479.49 1075.21,8479.67C1075.33,8479.87 1075.47,8480.08 1075.64,8480.32C1075.76,8480.56 1075.86,8480.78 1075.93,8481C1075.99,8481.22 1076.02,8481.49 1075.99,8481.79L1076.06,8482.6C1076.07,8482.76 1076.06,8482.93 1076.03,8483.14C1076.06,8483.53 1076.3,8483.71 1076.75,8483.68L1077.49,8483.61C1077.81,8483.51 1078.23,8483.42 1078.74,8483.37C1078.8,8483.19 1078.87,8483.03 1078.95,8482.88C1078.95,8482.87 1078.96,8482.86 1078.96,8482.85C1079.06,8482.44 1079.18,8482.03 1079.33,8481.62C1079.47,8481.2 1079.59,8480.76 1079.69,8480.3C1079.76,8480.02 1079.84,8479.77 1079.93,8479.54C1080.03,8479.3 1080.11,8479.07 1080.18,8478.84C1080.25,8478.61 1080.44,8478.48 1080.76,8478.45L1081.43,8478.4C1081.57,8478.39 1081.71,8478.39 1081.87,8478.4C1082.03,8478.41 1082.16,8478.48 1082.26,8478.6C1082.69,8478.88 1082.88,8479.23 1082.82,8479.64C1082.84,8479.86 1082.81,8480.08 1082.74,8480.29C1082.67,8480.49 1082.64,8480.69 1082.65,8480.91C1082.65,8480.93 1082.66,8480.95 1082.67,8480.96C1082.73,8481.03 1082.81,8481.06 1082.94,8481.05C1083.06,8481.04 1083.17,8481.01 1083.25,8480.96C1083.26,8480.96 1083.27,8480.95 1083.28,8480.94C1083.6,8480.56 1083.97,8480.22 1084.37,8479.92C1084.77,8479.62 1085.13,8479.27 1085.46,8478.89L1085.47,8478.87C1085.89,8478.53 1086.44,8478.33 1087.11,8478.27C1087.59,8478.23 1087.96,8478.33 1088.21,8478.58C1088.21,8478.58 1088.22,8478.59 1088.22,8478.6C1088.27,8478.68 1088.32,8478.75 1088.37,8478.81C1088.42,8478.87 1088.45,8478.95 1088.46,8479.04C1088.61,8479.3 1088.67,8479.47 1088.64,8479.57C1088.58,8479.93 1088.51,8480.23 1088.44,8480.46L1086.51,8485.76C1086.51,8485.76 1086.51,8485.76 1086.51,8485.76L1085.55,8488.95C1085.37,8489.51 1085.34,8489.96 1085.46,8490.32C1085.47,8490.45 1085.54,8490.51 1085.68,8490.5L1085.81,8490.49L1085.82,8490.56L1085.93,8490.42C1085.94,8490.41 1085.94,8490.41 1085.95,8490.4C1086.41,8490.05 1086.89,8489.7 1087.38,8489.34C1087.87,8488.99 1088.32,8488.59 1088.73,8488.16C1088.73,8488.15 1088.74,8488.15 1088.74,8488.15C1089.24,8487.7 1089.8,8487.28 1090.42,8486.9C1091.05,8486.51 1091.63,8486.09 1092.18,8485.64L1092.19,8485.63C1092.36,8485.53 1092.54,8485.41 1092.73,8485.28L1092.75,8485.19C1092.81,8485 1092.87,8484.84 1092.95,8484.69C1093.14,8484.28 1093.28,8483.77 1093.37,8483.17C1093.41,8482.68 1093.56,8482.32 1093.8,8482.07C1093.81,8482.06 1093.82,8482.05 1093.82,8482.03C1094,8481.44 1094.38,8480.85 1094.95,8480.27L1094.96,8480.27C1095.2,8479.98 1095.44,8479.69 1095.66,8479.4C1095.88,8479.11 1096.12,8478.85 1096.37,8478.6C1096.37,8478.6 1096.38,8478.59 1096.38,8478.59C1096.55,8478.49 1096.69,8478.39 1096.81,8478.3C1096.82,8478.29 1096.83,8478.29 1096.84,8478.28C1097.09,8478.17 1097.34,8478.08 1097.58,8477.99C1097.82,8477.9 1098.11,8477.8 1098.47,8477.68C1098.55,8477.63 1098.65,8477.6 1098.76,8477.59C1098.87,8477.58 1098.97,8477.57 1099.06,8477.56L1099.08,8477.56C1099.48,8477.62 1099.73,8477.71 1099.83,8477.84C1100.21,8478.12 1100.55,8478.41 1100.85,8478.69C1100.85,8478.7 1100.85,8478.7 1100.86,8478.71C1101.06,8478.96 1101.24,8479.26 1101.4,8479.6C1101.57,8479.95 1101.55,8480.31 1101.36,8480.69C1101.12,8481.07 1100.83,8481.44 1100.5,8481.81C1100.17,8482.17 1099.84,8482.53 1099.5,8482.87C1099.08,8483.27 1098.67,8483.67 1098.25,8484.09C1097.83,8484.51 1097.39,8484.92 1096.93,8485.32C1096.63,8485.57 1096.28,8485.68 1095.88,8485.67C1095.69,8485.69 1095.56,8485.72 1095.48,8485.77C1095.22,8485.93 1095.06,8486.07 1094.98,8486.22L1094.97,8486.23C1094.83,8486.59 1094.76,8486.86 1094.77,8487.04C1094.77,8487.05 1094.77,8487.06 1094.76,8487.07C1094.59,8487.57 1094.57,8488.11 1094.7,8488.71C1094.7,8488.73 1094.71,8488.76 1094.73,8488.77C1094.82,8488.84 1094.88,8488.91 1094.93,8488.97C1094.98,8489.03 1095.07,8489.09 1095.2,8489.17C1095.21,8489.18 1095.22,8489.18 1095.23,8489.18C1095.59,8489.24 1095.88,8489.24 1096.1,8489.17C1096.67,8489.04 1097.2,8488.84 1097.67,8488.57C1098.28,8488.29 1098.83,8488 1099.33,8487.69C1099.82,8487.38 1100.32,8487.05 1100.83,8486.69C1101.39,8486.28 1101.21,8486.58 1101.75,8486.2C1102.28,8485.82 1102.82,8485.42 1103.37,8485.02C1103.37,8485.02 1103.38,8485.01 1103.39,8485.01C1103.64,8484.9 1103.84,8484.84 1103.97,8484.83C1104.1,8484.73 1104.24,8484.73 1104.41,8484.83C1104.58,8484.93 1104.64,8485.02 1104.6,8485.11C1104.52,8485.75 1104.23,8486.34 1103.74,8486.87C1103.74,8486.88 1103.73,8486.88 1103.72,8486.89C1103.25,8487.19 1102.8,8487.54 1102.36,8487.94C1101.92,8488.33 1102.23,8488.04 1101.86,8488.42L1101.85,8488.43C1101.51,8488.68 1101.16,8488.95 1100.81,8489.23C1100.44,8489.5 1100.05,8489.73 1099.61,8489.9C1099.61,8489.9 1099.61,8489.9 1099.61,8489.9C1099.3,8490.06 1098.99,8490.21 1098.66,8490.35C1098.34,8490.49 1098,8490.57 1097.65,8490.6C1097.64,8490.6 1097.63,8490.6 1097.62,8490.61C1097.32,8490.72 1097.02,8490.81 1096.71,8490.88C1096.4,8490.95 1096.09,8490.98 1095.77,8490.96L1095.76,8490.96C1095.27,8491 1094.87,8490.97 1094.54,8490.86C1094.45,8490.82 1094.36,8490.78 1094.26,8490.75C1094.17,8490.71 1094.03,8490.67 1093.85,8490.65C1093.75,8490.61 1093.68,8490.57 1093.63,8490.53C1093.59,8490.49 1093.52,8490.45 1093.43,8490.42C1093.43,8490.41 1093.42,8490.41 1093.41,8490.4C1093.17,8490.2 1092.95,8490.02 1092.73,8489.86C1092.52,8489.69 1092.33,8489.48 1092.17,8489.23C1091.96,8488.88 1091.93,8488.46 1092.07,8487.95C1092.1,8487.76 1092.13,8487.58 1092.18,8487.39L1090.14,8489.66C1089.65,8490.19 1089.14,8490.73 1088.62,8491.27C1088.1,8491.81 1087.55,8492.35 1086.96,8492.89C1086.96,8492.9 1086.96,8492.9 1086.95,8492.9C1086.74,8493.05 1086.55,8493.23 1086.36,8493.42C1086.17,8493.62 1085.97,8493.81 1085.76,8494.01C1085.6,8494.16 1085.44,8494.31 1085.29,8494.45C1085.15,8494.59 1085.04,8494.7 1084.95,8494.75L1084.94,8494.76C1084.33,8495.03 1083.84,8495.02 1083.45,8494.74L1083.11,8494.51C1083.1,8494.5 1083.09,8494.5 1083.09,8494.49C1082.75,8494.12 1082.52,8493.85 1082.42,8493.68C1082.31,8493.51 1082.3,8493.1 1082.39,8492.46L1082.56,8491.3L1082.56,8491.29C1082.73,8490.65 1082.89,8490.03 1083.02,8489.43C1083.15,8488.84 1083.32,8488.21 1083.54,8487.56L1084.01,8485.84L1084.01,8485.83L1084.09,8485.15C1084.07,8484.98 1083.98,8484.86 1083.81,8484.78C1083.79,8484.77 1083.77,8484.77 1083.76,8484.77C1083.64,8484.78 1083.55,8484.81 1083.47,8484.86C1083.46,8484.86 1083.45,8484.87 1083.44,8484.88L1081.97,8486.61L1081.97,8486.61C1081.73,8486.95 1081.45,8487.25 1081.13,8487.52C1080.82,8487.79 1080.49,8487.99 1080.15,8488.11C1080.14,8488.11 1080.13,8488.12 1080.12,8488.12C1080,8488.22 1079.9,8488.29 1079.81,8488.34C1079.73,8488.4 1079.64,8488.49 1079.57,8488.63C1079.45,8488.91 1079.16,8489.19 1078.68,8489.45L1078.23,8489.69C1077.84,8489.91 1077.54,8489.79 1077.32,8489.36C1077.12,8489.11 1077.05,8488.78 1077.1,8488.38C1077.11,8488.37 1077.11,8488.36 1077.11,8488.35C1077.26,8487.98 1077.38,8487.64 1077.46,8487.32C1077.55,8487 1077.64,8486.68 1077.75,8486.35L1077.76,8486.34C1077.89,8486.09 1078,8485.82 1078.11,8485.55C1077.84,8485.63 1077.59,8485.71 1077.37,8485.8C1076.61,8486.22 1075.85,8486.45 1075.1,8486.51C1075.01,8486.57 1074.92,8486.63 1074.85,8486.68C1074.78,8486.74 1074.7,8486.8 1074.61,8486.85C1074.51,8486.96 1074.46,8487.05 1074.44,8487.13C1074.42,8487.21 1074.39,8487.27 1074.34,8487.33C1074.21,8487.54 1074.12,8487.71 1074.09,8487.83C1074.05,8487.96 1073.98,8488.08 1073.89,8488.19C1073.44,8489.38 1072.74,8490.49 1071.8,8491.51C1070.86,8492.54 1069.99,8493.41 1069.2,8494.13C1068.87,8494.45 1068.39,8494.7 1067.75,8494.85L1067.23,8494.89C1067.08,8494.9 1066.9,8494.87 1066.7,8494.78C1066.09,8494.68 1065.62,8494.47 1065.29,8494.15C1064.97,8493.83 1064.71,8493.4 1064.51,8492.86C1064.45,8492.77 1064.42,8492.69 1064.42,8492.65C1064.29,8492.26 1064.28,8491.88 1064.4,8491.52C1064.44,8491.37 1064.49,8491.24 1064.56,8491.13ZM1072.4,8482.83C1072.36,8482.94 1072.35,8483.03 1072.38,8483.1C1072.41,8483.17 1072.43,8483.26 1072.44,8483.36C1072.44,8483.4 1072.5,8483.52 1072.62,8483.72C1072.73,8483.81 1072.84,8483.85 1072.97,8483.84C1073.09,8483.83 1073.2,8483.77 1073.29,8483.66C1073.43,8483.5 1073.54,8483.34 1073.63,8483.18C1073.8,8482.87 1073.9,8482.51 1073.91,8482.11C1073.93,8481.71 1073.95,8481.31 1073.96,8480.9L1073.95,8480.75C1073.94,8480.66 1073.89,8480.56 1073.78,8480.47C1073.58,8480.48 1073.48,8480.52 1073.49,8480.57C1072.84,8481.17 1072.47,8481.93 1072.4,8482.83ZM1097.08,8481.85C1096.7,8482.38 1096.39,8482.95 1096.17,8483.55C1096.19,8483.73 1096.22,8483.82 1096.26,8483.82L1096.43,8483.8C1096.45,8483.8 1096.47,8483.79 1096.49,8483.77C1096.69,8483.54 1096.88,8483.32 1097.09,8483.11C1097.29,8482.89 1097.5,8482.66 1097.7,8482.42L1097.71,8482.41C1098.05,8482.15 1098.32,8481.86 1098.51,8481.53C1098.71,8481.2 1098.88,8480.88 1099.04,8480.55L1099.05,8480.53C1099.11,8480.45 1099.15,8480.38 1099.15,8480.31C1099.15,8480.28 1099.14,8480.25 1099.12,8480.23C1099.04,8480.16 1099,8480.1 1099,8480.04C1098.99,8479.97 1098.97,8479.94 1098.92,8479.94L1098.58,8479.97C1098.54,8479.97 1098.51,8479.99 1098.5,8480.02C1098.45,8480.11 1098.38,8480.21 1098.28,8480.33C1097.87,8480.82 1097.47,8481.33 1097.08,8481.85ZM1069.56,8483.97C1069.34,8484.34 1069.12,8484.75 1068.91,8485.22C1068.45,8486.26 1068.1,8487.19 1067.87,8488.01C1067.63,8488.83 1067.41,8489.8 1067.2,8490.92L1067.22,8491.14C1067.18,8491.24 1067.18,8491.34 1067.21,8491.44C1067.24,8491.54 1067.31,8491.58 1067.41,8491.58C1067.57,8491.66 1067.69,8491.65 1067.78,8491.54C1068.79,8491.06 1069.63,8490.32 1070.3,8489.31C1070.97,8488.31 1071.52,8487.36 1071.95,8486.47C1071.99,8486.37 1072,8486.24 1071.99,8486.09C1071.97,8485.9 1071.94,8485.77 1071.88,8485.73C1071.61,8485.45 1071.39,8485.17 1071.21,8484.88L1070.69,8484.02C1070.63,8483.93 1070.5,8483.84 1070.3,8483.76C1070.24,8483.71 1070.11,8483.7 1069.91,8483.71C1069.82,8483.72 1069.7,8483.8 1069.56,8483.97Z" style="fill:rgb(79,79,79);"/>
                <g id="アマゾネス" transform="matrix(2,0,0,2,1113.01,8463)">
                    <text x="-39.2px" y="0px" style="font-family:'MalgunGothic', 'Malgun Gothic', sans-serif;font-size:8px;fill:rgb(79,79,79);">ア<tspan x="-31.4px -23.6px -15.8px -8px " y="0px 0px 0px 0px ">マゾネス</tspan></text>
                </g>
            </g>
        </g>
    </g>
</svg>
