<?xml version="1.0" encoding="UTF-8" standalone="no"?>
<!DOCTYPE svg PUBLIC "-//W3C//DTD SVG 1.1//EN" "http://www.w3.org/Graphics/SVG/1.1/DTD/svg11.dtd">
<svg width="70px" height="84px" version="1.1" xmlns="http://www.w3.org/2000/svg" xmlns:xlink="http://www.w3.org/1999/xlink" xml:space="preserve" xmlns:serif="http://www.serif.com/" style="fill-rule:evenodd;clip-rule:evenodd;stroke-linejoin:round;stroke-miterlimit:2;">
    <g transform="matrix(1,0,0,1,-15990,-9034.41)">
        <g transform="matrix(1,0,0,1,15406.5,590.168)">
            <g id="グループ-45" serif:id="グループ 45">
                <path id="シェイプ-868" serif:id="シェイプ 868" d="M622.596,8457.66C639.996,8459.69 653.501,8474.47 653.501,8492.41C653.501,8511.73 637.831,8527.4 618.502,8527.4C599.172,8527.4 583.503,8511.73 583.503,8492.41C583.503,8474.47 597.008,8459.69 614.408,8457.66L614.408,8454.26L610.737,8454.26C610.119,8454.26 609.617,8453.76 609.617,8453.14L609.617,8445.36C609.617,8444.75 610.119,8444.24 610.737,8444.24L626.266,8444.24C626.885,8444.24 627.386,8444.75 627.386,8445.36L627.386,8453.14C627.386,8453.76 626.885,8454.26 626.266,8454.26L622.596,8454.26L622.596,8457.66ZM640.082,8513.98C645.846,8508.22 649.021,8500.56 649.021,8492.41C649.021,8484.26 645.846,8476.6 640.082,8470.84C634.318,8465.07 626.654,8461.9 618.502,8461.9C610.35,8461.9 602.686,8465.07 596.921,8470.84C591.157,8476.6 587.982,8484.26 587.982,8492.41C587.982,8500.56 591.157,8508.22 596.921,8513.98C602.686,8519.75 610.35,8522.92 618.502,8522.92C626.654,8522.92 634.318,8519.75 640.082,8513.98ZM588.52,8464.91L585.98,8461.91C585.74,8461.62 585.775,8461.2 586.058,8460.96L594.807,8453.55C595.09,8453.31 595.514,8453.34 595.754,8453.63L598.295,8456.62C598.535,8456.91 598.5,8457.33 598.217,8457.57L589.467,8464.98C589.184,8465.22 588.76,8465.19 588.52,8464.91ZM647.536,8464.98L638.787,8457.57C638.504,8457.33 638.469,8456.91 638.709,8456.62L641.249,8453.63C641.489,8453.34 641.913,8453.31 642.196,8453.55L650.946,8460.96C651.229,8461.2 651.264,8461.62 651.024,8461.91L648.483,8464.91C648.243,8465.19 647.819,8465.22 647.536,8464.98Z" style="fill:rgb(129,215,207);"/>
                <g id="_1" serif:id="1" transform="matrix(0.875,0,0,0.875,617.459,8494.78)">
                    <g transform="matrix(36,0,0,36,10.0107,0)">
                    </g>
                    <text x="-10.011px" y="0px" style="font-family:'ArialMT', 'Arial', sans-serif;font-size:36px;fill:rgb(79,79,79);">1</text>
                </g>
                <g id="min" transform="matrix(0.875,0,0,0.875,618.772,8511.41)">
                    <g transform="matrix(20,0,0,20,16.5133,0)">
                    </g>
                    <text x="-16.513px" y="0px" style="font-family:'ArialMT', 'Arial', sans-serif;font-size:20px;fill:rgb(79,79,79);">m<tspan x="0.547px 5.39px " y="0px 0px ">in</tspan></text>
                </g>
            </g>
        </g>
    </g>
</svg>
