<?xml version="1.0" encoding="UTF-8" standalone="no"?><!DOCTYPE svg PUBLIC "-//W3C//DTD SVG 1.1//EN" "http://www.w3.org/Graphics/SVG/1.1/DTD/svg11.dtd"><svg width="1101px" height="217px" version="1.1" xmlns="http://www.w3.org/2000/svg" xmlns:xlink="http://www.w3.org/1999/xlink" xml:space="preserve" xmlns:serif="http://www.serif.com/" style="fill-rule:evenodd;clip-rule:evenodd;stroke-linejoin:round;stroke-miterlimit:2;"><path id="シェイプ-506" serif:id="シェイプ 506" d="M375.848,176.547c-5.167,0.76 -10.566,1.404 -16.212,1.922c-162.052,14.861 -293.844,-45.946 -359.636,-90.136l24.657,-19.806c62.847,42.213 197.97,114.578 351.191,108.02Zm0,-0c0.36,-0.053 0.719,-0.106 1.076,-0.16c107.393,-16.232 113.894,-82.626 163.486,-95.016c1.605,-0.401 3.255,-0.746 4.955,-1.03l21.582,-4.484c2.88,-0.851 5.938,-1.497 9.211,-1.914c3.625,-0.463 7.514,-0.644 11.714,-0.511c72.452,2.294 154.637,101.372 226.572,111.652c16.694,2.386 32.616,4.586 46.668,3.459c11.68,-4.586 21.543,-11.184 29.104,-19.303c-25.188,-15.169 -46.004,-31.761 -58.386,-46.079c-40.624,-46.975 -41.151,-104.964 -12.847,-115.495c2.264,-0.842 4.713,-1.38 7.341,-1.585l20.231,-4.371c3.229,-1.215 6.835,-1.809 10.802,-1.696c40.904,1.159 74.406,54.586 77.348,117.446c0.776,16.578 -5.004,31.107 -15.203,42.813c53.885,27.099 126.888,43.991 180.509,24.781l-23.658,24.414c-50.957,18.254 -121.065,-3.703 -175.167,-33.87c-13.305,8.215 -29.605,13.563 -47.096,15.39c0.058,-0.018 0.117,-0.036 0.175,-0.054c-18.84,4.435 -41.979,3.779 -67.473,0.136c-71.935,-10.281 -154.119,-109.359 -226.571,-111.651c-0.739,-0.024 -1.47,-0.038 -2.192,-0.042c-40.266,20.2 -45.53,85.171 -160.526,95.716c-6.89,0.632 -13.75,1.098 -20.574,1.406c-0.36,0.017 -0.721,0.033 -1.081,0.048Zm462.304,-169.556c-19.189,18.199 -14.699,68.523 21.329,110.183c9.825,11.362 24.714,23.018 42.759,33.687c3.57,-8.392 5.272,-17.629 4.814,-27.415c-2.737,-58.474 -31.918,-108.784 -68.902,-116.455Z" style="fill:#81d7cf;fill-opacity:0.6;"/></svg>