<?xml version="1.0" encoding="UTF-8" standalone="no"?>
<!DOCTYPE svg PUBLIC "-//W3C//DTD SVG 1.1//EN" "http://www.w3.org/Graphics/SVG/1.1/DTD/svg11.dtd">
<svg width="100%" height="100%" viewBox="0 0 160 63" version="1.1" xmlns="http://www.w3.org/2000/svg" xmlns:xlink="http://www.w3.org/1999/xlink" xml:space="preserve" xmlns:serif="http://www.serif.com/" style="fill-rule:evenodd;clip-rule:evenodd;stroke-linejoin:round;stroke-miterlimit:2;">
    <g transform="matrix(1,0,0,1,-5994.3,-608.281)">
        <g transform="matrix(1,0,0,1,5954.3,590.168)">
            <path id="シェイプ-713" serif:id="シェイプ 713" d="M75.603,65.862C75.435,66.948 75.253,67.858 75.057,68.592C74.882,69.026 74.673,69.356 74.43,69.586C74.334,69.701 74.166,69.726 73.926,69.67C73.685,69.608 73.531,69.502 73.467,69.351C73.401,69.202 73.364,69.059 73.353,68.931C73.342,68.8 73.304,68.658 73.24,68.507C73.278,68.348 73.277,68.163 73.234,67.96C73.19,67.753 73.188,67.57 73.227,67.409C73.265,66.773 73.305,66.163 73.347,65.566C73.348,65.563 73.782,62.756 73.784,62.752C74.001,62.212 74.001,61.227 74.115,60.695C74.228,60.162 74.313,59.608 74.37,59.026C74.493,57.97 74.604,56.937 74.706,55.939C74.806,54.931 74.944,53.903 75.119,52.84C75.111,52.735 75.047,52.61 74.931,52.466C74.813,52.317 74.702,52.246 74.599,52.254C74.542,52.208 74.461,52.188 74.358,52.196L73.185,52.292C72.776,52.433 72.381,52.556 71.996,52.665C71.612,52.775 71.216,52.898 70.808,53.037C69.691,53.498 68.585,53.915 67.489,54.292C66.391,54.67 65.285,55.089 64.169,55.546C62.744,56.082 61.349,56.655 59.983,57.262C58.617,57.874 57.28,58.519 55.973,59.203C55.721,59.329 55.498,59.49 55.305,59.689C55.111,59.889 54.919,60.102 54.728,60.326C54.68,60.382 54.659,60.438 54.663,60.487C54.667,60.538 54.643,60.567 54.591,60.572C54.322,61.116 54.048,61.626 53.773,62.092C53.497,62.559 53.221,63.04 52.947,63.534C52.277,64.95 51.961,65.45 51.289,66.837C50.617,68.23 47.601,74.523 47.04,75.982C46.826,76.576 46.574,77.174 46.283,77.775C45.99,78.371 45.686,78.974 45.369,79.574C45.186,79.902 44.919,80.162 44.568,80.346C44.367,80.469 44.116,80.593 43.812,80.723C43.095,80.94 42.439,80.94 41.845,80.727C41.74,80.737 41.66,80.715 41.604,80.668C41.547,80.621 41.465,80.576 41.357,80.534C41.091,80.5 40.875,80.412 40.706,80.27C40.537,80.128 39.331,79.456 40.516,78.443C40.655,78.325 40.736,78.1 40.819,77.825C41.445,76.52 41.226,77.233 41.827,75.931C42.427,74.624 45.886,67.281 46.452,65.872C46.718,65.276 46.506,64.954 45.822,64.904L45.509,64.93C45.096,65.016 44.716,65.023 44.369,64.944C44.021,64.869 43.659,64.768 43.282,64.64C43.177,64.647 43.012,64.559 42.787,64.369C42.344,64.092 42.267,63.785 42.554,63.447C42.689,63.175 42.78,63.01 42.828,62.952C43.205,62.448 43.74,61.936 44.431,61.408C44.83,61.166 45.206,60.952 45.558,60.764C45.909,60.578 46.26,60.366 46.608,60.129C47.159,59.822 47.673,59.544 48.152,59.296C48.629,59.047 49.118,58.77 49.618,58.471C50.169,58.162 50.627,57.826 50.99,57.452C51.353,57.083 51.699,56.675 52.03,56.23C52.542,55.455 53.068,54.667 53.605,53.863C54.141,53.06 54.666,52.271 55.18,51.497C55.884,50.495 56.588,49.494 57.293,48.497C57.997,47.495 58.703,46.522 59.412,45.573C60.407,44.289 61.376,43.006 62.32,41.723C63.263,40.443 64.233,39.161 65.228,37.872C65.845,37.091 66.465,36.332 67.087,35.605C67.707,34.87 68.353,34.111 69.023,33.322C69.453,32.817 69.87,32.313 70.275,31.806C70.678,31.304 71.096,30.797 71.526,30.292C71.765,30.011 71.966,29.744 72.13,29.495C72.292,29.246 72.493,28.981 72.733,28.701C73.024,28.416 73.314,28.117 73.603,27.805C73.892,27.493 74.18,27.168 74.467,26.832C74.844,26.328 75.351,25.791 75.986,25.214C76.176,24.99 76.37,24.791 76.566,24.617C76.761,24.445 76.982,24.269 77.231,24.092C78.347,23.003 79.143,21.843 79.618,20.598C79.704,20.383 79.806,20.176 79.921,19.986C80.036,19.792 80.135,19.562 80.218,19.294C80.396,18.914 80.636,18.642 80.939,18.487C81.24,18.333 81.596,18.211 82.01,18.126C82.166,18.113 82.336,18.113 82.521,18.123C82.705,18.135 82.902,18.131 83.111,18.113C83.375,18.145 83.609,18.281 83.813,18.524C84.017,18.774 84.156,19.022 84.23,19.278C84.364,19.635 84.375,20.079 84.261,20.608C84.203,21.194 84.104,21.735 83.963,22.244C83.821,22.752 83.696,23.3 83.587,23.885C83.058,26.388 82.603,28.804 82.219,31.139C82.127,31.934 81.998,32.754 81.832,33.606C81.667,34.458 81.485,35.281 81.289,36.084C80.987,37.521 80.726,38.956 80.503,40.389C80.28,41.817 80.018,43.254 79.718,44.69C79.678,44.851 79.664,44.996 79.675,45.126C79.686,45.255 79.669,45.376 79.626,45.482C79.463,46.7 79.95,47.183 81.084,46.932C81.392,46.858 81.674,46.792 81.934,46.746C82.191,46.699 82.475,46.637 82.784,46.557C82.887,46.548 83.019,46.553 83.177,46.565C83.336,46.579 83.493,46.579 83.65,46.565L83.819,46.709C83.94,46.908 83.955,47.09 83.864,47.255C83.738,47.631 83.498,47.912 83.147,48.1C82.459,48.675 81.735,49.106 80.97,49.378C80.718,49.504 80.465,49.615 80.211,49.714C79.956,49.813 79.704,49.928 79.452,50.052C79.048,50.24 78.809,50.523 78.735,50.895C78.647,51.11 78.565,51.381 78.487,51.702C77.989,53.94 77.52,56.189 77.077,58.45C76.806,59.837 75.873,64.467 75.603,65.862C75.54,65.849 75.478,65.849 75.419,65.857C75.48,65.859 75.541,65.862 75.603,65.862ZM59.438,52.558C59.341,52.67 59.305,52.858 59.326,53.118C59.283,53.224 59.331,53.34 59.472,53.459C59.613,53.579 59.736,53.633 59.84,53.623C59.94,53.566 60.069,53.528 60.225,53.514C60.381,53.503 60.508,53.463 60.609,53.406C61.629,53.06 62.663,52.713 63.71,52.364C64.756,52.02 65.792,51.697 66.817,51.403C67.841,51.11 68.863,50.776 69.882,50.406C70.9,50.037 71.919,49.678 72.941,49.328C73.866,49.096 74.725,48.713 75.521,48.174C75.96,47.775 76.218,47.411 76.297,47.09L76.768,45.169C76.923,44.529 77.055,43.887 77.16,43.254C77.33,42.14 77.474,41.027 77.593,39.919C77.711,38.81 77.804,37.706 77.87,36.598C77.948,36.279 77.976,35.975 77.952,35.689C77.928,35.404 77.957,35.127 78.041,34.858C78.255,33.637 78.43,32.432 78.569,31.242C78.707,30.053 78.856,28.852 79.018,27.634C79.061,27.527 79.073,27.343 79.051,27.083C79.03,26.821 78.939,26.673 78.778,26.634C78.665,26.537 78.485,26.579 78.238,26.754C77.998,27.039 77.748,27.348 77.488,27.682C77.227,28.018 76.951,28.327 76.66,28.613C76.268,28.961 75.943,29.311 75.685,29.675C75.426,30.035 75.129,30.412 74.795,30.807C74.138,31.752 73.506,32.679 72.901,33.593C72.294,34.505 71.578,35.363 70.752,36.167C70.652,36.225 70.535,36.392 70.4,36.664C70.017,37.113 69.663,37.589 69.337,38.085C69.011,38.583 68.659,39.083 68.281,39.588L67.097,40.979C66.691,41.458 66.381,41.992 66.168,42.584C66.072,42.696 65.989,42.795 65.917,42.881C65.845,42.964 65.761,43.061 65.666,43.177C65.188,43.741 64.763,44.311 64.391,44.89C64.018,45.47 63.648,46.064 63.279,46.669C62.814,47.388 62.347,48.095 61.88,48.785C61.413,49.479 60.945,50.186 60.481,50.904L59.92,51.734C59.733,52.013 59.573,52.287 59.438,52.558ZM83.388,52.556C83.624,51.937 83.822,51.304 83.979,50.662C84.057,50.342 84.218,50.069 84.462,49.838C84.544,49.57 84.742,49.422 85.055,49.396C85.359,49.27 85.641,49.193 85.902,49.169C86.206,49.041 86.424,49.155 86.559,49.51C86.789,49.752 86.925,50.131 86.968,50.653L87.001,51.04C87.013,51.197 87.113,51.306 87.303,51.372C87.491,51.435 87.66,51.409 87.808,51.289C87.903,51.178 88.076,51.058 88.329,50.932L88.687,50.513C88.831,50.342 89.002,50.197 89.203,50.077C89.298,49.965 89.424,49.902 89.581,49.886C89.737,49.876 89.891,49.838 90.043,49.769C90.246,49.704 90.584,49.647 91.052,49.611C91.777,49.498 92.43,49.784 93.012,50.47C93.025,50.626 93.061,50.754 93.122,50.851C93.296,51.049 93.508,51.086 93.76,50.959C93.86,50.897 93.958,50.823 94.057,50.739C94.154,50.651 94.252,50.577 94.353,50.515L95.429,49.251C95.72,48.966 95.972,48.681 96.185,48.404C96.398,48.125 96.624,47.846 96.863,47.562C96.95,47.346 97.079,47.169 97.252,47.022C97.423,46.876 97.583,46.746 97.73,46.629C98.126,46.333 98.519,46.027 98.913,45.706C99.306,45.387 99.698,45.053 100.09,44.709C100.685,44.292 101.327,44.134 102.018,44.232C102.496,44.299 102.827,44.508 103.014,44.86L103.046,45.249C102.984,45.778 102.905,46.255 102.81,46.683C102.714,47.11 102.555,47.565 102.333,48.055C101.946,49.081 101.584,50.105 101.249,51.127C100.913,52.148 100.524,53.151 100.081,54.128C99.875,54.827 99.658,55.524 99.428,56.224C99.196,56.922 98.953,57.624 98.696,58.325C98.478,58.866 98.285,59.397 98.119,59.917C97.952,60.432 97.762,60.995 97.55,61.603C97.555,61.655 97.548,61.735 97.531,61.844C97.513,61.954 97.509,62.06 97.518,62.166C97.535,62.376 97.595,62.475 97.7,62.464C97.76,62.568 97.838,62.56 97.935,62.445C98.038,62.438 98.214,62.347 98.463,62.169C99.001,61.706 99.527,61.246 100.04,60.782C100.552,60.323 101.048,59.808 101.526,59.248C101.573,59.192 101.622,59.149 101.673,59.118C101.722,59.088 101.769,59.019 101.813,58.911C102.195,58.46 102.609,58.07 103.055,57.747C103.5,57.424 103.913,57.036 104.297,56.586C104.469,56.385 104.649,56.187 104.833,55.993C104.931,55.626 105.039,55.39 105.159,55.297C105.386,54.858 105.616,54.473 105.85,54.137C106.084,53.808 106.371,53.47 106.711,53.126C106.949,52.846 107.187,52.554 107.425,52.246C107.661,51.938 107.899,51.642 108.138,51.362C108.278,51.143 108.445,50.942 108.64,50.772C108.835,50.598 109.027,50.374 109.214,50.095C109.457,49.867 109.661,49.638 109.827,49.417C109.992,49.195 110.17,48.972 110.362,48.746C111.075,47.851 111.86,47.21 112.721,46.825L114.754,45.714C114.901,45.601 115.078,45.519 115.285,45.475C115.49,45.431 115.696,45.376 115.9,45.307C116.2,45.126 116.538,45.097 116.917,45.224L117.073,45.213C117.398,45.341 117.758,45.415 118.154,45.436C118.549,45.456 118.93,45.478 119.299,45.497C119.828,45.561 120.196,45.725 120.403,45.995C120.609,46.267 120.674,46.589 120.601,46.962C120.661,47.692 120.538,48.432 120.234,49.19C120.112,49.621 119.963,50.052 119.79,50.482C119.615,50.916 119.493,51.346 119.424,51.768C119.34,52.038 119.257,52.292 119.172,52.536C119.087,52.779 119.003,53.036 118.921,53.303L118.555,54.588C118.433,55.017 118.334,55.415 118.261,55.789L118.306,56.336C118.31,56.389 118.367,56.446 118.478,56.516C118.588,56.588 118.695,56.614 118.801,56.607C119.06,56.588 119.267,56.545 119.419,56.479C119.823,56.291 120.238,56.072 120.664,55.828C121.089,55.584 121.502,55.341 121.902,55.097C122.493,54.633 123.108,54.151 123.749,53.65C124.39,53.153 125.006,52.67 125.597,52.204C126.444,51.661 127.297,51.2 128.158,50.815C128.31,50.754 128.489,50.71 128.698,50.692C128.802,50.685 128.91,50.729 129.024,50.822C129.136,50.92 129.197,51.018 129.206,51.123L128.795,51.862L127.934,52.873C127.647,53.213 127.358,53.525 127.067,53.81C126.376,54.339 125.74,54.888 125.157,55.458C124.575,56.027 123.964,56.575 123.326,57.099C122.982,57.392 122.612,57.668 122.215,57.937C121.817,58.204 121.421,58.49 121.026,58.78C120.278,59.263 119.331,59.548 118.185,59.642C117.508,59.697 116.848,59.647 116.206,59.49C116.097,59.446 115.987,59.392 115.877,59.323C115.766,59.251 115.657,59.197 115.548,59.153C115.032,58.618 114.778,58.094 114.788,57.564C114.813,57.249 114.868,56.958 114.952,56.69C115.034,56.42 115.04,56.187 114.972,55.98C114.955,55.774 114.841,55.679 114.633,55.698C114.585,55.754 114.535,55.78 114.483,55.785C114.431,55.791 114.381,55.821 114.334,55.875C114.012,56.427 113.678,56.846 113.336,57.137C113.092,57.367 112.873,57.564 112.678,57.739C112.482,57.91 112.26,58.088 112.013,58.266C111.769,58.497 111.54,58.736 111.325,58.987C111.11,59.244 110.853,59.46 110.553,59.641C109.479,60.619 108.155,61.093 106.579,61.068C106.163,61.102 105.677,60.934 105.121,60.559C104.887,60.264 104.685,60.045 104.516,59.903C104.395,59.769 104.309,59.639 104.249,59.508C104.144,59.623 104.039,59.734 103.935,59.835C103.361,60.508 102.798,61.158 102.247,61.786C101.695,62.413 101.133,63.067 100.56,63.745C99.855,64.744 99.109,65.565 98.324,66.208C98.08,66.435 97.818,66.598 97.538,66.703C97.258,66.803 96.964,66.892 96.656,66.971C96.134,67.013 95.703,66.868 95.36,66.527C94.354,65.774 93.983,64.784 94.249,63.556C94.4,62.849 94.588,62.272 94.815,61.824C95.031,61.275 95.248,60.733 95.469,60.214C95.687,59.689 95.903,59.131 96.117,58.537C96.338,58.046 96.547,57.546 96.74,57.033C96.934,56.52 97.141,56.018 97.364,55.529C97.446,55.261 97.53,55.006 97.615,54.763C97.7,54.521 97.757,54.267 97.789,54.003C98.002,53.408 98.19,52.831 98.353,52.269C98.516,51.707 98.704,51.128 98.918,50.533C99.058,50.313 99.144,50.097 99.18,49.885C99.222,49.777 99.234,49.593 99.213,49.332C99.204,49.229 99.131,49.156 98.998,49.114C98.863,49.074 98.746,49.082 98.646,49.143C98.541,49.15 98.442,49.211 98.346,49.324C98.103,49.553 97.897,49.754 97.727,49.928C97.557,50.097 97.377,50.294 97.186,50.52C96.364,51.372 95.587,52.275 94.852,53.222C94.117,54.175 93.396,55.124 92.687,56.071C92.456,56.455 92.211,56.828 91.954,57.19C91.695,57.551 91.448,57.899 91.213,58.233C91.026,58.511 90.851,58.77 90.688,59.021C90.524,59.271 90.35,59.534 90.163,59.812C89.985,60.196 89.701,60.562 89.31,60.914C88.824,61.384 88.251,61.43 87.591,61.054C87.312,60.865 87.086,60.659 86.91,60.435C86.734,60.211 86.581,59.95 86.452,59.643C86.434,59.437 86.452,59.331 86.504,59.326C86.586,59.059 86.656,58.779 86.71,58.486C86.765,58.192 86.857,57.882 86.988,57.558C87.074,57.342 87.142,56.894 87.191,56.207C87.182,56.105 87.137,56.027 87.055,55.984C86.972,55.941 86.906,55.944 86.859,55.999C86.39,56.037 86.09,56.219 85.96,56.545C85.72,56.826 85.508,57.119 85.324,57.421C85.139,57.726 84.986,58.088 84.864,58.519C84.681,58.848 84.511,59.174 84.355,59.504C84.198,59.83 84.057,60.183 83.93,60.556C83.713,61.108 83.391,61.641 82.961,62.159C82.875,62.381 82.715,62.512 82.483,62.559C82.25,62.605 82.026,62.585 81.808,62.494C81.496,62.518 81.251,62.407 81.072,62.155C80.733,61.861 80.544,61.475 80.504,60.995C80.501,60.319 80.638,59.755 80.917,59.313C81.143,58.879 81.365,58.388 81.582,57.845C81.801,57.306 82.022,56.817 82.248,56.379C82.332,56.11 82.417,55.883 82.506,55.69C82.595,55.498 82.707,55.269 82.842,54.997C82.838,54.944 82.874,54.756 82.953,54.437C83.005,53.804 83.15,53.177 83.388,52.556ZM109.833,53.775C109.325,54.629 108.818,55.468 108.309,56.295L108.335,56.603C108.291,56.716 108.283,56.78 108.312,56.803C108.34,56.828 108.357,56.866 108.361,56.917L108.908,56.871C109.051,56.704 109.198,56.574 109.348,56.481C109.498,56.39 109.644,56.262 109.788,56.095C110.417,55.468 111.047,54.827 111.675,54.172C112.302,53.521 112.906,52.882 113.484,52.256C114.014,51.689 114.533,51.138 115.039,50.598C115.545,50.061 116.037,49.51 116.516,48.946C116.659,48.777 116.777,48.625 116.871,48.484C116.964,48.346 117.052,48.144 117.135,47.875C117.178,47.766 117.186,47.701 117.158,47.677C117.129,47.652 117.114,47.614 117.11,47.562C117.084,47.249 116.94,47.106 116.68,47.125C116.48,47.247 116.302,47.315 116.146,47.329C115.99,47.341 115.838,47.406 115.69,47.521C115.281,47.664 114.929,47.835 114.631,48.041C114.334,48.251 114.039,48.497 113.748,48.783C113.356,49.127 112.97,49.524 112.588,49.974C112.205,50.425 111.822,50.876 111.44,51.324C110.875,52.105 110.339,52.922 109.833,53.775ZM183.438,45.157C182.488,44.737 181.91,44.083 181.712,43.201C181.521,42.355 181.627,41.44 182.027,40.494L182.031,40.48C182.25,40.039 182.645,39.607 183.209,39.181C183.759,38.77 184.368,38.394 185.019,38.07C185.671,37.748 186.338,37.485 187.002,37.291C187.668,37.102 188.248,37.006 188.727,37.004L188.817,37.003C189.206,37.003 189.529,37.188 189.777,37.555L189.79,37.575L189.798,37.599C189.96,37.977 189.867,38.232 189.76,38.38C189.619,38.57 189.432,38.685 189.216,38.71C188.896,38.77 188.494,38.907 188.022,39.108C187.537,39.314 187.057,39.561 186.597,39.84C186.133,40.121 185.697,40.431 185.3,40.759C184.91,41.081 184.617,41.392 184.43,41.69C184.295,41.915 184.255,42.162 184.31,42.441C184.348,42.639 184.41,42.781 184.494,42.866C184.514,42.881 184.543,42.89 184.571,42.889L186.44,42.736C186.538,42.729 186.64,42.722 186.743,42.722C187.269,42.722 187.871,42.83 188.534,43.038C189.35,43.299 189.934,43.691 190.27,44.204C190.577,44.745 190.633,45.389 190.445,46.13C190.267,46.828 189.944,47.587 189.484,48.383C189.027,49.172 188.478,49.968 187.851,50.745C187.222,51.529 186.547,52.238 185.846,52.852C185.146,53.467 184.466,53.988 183.826,54.408C183.153,54.848 182.6,55.079 182.136,55.119C182.018,55.129 181.906,55.135 181.801,55.135C181.538,55.135 181.308,55.103 181.119,55.04C180.911,54.974 180.778,54.877 180.713,54.737C180.676,54.66 180.645,54.53 180.71,54.37L180.733,54.311L180.781,54.271C181.634,53.573 182.33,53.018 182.911,52.577C183.486,52.141 184.123,51.54 184.805,50.776L184.811,50.77C185.051,50.443 185.416,49.943 185.906,49.265C186.395,48.587 186.813,47.908 187.149,47.249C187.479,46.605 187.672,46.038 187.723,45.57C187.738,45.431 187.719,45.332 187.666,45.276C187.599,45.2 187.457,45.16 187.255,45.16C187.206,45.16 187.154,45.163 187.099,45.169C186.81,45.19 186.501,45.244 186.179,45.327C185.83,45.412 185.532,45.47 185.292,45.488C185.189,45.496 185.086,45.499 184.986,45.499C184.77,45.499 184.56,45.48 184.362,45.44C184.078,45.384 183.766,45.289 183.438,45.157ZM199.556,57.96C200.113,58.051 200.101,58.191 199.529,58.378C198.953,58.565 197.407,58.78 194.882,59.027C189.187,59.525 178.062,60.579 172.501,61.202C166.942,61.822 161.234,62.459 155.37,63.11C148.46,64 141.609,64.86 134.813,65.693C134.838,65.665 134.739,65.69 134.669,65.697C134.665,65.699 134.661,65.703 134.656,65.704C129.413,66.334 108.095,68.915 103.667,69.452L103.666,69.456C98.221,70.129 80.892,72.285 75.628,72.954C67.413,73.999 69.864,73.887 61.893,75.006C60.484,75.22 59.372,75.381 58.549,75.496C57.731,75.608 56.978,75.708 56.293,75.796C55.611,75.883 54.882,75.987 54.107,76.105C53.338,76.225 52.364,76.384 51.183,76.583C49.711,76.44 49.088,76.232 49.315,75.959C49.546,75.686 50.276,75.399 51.503,75.098C52.733,74.8 54.224,74.511 55.968,74.234C57.717,73.955 59.257,73.746 60.583,73.612C66.061,72.914 61.459,73.363 67.847,72.563C74.242,71.766 80.69,70.964 87.198,70.16C88.947,69.945 102.287,68.298 104.022,68.082L104.019,68.088C104.633,68.016 106.203,67.826 106.416,67.801C110.798,67.271 132.07,64.768 135.856,64.31L138.473,64.005C143.942,63.371 149.487,62.738 155.115,62.103C160.744,61.468 166.304,60.847 171.796,60.239C177.29,59.632 187.843,58.577 192.464,58.077C193.933,57.914 195.343,57.832 196.692,57.828C198.048,57.827 199.003,57.869 199.556,57.96ZM130.119,49.469C129.521,49.541 128.928,49.496 128.339,49.334C128.126,48.617 128.373,48.102 129.084,47.785C129.789,47.415 130.505,47.022 131.233,46.597C131.96,46.175 132.711,45.882 133.485,45.716C134.511,45.429 135.319,45.378 135.911,45.568C136.503,45.757 137.177,46.347 137.936,47.335C137.6,48.408 137.006,49.369 136.155,50.218C135.303,51.07 134.61,52.092 134.073,53.282C134.402,53.468 134.75,53.558 135.117,53.557C135.483,53.557 135.771,53.543 135.98,53.528C136.847,53.604 138.195,53.407 139.219,52.682C139.414,52.546 140.018,52.159 140.563,51.615C141.192,50.985 141.602,50.247 142.432,49.339L142.472,49.297C142.578,48.968 142.699,48.596 142.837,48.183L143.216,47.053C143.343,46.68 143.494,46.3 143.673,45.916C143.85,45.536 144.045,45.181 144.254,44.85C144.462,44.517 144.683,44.185 144.919,43.852C145.145,43.414 145.347,43.006 145.526,42.624C145.703,42.244 145.906,41.835 146.133,41.397C146.314,41.067 146.586,40.863 146.947,40.783C147.138,40.557 147.416,40.43 147.781,40.4C148.345,40.248 148.988,40.092 149.709,39.926C150.43,39.763 151.015,39.871 151.467,40.253C151.58,40.349 151.689,40.404 151.796,40.422C151.902,40.44 152.011,40.497 152.124,40.59C152.302,40.839 152.451,41.063 152.573,41.26C152.694,41.46 152.844,41.683 153.022,41.929C153.147,42.182 153.246,42.421 153.318,42.652C153.388,42.881 153.411,43.154 153.385,43.471L153.456,44.328C153.469,44.486 153.457,44.67 153.423,44.879C153.458,45.297 153.709,45.482 154.178,45.445L154.959,45.382C155.295,45.268 155.733,45.183 156.269,45.123C156.327,44.94 156.398,44.768 156.486,44.609L156.494,44.587C156.6,44.159 156.728,43.726 156.88,43.294C157.032,42.855 157.161,42.397 157.263,41.916C157.333,41.628 157.418,41.362 157.516,41.117C157.614,40.875 157.7,40.63 157.775,40.389C157.85,40.147 158.051,40.012 158.381,39.986L159.085,39.928C159.226,39.916 159.379,39.916 159.546,39.926C159.712,39.935 159.848,40.005 159.954,40.139C160.404,40.431 160.599,40.795 160.54,41.222C160.56,41.458 160.531,41.683 160.454,41.903C160.38,42.11 160.352,42.33 160.366,42.551C160.368,42.57 160.373,42.59 160.386,42.606C160.443,42.679 160.535,42.71 160.662,42.696C160.795,42.688 160.905,42.658 160.993,42.608C161.003,42.602 161.013,42.595 161.021,42.584C161.362,42.186 161.741,41.827 162.16,41.512C162.58,41.198 162.962,40.839 163.306,40.436L163.319,40.423C163.761,40.059 164.332,39.85 165.033,39.791C165.543,39.749 165.927,39.856 166.185,40.112C166.192,40.119 166.198,40.126 166.203,40.136C166.254,40.218 166.306,40.294 166.356,40.356C166.409,40.423 166.44,40.503 166.447,40.594C166.612,40.866 166.673,41.049 166.635,41.143C166.571,41.531 166.503,41.841 166.428,42.082L164.404,47.626L164.402,47.631L163.402,50.968C163.213,51.55 163.181,52.025 163.307,52.391C163.318,52.531 163.395,52.595 163.535,52.584L163.676,52.573L163.682,52.643L163.804,52.498C163.809,52.493 163.814,52.488 163.82,52.485C164.307,52.116 164.805,51.747 165.315,51.376C165.827,51.004 166.3,50.589 166.735,50.131C166.737,50.126 166.739,50.125 166.741,50.122C167.269,49.656 167.858,49.219 168.509,48.814C169.159,48.407 169.771,47.969 170.346,47.496L170.356,47.491C170.533,47.383 170.722,47.263 170.92,47.13L170.949,47.028C171.004,46.835 171.073,46.662 171.155,46.512C171.356,46.074 171.501,45.542 171.591,44.92C171.641,44.409 171.794,44.025 172.047,43.765C172.057,43.755 172.064,43.743 172.068,43.727C172.254,43.111 172.649,42.495 173.253,41.884L173.258,41.88C173.516,41.575 173.761,41.274 173.996,40.972C174.228,40.673 174.475,40.397 174.734,40.142L174.753,40.126C174.924,40.021 175.075,39.919 175.203,39.819C175.21,39.813 175.217,39.809 175.225,39.804C175.495,39.692 175.754,39.589 176.003,39.499C176.255,39.406 176.565,39.297 176.934,39.174C177.024,39.119 177.127,39.088 177.245,39.077C177.357,39.069 177.459,39.059 177.551,39.052L177.574,39.052C177.998,39.111 178.261,39.209 178.366,39.34C178.766,39.633 179.121,39.935 179.428,40.234L179.439,40.248C179.648,40.514 179.838,40.825 180.009,41.184C180.18,41.549 180.164,41.928 179.96,42.323C179.71,42.721 179.411,43.111 179.064,43.493C178.716,43.877 178.369,44.245 178.021,44.603C177.581,45.019 177.143,45.445 176.707,45.88C176.27,46.32 175.808,46.745 175.323,47.162C175.013,47.424 174.646,47.547 174.219,47.536C174.031,47.552 173.892,47.587 173.802,47.64C173.537,47.801 173.362,47.955 173.278,48.102L173.269,48.119C173.119,48.494 173.05,48.775 173.06,48.959C173.06,48.972 173.059,48.983 173.055,48.993C172.871,49.514 172.848,50.088 172.987,50.716C172.992,50.739 173.004,50.759 173.021,50.772C173.109,50.85 173.178,50.92 173.226,50.979C173.276,51.044 173.372,51.117 173.511,51.193C173.522,51.198 173.535,51.203 173.548,51.206C173.922,51.266 174.223,51.264 174.45,51.197C175.052,51.056 175.603,50.844 176.101,50.567C176.739,50.279 177.316,49.971 177.834,49.643C178.35,49.318 178.877,48.972 179.414,48.596C179.993,48.169 179.811,48.483 180.37,48.085C180.925,47.687 181.49,47.277 182.067,46.852C182.074,46.849 182.081,46.841 182.089,46.839C182.357,46.725 182.561,46.663 182.7,46.652C182.833,46.548 182.986,46.548 183.161,46.652C183.334,46.753 183.402,46.857 183.363,46.951C183.276,47.616 182.976,48.229 182.46,48.785C182.454,48.793 182.448,48.8 182.44,48.804C181.95,49.123 181.477,49.492 181.017,49.904C180.557,50.319 180.875,50.013 180.493,50.411L180.48,50.425C180.125,50.686 179.76,50.964 179.385,51.253C179.008,51.544 178.59,51.777 178.134,51.957C178.132,51.96 178.13,51.96 178.128,51.96C177.811,52.124 177.483,52.282 177.141,52.425C176.802,52.573 176.446,52.661 176.075,52.694L176.052,52.696C175.735,52.815 175.415,52.912 175.094,52.986C174.771,53.059 174.443,53.085 174.113,53.065L174.103,53.065C173.588,53.111 173.161,53.072 172.822,52.959C172.724,52.922 172.626,52.882 172.529,52.84C172.43,52.803 172.285,52.768 172.094,52.735C171.997,52.696 171.922,52.657 171.871,52.612C171.824,52.573 171.754,52.532 171.662,52.494C171.653,52.493 171.644,52.487 171.637,52.478C171.387,52.269 171.15,52.079 170.927,51.913C170.7,51.744 170.505,51.521 170.34,51.253C170.122,50.892 170.086,50.449 170.23,49.917C170.263,49.722 170.301,49.526 170.345,49.331L168.216,51.703C167.695,52.267 167.161,52.828 166.617,53.391C166.073,53.956 165.495,54.521 164.881,55.091C164.879,55.093 164.876,55.093 164.873,55.096C164.651,55.254 164.444,55.438 164.248,55.64C164.053,55.846 163.845,56.051 163.625,56.258C163.449,56.413 163.285,56.567 163.132,56.722C162.983,56.871 162.864,56.976 162.775,57.03L162.759,57.039C162.124,57.324 161.607,57.316 161.206,57.021L160.84,56.776C160.834,56.772 160.827,56.766 160.822,56.761C160.463,56.371 160.229,56.088 160.121,55.909C160.01,55.73 160,55.305 160.087,54.635L160.269,53.423L160.271,53.414C160.451,52.738 160.61,52.092 160.747,51.468C160.884,50.844 161.068,50.191 161.295,49.513L161.782,47.71L161.785,47.698L161.867,46.99C161.852,46.811 161.756,46.681 161.578,46.6C161.561,46.591 161.54,46.589 161.52,46.59C161.401,46.605 161.302,46.634 161.221,46.68C161.209,46.686 161.2,46.693 161.191,46.705L159.654,48.514L159.651,48.516C159.396,48.867 159.104,49.186 158.773,49.47C158.447,49.754 158.102,49.96 157.739,50.084C157.73,50.087 157.72,50.092 157.713,50.098C157.585,50.197 157.477,50.276 157.39,50.33C157.299,50.383 157.214,50.485 157.131,50.631C157.014,50.924 156.707,51.211 156.209,51.487L155.733,51.739C155.326,51.963 155.009,51.846 154.782,51.393C154.574,51.131 154.497,50.787 154.552,50.363L154.559,50.337C154.714,49.953 154.836,49.593 154.925,49.258C155.015,48.922 155.116,48.587 155.229,48.25L155.235,48.235C155.372,47.972 155.493,47.693 155.606,47.407C155.325,47.491 155.065,47.578 154.833,47.669C154.029,48.102 153.237,48.351 152.455,48.414C152.355,48.476 152.269,48.534 152.195,48.593C152.121,48.651 152.034,48.712 151.934,48.77C151.838,48.885 151.781,48.979 151.761,49.059C151.741,49.137 151.707,49.209 151.66,49.265C151.521,49.484 151.43,49.662 151.39,49.796C151.348,49.93 151.279,50.053 151.184,50.167C150.709,51.411 149.978,52.569 148.993,53.642C148.006,54.721 147.097,55.631 146.268,56.38C145.928,56.722 145.424,56.973 144.756,57.132L144.209,57.175C144.053,57.19 143.866,57.155 143.649,57.066C143.011,56.961 142.521,56.741 142.178,56.4C141.835,56.065 141.562,55.617 141.359,55.058C141.299,54.955 141.266,54.882 141.261,54.829C141.123,54.421 141.117,54.029 141.243,53.651C141.283,53.492 141.337,53.359 141.406,53.248L141.407,53.245C141.026,53.579 140.563,53.93 140.207,54.195C139.151,54.989 137.596,55.218 136.539,55.517C136.039,55.658 135.529,55.813 135.023,55.973C134.692,55.957 134.344,55.976 133.973,56.037C133.764,56.055 133.519,56.114 133.239,56.212C132.958,56.313 132.635,56.375 132.271,56.407C131.541,56.46 131.01,56.713 130.678,57.156C130.398,57.599 130.049,57.832 129.632,57.864L128.381,57.962C128.008,57.885 127.732,57.711 127.554,57.438C127.375,57.164 127.169,56.878 126.936,56.583C127.629,55.379 128.481,54.189 129.49,53.01C129.858,52.355 130.297,51.76 130.806,51.222C131.315,50.685 131.697,50.041 131.954,49.287C131.328,49.338 130.716,49.398 130.119,49.469ZM149.62,44.565C149.576,44.676 149.57,44.765 149.604,44.841C149.636,44.916 149.657,45.008 149.665,45.109C149.669,45.16 149.732,45.289 149.854,45.488C149.966,45.585 150.087,45.626 150.218,45.615C150.348,45.604 150.461,45.543 150.557,45.429C150.7,45.26 150.817,45.092 150.909,44.928C151.091,44.601 151.192,44.227 151.21,43.807C151.227,43.385 151.245,42.967 151.263,42.544L151.25,42.39C151.242,42.286 151.181,42.186 151.068,42.09C150.859,42.109 150.758,42.144 150.762,42.195C150.079,42.828 149.699,43.616 149.62,44.565ZM146.649,45.751C146.418,46.137 146.192,46.573 145.971,47.064C145.483,48.151 145.118,49.12 144.874,49.977C144.63,50.837 144.399,51.849 144.181,53.018L144.2,53.255C144.156,53.362 144.151,53.467 144.187,53.568C144.221,53.672 144.29,53.717 144.395,53.709C144.56,53.799 144.689,53.789 144.785,53.674C145.845,53.17 146.725,52.391 147.426,51.337C148.125,50.289 148.699,49.297 149.147,48.371C149.19,48.262 149.206,48.13 149.193,47.976C149.176,47.77 149.139,47.64 149.083,47.592C148.796,47.302 148.563,47.006 148.381,46.708L147.835,45.809C147.774,45.711 147.634,45.619 147.418,45.532C147.361,45.482 147.228,45.47 147.021,45.482C146.916,45.493 146.793,45.58 146.649,45.751ZM175.485,43.54C175.081,44.093 174.764,44.685 174.532,45.317C174.548,45.504 174.578,45.597 174.626,45.591L174.796,45.579C174.823,45.576 174.847,45.564 174.864,45.543C175.07,45.302 175.278,45.071 175.487,44.85C175.702,44.622 175.916,44.382 176.13,44.13C176.134,44.123 176.139,44.122 176.144,44.116C176.496,43.853 176.776,43.549 176.983,43.203C177.188,42.861 177.371,42.518 177.532,42.178C177.534,42.169 177.538,42.164 177.542,42.159C177.61,42.076 177.648,41.996 177.653,41.921C177.656,41.892 177.64,41.863 177.619,41.845C177.539,41.769 177.497,41.701 177.492,41.64C177.487,41.57 177.459,41.538 177.413,41.541L177.048,41.573C177.012,41.574 176.983,41.594 176.967,41.628C176.921,41.718 176.845,41.825 176.737,41.949C176.306,42.458 175.889,42.988 175.485,43.54Z" style="fill:rgb(79,79,79);"/>
        </g>
    </g>
</svg>
