<?xml version="1.0" encoding="UTF-8" standalone="no"?>
<!DOCTYPE svg PUBLIC "-//W3C//DTD SVG 1.1//EN" "http://www.w3.org/Graphics/SVG/1.1/DTD/svg11.dtd">
<svg width="60px" height="60px" version="1.1" xmlns="http://www.w3.org/2000/svg" xmlns:xlink="http://www.w3.org/1999/xlink" xml:space="preserve" xmlns:serif="http://www.serif.com/" style="fill-rule:evenodd;clip-rule:evenodd;stroke-linejoin:round;stroke-miterlimit:2;">
    <g transform="matrix(1,0,0,1,-15935.4,-7219.19)">
        <g transform="matrix(1,0,0,1,15406.5,590.168)">
            <g id="グループ-63" serif:id="グループ 63">
                <path id="シェイプ-714-のコピー" serif:id="シェイプ 714 のコピー" d="M586.085,6646.41C585.679,6645.54 584.671,6645.17 583.83,6645.57C582.954,6645.98 582.583,6646.99 582.988,6647.83C587.666,6657.89 585.547,6669.9 577.67,6677.77C567.338,6688.14 550.474,6688.14 540.073,6677.77C535.058,6672.76 532.299,6666.1 532.299,6659C532.299,6651.9 535.058,6645.24 540.073,6640.19C545.088,6635.14 551.751,6632.38 558.855,6632.38L558.889,6632.38C564.58,6632.38 570.01,6634.15 574.523,6637.45L573.023,6637.5C572.079,6637.54 571.34,6638.31 571.374,6639.26C571.374,6640.16 572.147,6640.9 573.057,6640.9C573.057,6640.9 573.091,6640.9 573.155,6640.86L578.943,6640.7C578.974,6640.7 579.004,6640.69 579.035,6640.69C579.236,6640.67 579.436,6640.61 579.624,6640.53C579.809,6640.44 579.978,6640.32 580.119,6640.16C580.484,6639.8 580.64,6639.31 580.589,6638.83L580.426,6633.49C580.391,6632.55 579.618,6631.81 578.674,6631.85C577.73,6631.88 576.991,6632.65 577.026,6633.6L577.068,6635.16C571.853,6631.18 565.515,6629.02 558.855,6629.02L558.821,6629.02C550.811,6629.02 543.307,6632.15 537.651,6637.8C525.939,6649.52 525.939,6668.56 537.651,6680.2C543.507,6686.05 551.213,6688.98 558.889,6688.98C566.595,6688.98 574.27,6686.06 580.058,6680.19C588.947,6671.35 591.369,6657.76 586.085,6646.41Z" style="fill:white;"/>
                <g id="_24" serif:id="24" transform="matrix(1,0,0,1,559.827,6671)">
                    <g transform="matrix(34,0,0,34,18.5692,0)">
                    </g>
                    <text x="-18.569px" y="0px" style="font-family:'ArialMT', 'Arial', sans-serif;font-size:34px;fill:rgb(129,216,208);">2<tspan x="-0.34px " y="0px ">4</tspan></text>
                </g>
            </g>
        </g>
    </g>
</svg>
