<?xml version="1.0" encoding="UTF-8" standalone="no"?>
<!DOCTYPE svg PUBLIC "-//W3C//DTD SVG 1.1//EN" "http://www.w3.org/Graphics/SVG/1.1/DTD/svg11.dtd">
<svg width="51px" height="61px" version="1.1" xmlns="http://www.w3.org/2000/svg" xmlns:xlink="http://www.w3.org/1999/xlink" xml:space="preserve" xmlns:serif="http://www.serif.com/" style="fill-rule:evenodd;clip-rule:evenodd;stroke-linejoin:round;stroke-miterlimit:2;">
    <g transform="matrix(1,0,0,1,-16821.5,-7409.16)">
        <g transform="matrix(1,0,0,1,15406.5,590.168)">
            <g id="icon">
                <path id="シェイプ-719" serif:id="シェイプ 719" d="M1459.81,6832.33C1463.23,6832.33 1466.01,6835.1 1466.01,6838.49L1466.01,6872.84C1466.01,6876.24 1463.23,6879.01 1459.81,6879.01L1421.21,6879.01C1417.79,6879.01 1415.02,6876.24 1415.02,6872.84L1415.02,6838.49C1415.02,6835.1 1417.79,6832.33 1421.21,6832.33L1423.19,6832.33L1423.19,6829.28L1421.73,6829.28C1421.26,6829.28 1420.87,6828.89 1420.87,6828.42L1420.87,6819.86C1420.87,6819.38 1421.26,6819 1421.73,6819L1459.29,6819C1459.77,6819 1460.16,6819.38 1460.16,6819.86L1460.16,6828.42C1460.16,6828.89 1459.77,6829.28 1459.29,6829.28L1457.83,6829.28L1457.83,6832.33L1459.81,6832.33ZM1421.21,6834.06C1418.75,6834.06 1416.75,6836.05 1416.75,6838.49L1416.75,6841.9L1464.28,6841.9L1464.28,6838.49C1464.28,6836.05 1462.28,6834.06 1459.81,6834.06L1421.21,6834.06ZM1459.81,6877.28C1462.28,6877.28 1464.28,6875.29 1464.28,6872.84L1464.28,6869.44L1416.75,6869.44L1416.75,6872.84C1416.75,6875.29 1418.75,6877.28 1421.21,6877.28L1459.81,6877.28ZM1416.75,6843.62L1416.75,6867.72L1464.28,6867.72L1464.28,6843.62L1416.75,6843.62ZM1437.19,6862.68L1439.82,6856.57C1439.93,6856.3 1439.91,6855.99 1439.75,6855.75C1439.59,6855.51 1439.32,6855.36 1439.02,6855.36L1435.96,6855.36L1438.93,6848.99L1444,6848.99L1441.58,6853.39C1441.42,6853.65 1441.42,6853.98 1441.58,6854.25C1441.74,6854.51 1442.02,6854.67 1442.33,6854.67L1446.72,6854.67L1437.19,6862.68ZM1424.92,6829.28L1424.92,6832.33L1456.1,6832.33L1456.1,6829.28L1424.92,6829.28ZM1422.6,6820.72L1422.6,6827.56L1458.42,6827.56L1458.42,6820.72L1422.6,6820.72Z" style="fill:white;"/>
            </g>
        </g>
    </g>
</svg>
