<?xml version="1.0" encoding="UTF-8" standalone="no"?>
<!DOCTYPE svg PUBLIC "-//W3C//DTD SVG 1.1//EN" "http://www.w3.org/Graphics/SVG/1.1/DTD/svg11.dtd">
<svg width="31px" height="30px" version="1.1" xmlns="http://www.w3.org/2000/svg" xmlns:xlink="http://www.w3.org/1999/xlink" xml:space="preserve" xmlns:serif="http://www.serif.com/" style="fill-rule:evenodd;clip-rule:evenodd;stroke-linejoin:round;stroke-miterlimit:2;">
    <g transform="matrix(1,0,0,1,-16205.9,-12118.7)">
        <g transform="matrix(1,0,0,1,15406.5,590.168)">
            <path id="シェイプ-714-のコピー" serif:id="シェイプ 714 のコピー" d="M827.975,11537.2C827.772,11536.8 827.268,11536.6 826.847,11536.8C826.409,11537 826.223,11537.5 826.426,11537.9C828.766,11542.9 827.705,11549 823.766,11552.9C818.597,11558.1 810.161,11558.1 804.958,11552.9C802.449,11550.4 801.069,11547.1 801.069,11543.5C801.069,11539.9 802.449,11536.6 804.958,11534.1C807.466,11531.6 810.8,11530.2 814.353,11530.2L814.37,11530.2C817.217,11530.2 819.933,11531.1 822.191,11532.7L821.441,11532.7C820.969,11532.8 820.599,11533.2 820.616,11533.6C820.616,11534.1 821.003,11534.4 821.458,11534.4C821.458,11534.4 821.475,11534.4 821.507,11534.4L824.402,11534.3C824.417,11534.3 824.433,11534.3 824.448,11534.3C824.549,11534.3 824.649,11534.3 824.743,11534.3C824.835,11534.2 824.92,11534.2 824.991,11534.1C825.173,11533.9 825.251,11533.7 825.225,11533.4L825.144,11530.7C825.127,11530.3 824.74,11529.9 824.268,11529.9C823.796,11529.9 823.426,11530.3 823.443,11530.8L823.464,11531.6C820.855,11529.6 817.685,11528.5 814.353,11528.5L814.336,11528.5C810.33,11528.5 806.575,11530.1 803.746,11532.9C797.887,11538.8 797.887,11548.3 803.746,11554.1C806.676,11557 810.53,11558.5 814.37,11558.5C818.225,11558.5 822.065,11557 824.96,11554.1C829.407,11549.7 830.618,11542.9 827.975,11537.2Z" style="fill:white;"/>
        </g>
        <g transform="matrix(1,0,0,1,15406.5,590.168)">
            <g id="_24" serif:id="24" transform="matrix(0.50024,0,0,0.50024,814.839,11549.5)">
                <g transform="matrix(34.27,0,0,34.27,18.7166,0)">
                </g>
                <text x="-18.717px" y="0px" style="font-family:'ArialMT', 'Arial', sans-serif;font-size:34.27px;fill:white;">2<tspan x="-0.343px " y="0px ">4</tspan></text>
            </g>
        </g>
    </g>
</svg>
