<?xml version="1.0" encoding="UTF-8" standalone="no"?>
<!DOCTYPE svg PUBLIC "-//W3C//DTD SVG 1.1//EN" "http://www.w3.org/Graphics/SVG/1.1/DTD/svg11.dtd">
<svg width="71px" height="60px" version="1.1" xmlns="http://www.w3.org/2000/svg" xmlns:xlink="http://www.w3.org/1999/xlink" xml:space="preserve" xmlns:serif="http://www.serif.com/" style="fill-rule:evenodd;clip-rule:evenodd;stroke-linejoin:round;stroke-miterlimit:2;">
    <g transform="matrix(1,0,0,1,-15646.5,-5391.22)">
        <g transform="matrix(1,0,0,1,15406.5,635.223)">
            <g id="icon">
                <path id="シェイプ-1189-のコピー-3" serif:id="シェイプ 1189 のコピー 3" d="M311,4775.19C311,4775.98 310.364,4776.63 309.58,4776.63L305.471,4776.63L305.471,4767.99L309.58,4767.99C310.364,4767.99 311,4768.63 311,4769.43L311,4775.19ZM245.538,4778.55L245.538,4783.14C245.538,4783.94 246.173,4784.58 246.958,4784.58L304.051,4784.58C304.836,4784.58 305.471,4783.94 305.471,4783.14L305.471,4778.55L308.161,4778.55L308.161,4816L268.735,4816L268.735,4800.15C268.735,4794.6 265.366,4790.07 259.887,4790.07C254.407,4790.07 251.039,4794.6 251.039,4800.15L251.039,4816L242.849,4816L242.849,4778.55L245.538,4778.55ZM279.466,4792.14L279.466,4803.66L299.343,4803.66L299.343,4792.14L279.466,4792.14ZM241.429,4776.63C240.645,4776.63 240.009,4775.98 240.009,4775.19L240.009,4769.43C240.009,4768.63 240.645,4767.99 241.429,4767.99L245.538,4767.99L245.538,4776.63L241.429,4776.63Z" style="fill:rgb(129,215,207);"/>
                <circle id="楕円形-1199" serif:id="楕円形 1199" cx="263.5" cy="4803.5" r="2" style="fill:rgb(129,215,207);"/>
                <path id="長方形-1196" serif:id="長方形 1196" d="M303.011,4758L303.011,4780.99C303.011,4782.1 302.115,4782.99 301.011,4782.99L249.995,4782.99C248.891,4782.99 247.995,4782.1 247.995,4780.99L247.995,4758C247.995,4756.9 248.891,4756 249.995,4756L301.011,4756C302.115,4756 303.011,4756.9 303.011,4758Z" style="fill:rgb(79,79,79);"/>
                <path id="シェイプ-713" serif:id="シェイプ 713" d="M260.937,4774.7C260.883,4775.06 260.824,4775.35 260.76,4775.59C260.704,4775.73 260.636,4775.84 260.558,4775.91C260.527,4775.95 260.472,4775.96 260.395,4775.94C260.317,4775.92 260.267,4775.88 260.246,4775.84C260.225,4775.79 260.213,4775.74 260.209,4775.7C260.206,4775.66 260.193,4775.61 260.173,4775.56C260.185,4775.51 260.185,4775.45 260.171,4775.38C260.157,4775.32 260.156,4775.26 260.169,4775.21C260.181,4775 260.194,4774.8 260.207,4774.61L260.349,4773.7C260.419,4773.52 260.419,4773.2 260.456,4773.03C260.492,4772.86 260.52,4772.68 260.538,4772.49C260.578,4772.15 260.614,4771.81 260.647,4771.49C260.679,4771.17 260.724,4770.83 260.781,4770.49C260.778,4770.45 260.757,4770.41 260.72,4770.37C260.681,4770.32 260.646,4770.29 260.612,4770.3C260.594,4770.28 260.568,4770.28 260.534,4770.28L260.155,4770.31C260.023,4770.36 259.895,4770.4 259.771,4770.43C259.646,4770.47 259.518,4770.51 259.386,4770.55C259.025,4770.7 258.667,4770.84 258.313,4770.96C257.958,4771.08 257.6,4771.22 257.239,4771.36C256.778,4771.54 256.327,4771.72 255.885,4771.92C255.443,4772.12 255.011,4772.33 254.588,4772.55C254.507,4772.59 254.435,4772.64 254.372,4772.7C254.309,4772.77 254.247,4772.84 254.186,4772.91C254.17,4772.93 254.163,4772.95 254.164,4772.96C254.166,4772.98 254.158,4772.99 254.141,4772.99C254.054,4773.17 253.966,4773.33 253.877,4773.48C253.787,4773.64 253.698,4773.79 253.61,4773.95C253.393,4774.41 253.291,4774.57 253.073,4775.02C252.856,4775.47 251.88,4777.51 251.699,4777.98C251.63,4778.18 251.548,4778.37 251.454,4778.56C251.36,4778.76 251.261,4778.95 251.159,4779.15C251.1,4779.25 251.013,4779.34 250.9,4779.4C250.835,4779.44 250.753,4779.48 250.655,4779.52C250.423,4779.59 250.211,4779.59 250.019,4779.52C249.985,4779.52 249.959,4779.52 249.941,4779.5C249.923,4779.49 249.896,4779.47 249.861,4779.46C249.775,4779.45 249.705,4779.42 249.65,4779.37C249.596,4779.33 249.206,4779.11 249.589,4778.78C249.634,4778.74 249.66,4778.67 249.687,4778.58C249.89,4778.16 249.819,4778.39 250.013,4777.97C250.207,4777.54 251.326,4775.16 251.509,4774.71C251.595,4774.52 251.526,4774.41 251.305,4774.4L251.204,4774.4C251.07,4774.43 250.948,4774.43 250.835,4774.41C250.723,4774.38 250.605,4774.35 250.484,4774.31C250.45,4774.31 250.396,4774.28 250.324,4774.22C250.18,4774.13 250.155,4774.03 250.248,4773.92C250.292,4773.83 250.321,4773.78 250.337,4773.76C250.459,4773.6 250.632,4773.43 250.855,4773.26C250.984,4773.18 251.106,4773.11 251.22,4773.05C251.334,4772.99 251.447,4772.93 251.559,4772.85C251.738,4772.75 251.904,4772.66 252.059,4772.58C252.213,4772.5 252.371,4772.41 252.533,4772.31C252.711,4772.21 252.859,4772.1 252.977,4771.98C253.094,4771.86 253.206,4771.73 253.313,4771.59L253.822,4770.82L254.332,4770.05L255.015,4769.08C255.243,4768.76 255.471,4768.44 255.7,4768.13C256.023,4767.72 256.336,4767.3 256.641,4766.89C256.946,4766.47 257.26,4766.06 257.582,4765.64C257.781,4765.39 257.982,4765.14 258.183,4764.9L258.809,4764.16C258.948,4764 259.083,4763.84 259.214,4763.67C259.344,4763.51 259.48,4763.35 259.619,4763.18C259.696,4763.09 259.761,4763.01 259.814,4762.93C259.866,4762.85 259.931,4762.76 260.009,4762.67C260.103,4762.58 260.197,4762.48 260.29,4762.38C260.384,4762.28 260.477,4762.17 260.57,4762.06C260.692,4761.9 260.856,4761.73 261.061,4761.54C261.123,4761.47 261.185,4761.4 261.249,4761.35C261.312,4761.29 261.383,4761.23 261.464,4761.18C261.825,4760.82 262.082,4760.45 262.236,4760.04C262.264,4759.97 262.296,4759.91 262.334,4759.84C262.371,4759.78 262.403,4759.71 262.43,4759.62C262.487,4759.5 262.565,4759.41 262.663,4759.36C262.76,4759.31 262.876,4759.27 263.009,4759.24C263.06,4759.24 263.115,4759.24 263.175,4759.24C263.234,4759.24 263.298,4759.24 263.365,4759.24C263.451,4759.25 263.526,4759.29 263.592,4759.37C263.658,4759.45 263.703,4759.53 263.727,4759.62C263.77,4759.73 263.774,4759.87 263.737,4760.05C263.718,4760.24 263.687,4760.41 263.641,4760.58C263.595,4760.74 263.554,4760.92 263.519,4761.11C263.348,4761.92 263.201,4762.7 263.077,4763.46C263.047,4763.71 263.005,4763.98 262.952,4764.26C262.898,4764.53 262.84,4764.8 262.776,4765.06C262.679,4765.53 262.594,4765.99 262.522,4766.45C262.45,4766.92 262.365,4767.38 262.268,4767.85C262.255,4767.9 262.251,4767.95 262.254,4767.99C262.258,4768.03 262.252,4768.07 262.238,4768.1C262.186,4768.5 262.343,4768.65 262.71,4768.57C262.809,4768.55 262.901,4768.53 262.985,4768.51C263.068,4768.5 263.16,4768.48 263.259,4768.45C263.293,4768.45 263.336,4768.45 263.387,4768.45C263.438,4768.46 263.489,4768.46 263.539,4768.45L263.594,4768.5C263.633,4768.57 263.638,4768.62 263.609,4768.68C263.568,4768.8 263.49,4768.89 263.377,4768.95C263.155,4769.14 262.92,4769.28 262.673,4769.36C262.591,4769.41 262.51,4769.44 262.428,4769.47C262.345,4769.51 262.263,4769.54 262.182,4769.58C262.051,4769.65 261.974,4769.74 261.95,4769.86C261.922,4769.93 261.895,4770.02 261.87,4770.12C261.709,4770.84 261.557,4771.57 261.414,4772.3C261.326,4772.75 261.025,4774.25 260.937,4774.7ZM255.709,4770.4C255.678,4770.43 255.666,4770.49 255.673,4770.58C255.659,4770.61 255.674,4770.65 255.72,4770.69C255.765,4770.73 255.805,4770.74 255.839,4770.74C255.871,4770.72 255.913,4770.71 255.963,4770.71C256.014,4770.7 256.055,4770.69 256.088,4770.67C256.418,4770.56 256.752,4770.44 257.09,4770.33C257.429,4770.22 257.764,4770.12 258.095,4770.02C258.427,4769.93 258.757,4769.82 259.087,4769.7C259.416,4769.58 259.746,4769.46 260.076,4769.35C260.375,4769.28 260.653,4769.15 260.911,4768.98C261.052,4768.85 261.136,4768.73 261.161,4768.62L261.314,4768C261.364,4767.8 261.407,4767.59 261.441,4767.38C261.496,4767.02 261.542,4766.66 261.581,4766.3C261.619,4765.94 261.649,4765.58 261.67,4765.23C261.695,4765.12 261.705,4765.03 261.697,4764.93C261.689,4764.84 261.699,4764.75 261.725,4764.66C261.795,4764.27 261.852,4763.88 261.896,4763.49C261.941,4763.11 261.989,4762.72 262.042,4762.32C262.056,4762.29 262.059,4762.23 262.052,4762.14C262.045,4762.06 262.016,4762.01 261.964,4762C261.927,4761.97 261.869,4761.98 261.789,4762.04C261.712,4762.13 261.631,4762.23 261.547,4762.34C261.462,4762.45 261.373,4762.55 261.279,4762.64C261.152,4762.75 261.047,4762.87 260.964,4762.98C260.88,4763.1 260.784,4763.22 260.676,4763.35C260.463,4763.65 260.259,4763.96 260.063,4764.25C259.867,4764.55 259.635,4764.83 259.368,4765.09C259.336,4765.1 259.298,4765.16 259.254,4765.25C259.131,4765.39 259.016,4765.55 258.911,4765.71C258.805,4765.87 258.691,4766.03 258.569,4766.19L258.186,4766.64C258.055,4766.8 257.955,4766.97 257.886,4767.16L257.804,4767.26L257.723,4767.36C257.569,4767.54 257.431,4767.72 257.311,4767.91C257.19,4768.1 257.071,4768.29 256.951,4768.49C256.801,4768.72 256.65,4768.95 256.499,4769.17C256.348,4769.4 256.196,4769.63 256.046,4769.86L255.865,4770.13C255.804,4770.22 255.752,4770.31 255.709,4770.4ZM263.455,4770.4C263.531,4770.19 263.595,4769.99 263.646,4769.78C263.672,4769.68 263.723,4769.59 263.802,4769.52C263.829,4769.43 263.893,4769.38 263.994,4769.37C264.092,4769.33 264.184,4769.31 264.268,4769.3C264.366,4769.26 264.437,4769.29 264.481,4769.41C264.555,4769.49 264.599,4769.61 264.613,4769.78L264.623,4769.9C264.628,4769.95 264.66,4769.99 264.721,4770.01C264.782,4770.03 264.837,4770.02 264.884,4769.98C264.915,4769.95 264.971,4769.91 265.053,4769.87L265.169,4769.73C265.215,4769.68 265.271,4769.63 265.336,4769.59C265.366,4769.56 265.407,4769.53 265.458,4769.53C265.508,4769.53 265.558,4769.52 265.607,4769.49C265.673,4769.47 265.782,4769.45 265.934,4769.44C266.168,4769.4 266.38,4769.5 266.568,4769.72C266.572,4769.77 266.583,4769.81 266.603,4769.84C266.659,4769.91 266.728,4769.92 266.81,4769.88C266.842,4769.86 266.874,4769.83 266.906,4769.81C266.937,4769.78 266.969,4769.75 267.001,4769.73L267.349,4769.32C267.444,4769.23 267.525,4769.14 267.594,4769.05C267.663,4768.96 267.736,4768.87 267.813,4768.78C267.841,4768.71 267.883,4768.65 267.939,4768.6C267.994,4768.56 268.046,4768.51 268.094,4768.48C268.221,4768.38 268.349,4768.28 268.476,4768.18C268.603,4768.07 268.73,4767.97 268.857,4767.85C269.049,4767.72 269.257,4767.67 269.48,4767.7C269.635,4767.72 269.742,4767.79 269.802,4767.9L269.813,4768.03C269.793,4768.2 269.767,4768.36 269.737,4768.49C269.705,4768.63 269.654,4768.78 269.582,4768.94C269.457,4769.27 269.34,4769.6 269.232,4769.93C269.123,4770.26 268.997,4770.59 268.854,4770.9C268.787,4771.13 268.717,4771.36 268.643,4771.58C268.568,4771.81 268.489,4772.04 268.406,4772.26C268.335,4772.44 268.273,4772.61 268.219,4772.78C268.165,4772.95 268.104,4773.13 268.035,4773.32C268.037,4773.34 268.035,4773.37 268.029,4773.4C268.023,4773.44 268.022,4773.47 268.025,4773.51C268.031,4773.58 268.05,4773.61 268.084,4773.61C268.103,4773.64 268.128,4773.64 268.16,4773.6C268.193,4773.6 268.25,4773.57 268.33,4773.51C268.505,4773.36 268.675,4773.21 268.841,4773.06C269.006,4772.91 269.167,4772.74 269.321,4772.56C269.336,4772.54 269.352,4772.53 269.369,4772.52C269.385,4772.51 269.4,4772.49 269.414,4772.45C269.538,4772.31 269.672,4772.18 269.816,4772.08C269.96,4771.97 270.093,4771.85 270.217,4771.7C270.273,4771.63 270.331,4771.57 270.391,4771.51C270.422,4771.39 270.457,4771.31 270.496,4771.28C270.569,4771.14 270.644,4771.02 270.72,4770.91C270.796,4770.8 270.888,4770.69 270.998,4770.58C271.075,4770.49 271.152,4770.39 271.229,4770.29C271.305,4770.19 271.382,4770.1 271.46,4770.01C271.505,4769.94 271.559,4769.87 271.622,4769.82C271.685,4769.76 271.747,4769.69 271.808,4769.6C271.886,4769.53 271.952,4769.45 272.006,4769.38C272.059,4769.31 272.117,4769.23 272.179,4769.16C272.41,4768.87 272.663,4768.66 272.942,4768.54L273.6,4768.18C273.647,4768.14 273.704,4768.12 273.771,4768.1C273.838,4768.09 273.904,4768.07 273.97,4768.05C274.067,4767.99 274.177,4767.98 274.299,4768.02L274.349,4768.02C274.455,4768.06 274.571,4768.08 274.699,4768.09L275.07,4768.11C275.241,4768.13 275.36,4768.18 275.427,4768.27C275.493,4768.36 275.514,4768.46 275.491,4768.58C275.51,4768.82 275.47,4769.06 275.372,4769.31C275.332,4769.44 275.284,4769.58 275.228,4769.72C275.172,4769.86 275.132,4770 275.11,4770.14C275.083,4770.23 275.056,4770.31 275.029,4770.39C275.001,4770.47 274.974,4770.55 274.947,4770.64L274.829,4771.05C274.789,4771.19 274.757,4771.32 274.734,4771.44L274.748,4771.62C274.75,4771.64 274.768,4771.66 274.804,4771.68C274.84,4771.7 274.874,4771.71 274.908,4771.71C274.992,4771.7 275.059,4771.69 275.108,4771.67C275.239,4771.6 275.373,4771.53 275.511,4771.45C275.648,4771.38 275.782,4771.3 275.911,4771.22L276.509,4770.75C276.716,4770.59 276.915,4770.43 277.106,4770.28C277.38,4770.11 277.656,4769.96 277.935,4769.83C277.984,4769.81 278.042,4769.8 278.11,4769.79C278.143,4769.79 278.178,4769.8 278.215,4769.83C278.251,4769.86 278.271,4769.9 278.274,4769.93L278.141,4770.17L277.862,4770.5C277.77,4770.61 277.676,4770.71 277.582,4770.8C277.358,4770.97 277.153,4771.15 276.964,4771.34C276.776,4771.52 276.578,4771.7 276.372,4771.87C276.261,4771.96 276.141,4772.05 276.012,4772.14C275.884,4772.23 275.756,4772.32 275.628,4772.41C275.386,4772.57 275.08,4772.66 274.709,4772.69C274.49,4772.71 274.277,4772.69 274.069,4772.64C274.034,4772.63 273.998,4772.61 273.963,4772.59C273.927,4772.56 273.891,4772.55 273.856,4772.53C273.689,4772.36 273.607,4772.19 273.61,4772.02C273.619,4771.92 273.636,4771.82 273.663,4771.73C273.69,4771.65 273.692,4771.57 273.67,4771.5C273.664,4771.44 273.628,4771.41 273.56,4771.41C273.545,4771.43 273.529,4771.44 273.512,4771.44C273.495,4771.44 273.479,4771.45 273.464,4771.47C273.359,4771.65 273.252,4771.78 273.141,4771.88C273.062,4771.95 272.991,4772.02 272.928,4772.07C272.865,4772.13 272.793,4772.19 272.713,4772.24C272.634,4772.32 272.56,4772.4 272.491,4772.48C272.421,4772.56 272.338,4772.63 272.241,4772.69C271.894,4773.01 271.465,4773.16 270.956,4773.15C270.821,4773.16 270.664,4773.11 270.484,4772.99C270.408,4772.89 270.343,4772.82 270.288,4772.77C270.249,4772.73 270.221,4772.69 270.202,4772.65C270.168,4772.68 270.134,4772.72 270.1,4772.75C269.915,4772.97 269.733,4773.18 269.554,4773.39C269.376,4773.59 269.194,4773.8 269.009,4774.02C268.781,4774.34 268.54,4774.61 268.286,4774.82C268.207,4774.89 268.122,4774.94 268.032,4774.98C267.941,4775.01 267.846,4775.04 267.746,4775.06C267.578,4775.08 267.438,4775.03 267.327,4774.92C267.001,4774.68 266.882,4774.36 266.968,4773.96C267.017,4773.73 267.078,4773.54 267.151,4773.4C267.22,4773.22 267.291,4773.04 267.362,4772.88C267.433,4772.7 267.503,4772.53 267.572,4772.33C267.644,4772.17 267.711,4772.01 267.773,4771.84C267.836,4771.68 267.903,4771.52 267.975,4771.36C268.002,4771.27 268.029,4771.19 268.056,4771.11C268.084,4771.03 268.102,4770.95 268.112,4770.86C268.181,4770.67 268.242,4770.48 268.295,4770.3C268.348,4770.12 268.409,4769.93 268.478,4769.74C268.523,4769.67 268.551,4769.6 268.562,4769.53C268.576,4769.49 268.58,4769.44 268.573,4769.35C268.57,4769.32 268.547,4769.29 268.504,4769.28C268.46,4769.27 268.422,4769.27 268.39,4769.29C268.356,4769.29 268.324,4769.31 268.293,4769.35C268.214,4769.42 268.147,4769.49 268.093,4769.54C268.038,4769.6 267.979,4769.66 267.918,4769.74C267.652,4770.01 267.4,4770.3 267.163,4770.61C266.925,4770.92 266.692,4771.23 266.463,4771.53C266.388,4771.66 266.309,4771.78 266.225,4771.9C266.142,4772.01 266.062,4772.13 265.986,4772.23C265.925,4772.32 265.869,4772.41 265.816,4772.49L265.646,4772.74C265.589,4772.87 265.497,4772.99 265.37,4773.1C265.213,4773.25 265.028,4773.27 264.814,4773.15C264.724,4773.09 264.651,4773.02 264.594,4772.95C264.537,4772.88 264.488,4772.79 264.446,4772.69C264.44,4772.62 264.446,4772.59 264.463,4772.59C264.489,4772.5 264.512,4772.41 264.529,4772.31C264.547,4772.22 264.577,4772.12 264.619,4772.02C264.647,4771.95 264.669,4771.8 264.685,4771.58C264.682,4771.54 264.667,4771.52 264.641,4771.51C264.614,4771.49 264.593,4771.49 264.578,4771.51C264.426,4771.52 264.329,4771.58 264.287,4771.69C264.209,4771.78 264.141,4771.87 264.081,4771.97C264.021,4772.07 263.972,4772.19 263.932,4772.33C263.873,4772.43 263.818,4772.54 263.768,4772.64C263.717,4772.75 263.671,4772.87 263.63,4772.99C263.56,4773.16 263.456,4773.34 263.317,4773.51C263.289,4773.58 263.237,4773.62 263.162,4773.64C263.087,4773.65 263.015,4773.64 262.944,4773.61C262.843,4773.62 262.764,4773.59 262.706,4773.51C262.596,4773.41 262.535,4773.28 262.522,4773.13C262.521,4772.91 262.566,4772.73 262.656,4772.59C262.729,4772.44 262.801,4772.28 262.871,4772.11C262.942,4771.93 263.013,4771.78 263.086,4771.63C263.113,4771.55 263.141,4771.47 263.17,4771.41L263.278,4771.19C263.277,4771.17 263.289,4771.11 263.314,4771C263.331,4770.8 263.378,4770.6 263.455,4770.4ZM272.008,4770.79C271.844,4771.07 271.68,4771.34 271.515,4771.61L271.523,4771.71C271.509,4771.74 271.507,4771.76 271.516,4771.77C271.525,4771.78 271.531,4771.79 271.532,4771.81L271.709,4771.79C271.755,4771.74 271.803,4771.7 271.851,4771.67C271.9,4771.64 271.947,4771.59 271.993,4771.54C272.197,4771.34 272.401,4771.13 272.604,4770.92C272.807,4770.71 273.002,4770.5 273.189,4770.3L273.692,4769.76C273.855,4769.59 274.014,4769.41 274.169,4769.23C274.216,4769.17 274.254,4769.12 274.284,4769.08C274.314,4769.03 274.343,4768.97 274.37,4768.88C274.383,4768.84 274.386,4768.82 274.377,4768.81C274.368,4768.81 274.363,4768.79 274.361,4768.78C274.353,4768.68 274.307,4768.63 274.223,4768.64C274.158,4768.68 274.1,4768.7 274.05,4768.7C273.999,4768.7 273.95,4768.73 273.902,4768.76C273.77,4768.81 273.656,4768.87 273.56,4768.93C273.464,4769 273.368,4769.08 273.274,4769.17C273.147,4769.28 273.022,4769.41 272.899,4769.56L272.528,4770C272.345,4770.25 272.172,4770.51 272.008,4770.79ZM295.814,4768C295.506,4767.86 295.319,4767.65 295.255,4767.36C295.194,4767.09 295.228,4766.8 295.357,4766.49L295.359,4766.48C295.429,4766.34 295.557,4766.2 295.74,4766.06C295.918,4765.93 296.114,4765.81 296.325,4765.7C296.536,4765.6 296.751,4765.51 296.967,4765.45C297.182,4765.39 297.369,4765.36 297.524,4765.36L297.553,4765.36C297.679,4765.36 297.784,4765.42 297.864,4765.54L297.868,4765.54L297.871,4765.55C297.923,4765.67 297.893,4765.76 297.858,4765.8C297.813,4765.87 297.752,4765.9 297.682,4765.91C297.579,4765.93 297.449,4765.97 297.296,4766.04C297.139,4766.11 296.984,4766.19 296.835,4766.28C296.685,4766.37 296.544,4766.47 296.416,4766.57C296.29,4766.68 296.195,4766.78 296.134,4766.87C296.091,4766.95 296.078,4767.03 296.096,4767.12C296.108,4767.18 296.128,4767.23 296.155,4767.26C296.162,4767.26 296.171,4767.26 296.18,4767.26L296.785,4767.21C296.816,4767.21 296.849,4767.21 296.883,4767.21C297.053,4767.21 297.248,4767.24 297.462,4767.31C297.726,4767.4 297.915,4767.52 298.023,4767.69C298.123,4767.87 298.141,4768.07 298.08,4768.31C298.022,4768.54 297.918,4768.78 297.769,4769.04C297.621,4769.3 297.444,4769.56 297.241,4769.81C297.037,4770.06 296.819,4770.29 296.592,4770.49C296.366,4770.69 296.146,4770.86 295.939,4771C295.721,4771.14 295.543,4771.21 295.392,4771.23C295.354,4771.23 295.318,4771.23 295.284,4771.23C295.199,4771.23 295.125,4771.22 295.063,4771.2C294.996,4771.18 294.953,4771.15 294.932,4771.1C294.92,4771.08 294.91,4771.03 294.931,4770.98L294.939,4770.96L294.954,4770.95C295.23,4770.72 295.455,4770.55 295.643,4770.4C295.829,4770.26 296.035,4770.07 296.256,4769.82L296.258,4769.82C296.335,4769.71 296.453,4769.55 296.612,4769.33C296.77,4769.11 296.905,4768.89 297.014,4768.68C297.121,4768.47 297.183,4768.28 297.2,4768.13C297.204,4768.09 297.198,4768.06 297.181,4768.04C297.16,4768.01 297.114,4768 297.048,4768C297.032,4768 297.015,4768 296.998,4768C296.904,4768.01 296.804,4768.03 296.7,4768.05C296.587,4768.08 296.491,4768.1 296.413,4768.11C296.38,4768.11 296.347,4768.11 296.314,4768.11C296.245,4768.11 296.177,4768.1 296.112,4768.09C296.021,4768.07 295.92,4768.04 295.814,4768ZM301.027,4772.15C301.207,4772.17 301.203,4772.22 301.018,4772.28C300.832,4772.34 300.332,4772.41 299.515,4772.49C297.673,4772.65 294.075,4772.99 292.276,4773.2C290.479,4773.4 288.632,4773.6 286.736,4773.81C284.501,4774.1 282.285,4774.38 280.087,4774.65C280.095,4774.64 280.063,4774.65 280.041,4774.65L280.036,4774.65C278.341,4774.86 271.446,4775.69 270.014,4775.87C268.252,4776.09 262.648,4776.79 260.945,4777C258.288,4777.34 259.081,4777.31 256.503,4777.67C256.047,4777.74 255.687,4777.79 255.421,4777.82C255.157,4777.86 254.913,4777.89 254.692,4777.92C254.471,4777.95 254.235,4777.98 253.985,4778.02C253.736,4778.06 253.421,4778.11 253.039,4778.18C252.563,4778.13 252.362,4778.06 252.435,4777.98C252.51,4777.89 252.746,4777.79 253.143,4777.7C253.54,4777.6 254.023,4777.51 254.587,4777.42C255.152,4777.33 255.65,4777.26 256.079,4777.22C257.851,4776.99 256.362,4777.14 258.429,4776.88L264.687,4776.1C265.253,4776.03 269.567,4775.49 270.129,4775.42L270.128,4775.43L270.903,4775.33C272.32,4775.16 279.2,4774.35 280.424,4774.2L281.271,4774.1C283.04,4773.9 284.833,4773.69 286.653,4773.49C288.474,4773.28 290.272,4773.08 292.048,4772.88C293.825,4772.69 297.238,4772.35 298.733,4772.18C299.208,4772.13 299.664,4772.1 300.1,4772.1C300.539,4772.1 300.848,4772.12 301.027,4772.15ZM278.569,4769.4C278.376,4769.42 278.184,4769.4 277.993,4769.35C277.924,4769.12 278.004,4768.95 278.234,4768.85C278.462,4768.73 278.694,4768.6 278.929,4768.47C279.164,4768.33 279.407,4768.23 279.658,4768.18C279.989,4768.09 280.251,4768.07 280.442,4768.13C280.634,4768.19 280.852,4768.38 281.097,4768.7C280.988,4769.05 280.796,4769.36 280.521,4769.64C280.246,4769.91 280.021,4770.24 279.848,4770.63C279.954,4770.69 280.067,4770.72 280.185,4770.72C280.304,4770.72 280.397,4770.72 280.465,4770.71C280.745,4770.73 281.181,4770.67 281.512,4770.44C281.575,4770.39 281.771,4770.27 281.947,4770.09C282.15,4769.89 282.283,4769.65 282.551,4769.35L282.564,4769.34L282.682,4768.98L282.805,4768.61C282.846,4768.49 282.895,4768.37 282.953,4768.24C283.01,4768.12 283.073,4768.01 283.14,4767.9C283.208,4767.79 283.279,4767.68 283.356,4767.58C283.429,4767.43 283.494,4767.3 283.552,4767.18C283.609,4767.05 283.675,4766.92 283.748,4766.78C283.807,4766.67 283.895,4766.61 284.012,4766.58C284.073,4766.51 284.163,4766.47 284.281,4766.46C284.464,4766.41 284.672,4766.36 284.905,4766.3C285.138,4766.25 285.327,4766.28 285.474,4766.41C285.51,4766.44 285.545,4766.46 285.58,4766.46C285.614,4766.47 285.649,4766.49 285.686,4766.52C285.744,4766.6 285.792,4766.67 285.831,4766.74C285.87,4766.8 285.919,4766.87 285.976,4766.95C286.017,4767.03 286.049,4767.11 286.072,4767.19C286.095,4767.26 286.102,4767.35 286.094,4767.45L286.117,4767.73C286.121,4767.78 286.117,4767.84 286.106,4767.91C286.117,4768.04 286.198,4768.11 286.35,4768.09L286.603,4768.07C286.712,4768.03 286.853,4768.01 287.026,4767.99C287.045,4767.93 287.068,4767.87 287.097,4767.82L287.099,4767.81C287.133,4767.68 287.175,4767.53 287.224,4767.4C287.273,4767.25 287.315,4767.1 287.348,4766.95C287.371,4766.85 287.398,4766.77 287.43,4766.69C287.461,4766.61 287.489,4766.53 287.514,4766.45C287.538,4766.37 287.603,4766.33 287.71,4766.32L287.937,4766.3C287.983,4766.3 288.032,4766.3 288.086,4766.3C288.14,4766.31 288.184,4766.33 288.218,4766.37C288.364,4766.47 288.427,4766.59 288.408,4766.72C288.414,4766.8 288.405,4766.87 288.38,4766.94C288.356,4767.01 288.347,4767.08 288.352,4767.15C288.352,4767.16 288.354,4767.17 288.358,4767.17C288.376,4767.19 288.406,4767.2 288.447,4767.2C288.49,4767.2 288.526,4767.19 288.554,4767.17L288.563,4767.16C288.674,4767.03 288.796,4766.92 288.932,4766.82C289.068,4766.72 289.191,4766.6 289.302,4766.47L289.307,4766.47C289.449,4766.35 289.635,4766.28 289.861,4766.26C290.026,4766.24 290.15,4766.28 290.234,4766.36L290.239,4766.37C290.256,4766.4 290.273,4766.42 290.289,4766.44C290.306,4766.47 290.316,4766.49 290.318,4766.52C290.372,4766.61 290.392,4766.67 290.379,4766.7C290.358,4766.82 290.336,4766.93 290.312,4767L289.658,4768.8L289.657,4768.8L289.334,4769.88C289.272,4770.07 289.262,4770.22 289.303,4770.34C289.306,4770.39 289.331,4770.41 289.377,4770.4L289.422,4770.4L289.424,4770.42L289.464,4770.38L289.469,4770.37C289.626,4770.25 289.787,4770.13 289.952,4770.01C290.118,4769.89 290.271,4769.76 290.411,4769.61L290.413,4769.61C290.584,4769.46 290.775,4769.32 290.985,4769.18C291.195,4769.05 291.394,4768.91 291.58,4768.76L291.583,4768.75C291.64,4768.72 291.701,4768.68 291.765,4768.64L291.774,4768.6C291.792,4768.54 291.814,4768.49 291.841,4768.44C291.906,4768.3 291.953,4768.12 291.982,4767.92C291.998,4767.76 292.048,4767.63 292.13,4767.55L292.136,4767.54C292.197,4767.34 292.324,4767.14 292.52,4766.94L292.521,4766.94C292.605,4766.84 292.684,4766.74 292.76,4766.64C292.835,4766.55 292.915,4766.46 292.999,4766.37L293.005,4766.37C293.06,4766.33 293.109,4766.3 293.15,4766.27C293.152,4766.27 293.155,4766.27 293.157,4766.27C293.245,4766.23 293.328,4766.19 293.409,4766.16C293.49,4766.14 293.591,4766.1 293.71,4766.06C293.739,4766.04 293.773,4766.03 293.811,4766.03L293.91,4766.02L293.917,4766.02C294.054,4766.04 294.139,4766.07 294.173,4766.11C294.303,4766.21 294.417,4766.31 294.517,4766.4L294.52,4766.41C294.588,4766.49 294.649,4766.6 294.704,4766.71C294.76,4766.83 294.755,4766.95 294.689,4767.08C294.608,4767.21 294.511,4767.34 294.399,4767.46C294.287,4767.58 294.174,4767.7 294.062,4767.82C293.92,4767.95 293.778,4768.09 293.637,4768.23C293.495,4768.37 293.346,4768.51 293.189,4768.65C293.089,4768.73 292.97,4768.77 292.832,4768.77C292.771,4768.77 292.726,4768.78 292.697,4768.8C292.611,4768.86 292.555,4768.9 292.528,4768.95L292.525,4768.96C292.476,4769.08 292.454,4769.17 292.457,4769.23L292.456,4769.24C292.396,4769.41 292.389,4769.6 292.434,4769.8C292.435,4769.81 292.439,4769.81 292.444,4769.82C292.473,4769.84 292.495,4769.86 292.511,4769.88C292.527,4769.9 292.558,4769.93 292.603,4769.95C292.607,4769.95 292.611,4769.96 292.615,4769.96C292.736,4769.98 292.833,4769.98 292.907,4769.95C293.102,4769.91 293.279,4769.84 293.441,4769.75C293.647,4769.66 293.834,4769.56 294.001,4769.45C294.168,4769.35 294.339,4769.23 294.512,4769.11C294.7,4768.98 294.641,4769.08 294.821,4768.95C295.001,4768.82 295.184,4768.69 295.37,4768.55C295.372,4768.55 295.375,4768.54 295.377,4768.54C295.464,4768.51 295.53,4768.49 295.575,4768.48C295.618,4768.45 295.667,4768.45 295.724,4768.48C295.78,4768.52 295.802,4768.55 295.789,4768.58C295.761,4768.79 295.664,4768.99 295.497,4769.17L295.491,4769.18C295.332,4769.28 295.179,4769.4 295.031,4769.54C294.882,4769.67 294.985,4769.57 294.861,4769.7L294.857,4769.7C294.742,4769.79 294.624,4769.88 294.503,4769.97C294.381,4770.07 294.246,4770.14 294.098,4770.2L294.096,4770.2C293.994,4770.25 293.888,4770.31 293.777,4770.35C293.667,4770.4 293.552,4770.43 293.432,4770.44L293.425,4770.44C293.322,4770.48 293.219,4770.51 293.115,4770.53C293.011,4770.56 292.904,4770.57 292.798,4770.56L292.795,4770.56C292.628,4770.57 292.49,4770.56 292.38,4770.53C292.348,4770.51 292.317,4770.5 292.285,4770.49C292.253,4770.48 292.207,4770.46 292.145,4770.45C292.113,4770.44 292.089,4770.43 292.073,4770.41C292.057,4770.4 292.035,4770.39 292.005,4770.38L291.997,4770.37C291.916,4770.3 291.84,4770.24 291.767,4770.19C291.694,4770.13 291.631,4770.06 291.578,4769.97C291.507,4769.86 291.495,4769.71 291.542,4769.54C291.552,4769.48 291.565,4769.41 291.579,4769.35L290.89,4770.12C290.722,4770.3 290.549,4770.48 290.373,4770.67C290.197,4770.85 290.01,4771.03 289.812,4771.22L289.809,4771.22C289.737,4771.27 289.67,4771.33 289.607,4771.39C289.544,4771.46 289.477,4771.53 289.406,4771.59C289.349,4771.64 289.296,4771.69 289.246,4771.74C289.198,4771.79 289.16,4771.83 289.131,4771.84L289.125,4771.85C288.92,4771.94 288.753,4771.94 288.623,4771.84L288.505,4771.76L288.499,4771.76C288.383,4771.63 288.307,4771.54 288.272,4771.48C288.237,4771.42 288.233,4771.29 288.261,4771.07L288.32,4770.68L288.321,4770.67C288.379,4770.45 288.43,4770.24 288.475,4770.04C288.519,4769.84 288.579,4769.63 288.652,4769.41L288.81,4768.83L288.811,4768.82L288.837,4768.59C288.832,4768.53 288.801,4768.49 288.744,4768.47C288.738,4768.46 288.731,4768.46 288.725,4768.46C288.686,4768.47 288.654,4768.48 288.628,4768.49L288.619,4768.5L288.121,4769.09L288.12,4769.09C288.038,4769.2 287.943,4769.31 287.837,4769.4C287.731,4769.49 287.619,4769.56 287.502,4769.59L287.493,4769.6C287.452,4769.63 287.417,4769.66 287.389,4769.67C287.36,4769.69 287.332,4769.73 287.305,4769.77C287.267,4769.87 287.168,4769.96 287.007,4770.05L286.853,4770.13C286.721,4770.2 286.619,4770.16 286.546,4770.02C286.478,4769.93 286.453,4769.82 286.471,4769.68L286.474,4769.68C286.524,4769.55 286.563,4769.44 286.592,4769.33C286.621,4769.22 286.654,4769.11 286.69,4769L286.692,4769C286.736,4768.91 286.775,4768.82 286.812,4768.73C286.721,4768.75 286.637,4768.78 286.562,4768.81C286.302,4768.95 286.046,4769.03 285.793,4769.05C285.761,4769.07 285.733,4769.09 285.709,4769.11C285.685,4769.13 285.657,4769.15 285.625,4769.17C285.593,4769.2 285.575,4769.24 285.569,4769.26C285.562,4769.29 285.551,4769.31 285.536,4769.33C285.491,4769.4 285.462,4769.46 285.448,4769.5C285.435,4769.55 285.413,4769.59 285.382,4769.62C285.228,4770.03 284.992,4770.4 284.673,4770.75C284.354,4771.1 284.06,4771.39 283.792,4771.63C283.682,4771.74 283.519,4771.82 283.303,4771.88L283.126,4771.89C283.075,4771.9 283.015,4771.88 282.945,4771.85C282.739,4771.82 282.58,4771.75 282.469,4771.64C282.358,4771.53 282.27,4771.39 282.204,4771.2C282.185,4771.17 282.174,4771.15 282.173,4771.13C282.128,4771 282.126,4770.87 282.167,4770.75C282.18,4770.7 282.197,4770.65 282.22,4770.62C282.097,4770.73 281.947,4770.84 281.832,4770.93C281.49,4771.18 280.987,4771.26 280.646,4771.35C280.484,4771.4 280.319,4771.45 280.155,4771.5C280.048,4771.5 279.935,4771.5 279.815,4771.52C279.748,4771.53 279.669,4771.55 279.578,4771.58C279.487,4771.61 279.383,4771.63 279.265,4771.64C279.029,4771.66 278.857,4771.74 278.75,4771.89C278.659,4772.03 278.546,4772.1 278.411,4772.11L278.007,4772.15C277.886,4772.12 277.797,4772.06 277.739,4771.98C277.682,4771.89 277.615,4771.8 277.54,4771.7C277.764,4771.31 278.039,4770.92 278.366,4770.54C278.485,4770.33 278.627,4770.14 278.791,4769.96C278.956,4769.79 279.079,4769.58 279.162,4769.34C278.96,4769.35 278.762,4769.37 278.569,4769.4ZM293.241,4767.47C293.111,4767.65 293.008,4767.85 292.933,4768.05C292.938,4768.11 292.948,4768.14 292.964,4768.14L293.019,4768.14C293.027,4768.13 293.035,4768.13 293.041,4768.12C293.107,4768.05 293.174,4767.97 293.242,4767.9C293.312,4767.82 293.381,4767.75 293.45,4767.66L293.455,4767.66C293.569,4767.58 293.659,4767.48 293.726,4767.36C293.792,4767.26 293.852,4767.14 293.903,4767.03L293.907,4767.03C293.929,4767 293.941,4766.97 293.943,4766.95C293.943,4766.94 293.938,4766.93 293.932,4766.93C293.906,4766.9 293.892,4766.88 293.891,4766.86C293.889,4766.84 293.88,4766.83 293.865,4766.83L293.747,4766.84C293.735,4766.84 293.726,4766.84 293.721,4766.85C293.706,4766.88 293.681,4766.92 293.646,4766.96C293.507,4767.12 293.372,4767.3 293.241,4767.47ZM283.915,4768.19C283.84,4768.32 283.767,4768.46 283.696,4768.62C283.538,4768.97 283.42,4769.28 283.341,4769.56C283.262,4769.84 283.187,4770.16 283.117,4770.55L283.123,4770.62C283.109,4770.66 283.107,4770.69 283.119,4770.72C283.13,4770.76 283.152,4770.77 283.186,4770.77C283.24,4770.8 283.281,4770.79 283.312,4770.76C283.655,4770.59 283.94,4770.34 284.166,4770C284.393,4769.66 284.578,4769.34 284.723,4769.04C284.737,4769 284.742,4768.96 284.738,4768.91C284.733,4768.85 284.721,4768.8 284.702,4768.79C284.61,4768.69 284.534,4768.6 284.475,4768.5L284.299,4768.21C284.279,4768.18 284.234,4768.15 284.164,4768.12C284.146,4768.11 284.103,4768.1 284.035,4768.11C284.001,4768.11 283.962,4768.14 283.915,4768.19ZM284.876,4767.81C284.862,4767.84 284.86,4767.87 284.871,4767.9C284.881,4767.92 284.888,4767.95 284.891,4767.98C284.892,4768 284.912,4768.04 284.952,4768.11C284.988,4768.14 285.027,4768.15 285.069,4768.15C285.111,4768.14 285.148,4768.12 285.179,4768.09C285.225,4768.03 285.263,4767.98 285.293,4767.92C285.352,4767.82 285.384,4767.7 285.39,4767.56L285.408,4767.15L285.403,4767.1C285.401,4767.07 285.381,4767.03 285.344,4767.01C285.277,4767.01 285.244,4767.02 285.245,4767.04C285.024,4767.24 284.902,4767.5 284.876,4767.81Z" style="fill:rgb(245,247,247);"/>
            </g>
        </g>
    </g>
</svg>
