<?xml version="1.0" encoding="UTF-8" standalone="no"?>
<!DOCTYPE svg PUBLIC "-//W3C//DTD SVG 1.1//EN" "http://www.w3.org/Graphics/SVG/1.1/DTD/svg11.dtd">
<svg width="100%" height="100%" viewBox="0 0 1920 827" version="1.1" xmlns="http://www.w3.org/2000/svg" xmlns:xlink="http://www.w3.org/1999/xlink" xml:space="preserve" xmlns:serif="http://www.serif.com/" style="fill-rule:evenodd;clip-rule:evenodd;stroke-linejoin:round;stroke-miterlimit:2;">
    <g transform="matrix(1,0,0,1,-7765.76,-201.678)">
        <g transform="matrix(1,0,0,1,7799.74,124.668)">
            <path id="シェイプ-716-のコピー" serif:id="シェイプ 716 のコピー" d="M723.723,862.403C884.054,869.252 1026.29,788.592 1094.55,750.128L1094.66,750.232C1214.37,677.555 1287.1,589.249 1324.48,518.815C1323.02,517.937 1321.55,516.986 1320.09,515.958C1291.47,495.837 1290.37,409.345 1336.16,395.468C1337.56,395.044 1338.89,394.783 1340.15,394.675L1359.45,390.846C1386.26,382.723 1388.25,438.984 1352.11,516.692C1358.7,520.179 1365.3,522.426 1371.89,523.533C1422.18,505.85 1470.82,423.608 1510.01,354.892C1534.91,311.242 1551.54,303.23 1560.2,312.576L1582.14,331.493C1582.53,331.793 1582.91,332.111 1583.28,332.469C1593.31,342.402 1593.21,374.741 1583.38,403.305C1580.55,411.534 1576.19,423.122 1572.99,434.045C1584.53,425.324 1600.43,410.752 1622.02,388.366C1694.91,312.764 1807.68,183.392 1862.5,77.01L1885.98,97.32C1831.16,203.703 1718.39,333.074 1645.5,408.675C1597.94,458.001 1577.96,469.385 1571.47,463.854L1550.34,444.666C1548.33,444.243 1547,442.932 1546.24,440.94C1542.11,430.184 1554.16,399.681 1559.9,382.995C1565.88,365.629 1568.25,346.875 1566.94,332.601C1558.23,338.155 1547.1,351.351 1533.5,375.2C1494.07,444.338 1444.97,513.149 1394.29,523.131C1390.09,523.957 1385.88,524.378 1381.67,524.363L1359.32,526.551C1358.14,526.702 1356.95,526.827 1355.77,526.899C1352.95,527.068 1350.12,527.003 1347.3,526.706C1308.26,605.447 1231.21,703.46 1103.21,778.963C1030.7,824.013 899.604,879.004 740.704,864.424C734.786,863.881 729.138,863.201 723.723,862.403ZM723.723,862.403C723.351,862.385 722.982,862.377 722.61,862.36C715.47,862.038 708.293,861.551 701.083,860.89C580.752,849.849 575.241,781.829 533.103,760.683C532.351,760.688 531.596,760.694 530.826,760.719C455.016,763.12 369.023,866.853 293.755,877.616C267.009,881.441 242.751,882.107 223.009,877.423C223.12,877.458 223.228,877.496 223.339,877.53C205.037,875.618 187.984,870.016 174.061,861.413C117.453,892.997 44.097,915.99 -9.222,896.877L-33.977,871.317C22.131,891.43 98.513,873.74 154.896,845.367C144.226,833.112 138.177,817.902 138.989,800.546C142.067,734.735 177.122,678.798 219.921,677.586C224.072,677.467 227.845,678.091 231.224,679.361L252.451,683.95C255.176,684.169 257.722,684.723 260.073,685.598C289.688,696.623 289.137,757.336 246.631,806.516C233.675,821.508 211.896,838.877 185.543,854.757C193.455,863.259 203.78,870.16 216.003,874.963C230.704,876.139 247.357,873.847 264.823,871.35C340.091,860.585 426.083,756.851 501.893,754.452C506.288,754.312 510.356,754.501 514.15,754.986C517.509,755.416 520.641,756.087 523.605,756.952L546.49,761.712C548.225,762.003 549.914,762.354 551.554,762.764C603.445,775.736 610.246,845.248 722.616,862.242C722.98,862.297 723.356,862.348 723.723,862.403ZM1347.91,396.471C1318.95,416.794 1317.23,473.171 1333.65,500.403C1358.95,446.029 1361.63,405.41 1347.91,396.471ZM167.922,806.814C167.443,817.059 169.225,826.728 172.961,835.514C191.839,824.344 207.419,812.143 217.699,800.249C255.393,756.636 260.09,703.959 240.018,684.9C201.32,692.931 170.785,745.595 167.922,806.814Z" style="fill:rgb(129,215,207);fill-opacity:0.6;"/>
        </g>
    </g>
</svg>
