<?xml version="1.0" encoding="UTF-8" standalone="no"?>
<!DOCTYPE svg PUBLIC "-//W3C//DTD SVG 1.1//EN" "http://www.w3.org/Graphics/SVG/1.1/DTD/svg11.dtd">
<svg width="603px" height="119px" version="1.1" xmlns="http://www.w3.org/2000/svg" xmlns:xlink="http://www.w3.org/1999/xlink" xml:space="preserve" xmlns:serif="http://www.serif.com/" style="fill-rule:evenodd;clip-rule:evenodd;stroke-linejoin:round;stroke-miterlimit:2;">
    <g transform="matrix(1,0,0,1,-16788.5,-1620.16)">
        <g transform="matrix(1,0,0,1,15406.5,590.168)">
            <path id="シェイプ-505" serif:id="シェイプ 505" d="M1775.38,1034.42C1615.01,1027.51 1473.58,1103.61 1407.81,1148.01L1382,1127.18C1450.86,1080.71 1588.79,1016.77 1758.39,1032.39C1764.31,1032.94 1769.97,1033.62 1775.38,1034.42ZM1775.38,1034.42C1775.75,1034.43 1776.12,1034.45 1776.49,1034.47C1783.63,1034.79 1790.81,1035.28 1798.02,1035.94C1926.71,1047.8 1924.1,1125.09 1975.36,1140.3L1947.59,1134.5C1895.68,1121.47 1888.88,1051.65 1776.48,1034.58C1776.12,1034.53 1775.75,1034.47 1775.38,1034.42ZM1975.36,1140.3L1985,1142.31C1981.57,1141.87 1978.37,1141.19 1975.36,1140.3Z" style="fill:rgb(129,215,207);fill-opacity:0.8;"/>
        </g>
    </g>
</svg>
