<?xml version="1.0" encoding="UTF-8" standalone="no"?>
<!DOCTYPE svg PUBLIC "-//W3C//DTD SVG 1.1//EN" "http://www.w3.org/Graphics/SVG/1.1/DTD/svg11.dtd">
<svg width="791px" height="183px" version="1.1" xmlns="http://www.w3.org/2000/svg" xmlns:xlink="http://www.w3.org/1999/xlink" xml:space="preserve" xmlns:serif="http://www.serif.com/" style="fill-rule:evenodd;clip-rule:evenodd;stroke-linejoin:round;stroke-miterlimit:2;">
    <g transform="matrix(1,0,0,1,230.275,-1385.45)">
        <path id="シェイプ-718" serif:id="シェイプ 718" d="M364.565,1447.56C444.798,1448.58 514.321,1408.55 546.52,1385.44L559.727,1395.43C526.02,1419.61 458.06,1453.54 373.08,1448.32C370.115,1448.13 367.283,1447.88 364.565,1447.56ZM364.565,1447.56L364.006,1447.56C360.433,1447.5 356.838,1447.37 353.225,1447.15C292.918,1443.44 289.137,1409.49 267.758,1399.55C267.381,1399.56 267.004,1399.58 266.62,1399.6C252.466,1400.48 237.929,1407.06 224.27,1415.57C205.524,1431.35 188.29,1444.05 172.17,1454.63C171.046,1455.41 169.974,1456.11 168.965,1456.72L168.964,1456.72C137.529,1477.02 110.299,1489.41 84.233,1501.4C57.527,1513.68 47.766,1515.11 46.036,1511.88L40.594,1500.9C39.854,1500.42 39.531,1499.69 39.537,1498.77C39.569,1493.82 49.148,1483.51 54.048,1477.74C59.148,1471.73 63.026,1464.6 64.733,1458.69C60.384,1459.54 53.876,1463.08 44.716,1470.49C18.162,1491.97 -12.203,1511.8 -34.01,1507.87C-35.815,1507.54 -37.561,1507.05 -39.242,1506.38L-48.512,1503.76C-49.009,1503.64 -49.502,1503.5 -49.987,1503.35C-51.141,1502.97 -52.259,1502.5 -53.341,1501.94C-86.017,1531.67 -143.648,1563.81 -224.068,1568.27L-230.275,1556.47C-149.527,1552 -92.822,1522.41 -61.224,1495.22C-61.672,1494.64 -62.108,1494.03 -62.532,1493.39C-70.822,1480.87 -57.75,1446.1 -37.287,1447.72C-36.663,1447.77 -36.091,1447.87 -35.57,1448.03L-27.26,1449.51C-15.282,1450.46 -23.277,1473.27 -49.852,1498.69C-47.766,1501.12 -45.482,1503.05 -43.022,1504.52C-20.164,1505.32 12.116,1480.04 38.508,1458.69C55.272,1445.13 63.168,1444.53 65.168,1449.62L70.98,1460.62C71.089,1460.8 71.191,1460.99 71.28,1461.19C73.737,1466.73 68.644,1479.64 60.256,1489.53C57.84,1492.38 54.287,1496.33 51.301,1500.2C57.274,1498.52 65.904,1495.18 78.025,1489.6C102.198,1478.48 131.431,1462.37 161.5,1444.53L161.491,1444.51C213.985,1413.69 214.212,1399.25 252.065,1396.9C254.259,1396.76 256.296,1396.8 258.199,1396.98C259.884,1397.15 261.46,1397.44 262.954,1397.82L274.464,1399.86C275.335,1399.98 276.185,1400.13 277.01,1400.31C303.141,1406.02 307.589,1440.69 364.007,1447.5C364.191,1447.52 364.38,1447.54 364.565,1447.56ZM-32.75,1449.96C-47.493,1453.55 -56.988,1475.83 -54.683,1489.29C-36.083,1471.5 -28.666,1455.68 -32.75,1449.96Z" style="fill:white;fill-opacity:0.6;"/>
    </g>
</svg>
