<?xml version="1.0" encoding="UTF-8" standalone="no"?>
<!DOCTYPE svg PUBLIC "-//W3C//DTD SVG 1.1//EN" "http://www.w3.org/Graphics/SVG/1.1/DTD/svg11.dtd">
<svg width="565px" height="143px" version="1.1" xmlns="http://www.w3.org/2000/svg" xmlns:xlink="http://www.w3.org/1999/xlink" xml:space="preserve" xmlns:serif="http://www.serif.com/" style="fill-rule:evenodd;clip-rule:evenodd;stroke-linejoin:round;stroke-miterlimit:2;">
    <g transform="matrix(1,0,0,1,117.514,-2004.53)">
        <path id="シェイプ-719" serif:id="シェイプ 719" d="M71.898,2068.33C72.084,2068.32 72.269,2068.3 72.455,2068.28C76.018,2068 79.609,2067.8 83.228,2067.69C143.617,2065.75 150.567,2099.27 172.785,2107.19C173.159,2107.14 173.533,2107.09 173.913,2107.03C211.38,2101.15 247.618,2044.2 284.298,2034.2C297.332,2030.64 309.326,2028.81 319.412,2029.92C319.355,2029.91 319.299,2029.9 319.242,2029.89C328.442,2029.71 337.25,2031.44 344.691,2034.87C370.822,2015.65 405.795,1999.67 433.435,2005.89L447.301,2017.09C418.215,2010.54 381.413,2024.07 355.195,2041.67C361.249,2047.11 365.193,2054.31 365.865,2063C368.417,2095.95 354.49,2125.96 333.329,2129.2C331.277,2129.52 329.366,2129.44 327.611,2129.02L316.794,2128.05C315.428,2128.11 314.131,2127.99 312.91,2127.7C297.533,2124.04 294.043,2093.78 312.086,2066.68C317.585,2058.41 327.315,2048.42 339.407,2038.89C334.954,2035.15 329.403,2032.35 323.041,2030.71C315.674,2031.04 307.553,2033.21 299.042,2035.53C262.363,2045.54 226.124,2102.48 188.657,2108.36C186.485,2108.7 184.455,2108.86 182.543,2108.85C180.849,2108.85 179.254,2108.7 177.729,2108.46L166.079,2107.5C165.2,2107.46 164.341,2107.39 163.502,2107.29C136.951,2104.04 129.268,2069.86 72.46,2068.34C72.275,2068.34 72.084,2068.33 71.898,2068.33ZM71.898,2068.33C-8.078,2074.81 -73.538,2121.26 -103.428,2147.32L-117.514,2138.59C-86.224,2111.31 -21.747,2071.1 63.349,2068.37C66.319,2068.28 69.163,2068.27 71.898,2068.33ZM351.121,2061.67C350.724,2056.54 349.24,2051.83 346.843,2047.69C338.168,2054.42 331.193,2061.45 326.83,2068.01C310.83,2092.05 311.764,2118.56 322.904,2126.8C341.608,2120.42 353.495,2092.32 351.121,2061.67Z" style="fill:white;fill-opacity:0.6;"/>
    </g>
</svg>
