<?xml version="1.0" encoding="UTF-8" standalone="no"?>
<!DOCTYPE svg PUBLIC "-//W3C//DTD SVG 1.1//EN" "http://www.w3.org/Graphics/SVG/1.1/DTD/svg11.dtd">
<svg width="1581px" height="366px" version="1.1" xmlns="http://www.w3.org/2000/svg" xmlns:xlink="http://www.w3.org/1999/xlink" xml:space="preserve" xmlns:serif="http://www.serif.com/" style="fill-rule:evenodd;clip-rule:evenodd;stroke-linejoin:round;stroke-miterlimit:2;">
    <g transform="matrix(1,0,0,1,-14985,-2219.06)">
        <g transform="matrix(1,0,0,1,15406.5,590.168)">
            <path id="シェイプ-718" serif:id="シェイプ 718" d="M768.13,1753.12C928.596,1755.16 1067.64,1675.1 1132.04,1628.89L1158.45,1648.86C1091.04,1697.23 955.121,1765.09 785.161,1754.63C779.231,1754.27 773.566,1753.76 768.13,1753.12ZM768.13,1753.12C767.757,1753.12 767.386,1753.12 767.012,1753.12C759.865,1753.01 752.676,1752.74 745.45,1752.29C624.836,1744.87 617.274,1676.98 574.515,1657.09C573.763,1657.12 573.009,1657.15 572.24,1657.2C543.931,1658.95 514.858,1672.12 487.54,1689.13C450.048,1720.7 415.581,1746.1 383.34,1767.27C381.092,1768.82 378.948,1770.23 376.929,1771.45L376.928,1771.44C314.058,1812.03 259.599,1836.82 207.465,1860.8C154.055,1885.37 134.531,1888.22 131.072,1881.76L120.188,1859.81C118.708,1858.84 118.061,1857.37 118.073,1855.54C118.139,1845.65 137.297,1825.02 147.096,1813.47C157.295,1801.45 165.052,1787.2 168.467,1775.37C159.768,1777.08 146.751,1784.16 128.432,1798.97C75.325,1841.93 14.594,1881.6 -29.019,1873.73C-32.63,1873.08 -36.123,1872.1 -39.485,1870.77L-58.024,1865.52C-59.018,1865.27 -60.004,1865 -60.974,1864.69C-63.281,1863.94 -65.517,1863.01 -67.681,1861.88C-133.035,1921.34 -248.295,1985.63 -409.135,1994.53L-421.551,1970.94C-260.053,1962 -146.645,1902.82 -83.448,1848.43C-84.344,1847.27 -85.216,1846.05 -86.064,1844.78C-102.644,1819.73 -76.499,1750.21 -35.575,1753.44C-34.325,1753.54 -33.182,1753.74 -32.141,1754.05L-15.52,1757.03C8.436,1758.92 -7.554,1804.54 -60.705,1855.38C-56.532,1860.23 -51.964,1864.09 -47.043,1867.04C-1.329,1868.64 63.231,1818.08 116.016,1775.38C149.544,1748.26 165.337,1747.06 169.335,1757.24L180.96,1779.24C181.177,1779.6 181.382,1779.98 181.56,1780.38C186.473,1791.46 176.288,1817.29 159.512,1837.06C154.679,1842.76 147.574,1850.66 141.602,1858.4C153.548,1855.03 170.808,1848.36 195.049,1837.2C243.395,1814.97 301.861,1782.75 362,1747.06L361.982,1747.03C466.969,1685.39 467.425,1656.49 543.13,1651.8C547.519,1651.53 551.591,1651.6 555.398,1651.97C558.768,1652.29 561.92,1652.87 564.908,1653.65L587.928,1657.72C589.671,1657.96 591.369,1658.26 593.021,1658.62C645.281,1670.03 654.179,1739.38 767.014,1753C767.382,1753.04 767.76,1753.08 768.13,1753.12ZM-26.501,1757.91C-55.986,1765.11 -74.976,1809.66 -70.367,1836.58C-33.165,1801.01 -18.331,1769.36 -26.501,1757.91Z" style="fill:white;fill-opacity:0.6;"/>
        </g>
    </g>
</svg>
