<svg version="1.2" xmlns="http://www.w3.org/2000/svg" viewBox="0 0 65 73" width="65" height="73">
	<style>
		.s0 { fill: #81d8d0 } 
		.s1 { fill: #4f4f4f } 
	</style>
	<path id="シェイプ 667" fill-rule="evenodd" class="s0" d="m63.95 40.01c0 3.27-0.74 6.7-2.15 9.92-1.45 3.34-3.53 6.36-6.18 8.99q-2.84 2.81-6.31 4.79c0.62 0.75 0.78 1.46 0.78 1.98 0 4.08-8.85 6.21-17.59 6.21-4.52 0-8.78-0.55-12-1.56-4.62-1.43-5.59-3.32-5.59-4.65q0.01-1.05 0.78-1.98-3.48-1.98-6.31-4.79c-2.66-2.63-4.74-5.65-6.19-8.99-1.4-3.22-2.14-6.65-2.14-9.92q0-1.83 0.38-3.58c0.1-0.49 0.54-0.84 1.04-0.84h1.45c-0.64-1.71-0.98-3.54-0.99-5.37-0.01-2.39 0.54-4.78 1.58-6.92 0.67-1.38 1.97-2.35 3.47-2.59 1.5-0.24 2.96 0.25 4.02 1.34l0.99 1q0 0 0 0.01l0.03 0.03-0.08-0.22q-0.5-1.42-0.45-2.91c-1.23-0.87-2.56-1.91-3.64-3.28q-0.01-0.03-0.03-0.05-0.02-0.02-0.05-0.06-0.05-0.06-0.11-0.15c-0.83-1.15-0.95-2.59-0.33-3.85 0.66-1.34 2.02-2.2 3.55-2.25q0 0 0 0 0.24-0.01 0.55-0.11c0.64-0.23 1.07-0.89 1.09-1.64q0.01-1.11-0.13-2.19 0 0 0-0.01c-0.22-1.81 0.76-3.47 2.44-4.12 0.77-0.31 1.63-0.36 2.41-0.16 0.86 0.23 1.6 0.75 2.15 1.51q0.36 0.47 0.74 1.11c1.66 2.73 2.82 5.87 3.36 9.09q0.42 0.27 0.8 0.6c1.44 1.23 2.36 2.95 2.61 4.82l0.14 1.05c0.5-0.29 0.96-0.5 1.33-0.65q0.17-4.63 2.52-6.08c1.37-0.84 2.87-0.57 3.71-0.3 0.46-0.34 1.19-0.85 2.06-1.3q3.17-1.63 5.39-0.64 1.55 0.69 2.37 2.58 0.75 1.72 0.88 4.47c0.76 0.44 1.95 1.34 2.48 2.9q0.09 0.29 0.15 0.59 0.45-0.3 0.94-0.53c1.11-0.53 2.35-0.8 3.6-0.8 4.33 0 7.85 3.25 7.85 7.25 0 1.08-0.26 2.14-0.76 3.11 0.98 1.24 1.52 2.73 1.52 4.3q0 0.21-0.01 0.42h0.46c0.5 0 0.93 0.35 1.04 0.83q0.38 1.72 0.38 3.59zm-4.01-4.42q0.02-0.21 0.02-0.42c0-2.12-1.47-3.95-3.53-4.73q0.42 1.13 0.43 2.35c0 0.97-0.22 1.92-0.62 2.8zm-6.13 0c0.61-0.83 0.93-1.79 0.93-2.8 0-1.14-0.41-2.22-1.19-3.11q-0.01 0-0.02-0.01c-1.06-1.25-2.75-2-4.52-2q-1.07 0-2.03 0.34-0.01 0-0.02 0c-2.2 0.75-3.68 2.67-3.68 4.78 0 1 0.32 1.96 0.93 2.8zm-5-10.8q-0.06 0.07-0.12 0.13-0.11 0.32-0.24 0.64 0.28-0.01 0.57-0.02c2.25 0 4.34 0.87 5.82 2.4 1.49 0.11 2.9 0.59 4.09 1.41q0.28-0.77 0.28-1.59c0-2.83-2.57-5.13-5.73-5.13-1.85 0-3.6 0.81-4.67 2.16zm-20.44-2.18l1.76 12.98h2.27l1.12-3.1-2.7-2.8c-0.4-0.42-0.39-1.09 0.03-1.5 0.42-0.4 1.1-0.39 1.5 0.03l1.97 2.05 1.02-2.84-2.68-2.79c-0.41-0.43-0.39-1.1 0.03-1.5 0.42-0.41 1.09-0.4 1.5 0.03l1.95 2.03 1.03-2.84-2.68-2.78c-0.4-0.42-0.39-1.09 0.03-1.5 0.43-0.41 1.1-0.39 1.5 0.03l1.95 2.03 1.75-4.86c0.2-0.55 0.81-0.84 1.36-0.64 0.55 0.2 0.83 0.8 0.63 1.36l-1.56 4.35 1.99-0.84c0.54-0.23 1.16 0.02 1.39 0.56 0.23 0.54-0.03 1.16-0.57 1.39l-3.79 1.6-0.84 2.34 1.97-0.84c0.54-0.22 1.17 0.03 1.39 0.57 0.23 0.54-0.02 1.16-0.56 1.39l-3.78 1.59-0.84 2.34 1.96-0.83c0.54-0.23 1.16 0.02 1.39 0.56 0.23 0.54-0.03 1.17-0.56 1.39l-3.77 1.59-0.87 2.43h7.11q-0.6-1.33-0.61-2.8c0-2.83 1.8-5.4 4.54-6.56q1.64-2.57 1.08-4.29c-0.43-1.33-1.8-1.89-1.88-1.92-0.41-0.15-0.68-0.54-0.69-0.98-0.06-3.23-0.76-5.24-2.01-5.81-1.06-0.47-2.5 0.05-3.52 0.58-1.24 0.63-2.18 1.43-2.19 1.44-0.33 0.28-0.79 0.34-1.17 0.14-0.07-0.03-1.36-0.63-2.32-0.03-0.98 0.61-1.51 2.39-1.51 5.01 0 0.47-0.32 0.89-0.78 1.02-0.01 0-1.2 0.35-2.34 1.22zm-8.12-7.97q-0.66 0-1.35 0.17c-1.55 0.37-2.87 1.4-3.62 2.8-0.75 1.39-0.87 3.05-0.33 4.54l0.09 0.25 3.34-1.4c0.54-0.23 1.16 0.03 1.38 0.57 0.23 0.54-0.02 1.16-0.57 1.39l-3.43 1.43 0.92 2.55q0.03 0.07 0.05 0.14l1.66 4.58 3.28-1.37c0.54-0.23 1.16 0.02 1.39 0.57 0.23 0.54-0.03 1.16-0.57 1.38l-3.38 1.42 0.7 1.93h8.18l-1.32-9.73-3.29 1.38q-0.2 0.08-0.41 0.08c-0.41 0-0.8-0.25-0.97-0.65-0.23-0.54 0.02-1.17 0.57-1.39l3.81-1.6-0.18-1.29q-0.01-0.08-0.02-0.16l-0.37-2.73c-0.36-2.77-2.75-4.86-5.56-4.86zm-2.7 20.95l-0.56-1.54-0.53 0.61c-0.21 0.25-0.5 0.37-0.8 0.37q-0.38 0-0.69-0.26c-0.45-0.38-0.49-1.05-0.11-1.5l0.99-1.13q0.15-0.18 0.36-0.27l-1.43-3.95-2.49-2.56c-2.29 3.04-2.11 7.41 0.57 10.23zm-4.61-17.93q0.19-0.54 0.47-1.05c1.03-1.94 2.85-3.34 4.98-3.86q0.94-0.23 1.86-0.23 0.96 0 1.88 0.23c-0.57-2.46-1.53-4.83-2.81-6.94q-0.33-0.56-0.63-0.95 0-0.01-0.01-0.01c-0.59-0.83-1.46-0.87-2.07-0.63-0.61 0.24-1.23 0.87-1.11 1.89q0.16 1.23 0.15 2.49 0 0 0 0.01c-0.04 1.63-1.05 3.08-2.52 3.6q-0.01 0.01-0.02 0.01-0.61 0.2-1.16 0.22c-0.74 0.02-1.4 0.43-1.71 1.06-0.27 0.56-0.22 1.17 0.15 1.69q0 0 0.01 0 0.02 0.03 0.05 0.07 0.04 0.05 0.09 0.12c0.69 0.88 1.54 1.63 2.4 2.28zm-6.73 17.93h3.95c-1.06-1.63-1.62-3.54-1.6-5.53 0.02-2.29 0.8-4.47 2.23-6.23l-0.3-0.3q0 0 0 0c-0.57-0.59-1.36-0.86-2.16-0.73-0.84 0.14-1.53 0.66-1.9 1.43-1.74 3.56-1.81 7.76-0.22 11.36zm41.15 29.15q-0.8 0.38-1.63 0.72c-4.06 1.67-8.51 2.52-13.22 2.52-4.72 0-9.17-0.85-13.24-2.52q-0.82-0.34-1.62-0.72-0.6 0.53-0.61 0.95c0 0.67 1.27 1.75 4.1 2.63 3.02 0.94 7.06 1.46 11.37 1.46 4.31 0 8.35-0.52 11.37-1.46 2.83-0.88 4.1-1.96 4.1-2.63q-0.01-0.43-0.62-0.95zm14.47-24.73q0-1.18-0.17-2.3c0 0-0.84 0-0.84 0 0 0-6.41 0-6.41 0q-0.05 0.01-0.1 0.01-0.05 0-0.09-0.01c-0.01 0-21.08 0-21.08 0 0 0-3.85 0-3.85 0q-0.05 0.01-0.1 0.01-0.05 0-0.09-0.01c-0.01 0-23.54 0-23.55 0q-0.01 0-0.01 0c0 0-2.18 0-2.19 0q-0.17 1.13-0.17 2.3c0 12.44 11.21 25.85 29.33 25.85 18.11 0 29.32-13.41 29.32-25.85zm-46.9-8.99l-0.99 1.13c-0.21 0.25-0.5 0.37-0.8 0.37q-0.38 0-0.7-0.26c-0.44-0.38-0.49-1.05-0.1-1.5l0.98-1.13c0.39-0.44 1.06-0.49 1.5-0.11 0.44 0.39 0.49 1.06 0.11 1.5z"/>
	<path id="シェイプ 668" class="s1" d="m42.25 42.97c-0.48-0.47-1.25-0.47-1.73 0l-10.82 10.72-4.24-4.2c-0.48-0.47-1.25-0.47-1.73 0-0.48 0.48-0.48 1.24 0 1.72l5.1 5.06c0.24 0.23 0.56 0.35 0.87 0.35 0.31 0 0.63-0.12 0.87-0.35l11.68-11.58c0.48-0.48 0.48-1.25 0-1.72z"/>
</svg>