<svg version="1.2" xmlns="http://www.w3.org/2000/svg" viewBox="0 0 47 43" width="47" height="43">
	<style>
		.s0 { fill: #ffffff } 
	</style>
	<path id="シェイプ 764" fill-rule="evenodd" class="s0" d="m33.13 41.52h-19.28c-1.67 0-3.03-1.35-3.03-3.02v-18.33l-7-0.13q-0.33-0.03-0.62-0.16c-0.48-0.21-0.86-0.6-1.05-1.1-0.2-0.49-0.18-1.03 0.03-1.52l3.9-9.76q0.54-1.34 1.5-2.42c0.86-0.98 1.99-1.69 3.25-2.05 0.36-0.08 0.99-0.26 1.72-0.47 1.7-0.48 3.81-1.08 4.65-1.03h0.87c0.53 0 0.95 0.43 0.95 0.95 0 1.2 0.47 2.32 1.32 3.16 0.84 0.84 1.96 1.3 3.15 1.3q0 0 0.01 0c2.46 0 4.46-2 4.46-4.46 0.05-0.99 0.95-0.96 1.55-0.95q0.15 0.01 0.29 0c0.82-0.05 2.97 0.56 4.69 1.05 0.7 0.2 1.3 0.37 1.65 0.45 1.27 0.36 2.4 1.06 3.26 2.05q0.96 1.08 1.5 2.41l3.9 9.77q0.13 0.29 0.16 0.61c0.05 0.53-0.11 1.04-0.44 1.45-0.34 0.41-0.82 0.67-1.35 0.72l-7.01 0.13v18.33c0 1.67-1.36 3.02-3.03 3.02zm-21.36-29.23q0.38 0 0.66 0.27 0.28 0.27 0.29 0.66v25.28c0 0.62 0.51 1.13 1.13 1.13h19.28c0.62 0 1.13-0.51 1.13-1.13v-25.27c0.01-0.52 0.42-0.93 0.93-0.94 0.53-0.01 0.96 0.41 0.97 0.93v5.05l6.88-0.12q0.04-0.09 0-0.18c-0.24-0.49-0.69-1.68-1.27-3.18-1.19-3.11-2.99-7.81-3.76-8.43-0.65-0.73-1.46-1.24-2.37-1.51-0.3-0.06-0.92-0.23-1.65-0.44-1.38-0.39-3.42-0.98-4.2-0.99-0.42 2.82-2.67 5.02-5.52 5.36-1.69 0.21-3.36-0.25-4.7-1.29-1.29-1.01-2.13-2.45-2.37-4.06q-0.58 0-1.14 0.15l-4.73 1.28c-1.6 0.51-2.91 1.76-3.48 3.34l-3.91 9.77q-0.03 0.09 0 0.18l6.88 0.12v-5.04c0.01-0.52 0.42-0.93 0.94-0.94q0 0 0.01 0zm31.28 5.88q-0.02 0.01-0.03 0.01l0.19 0.06z"/>
</svg>