<svg version="1.2" xmlns="http://www.w3.org/2000/svg" viewBox="0 0 54 55" width="54" height="55">
	<style>
		.s0 { fill: #81d8d0 } 
		.s1 { fill: #4f4f4f } 
	</style>
	<path id="シェイプ 1229" class="s0" d="m28.98 5.52c0 2.29-1.85 4.14-4.13 4.14-2.29 0-4.14-1.85-4.14-4.14 0-2.29 1.85-4.14 4.14-4.14 2.28 0 4.13 1.85 4.13 4.14zm-2.7 11.57l1.27 2.08c0 0 0.02 0.24 0.38 0.24 0.36 0 6.76-0.58 6.76-0.58 0 0 1.64-0.26 1.91 1.21 0.19 0.79-0.1 1.92-1.09 2.14-0.98 0.22-7.58 1.21-7.58 1.21 0 0-1.23 0.26-1.9-0.25-0.67-0.5-1.44-1.51-1.44-1.51zm-5.93-7.43c0 0 4.61 0.2 5.12 4.21 0.05 2-0.15 2.71-0.63 3.71-0.71 2-2.43 7.48-2.43 7.48l5.07 7.83c0 0 0.69 0.86 0.69 1.85 0 1 0.84 10.86 0.84 10.86 0 0 0.15 2.68-2.12 2.96-1.03 0.12-2.52-0.25-2.86-2.02-0.34-1.78-1.24-10.77-1.24-10.77l-7.84-8.5c0 0-1.46-1.49-0.28-4.94 1.18-3.46 2.45-7.32 2.45-7.32 0 0 0.22-0.56-0.43-0.37-0.65 0.18-0.65 0.18-0.65 0.18l-2.9 0.57c0 0-0.53-0.04-0.87 0.52-0.34 0.57-3.67 5.73-3.67 5.73 0 0-1.18 1-2.52 0.06-1.09-0.9-0.4-2.02-0.4-2.02l3.95-6.53c0 0 0.74-1.13 2.27-1.53 1.52-0.4 5.78-1.71 5.78-1.71 0 0 1.71-0.39 2.67-0.25zm-6.1 18.29l4.63 5.08-0.94 2.45c0 0-0.42 2.11-2.9 2.22-2.48 0.11-11.29 0.38-11.29 0.38 0 0-1.88-0.38-1.66-2.42 0.04-1.31 0.45-2.14 1.77-2.4 1.32-0.27 9.22-0.61 9.22-0.61z"/>
	<path id="シェイプ 1229 のコピー" fill-rule="evenodd" class="s1" d="m41.5 26.58l4.8 19.61c-1.85 1-3.56 2.25-5.19 3.3h-34.14c-0.4 0-0.74 0.34-0.74 0.75v2.76h45.85q0-3.75 0-7.51c-0.04-0.44-0.14-0.66-0.32-0.82-0.35-0.3-2.26 0.18-2.67 0.31q-0.34 0.11-0.68 0.24l-4.81-18.73 7.23-9.21-1.97-0.56c-1.04-0.28-1.47 0.09-2.21 1.03-2.24 2.82-1.97 6.51-7.37 6.69l-6.35 0.19c-0.84 0.03-0.78 1.71 0 1.71l8.57 0.24z"/>
</svg>