<svg version="1.2" xmlns="http://www.w3.org/2000/svg" viewBox="0 0 41 28" width="41" height="28">
	<style>
		.s0 { fill: #fbfdfd } 
	</style>
	<path id="シェイプ 550" fill-rule="evenodd" class="s0" d="m37.61 27.12h-34.22c-0.76 0-1.48-0.3-2.03-0.84-0.55-0.55-0.84-1.27-0.84-2.03v-20.5c0-0.76 0.29-1.48 0.84-2.03 0.55-0.54 1.27-0.84 2.03-0.84h34.26 0.04 0.03l0.36 0.04c0.6 0.1 1.14 0.37 1.56 0.8q0.33 0.33 0.55 0.76l0.01 0.02q0.02 0.05 0.04 0.1l0.04 0.1 0.1 0.27 0.05 0.19 0.04 0.26 0.01 0.26v0.07 20.5c0 0.76-0.29 1.48-0.84 2.03-0.55 0.54-1.27 0.84-2.03 0.84zm-35.45-14.49v11.62q0 0.51 0.36 0.87 0.36 0.36 0.87 0.36h34.22q0.51 0 0.87-0.36 0.36-0.37 0.36-0.87v-11.62zm31.56 11.04h-6.3c-0.46 0-0.88-0.18-1.2-0.5-0.32-0.32-0.5-0.75-0.5-1.2v-3.21c0-0.45 0.18-0.88 0.5-1.2 0.32-0.32 0.74-0.5 1.2-0.5h6.3c0.45 0 0.88 0.18 1.2 0.5 0.32 0.32 0.49 0.75 0.49 1.2v3.21c0 0.45-0.17 0.88-0.49 1.2-0.32 0.32-0.75 0.5-1.2 0.5zm-6.3-4.97q-0.03 0.01-0.04 0.02-0.02 0.01-0.02 0.04v3.21q0 0.02 0.02 0.03 0.01 0.02 0.04 0.02h6.3q0.03 0 0.04-0.01 0.01-0.02 0.01-0.04v-3.21q0-0.03-0.01-0.04-0.02-0.01-0.04-0.02zm-25.25-7.71h36.68v-3.32h-36.68zm0-4.96h36.68v-2.37l-0.04-0.22-0.07-0.21-0.1-0.16-0.17-0.21q-0.29-0.27-0.68-0.33l-0.17-0.01h-34.22q-0.51 0-0.87 0.36-0.36 0.36-0.36 0.87z"/>
</svg>