<svg version="1.2" xmlns="http://www.w3.org/2000/svg" viewBox="0 0 38 43" width="38" height="43">
	<style>
		.s0 { fill: #ffffff } 
	</style>
	<path id="シェイプ 1365" class="s0" d="m18.91 1.25h0.05c2.48 0.01 4.8 0.97 6.54 2.69 1.74 1.72 2.69 4 2.68 6.42-0.03 4.96-4.19 9-9.27 9h-0.06c-5.09-0.02-9.23-4.08-9.21-9.11 0.03-4.96 4.18-9 9.27-9m-0.02 15.84c0.01 0 0.05 0 0.05 0 3.83-0.03 6.93-3.09 6.9-6.83-0.02-3.72-3.14-6.74-6.99-6.74q0 0 0 0c-3.81 0.02-6.9 3.06-6.9 6.78 0 0 0 0.05 0 0.05 0.03 3.72 3.14 6.74 6.94 6.74m2.22 3.66c8.37 0.04 15.16 6.71 15.15 14.89v4.49q-0.01 0.46-0.34 0.8-0.34 0.32-0.81 0.33h-32.51q-0.48-0.01-0.82-0.33-0.33-0.34-0.33-0.8v-4.49c-0.01-8.17 6.78-14.85 15.14-14.89h4.52m-17.1 18.24h29.69c0.14 0 0.26-0.11 0.26-0.25v-3.1c0.01-6.93-5.76-12.59-12.85-12.62h-4.52c-7.09 0.03-12.85 5.69-12.84 12.62v3.1c0 0.14 0.12 0.25 0.26 0.25"/>
</svg>