<svg version="1.2" xmlns="http://www.w3.org/2000/svg" viewBox="0 0 73 73" width="73" height="73">
	<style>
		.s0 { fill: #4f4f4f } 
		.s1 { fill: #81d8d0 } 
	</style>
	<path id="シェイプ 598" class="s0" d="m33.51 22.31c1.95 0 3.78-0.54 5.35-1.47l4.24 1.95c0.93 0.43 1.9-0.54 1.47-1.47l-1.95-4.25c0.93-1.57 1.47-3.39 1.47-5.35 0-5.84-4.74-10.58-10.58-10.58-5.84 0-10.58 4.74-10.58 10.58 0 5.85 4.74 10.59 10.58 10.59zm5.95-12.47c1.03 0 1.87 0.84 1.87 1.87 0 1.03-0.84 1.87-1.87 1.87-1.03 0-1.87-0.84-1.87-1.87 0-1.03 0.84-1.87 1.87-1.87zm-5.95 0c1.04 0 1.87 0.84 1.87 1.87 0 1.03-0.83 1.87-1.87 1.87-1.03 0-1.87-0.84-1.87-1.87 0-1.03 0.84-1.87 1.87-1.87zm-5.94 0c1.03 0 1.87 0.84 1.87 1.87 0 1.03-0.84 1.87-1.87 1.87-1.03 0-1.87-0.84-1.87-1.87 0-1.03 0.84-1.87 1.87-1.87z"/>
	<path id="シェイプ 598 のコピー" fill-rule="evenodd" class="s1" d="m11.42 26.86c0.38-3.45 3.47-5.93 6.92-5.56 3.44 0.37 5.93 3.47 5.55 6.92-0.37 3.44-3.47 5.93-6.91 5.55-3.44-0.37-5.93-3.47-5.56-6.91zm5.01 31.46v2.52c0 0.52-0.42 0.94-0.94 0.94h-13.38c-0.52 0-0.94-0.42-0.94-0.94v-2.52c0-0.51 0.42-0.93 0.94-0.93h13.38c0.52 0 0.94 0.42 0.94 0.93zm23.64-21.18c0 4.03-3.28 7.31-7.31 7.31-1.56 0-3.01-0.5-4.2-1.34l-5.15 3.2q-0.73 0.44-1.53 0.44c-0.68 0-1.38-0.25-1.92-0.73l-3.22-2.88-1.7 5.09h5.7c2.57 0 4.66 2.1 4.66 4.67v15.57c0 1.78-1.46 3.25-3.25 3.25-1.8 0-3.25-1.47-3.25-3.25v-12.55c0-0.65-0.53-1.18-1.17-1.18h-10.08c-1.36 0-2.64-0.61-3.51-1.67-0.87-1.05-1.19-2.43-0.92-3.78 0 0 3.61-11.15 4.21-13.06 0.59-1.91 2.55-3.36 4.78-2.56 1.53 0.57 2.62 1.04 3.44 1.35 0.37 0.14 1.19 0.46 1.68 0.9 0.4 0.34 4.87 4.33 4.87 4.33l3.35-2.07c-0.04-0.34-0.1-0.68-0.1-1.04 0-4.03 3.28-7.31 7.31-7.31 4.03 0 7.31 3.28 7.31 7.31zm-2.9 0c0-2.43-1.98-4.41-4.41-4.41-2.44 0-4.42 1.98-4.42 4.41 0 2.44 1.98 4.42 4.42 4.42 2.43 0 4.41-1.98 4.41-4.42zm-2.64 0c0 0.98-0.79 1.78-1.77 1.78-0.98 0-1.78-0.8-1.78-1.78 0-0.98 0.8-1.77 1.78-1.77 0.98 0 1.77 0.79 1.77 1.77zm11.41-8.68c0.03-3.48 2.87-6.27 6.34-6.24 3.48 0.03 6.27 2.87 6.24 6.35-0.03 3.47-2.87 6.26-6.34 6.23-3.48-0.03-6.27-2.87-6.24-6.34zm24.91 41.27c-0.6 1.27-1.85 2.01-3.17 2.01q-0.75 0-1.48-0.33l-9.17-4.31c-1.08-0.51-1.83-1.55-1.98-2.74l-0.65-5.32-3.64 0.43 0.49 8.58c0.11 1.92-1.36 3.57-3.28 3.68q-0.1 0.01-0.2 0.01c-1.84 0-3.38-1.44-3.49-3.29l-0.68-11.87c-0.1-1.84 1.25-3.45 3.08-3.66l6.57-0.78-1.11-4.66c-0.33 0.22-0.67 0.44-1.07 0.6-1.58 0.64-5.85 1.64-6.68 1.84q-0.36 0.08-0.7 0.08c-1.4 0-2.65-0.96-2.98-2.37-0.39-1.65 0.64-3.3 2.28-3.68 1.9-0.44 4.95-1.22 5.81-1.56 0.24-0.16 0.79-1.03 1.16-1.62 0.53-0.84 2.27-4.04 5.1-5.07 2.83-1.04 5.66-0.03 6.74 2.4 0.78 1.76 1.81 6.67 3.08 14.58 0.21 1.32-0.14 2.69-0.95 3.76-0.65 0.85-1.58 1.45-2.6 1.74l0.42 3.42 7.42 3.49c1.75 0.82 2.5 2.9 1.68 4.64z"/>
</svg>