<svg version="1.2" xmlns="http://www.w3.org/2000/svg" viewBox="0 0 53 36" width="53" height="36">
	<style>
		.s0 { fill: #ffffff } 
	</style>
	<path id="シェイプ 920" class="s0" d="m44.61 23.35c-1.82 0-2.79-0.8-3.57-1.43-0.71-0.59-1.27-1.05-2.47-1.05-1.2 0-1.76 0.46-2.47 1.05-0.78 0.63-1.75 1.43-3.57 1.43-1.81 0-2.78-0.8-3.56-1.44-0.71-0.58-1.27-1.04-2.47-1.04-1.2 0-1.76 0.46-2.47 1.04-0.78 0.64-1.75 1.44-3.57 1.44-1.82 0-2.78-0.8-3.56-1.44-0.71-0.58-1.27-1.04-2.47-1.04-1.2 0-1.76 0.46-2.47 1.04-0.78 0.64-1.75 1.44-3.57 1.44-1.82 0-2.79-0.8-3.56-1.44-0.71-0.58-1.27-1.04-2.47-1.04-0.48 0-0.87-0.38-0.87-0.86 0-0.48 0.39-0.86 0.87-0.86 1.81 0 2.78 0.79 3.56 1.43 0.71 0.58 1.27 1.04 2.47 1.04 1.2 0 1.76-0.46 2.47-1.04 0.78-0.64 1.75-1.43 3.57-1.43 1.82 0 2.79 0.79 3.56 1.43 0.71 0.58 1.27 1.04 2.47 1.04 1.2 0 1.76-0.46 2.47-1.04 0.78-0.64 1.75-1.43 3.57-1.43 1.82 0 2.79 0.79 3.57 1.43 0.7 0.58 1.27 1.04 2.46 1.04 1.2 0 1.76-0.46 2.47-1.04 0.78-0.64 1.75-1.43 3.57-1.43 1.82 0 2.79 0.79 3.57 1.43 0.71 0.58 1.27 1.04 2.47 1.04 1.2 0 1.76-0.46 2.47-1.04 0.78-0.64 1.75-1.43 3.56-1.43 0.48 0 0.87 0.38 0.87 0.86 0 0.48-0.39 0.86-0.87 0.86-1.2 0-1.76 0.46-2.47 1.05-0.78 0.63-1.74 1.43-3.56 1.43zm6.03-8.3h-19.21c-1.17 0-2.12-0.95-2.12-2.12 0-1.55-1.26-2.81-2.81-2.81-1.55 0-2.81 1.26-2.81 2.81 0 1.17-0.95 2.12-2.12 2.12h-19.21c-0.48 0-0.87-0.38-0.87-0.86 0-0.48 0.39-0.86 0.87-0.86h19.21c0.22 0 0.4-0.18 0.4-0.4 0-2.5 2.03-4.53 4.53-4.53 2.5 0 4.53 2.03 4.53 4.53 0 0.22 0.18 0.4 0.4 0.4h19.21c0.48 0 0.87 0.38 0.87 0.86 0 0.48-0.39 0.86-0.87 0.86zm-45.01 14.12h-3.27c-0.48 0-0.87-0.39-0.87-0.86 0-0.48 0.39-0.87 0.87-0.87h3.27c0.48 0 0.87 0.39 0.87 0.87 0 0.47-0.39 0.86-0.87 0.86zm18.02 0h-3.28c-0.48 0-0.86-0.39-0.86-0.86 0-0.48 0.38-0.87 0.86-0.87h3.28c0.48 0 0.86 0.39 0.86 0.87 0 0.47-0.38 0.86-0.86 0.86zm8.98 0h-3.28c-0.48 0-0.86-0.39-0.86-0.86 0-0.48 0.38-0.87 0.86-0.87h3.28c0.48 0 0.86 0.39 0.86 0.87 0 0.47-0.38 0.86-0.86 0.86zm-17.96 0h-3.28c-0.48 0-0.86-0.39-0.86-0.86 0-0.48 0.38-0.87 0.86-0.87h3.28c0.48 0 0.86 0.39 0.86 0.87 0 0.47-0.38 0.86-0.86 0.86zm26.94 0h-3.28c-0.48 0-0.86-0.39-0.86-0.86 0-0.48 0.38-0.87 0.86-0.87h3.28c0.48 0 0.86 0.39 0.86 0.87 0 0.47-0.38 0.86-0.86 0.86zm9.03 0h-3.28c-0.47 0-0.86-0.39-0.86-0.86 0-0.48 0.39-0.87 0.86-0.87h3.28c0.48 0 0.87 0.39 0.87 0.87 0 0.47-0.39 0.86-0.87 0.86zm-31.51 5.82h-3.28c-0.47 0-0.86-0.38-0.86-0.86 0-0.48 0.39-0.87 0.86-0.87h3.28c0.48 0 0.87 0.39 0.87 0.87 0 0.48-0.39 0.86-0.87 0.86zm8.98 0h-3.28c-0.47 0-0.86-0.38-0.86-0.86 0-0.48 0.39-0.87 0.86-0.87h3.28c0.48 0 0.87 0.39 0.87 0.87 0 0.48-0.39 0.86-0.87 0.86zm-17.96 0h-3.28c-0.47 0-0.86-0.38-0.86-0.86 0-0.48 0.39-0.87 0.86-0.87h3.28c0.48 0 0.87 0.39 0.87 0.87 0 0.48-0.39 0.86-0.87 0.86zm26.94 0h-3.28c-0.47 0-0.86-0.38-0.86-0.86 0-0.48 0.39-0.87 0.86-0.87h3.28c0.48 0 0.87 0.39 0.87 0.87 0 0.48-0.39 0.86-0.87 0.86zm9.04 0h-3.28c-0.48 0-0.87-0.38-0.87-0.86 0-0.48 0.39-0.87 0.87-0.87h3.28c0.47 0 0.86 0.39 0.86 0.87 0 0.48-0.39 0.86-0.86 0.86zm-19.63-28.52c-0.48 0-0.86-0.38-0.86-0.86v-3.74c0-0.48 0.38-0.86 0.86-0.86 0.48 0 0.86 0.38 0.86 0.86v3.74c0 0.48-0.38 0.86-0.86 0.86zm-4.73 1.57q-0.35 0-0.61-0.26l-2.05-2.04c-0.34-0.34-0.34-0.89 0-1.22 0.34-0.34 0.89-0.34 1.22 0l2.05 2.04c0.34 0.34 0.34 0.88 0 1.22q-0.27 0.26-0.61 0.26zm9.46 0q-0.34 0-0.61-0.26c-0.34-0.33-0.34-0.88 0-1.22l2.05-2.04c0.33-0.34 0.88-0.34 1.22 0 0.34 0.33 0.34 0.88 0 1.22l-2.05 2.04q-0.26 0.26-0.61 0.26zm-3.37 4.42c0 0.74-0.61 1.35-1.36 1.35-0.75 0-1.36-0.61-1.36-1.35 0-0.75 0.61-1.36 1.36-1.36 0.75 0 1.36 0.61 1.36 1.36z"/>
</svg>