<svg version="1.2" xmlns="http://www.w3.org/2000/svg" viewBox="0 0 44 40" width="44" height="40">
	<style>
		.s0 { fill: #ffffff } 
	</style>
	<path id="シェイプ 763" class="s0" d="m20.37 38.65c-5.22 0-11.35-0.61-15.02-3.06q-2.92-1.96-3.25-5.04c-0.92-8.88 3.02-19.83 5.45-25.56 0.94-2.21 3.09-3.64 5.49-3.64h5.79c1.73 0 3.17 1.29 3.35 3.01l0.27 2.56c0.18 1.67-0.85 3.26-2.45 3.77-1.01 0.33-2.11 0.19-3.01-0.39l-2.26-1.45c-0.14-0.09-0.26-0.05-0.32-0.01-0.06 0.03-0.17 0.11-0.17 0.27v14.04c1.62-1.72 4.54-3.65 9.59-3.82 2.04-0.07 4.15 0.37 6.09 1.27l0.94 0.43c0.82-1.67 3.26-4.66 10.25-4.28 0.51 0.02 0.89 0.46 0.87 0.96-0.03 0.51-0.46 0.9-0.97 0.87-7.75-0.42-8.7 3.7-8.74 3.88-0.05 0.28-0.22 0.52-0.48 0.64-0.25 0.13-0.54 0.14-0.8 0.02l-1.84-0.85c-1.68-0.78-3.5-1.16-5.26-1.1-7.77 0.26-9.63 5.11-9.7 5.31-0.15 0.42-0.59 0.67-1.02 0.6-0.44-0.08-0.76-0.46-0.76-0.91v-17.06c0-0.78 0.43-1.51 1.12-1.89 0.69-0.37 1.52-0.35 2.19 0.08l2.26 1.45c0.44 0.28 0.97 0.35 1.46 0.19 0.77-0.25 1.27-1.02 1.19-1.83l-0.27-2.56c-0.09-0.78-0.74-1.37-1.53-1.37h-5.79c-1.66 0-3.15 0.99-3.8 2.53-2.36 5.57-6.2 16.18-5.31 24.65 0.15 1.49 0.95 2.7 2.44 3.7 6.86 4.58 25.62 2.58 33.34 0.26 0.48-0.14 0.99 0.13 1.14 0.62 0.14 0.49-0.13 1-0.62 1.15-3.6 1.07-10.36 2.27-17.35 2.52q-1.2 0.04-2.51 0.04zm6.22-5.29c-0.87 0-1.65-0.14-2.31-0.34-2.02-0.61-3.26-1.83-3.32-1.88-0.36-0.36-0.36-0.94 0-1.3 0.35-0.36 0.93-0.37 1.29-0.01 0.17 0.16 3.98 3.78 8.95-0.07 0.4-0.31 0.98-0.24 1.29 0.16 0.31 0.4 0.24 0.98-0.16 1.29-2.12 1.64-4.1 2.15-5.74 2.15z"/>
</svg>