<svg version="1.2" xmlns="http://www.w3.org/2000/svg" viewBox="0 0 43 45" width="43" height="45">
	<style>
		.s0 { fill: #ffffff } 
		.s1 { fill: #81d8d0 } 
	</style>
	<g id="グループ 63">
		<path id="シェイプ 843" fill-rule="evenodd" class="s0" d="m25.31 22.49q1.43 0 2.86 0c0.77-0.01 1.54-0.05 2.31-0.04 1.76 0.02 3.35 0.52 4.77 1.58 0.65 0.48 1.18 1.1 1.76 1.66q1.6 1.54 3.14 3.13c0.88 0.9 1.51 1.96 1.73 3.22q0.07 0.36 0.07 0.73 0.01 1.64 0 3.28c0 0.39-0.02 0.78-0.11 1.17-0.29 1.17-1.14 1.85-2.39 1.89-0.63 0.02-0.5-0.1-0.7 0.53-0.59 1.88-1.93 2.97-3.78 3.31-2.38 0.44-4.71-0.69-5.58-3.2-0.21-0.58-0.2-0.59-0.81-0.59q-6.11 0.01-12.21 0c-0.19 0-0.33 0.01-0.4 0.25-0.48 1.87-1.74 2.97-3.55 3.46-2.3 0.63-4.67-0.56-5.66-2.52q-0.22-0.43-0.32-0.89c-0.04-0.18-0.13-0.26-0.33-0.26q-1-0.01-2-0.03c-1.04-0.01-1.93-0.9-1.92-1.93q0.03-3.79 2.78-6.38c0.96-0.9 2.14-1.41 3.42-1.7 1.54-0.34 3.06-0.72 4.61-1.04 0.41-0.08 0.67-0.33 0.96-0.58 1.43-1.19 2.8-2.45 4.27-3.59 1.24-0.96 2.64-1.5 4.24-1.47q1.42 0.02 2.84 0.01zm-4.35 7.46q-2 0-4 0-2.01-0.01-4.02-0.01-0.21 0-0.43 0.04-0.86 0.19-1.72 0.38c-0.89 0.2-1.79 0.34-2.66 0.6-1.58 0.48-2.68 1.56-3.45 2.99-0.52 0.93-0.72 1.96-0.81 3.01-0.03 0.34 0.19 0.58 0.56 0.58q0.78 0 1.56 0.01c0.18 0 0.26-0.08 0.29-0.24 0.44-2.46 2.75-4.28 5.17-4.18 1.37 0.05 2.47 0.59 3.4 1.54 0.68 0.7 1.04 1.55 1.22 2.49 0.05 0.27 0.16 0.34 0.43 0.34q6.11-0.01 12.23-0.01c0.41 0 0.42 0 0.5-0.39 0.18-0.94 0.59-1.78 1.26-2.47 1.15-1.16 2.55-1.69 4.2-1.49q2.23 0.28 3.52 2.12c0.39 0.55 0.6 1.18 0.74 1.84 0.06 0.3 0.17 0.38 0.48 0.33 0.51-0.08 0.8-0.42 0.81-0.96q0-1.88 0-3.76 0.01-0.22-0.04-0.43c-0.2-0.88-0.65-1.61-1.27-2.25-0.1-0.11-0.22-0.13-0.36-0.14-0.68-0.02-1.36 0.05-2.05 0.06-2.57 0.01-5.13-0.03-7.7 0.02-1.18 0.02-2.36-0.02-3.54-0.02q-2.16 0-4.32 0zm13.07 11.38c1.79 0 3.29-1.4 3.29-3.07 0-1.86-1.5-3.52-3.17-3.49-2.12 0.03-3.29 1.8-3.32 3.37-0.02 1.79 1.35 3.18 3.2 3.19zm-19.59-3.19c0.01-1.8-1.38-3.29-3.06-3.34-1.75-0.04-3.33 1.41-3.43 3.25-0.09 1.77 1.34 3.24 3.16 3.28 1.9 0.03 3.31-1.34 3.33-3.19zm1.25-9.82c0.15 0 0.24 0 0.32 0q1.24 0.01 2.48 0c2.3-0.01 4.61 0.03 6.91-0.02 0.34 0 0.34 0 0.34-0.34q0-1.74 0-3.48c0-0.33 0-0.32-0.34-0.34q-1.58-0.07-3.17 0.02c-0.99 0.05-1.89 0.34-2.69 0.92-0.69 0.52-1.33 1.09-1.99 1.64-0.6 0.52-1.2 1.04-1.86 1.6zm21.47-0.09q-0.12-0.13-0.21-0.22c-0.63-0.59-1.28-1.16-1.86-1.8-1.09-1.19-2.43-1.92-4.05-2.04-1.12-0.08-2.24-0.02-3.35-0.03-0.19 0-0.22 0.1-0.22 0.26q0 1.82 0 3.64c-0.01 0.19 0.07 0.25 0.24 0.27 0.31 0.04 0.62-0.02 0.92-0.02q4.1-0.01 8.19-0.02c0.1 0 0.2 0.03 0.34-0.04zm-15.73-16.95q0 3.8 0 7.6c0 1.27-0.89 2.16-2.17 2.16q-7.53 0-15.07 0c-1.31 0-2.21-0.9-2.21-2.21q0-7.52 0-15.05c0-1.41 0.81-2.22 2.22-2.23q3.95 0 7.89 0 3.61 0 7.22 0c1.12 0.01 1.88 0.64 2.09 1.72q0.03 0.2 0.03 0.41 0 3.8 0 7.6zm-17.77 0.04q0 0 0 0 0.01 3.66-0.01 7.32c-0.01 0.51 0.26 0.75 0.73 0.74q7.32-0.01 14.64-0.02 0.73 0 0.73-0.71 0-7.32 0-14.64c0-0.57-0.23-0.8-0.79-0.8q-7.28 0-14.56 0c-0.55 0-0.74 0.19-0.74 0.73q0 3.69 0 7.38zm4.11 0.03q0-2.77 0-5.53c0-0.55 0.19-0.74 0.73-0.74q2.09 0 4.17-0.01c1.17 0 2.11 0.48 2.85 1.33 1.35 1.57 1.22 3.92-0.23 5.39-0.79 0.8-1.76 1.13-2.85 1.21-0.76 0.06-1.53 0.02-2.3 0.03-0.22 0-0.29 0.07-0.29 0.29q0.01 1.84 0 3.66c0 0.47-0.21 0.67-0.67 0.68q-0.39 0-0.77 0-0.64-0.01-0.64-0.66 0-2.83 0-5.65z"/>
		<path id="シェイプ 843 のコピー" fill-rule="evenodd" class="s1" d="m12.19 11.02q-1.04-0.01-2.08 0c-0.2 0-0.26-0.06-0.26-0.26q0.01-0.87 0-1.74 0.01-0.85 0-1.69c-0.01-0.23 0.08-0.29 0.3-0.29q1.15 0.01 2.3 0.01c1.03 0.01 1.78 0.74 1.82 1.78 0.06 1.29-0.8 2.18-2.08 2.19z"/>
	</g>
</svg>