<svg version="1.2" xmlns="http://www.w3.org/2000/svg" viewBox="0 0 52 31" width="52" height="31">
	<style>
		.s0 { fill: #ffffff } 
	</style>
	<path id="シェイプ 843" fill-rule="evenodd" class="s0" d="m19.19 7.9c0-3.8 3.06-6.89 6.81-6.89 3.75 0 6.8 3.09 6.8 6.89 0 3.79-3.05 6.88-6.8 6.88-3.75 0-6.81-3.09-6.81-6.88zm1.9 0c0 2.73 2.2 4.96 4.91 4.96 2.71 0 4.91-2.23 4.91-4.96 0-2.74-2.2-4.97-4.91-4.97-2.71 0-4.91 2.23-4.91 4.97zm-14.85 3.31c0-3.28 2.64-5.95 5.88-5.95 3.25 0 5.89 2.67 5.89 5.95 0 3.28-2.64 5.95-5.89 5.95-3.24 0-5.88-2.67-5.88-5.95zm1.89 0c0 2.23 1.79 4.04 3.99 4.04 2.21 0 4-1.81 4-4.04 0-2.22-1.79-4.03-4-4.03-2.2 0-3.99 1.81-3.99 4.03zm25.86 0c0-3.28 2.64-5.95 5.88-5.95 3.25 0 5.89 2.67 5.89 5.95 0 3.28-2.64 5.95-5.89 5.95-3.24 0-5.88-2.67-5.88-5.95zm1.89 0c0 2.23 1.79 4.04 3.99 4.04 2.2 0 4-1.81 4-4.04 0-2.22-1.8-4.03-4-4.03-2.2 0-3.99 1.81-3.99 4.03zm15.12 17.82v0.95h-50v-0.95c0-6.2 4.99-11.25 11.13-11.25 1.85 0 3.67 0.47 5.28 1.35 2.38-2.11 5.4-3.26 8.59-3.26 3.19 0 6.21 1.15 8.58 3.26 1.62-0.88 3.44-1.35 5.29-1.35 6.14 0 11.13 5.05 11.13 11.25zm-25-11.25c-2.93 0-5.7 1.14-7.79 3.22q0 0 0 0-0.1 0.1-0.19 0.19-0.03 0.04-0.07 0.07-0.06 0.06-0.12 0.13-0.03 0.04-0.07 0.08-0.05 0.06-0.1 0.12-0.04 0.04-0.08 0.08-0.05 0.06-0.1 0.12-0.03 0.05-0.07 0.09-0.05 0.06-0.1 0.12-0.03 0.04-0.07 0.09-0.05 0.06-0.09 0.12-0.04 0.05-0.07 0.09-0.05 0.07-0.09 0.13-0.03 0.04-0.07 0.09-0.05 0.07-0.1 0.15-0.02 0.03-0.04 0.06-0.08 0.11-0.15 0.22-0.02 0.04-0.04 0.07-0.05 0.08-0.1 0.15-0.02 0.05-0.05 0.1-0.04 0.06-0.08 0.13-0.03 0.05-0.06 0.1-0.03 0.07-0.07 0.13-0.03 0.05-0.05 0.11-0.04 0.06-0.07 0.13-0.03 0.05-0.05 0.1-0.04 0.07-0.07 0.13-0.02 0.05-0.05 0.1-0.03 0.08-0.06 0.15-0.02 0.04-0.05 0.1-0.03 0.07-0.06 0.15-0.02 0.04-0.04 0.08-0.05 0.13-0.1 0.25 0 0.01-0.01 0.02-0.04 0.11-0.08 0.22-0.01 0.05-0.03 0.09-0.03 0.08-0.05 0.16-0.02 0.05-0.04 0.1-0.02 0.08-0.04 0.15-0.02 0.06-0.04 0.11-0.02 0.07-0.04 0.15-0.01 0.05-0.03 0.1-0.02 0.08-0.04 0.15-0.01 0.06-0.03 0.11-0.01 0.08-0.03 0.15-0.01 0.06-0.03 0.11-0.01 0.08-0.03 0.16-0.01 0.05-0.02 0.1-0.02 0.1-0.04 0.2 0 0.03-0.01 0.06-0.02 0.13-0.04 0.26 0 0.04-0.01 0.07-0.01 0.1-0.03 0.19 0 0.05-0.01 0.11-0.01 0.08-0.02 0.16 0 0.05-0.01 0.11 0 0.05 0 0.1h22.16q0-0.05-0.01-0.1 0-0.06-0.01-0.11 0-0.08-0.01-0.16-0.01-0.06-0.02-0.11-0.01-0.09-0.02-0.19-0.01-0.03-0.01-0.07-0.02-0.13-0.04-0.26-0.01-0.03-0.02-0.06-0.01-0.1-0.03-0.2-0.01-0.05-0.02-0.1-0.02-0.08-0.04-0.16-0.01-0.05-0.02-0.1-0.02-0.08-0.04-0.16-0.01-0.05-0.02-0.1-0.02-0.08-0.04-0.16-0.02-0.05-0.03-0.1-0.02-0.08-0.05-0.15-0.01-0.05-0.03-0.11-0.02-0.07-0.05-0.15-0.01-0.05-0.03-0.1-0.03-0.08-0.05-0.16-0.02-0.04-0.03-0.08-0.05-0.13-0.09-0.24 0-0.01 0-0.01-0.05-0.12-0.1-0.25-0.02-0.03-0.03-0.07-0.04-0.08-0.08-0.17-0.02-0.04-0.04-0.09-0.03-0.07-0.07-0.15-0.02-0.04-0.04-0.09-0.04-0.07-0.07-0.14-0.02-0.05-0.05-0.1-0.04-0.07-0.07-0.14-0.03-0.05-0.05-0.1-0.04-0.06-0.08-0.13-0.02-0.05-0.05-0.1-0.04-0.07-0.09-0.14-0.02-0.04-0.04-0.08-0.06-0.09-0.11-0.17-0.02-0.03-0.03-0.06-0.07-0.11-0.15-0.22-0.02-0.02-0.04-0.05-0.05-0.08-0.11-0.16-0.03-0.04-0.06-0.09-0.04-0.06-0.09-0.13-0.04-0.04-0.07-0.09-0.05-0.06-0.09-0.12-0.04-0.05-0.07-0.09-0.05-0.06-0.1-0.12-0.04-0.04-0.07-0.09-0.05-0.06-0.1-0.12-0.04-0.04-0.08-0.08-0.05-0.06-0.1-0.12-0.04-0.04-0.08-0.08-0.06-0.06-0.12-0.13-0.03-0.03-0.06-0.07-0.09-0.09-0.18-0.18 0 0-0.01-0.01c-2.09-2.08-4.86-3.22-7.79-3.22zm-12.98 10.29q0-0.01 0-0.02 0-0.04 0-0.08 0.01-0.11 0.02-0.22 0.01-0.05 0.01-0.1 0.01-0.11 0.03-0.21 0-0.05 0.01-0.1 0.01-0.12 0.03-0.25 0-0.02 0.01-0.04 0.02-0.15 0.04-0.3 0.01-0.04 0.02-0.08 0.02-0.11 0.04-0.21 0.01-0.05 0.02-0.1 0.02-0.11 0.04-0.21 0.01-0.04 0.02-0.09 0.03-0.14 0.07-0.29 0 0 0-0.01 0.04-0.14 0.07-0.27 0.02-0.05 0.03-0.09 0.03-0.1 0.06-0.2 0.01-0.05 0.03-0.1 0.03-0.1 0.06-0.2 0.01-0.04 0.03-0.08 0.04-0.14 0.09-0.28 0.01-0.02 0.02-0.05 0.04-0.11 0.09-0.22 0.01-0.05 0.03-0.1 0.04-0.09 0.08-0.19 0.02-0.04 0.03-0.09 0.05-0.1 0.09-0.21 0.02-0.03 0.03-0.06 0.06-0.13 0.12-0.27 0.02-0.03 0.04-0.06 0.04-0.1 0.09-0.2 0.03-0.05 0.05-0.09 0.05-0.09 0.09-0.18 0.03-0.05 0.05-0.09 0.06-0.11 0.12-0.21 0.01-0.02 0.02-0.05 0.07-0.12 0.15-0.25 0.02-0.04 0.04-0.07 0.06-0.09 0.12-0.18 0.02-0.05 0.05-0.09 0.06-0.09 0.12-0.17 0.02-0.04 0.05-0.08 0.16-0.25 0.34-0.48 0.03-0.04 0.06-0.08 0.06-0.08 0.12-0.16 0.03-0.04 0.07-0.08 0.06-0.09 0.13-0.17 0.03-0.04 0.06-0.07 0-0.01 0.01-0.02c-1.21-0.58-2.54-0.87-3.89-0.87-4.77 0-8.71 3.67-9.19 8.37zm36.04 0c-0.47-4.7-4.41-8.37-9.18-8.37-1.35 0-2.68 0.29-3.9 0.87q0.01 0.01 0.02 0.02 0.03 0.04 0.06 0.07 0.07 0.08 0.13 0.16 0.03 0.05 0.07 0.09 0.06 0.08 0.12 0.16 0.03 0.04 0.06 0.08 0.08 0.11 0.17 0.23 0 0.01 0.01 0.02 0.08 0.11 0.16 0.23 0.03 0.04 0.05 0.08 0.06 0.08 0.11 0.17 0.03 0.04 0.06 0.09 0.06 0.09 0.11 0.18 0.02 0.03 0.05 0.07 0.07 0.13 0.14 0.25 0.02 0.03 0.03 0.05 0.06 0.11 0.12 0.21 0.02 0.05 0.05 0.09 0.04 0.09 0.09 0.18 0.02 0.04 0.04 0.09 0.05 0.1 0.1 0.19 0.02 0.04 0.03 0.08 0.07 0.13 0.12 0.26 0.02 0.04 0.04 0.07 0.04 0.1 0.08 0.2 0.02 0.05 0.04 0.1 0.04 0.09 0.08 0.18 0.01 0.05 0.03 0.1 0.04 0.11 0.08 0.22 0.01 0.02 0.03 0.05 0.04 0.14 0.09 0.28 0.01 0.04 0.03 0.08 0.03 0.1 0.06 0.2 0.02 0.05 0.03 0.1 0.03 0.1 0.06 0.2 0.01 0.04 0.02 0.09 0.04 0.13 0.07 0.27 0.01 0.01 0.01 0.02 0.03 0.14 0.07 0.28 0.01 0.05 0.02 0.09 0.02 0.11 0.04 0.21 0.01 0.05 0.02 0.1 0.02 0.1 0.04 0.21 0.01 0.04 0.01 0.08 0.03 0.15 0.05 0.3 0 0.02 0.01 0.04 0.01 0.13 0.03 0.25 0.01 0.05 0.01 0.1 0.01 0.1 0.02 0.21 0.01 0.05 0.01 0.1 0.02 0.11 0.02 0.23 0.01 0.03 0.01 0.07 0 0.01 0 0.02z"/>
</svg>