<svg version="1.2" xmlns="http://www.w3.org/2000/svg" viewBox="0 0 67 56" width="67" height="56">
	<style>
		.s0 { fill: #81d8d0 } 
	</style>
	<path id="シェイプ 1881" fill-rule="evenodd" class="s0" d="m31.5 10.81c3.92-4.08 6.66-7.62 12.68-8.31 11.32-1.3 21.73 10.3 16.01 21.72-1.07 2.13-2.86 4.53-5 6.99v-0.3h-13.9-0.75l-0.51 0.54-2.34 2.42-4.83-9.27-1.6-3.08-1.53 3.12-4.37 8.87-4.34-6.29-1.53-2.21-1.41 2.28-2.03 3.29h-8.91c-3.04-4.17-5.17-8.67-5.34-13.53-0.32-8.9 6.7-14.6 14.77-14.49 7.21 0.09 10.24 3.68 14.93 8.25z"/>
	<path id="シェイプ 1881 のコピー" fill-rule="evenodd" class="s0" d="m52.25 34.44q-0.33 0.35-0.66 0.69c-6.45 6.69-13.45 13.19-20.08 19.78-6.95-6.69-15.37-13.75-21.54-20.81h7.06 0.98l0.51-0.83 1.13-1.84 4.51 6.55 1.69 2.46 1.32-2.68 4.15-8.45 4.34 8.35 1.13 2.16 1.69-1.75 3.52-3.63h10.25z"/>
</svg>