<?xml version="1.0" encoding="UTF-8" standalone="no"?>
<!DOCTYPE svg PUBLIC "-//W3C//DTD SVG 1.1//EN" "http://www.w3.org/Graphics/SVG/1.1/DTD/svg11.dtd">
<svg width="22px" height="21px" version="1.1" xmlns="http://www.w3.org/2000/svg" xmlns:xlink="http://www.w3.org/1999/xlink" xml:space="preserve" xmlns:serif="http://www.serif.com/" style="fill-rule:evenodd;clip-rule:evenodd;stroke-linejoin:round;stroke-miterlimit:2;">
    <g transform="matrix(1,0,0,1,-1581.86,-40.0018)">
        <g id="グループ-62" serif:id="グループ 62">
            <path id="シェイプ-714-のコピー" serif:id="シェイプ 714 のコピー" d="M1601.89,46.093C1601.75,45.786 1601.4,45.658 1601.11,45.799C1600.8,45.94 1600.67,46.294 1600.81,46.589C1602.45,50.11 1601.71,54.316 1598.95,57.074C1595.33,60.702 1589.42,60.702 1585.78,57.074C1584.03,55.319 1583.06,52.987 1583.06,50.501C1583.06,48.012 1584.03,45.68 1585.78,43.914C1587.54,42.146 1589.87,41.179 1592.36,41.179L1592.37,41.179C1594.36,41.179 1596.27,41.8 1597.85,42.955L1597.32,42.972C1596.99,42.985 1596.73,43.256 1596.74,43.586C1596.74,43.904 1597.01,44.163 1597.33,44.163C1597.33,44.163 1597.35,44.163 1597.37,44.149L1599.39,44.091C1599.4,44.091 1599.41,44.088 1599.43,44.087C1599.5,44.081 1599.57,44.061 1599.63,44.031C1599.7,43.999 1599.76,43.958 1599.81,43.904C1599.93,43.778 1599.99,43.606 1599.97,43.438L1599.91,41.568C1599.9,41.239 1599.63,40.98 1599.3,40.991C1598.97,41.003 1598.71,41.273 1598.72,41.604L1598.74,42.153C1596.91,40.76 1594.69,40.002 1592.36,40.002L1592.35,40.002C1589.54,40.002 1586.91,41.098 1584.93,43.077C1580.83,47.18 1580.83,53.847 1584.93,57.923C1586.99,59.973 1589.68,60.998 1592.37,60.998C1595.07,60.998 1597.76,59.976 1599.78,57.921C1602.9,54.824 1603.75,50.065 1601.89,46.093Z" style="fill:rgb(129,215,207);"/>
            <g id="_24" serif:id="24" transform="matrix(0.350161,0,0,0.350161,1592.7,54.7019)">
                <g transform="matrix(34.27,0,0,34.27,18.7166,0)">
                </g>
                <text x="-18.717px" y="0px" style="font-family:'ArialMT', 'Arial', sans-serif;font-size:34.27px;fill:rgb(129,216,208);">2<tspan x="-0.343px " y="0px ">4</tspan></text>
            </g>
        </g>
    </g>
</svg>
