<svg version="1.2" xmlns="http://www.w3.org/2000/svg" viewBox="0 0 43 46" width="43" height="46">
	<style>
		.s0 { fill: #ffffff } 
	</style>
	<path id="シェイプ 887" class="s0" d="m41.04 9.82h-0.07q-0.14-0.37-0.52-0.54l-18.92-8.07q-0.36-0.15-0.73-0.01l-18.85 7.38c-0.26 0.1-0.45 0.3-0.55 0.55h-0.06l-0.32 25.42c0 0.38 0.22 0.73 0.57 0.89l19.2 8.63q0.19 0.08 0.4 0.08 0.16 0 0.32-0.05h0.08l0.05-0.06 18.83-8.6c0.35-0.16 0.57-0.5 0.57-0.88v-24.38-0.01zm-3.38 0.37l-16.46 7.36-5.88-2.85 16.15-7.15zm-26.5 2.51l16.27-6.87 1.61 0.68-16 7.09zm-2.93 8.38l4.07 1.45c0.29 0.1 0.61 0.06 0.86-0.1 0.25-0.17 0.41-0.45 0.43-0.75l0.3-5.51 6.32 3.05v22.48l-17.25-7.75 0.28-22.93 4.59 2.22-0.24 6.89c-0.01 0.43 0.25 0.81 0.64 0.95zm1.32-1.58l0.18-5.34 2.28 1.1-0.28 5.02zm-0.7-7.92l-4.14-1.99 16.43-6.44 3.82 1.63zm30.26 0.08v22.29l-16.95 7.74v-22.45z"/>
</svg>