<svg version="1.2" xmlns="http://www.w3.org/2000/svg" viewBox="0 0 53 51" width="53" height="51">
	<style>
		.s0 { fill: #fbfdfd } 
	</style>
	<path id="シェイプ 1093" fill-rule="evenodd" class="s0" d="m52.28 46.74c0.05 0.44-0.23 0.86-0.66 0.97-2.19 0.54-4.5 0.35-6.57-0.55-10.86 8.1-26.92 0.68-27.85-12.86-1.03-10.58 8.42-20.03 18.97-18.98 3.33 0.27 6.51 1.49 9.18 3.51 7.74 5.87 9.27 16.93 3.41 24.69 1.93 2.27 2.64 2.36 2.64 2.36 0.46 0.04 0.83 0.4 0.88 0.86zm-3.63-0.61q-0.64-0.62-1.47-1.61c-0.47-0.56-0.48-1.37-0.03-1.94 2.41-3.11 3.58-7 3.27-10.93-1-13.28-17.42-19.4-26.8-9.92-9.58 9.48-3.28 26.16 10.19 26.91 3.8 0.22 7.56-0.95 10.57-3.29 0.3-0.24 0.72-0.27 1.05-0.07 1 0.51 2.1 0.8 3.22 0.85zm-34.03-12.7c0.5 0.11 0.81 0.61 0.7 1.11-0.11 0.5-0.61 0.81-1.11 0.7-2.33-0.52-4.53-1.52-6.46-2.93-2.07 0.9-4.38 1.1-6.57 0.55-0.41-0.1-0.71-0.47-0.71-0.9 0-0.51 0.42-0.93 0.93-0.93 0 0 0.7-0.09 2.64-2.35-2.6-3.44-3.85-7.72-3.52-12.01 1.78-18.91 27.61-22.31 34.14-4.47 0.16 0.47-0.09 0.99-0.56 1.16-0.48 0.18-1.01-0.07-1.19-0.55-0.56-1.61-1.38-3.11-2.43-4.46-5.34-6.87-15.23-8.1-22.09-2.75-6.85 5.35-8.08 15.26-2.74 22.14 1.09 1.31-0.81 2.78-1.51 3.56 1.15-0.06 2.28-0.36 3.31-0.91 0.32-0.15 0.69-0.11 0.97 0.11 1.82 1.43 3.94 2.43 6.2 2.93zm21.96-0.49c-0.54 0.19-0.9 0.7-0.92 1.27v1.99c-0.01 0.5-0.41 0.9-0.91 0.91-0.51 0.01-0.93-0.39-0.94-0.91v-1.99c0.01-1.34 0.85-2.53 2.1-3 1.25-0.48 2.07-1.68 2.07-3.02-0.01-1.8-1.46-3.25-3.25-3.25-1.79 0-3.24 1.45-3.24 3.25 0 0.51-0.41 0.93-0.92 0.93-0.51 0-0.93-0.42-0.93-0.93q0-0.51 0.11-1.01c0.58-2.78 3.3-4.56 6.07-3.98 4.87 1.01 5.4 7.98 0.76 9.74zm-1.83 6.36c0.51 0 0.93 0.41 0.93 0.93 0 0.51-0.42 0.92-0.93 0.92-0.5-0.01-0.89-0.41-0.91-0.9-0.01-0.52 0.4-0.94 0.91-0.95q0 0 0 0zm-7.43-25.89c0 0.51-0.41 0.92-0.92 0.92h-18.52c-0.51 0-0.92-0.41-0.92-0.92 0-0.52 0.41-0.93 0.92-0.93 0 0 18.52 0 18.52 0 0.51 0 0.92 0.41 0.92 0.93q0 0 0 0zm-9.02 6.49c0.49 0.01 0.9 0.41 0.9 0.91 0.01 0.51-0.39 0.94-0.9 0.95h-10.42c-0.49-0.02-0.89-0.41-0.9-0.91-0.02-0.51 0.39-0.94 0.9-0.95z"/>
</svg>