<svg version="1.2" xmlns="http://www.w3.org/2000/svg" viewBox="0 0 44 57" width="44" height="57">
	<style>
		.s0 { fill: #ffffff } 
	</style>
	<path id="シェイプ 842" fill-rule="evenodd" class="s0" d="m41.52 37.2c1.16 2.82-0.21 6.04-3.06 7.19-1.68 0.55-3.9 2.01-5.69 1.39-2.07 5.03-5.32 8.18-9.68 9.37q-0.77 0.2-1.55 0c-4.41-1.2-7.68-4.39-9.74-9.5q-0.78 0.35-1.64 0.36c-1.11 0.08-3.71-1.24-4.77-1.6q-0.2-0.08-0.39-0.18c-2.75-1.38-3.85-4.7-2.46-7.42l5.2-9.98c1.27-2.46 3.83-4 6.63-4h15.53c2.88 0.01 5.49 1.65 6.74 4.21l4.77 9.9q0.06 0.13 0.11 0.26zm-10.36 7.67q-0.54-0.53-0.83-1.22c-0.83-1.91 0.08-4.13 2.02-4.94l0.5-0.21q0.48-3.08 0.49-6.19c-3.71-0.31-7.27-1.56-10.35-3.61-0.41-0.28-0.94-0.28-1.35-0.01-3.08 2.06-6.65 3.31-10.35 3.62q0 3.11 0.48 6.18 0.42 0.19 0.79 0.47c1.75 1.31 2.09 3.78 0.75 5.51 1.86 4.83 5.08 8.5 9.31 8.94 3.83-1.05 6.7-3.94 8.54-8.54zm8.6-7.16l-4.77-9.9c-0.94-1.93-2.92-3.16-5.09-3.17h-15.53c-2.11-0.01-4.05 1.16-5.01 3.02l-5.2 9.98q-0.07 0.13-0.12 0.27c-0.79 1.89 0.13 4.05 2.04 4.83l3.29 1.31c1.06 0.41 2.26-0.08 2.73-1.1 0.49-1.07 0.01-2.33-1.07-2.81l-4.07-1.75c-0.44-0.2-0.65-0.72-0.46-1.16 0.19-0.47 0.72-0.69 1.19-0.5l2.12 0.91q-0.42-3.12-0.33-6.26c0.03-0.49 0.44-0.87 0.93-0.86 4.23 0.07 8.23-2.06 10.23-3.34 1.02-0.66 2.33-0.65 3.35 0 1.99 1.28 5.97 3.41 10.22 3.34 0.49 0 0.89 0.37 0.93 0.86q0.09 3.17-0.33 6.32l1.89-0.77c0.46-0.18 0.97 0.03 1.17 0.48 0.2 0.45-0.01 0.98-0.47 1.18l-4.36 1.79c-0.97 0.41-1.44 1.51-1.06 2.49 0.39 1.01 1.53 1.52 2.55 1.13l3.25-1.28c0.96-0.38 1.72-1.13 2.09-2.08 0.38-0.95 0.34-2.01-0.11-2.93zm-26.44-24.5c0.46-11.22 16.64-11.22 17.1 0 0 4.67-3.83 8.46-8.55 8.46-4.72 0-8.55-3.79-8.55-8.46zm1.82 0c0.32 8.81 13.14 8.81 13.46 0-0.01-3.68-3.02-6.65-6.73-6.66-3.71 0.01-6.72 2.98-6.73 6.66zm12.05 24.36c0.39 0.32 0.44 0.89 0.12 1.27l-5.57 6.36c-0.29 0.33-0.79 0.4-1.17 0.17l-4.43-2.73c-0.41-0.27-0.53-0.8-0.28-1.22 0.25-0.43 0.81-0.57 1.25-0.31l3.76 2.32 5.06-5.77c0.33-0.36 0.88-0.4 1.26-0.09z"/>
</svg>