<?xml version="1.0" encoding="UTF-8" standalone="no"?><!DOCTYPE svg PUBLIC "-//W3C//DTD SVG 1.1//EN" "http://www.w3.org/Graphics/SVG/1.1/DTD/svg11.dtd"><svg width="16px" height="19px" version="1.1" xmlns="http://www.w3.org/2000/svg" xmlns:xlink="http://www.w3.org/1999/xlink" xml:space="preserve" xmlns:serif="http://www.serif.com/" style="fill-rule:evenodd;clip-rule:evenodd;stroke-linejoin:round;stroke-miterlimit:2;"><path id="シェイプ-715" serif:id="シェイプ 715" d="M12.024,11.884c1.222,-1.261 1.975,-2.98 1.975,-4.874c-0,-3.866 -3.14,-7.01 -7,-7.01c-3.859,-0 -6.999,3.144 -6.999,7.01c0,3.866 3.14,7.009 6.999,7.009c1.211,0 2.35,-0.308 3.344,-0.852l3.768,4.588c0.209,0.253 0.511,0.385 0.816,0.385c0.236,0 0.474,-0.078 0.67,-0.24c0.451,-0.371 0.516,-1.038 0.145,-1.49l-3.718,-4.526Zm-10.454,-4.874c0,-2.999 2.436,-5.436 5.429,-5.436c2.994,0 5.43,2.437 5.43,5.436c-0,2.998 -2.436,5.437 -5.43,5.437c-2.993,0 -5.429,-2.439 -5.429,-5.437Z" style="fill:#81d7cf;fill-rule:nonzero;"/></svg>