<svg version="1.2" xmlns="http://www.w3.org/2000/svg" viewBox="0 0 40 47" width="40" height="47">
	<style>
		.s0 { fill: #ffffff } 
	</style>
	<g id="グループ 63">
		<path id="シェイプ 840" fill-rule="evenodd" class="s0" d="m34.58 34.37h-29.17l-1.04-6.13v-23.28c0-2.08 1.69-3.77 3.77-3.77h23.72c2.08 0 3.77 1.69 3.77 3.77v23.3 0.01zm-27.65-1.8h26.12l0.77-4.46v-23.15c0-1.08-0.89-1.97-1.97-1.97h-23.72c-1.08 0-1.97 0.89-1.97 1.97v23.15zm23.81-12.96h-21.48v-14.38h21.48zm-9.84-1.8h8.04v-10.78h-8.04zm-9.84 0h8.04v-10.77h-8.04zm0.53 9.85c-1.73 0-3.13-1.41-3.13-3.13 0-1.73 1.4-3.14 3.13-3.14 1.73 0 3.14 1.41 3.14 3.14 0 1.72-1.41 3.13-3.14 3.13zm0-4.47c-0.73 0-1.33 0.6-1.33 1.34 0 0.73 0.6 1.33 1.33 1.33 0.74 0 1.34-0.6 1.34-1.33 0-0.74-0.6-1.34-1.34-1.34zm16.81 4.47c-1.73 0-3.14-1.41-3.14-3.13 0-1.73 1.41-3.14 3.14-3.14 1.73 0 3.14 1.41 3.14 3.14 0 1.72-1.41 3.13-3.14 3.13zm0-4.47c-0.73 0-1.33 0.6-1.33 1.34 0 0.73 0.6 1.33 1.33 1.33 0.74 0 1.33-0.6 1.33-1.33 0-0.74-0.59-1.34-1.33-1.34zm10.6 22.59h-2.4l-2.79-3.19h-27.63l-2.78 3.19h-2.4l8.71-9.98h2.01l0.21 0.18-0.12 0.16-0.91 1.05h18.2l-1.04-1.2 0.21-0.18 0.08-0.01h1.94zm-31.24-5h24.48l-1.57-1.79h-21.35z"/>
	</g>
</svg>