<svg version="1.2" xmlns="http://www.w3.org/2000/svg" viewBox="0 0 29 33" width="29" height="33">
	<style>
		.s0 { fill: #ffffff } 
	</style>
	<path id="シェイプ 715" class="s0" d="m21.05 21.49c2.02-2.09 3.27-4.93 3.27-8.07 0-6.4-5.2-11.6-11.59-11.6-6.38 0-11.58 5.2-11.58 11.6 0 6.4 5.2 11.6 11.58 11.6 2.01 0 3.89-0.51 5.54-1.41l6.24 7.6c0.34 0.42 0.84 0.63 1.35 0.63 0.39 0 0.78-0.12 1.11-0.39 0.74-0.62 0.85-1.72 0.24-2.47zm-17.31-8.07c0-4.96 4.03-8.99 8.99-8.99 4.95 0 8.98 4.03 8.98 8.99 0 4.97-4.03 9-8.98 9-4.96 0-8.99-4.03-8.99-9z"/>
</svg>