<svg version="1.2" xmlns="http://www.w3.org/2000/svg" viewBox="0 0 45 43" width="45" height="43">
	<style>
		.s0 { fill: #ffffff } 
	</style>
	<path id="シェイプ 549" fill-rule="evenodd" class="s0" d="m25.25 40.42h-22.71c-0.41 0-0.75-0.33-0.75-0.74v-2.4c0-0.41 0.34-0.75 0.75-0.75h1.48v-1.65c0-0.41 0.33-0.75 0.74-0.75h0.85l0.53-18.63h-0.34c-0.41 0-0.75-0.34-0.75-0.75v-1.65h-2.02q-0.43 0-0.78-0.27-0.33-0.27-0.44-0.69-0.09-0.4 0.07-0.78l0.02-0.04q0.18-0.39 0.57-0.59l17.87-8.96q0.33-0.16 0.67 0l17.86 8.96q0.4 0.21 0.58 0.59l0.03 0.07q0.14 0.37 0.05 0.75-0.1 0.41-0.44 0.69-0.35 0.27-0.78 0.27h-2.02v1.65c0 0.41-0.34 0.75-0.75 0.75h-0.33l0.14 5.17c0.01 0.41-0.31 0.75-0.72 0.76q-0.31 0.01-0.53-0.2-0.22-0.21-0.24-0.52l-0.14-5.21h-2.08l-0.16 5.7c-0.01 0.41-0.36 0.74-0.77 0.73-0.41-0.01-0.73-0.36-0.72-0.77l0.16-5.66h-2.95l0.22 7.87c0.01 0.41-0.31 0.76-0.72 0.77q-0.31 0-0.54-0.21-0.22-0.21-0.23-0.52l-0.22-7.91h-2.08l-0.52 18.68c0.29 0.1 0.49 0.38 0.49 0.7 0 0.41-0.34 0.75-0.75 0.75h-17.34v0.9h18.19c0.41 0 0.75 0.34 0.75 0.75 0 0.41-0.34 0.74-0.75 0.74h-20.41v0.91h21.96c0.42 0 0.75 0.34 0.75 0.75 0 0.41-0.33 0.74-0.75 0.74zm-5.53-6.29h1.9l0.52-18.63h-2.94zm-4.62 0h3.12l-0.52-18.63h-2.08zm-3.39 0h1.91l0.52-18.64h-2.95zm-4.61 0h3.12l-0.52-18.63h-2.08zm-0.56-20.13h28.25v-0.9h-28.25zm-2.5-2.4h33.25l-16.62-8.34zm30.13 30.07c-2.51 0-4.86-0.98-6.64-2.75-1.77-1.77-2.75-4.13-2.75-6.63 0-2.51 0.98-4.86 2.75-6.64 1.78-1.77 4.13-2.74 6.64-2.74 2.51 0 4.87 0.97 6.64 2.74 1.77 1.78 2.75 4.13 2.75 6.64 0 2.5-0.98 4.86-2.75 6.63-1.77 1.77-4.13 2.75-6.64 2.75zm0-17.27c-2.11 0-4.09 0.82-5.58 2.31-1.49 1.49-2.31 3.47-2.31 5.58 0 2.11 0.82 4.09 2.31 5.58 1.49 1.49 3.47 2.31 5.58 2.31 2.11 0 4.09-0.82 5.58-2.31 1.49-1.49 2.31-3.47 2.31-5.58 0-2.11-0.82-4.09-2.31-5.58-1.49-1.49-3.47-2.31-5.58-2.31zm-1.31 12.15q-0.32 0-0.56-0.25l-3.39-3.78c-0.28-0.31-0.25-0.78 0.05-1.06q0.23-0.2 0.54-0.19 0.31 0.02 0.51 0.25l2.84 3.15 5.47-6.38q0.2-0.23 0.5-0.26 0.31-0.02 0.55 0.18 0.23 0.2 0.26 0.51 0.02 0.3-0.18 0.54l-6 7q-0.04 0.05-0.09 0.1-0.23 0.19-0.5 0.19z"/>
</svg>