<svg version="1.2" xmlns="http://www.w3.org/2000/svg" viewBox="0 0 25 43" width="25" height="43">
	<style>
		.s0 { fill: #fbfefe } 
	</style>
	<path id="シェイプ 802" class="s0" d="m22.24 2.26c-1.09-0.47-2.29-0.25-3.15 0.57q-0.05 0.05-0.09 0.11l-6.36 8.41-6.36-8.41q-0.04-0.06-0.09-0.11c-0.85-0.82-2.06-1.04-3.14-0.57-1.09 0.47-1.76 1.51-1.76 2.7v19.64c0 1.06 0.32 2.08 0.92 2.95l9.72 14.06q0.01 0.02 0.02 0.03 0.05 0.06 0.1 0.1 0.02 0.03 0.05 0.05 0.02 0.02 0.04 0.04 0.04 0.03 0.09 0.05 0.01 0.01 0.02 0.01 0.08 0.04 0.17 0.07 0.02 0 0.04 0.01 0.09 0.02 0.18 0.02 0 0 0 0 0 0 0 0 0.09 0 0.19-0.02 0.01-0.01 0.03-0.01 0.09-0.03 0.17-0.07 0.01 0 0.03-0.01 0.04-0.02 0.08-0.05 0.02-0.02 0.04-0.04 0.03-0.02 0.06-0.05 0.05-0.04 0.09-0.1 0.01-0.01 0.03-0.03l9.72-14.06c0.6-0.87 0.92-1.89 0.92-2.95v-19.64c0-1.19-0.68-2.23-1.76-2.7zm-19.2 22.34v-19.64c0-0.48 0.26-0.88 0.7-1.08 0.42-0.18 0.86-0.11 1.2 0.19l7.01 9.27q0.01 0.01 0.02 0.02 0.02 0.03 0.06 0.07 0.03 0.03 0.06 0.06 0.01 0.01 0.02 0.01 0.02 0.02 0.05 0.03 0.04 0.03 0.08 0.05 0.03 0.02 0.07 0.04 0.04 0.01 0.08 0.03 0.04 0.01 0.09 0.02 0.04 0.01 0.08 0.01 0.04 0 0.08 0 0 0 0 0v25.88l-9-13.03c-0.4-0.57-0.6-1.24-0.6-1.93z"/>
</svg>