<svg version="1.2" xmlns="http://www.w3.org/2000/svg" viewBox="0 0 59 74" width="59" height="74">
	<style>
		.s0 { fill: #ffffff } 
	</style>
	<path id="シェイプ 828" fill-rule="evenodd" class="s0" d="m35.78 60.33c1.23 1.59-1.4 2.72-2.35 3.71-2.02 1.6-4.52 2.47-7.1 2.46-6.07 0.68-13.25-8.23-14.1-9.87-1.89-2.61-2.78-7.32-3.2-11.59-7.26-5.97-7.27-12.51-7.27-12.79-0.31-3.89 0.33-7.8 1.86-11.39 0.28-0.61 1-0.89 1.62-0.63 0.64 0.27 0.93 1 0.67 1.64-1.38 3.25-1.95 6.79-1.66 10.31 0 0.29 0.07 4.64 4.52 9.23-0.08-2.35-0.35-4.68 0.79-6.81 2.34-4.89 6.38-8.76 11.35-10.89-7.47-3.49-6.69-7.83-6.07-11.79-2.52 1.51-4.74 3.49-6.53 5.82-0.42 0.53-1.17 0.63-1.72 0.24-0.55-0.4-0.68-1.19-0.27-1.74 2.64-3.47 6.12-6.21 10.11-7.96 2.9-4.34 8.21-6.39 13.26-5.12 6.09 1.52 16.61 6.17 18.79 20.16 3.52 6.04 3.08 13.62-1.14 19.2-1 1.35-2.3 2.47-3.78 3.27q-0.07 0.61-0.15 1.23c-0.1 0.67-0.71 1.14-1.38 1.06-0.68-0.08-1.17-0.7-1.1-1.39q0.47-3.68 0.54-7.39c0.19-1.31-0.08-2.66-0.78-3.79-6.69-9.56-13.97-9.78-15.77-10.44-2.77 0.57-9.07 2.7-13.14 10.66-0.51 1.12-0.71 2.36-0.58 3.59 0.16 7.55 1.31 13.49 3.08 15.88q0.04 0.05 0.07 0.12c1.76 2.6 3.93 4.89 6.44 6.77 4.23 3.4 9.8 1.94 13.23-1.83 0.5-0.47 1.29-0.44 1.76 0.07zm-10.51-37.74q0.65 0.17 1.34 0.32c6.68 1.42 12.5 5.47 16.17 11.24 1.72 2.56 1.15 5.39 1.04 8.47 5.49-5.24 6.07-13.81 1.34-19.75-5.11-6.32-13.96-9.3-14.05-9.33-0.66-0.22-1.01-0.92-0.8-1.58 0.22-0.66 0.92-1.01 1.58-0.8 4.73 1.68 9.09 4.27 12.84 7.61-3.1-8.29-9.96-11.76-15.64-13.19-2.81-0.7-5.79-0.14-8.15 1.55-2.97 2.11-4.47 5.73-3.86 9.33 0 0.01-0.14 3.9 8.19 6.13zm31.75 42.35c0.49 0.49 0.49 1.28 0 1.77 0 0-4.83 4.84-5.71 5.72-0.48 0.46-1.24 0.46-1.73 0-0.49-0.48-0.51-1.27-0.03-1.77l0.48-0.48-2.2-2.21c-0.26 0.26-1.32 1.34-1.61 1.62-1.56 1.27-3.03-1.01-1.41-2.13l-10.53-10.55c-0.69-0.74-0.87-1.83-0.43-2.75l-1.29-1.29c-0.96-0.97-1.15-2.47-0.46-3.65l-5-5c-0.46-0.49-0.46-1.25 0-1.73 0.48-0.5 1.27-0.52 1.77-0.04l4.99 5.01c1.18-0.7 2.68-0.5 3.64 0.46l1.29 1.29c0.92-0.44 2.01-0.26 2.75 0.44l10.53 10.55q0.07-0.14 0.17-0.25c0.5-0.57 1.38-0.62 1.95-0.11q0 0 0 0c0.49 0.48 0.49 1.27 0 1.76l-1.61 1.62 2.19 2.2c0.6-0.71 1.43-1.24 2.25-0.48q0 0 0 0zm-20.55-14.52c-0.35-0.29-0.94-1.26-1.46-0.73-0.16 0.19-0.91 0.77-0.84 1.05-0.07 0.28 0.73 0.89 0.89 1.09q0.61-0.79 1.41-1.41zm2.73 7.89q0.51-0.75 1.21-1.31c1.49-1.22 2.17-0.95 3.41-1.53l-3.98-3.99c-1.82 0.49-3.24 1.91-3.72 3.74zm11.1 3.65l-4.68-4.68q-0.97 0.7-2.14 0.95c-1.06 0.24-1.96 0.94-2.45 1.91l5.54 5.55zm2.71 5.23l-2.2-2.2c-0.3 0.3-0.91 0.92-1.21 1.22l2.2 2.2z"/>
</svg>