<svg version="1.2" xmlns="http://www.w3.org/2000/svg" viewBox="0 0 54 47" width="54" height="47">
	<style>
		.s0 { fill: #ffffff } 
	</style>
	<path id="シェイプ 920" class="s0" d="m18.05 10.52c0.5 0.67 1.43 0.81 2.1 0.31q0.17-0.14 0.31-0.32l1.88-2.63c0.29-0.41 0.19-0.97-0.22-1.25-0.39-0.28-0.93-0.19-1.22 0.19l-0.75 1.05v-5.79c0-0.49-0.4-0.9-0.9-0.9-0.49 0-0.89 0.41-0.89 0.9v5.79l-0.75-1.05c-0.3-0.39-0.86-0.47-1.25-0.17-0.38 0.29-0.47 0.84-0.2 1.23zm15.61 0c0.49 0.67 1.43 0.81 2.09 0.32q0.18-0.14 0.32-0.32l1.88-2.63c0.28-0.41 0.18-0.97-0.22-1.26-0.39-0.27-0.93-0.19-1.22 0.2l-0.75 1.05v-5.79c0-0.5-0.4-0.9-0.9-0.9-0.49 0-0.89 0.4-0.89 0.9v5.79l-0.75-1.05c-0.3-0.4-0.86-0.47-1.25-0.17-0.38 0.29-0.47 0.83-0.2 1.23zm17.75 18.81l-2.99-1.8c-2.13-1.27-4.78-1.27-6.9 0-1.57 0.94-3.52 0.94-5.08 0-2.13-1.27-4.78-1.27-6.9 0-1.57 0.94-3.52 0.94-5.08 0-2.13-1.27-4.78-1.27-6.9 0-1.57 0.94-3.52 0.94-5.08 0-2.13-1.27-4.77-1.27-6.9 0l-3 1.8c-0.42 0.26-0.54 0.81-0.28 1.24 0.25 0.41 0.78 0.55 1.19 0.31l3-1.79c1.57-0.94 3.51-0.94 5.08 0 2.13 1.27 4.77 1.27 6.9 0 1.56-0.94 3.51-0.94 5.08 0 2.12 1.27 4.77 1.27 6.9 0 1.56-0.94 3.51-0.94 5.08 0 2.12 1.27 4.77 1.27 6.9 0 1.56-0.94 3.51-0.94 5.07 0l3 1.79c0.42 0.25 0.97 0.11 1.22-0.32 0.26-0.43 0.12-0.98-0.31-1.23zm-0.35-7.87c-1.38 0.09-2.75-0.24-3.93-0.95-2.71-1.62-6.08-1.62-8.78 0-2.15 1.28-4.82 1.28-6.96 0-2.71-1.62-6.08-1.62-8.78 0-2.15 1.28-4.82 1.28-6.96 0-2.71-1.62-6.08-1.62-8.78 0-1.19 0.71-2.56 1.04-3.93 0.95-0.5-0.03-0.92 0.35-0.94 0.85-0.02 0.49 0.34 0.91 0.82 0.95 1.73 0.11 3.46-0.3 4.96-1.2 2.14-1.28 4.81-1.28 6.96 0 2.7 1.62 6.07 1.62 8.78 0 2.14-1.28 4.81-1.28 6.96 0 2.7 1.62 6.07 1.62 8.78 0 2.14-1.28 4.81-1.28 6.96 0 1.04 0.73 5.77 2.3 5.79 0.24-0.04-0.5-0.46-0.87-0.95-0.84zm-48.24-3.58c1.73 0.11 3.46-0.3 4.96-1.2 2.14-1.28 4.81-1.28 6.96 0 2.7 1.62 6.07 1.62 8.78 0 2.14-1.28 4.81-1.28 6.96 0 2.7 1.62 6.07 1.62 8.78 0 2.14-1.28 4.81-1.28 6.96 0 1.49 0.9 3.22 1.31 4.96 1.2 0.49-0.04 0.85-0.48 0.81-0.98-0.04-0.48-0.45-0.85-0.93-0.82-1.38 0.09-2.75-0.24-3.93-0.95-2.71-1.62-6.08-1.62-8.78 0-2.15 1.28-4.82 1.28-6.96 0-2.71-1.62-6.08-1.62-8.78 0-2.15 1.28-4.82 1.28-6.96 0-2.71-1.62-6.08-1.62-8.78 0-1.19 0.71-2.56 1.04-3.93 0.95-0.5-0.03-0.92 0.35-0.94 0.85-0.03 0.49 0.34 0.91 0.82 0.95zm6.87 13.69c-1.96 0.02-3.53 1.65-3.51 3.63 0.02 1.95 1.58 3.53 3.51 3.55 1.97-0.02 3.54-1.65 3.52-3.63-0.02-1.95-1.58-3.53-3.52-3.55zm11.54 0c-1.97 0.02-3.54 1.65-3.52 3.63 0.02 1.95 1.58 3.53 3.52 3.55 1.96-0.02 3.53-1.65 3.51-3.63-0.02-1.95-1.58-3.53-3.51-3.55zm11.54 0c-1.97 0.03-3.53 1.66-3.5 3.65 0.03 1.94 1.58 3.5 3.5 3.53 1.96 0 3.55-1.61 3.55-3.59 0-1.98-1.59-3.59-3.55-3.59zm11.53 7.18c1.97-0.02 3.54-1.65 3.52-3.63-0.03-1.95-1.59-3.53-3.52-3.55-1.96 0.03-3.53 1.66-3.5 3.65 0.03 1.94 1.58 3.5 3.5 3.53zm-37.31 1.46h-2.67c-0.5 0.02-0.88 0.44-0.86 0.94 0.01 0.47 0.39 0.85 0.86 0.86h2.67c0.49-0.01 0.89-0.42 0.88-0.92-0.01-0.48-0.4-0.87-0.88-0.88zm10.71 0h-2.68c-0.49 0.01-0.88 0.42-0.87 0.92 0.01 0.48 0.39 0.87 0.87 0.88h2.68c0.49-0.01 0.88-0.42 0.87-0.92-0.01-0.48-0.39-0.87-0.87-0.88zm-5.61 3.85h-2.68c-0.49 0.01-0.88 0.43-0.87 0.92 0.01 0.49 0.39 0.88 0.87 0.89h2.68c0.49 0 0.89-0.41 0.89-0.9 0-0.5-0.4-0.91-0.89-0.91zm10.87 0h-2.67c-0.5 0-0.9 0.41-0.9 0.91 0 0.49 0.4 0.9 0.9 0.9h2.67c0.5-0.03 0.87-0.46 0.85-0.95-0.03-0.46-0.39-0.83-0.85-0.86zm10.88 0h-2.68c-0.49 0.01-0.88 0.43-0.87 0.92 0.01 0.49 0.39 0.88 0.87 0.89h2.68c0.49 0 0.89-0.41 0.89-0.9 0-0.5-0.4-0.91-0.89-0.91zm10.87 0h-2.67c-0.5 0.01-0.89 0.43-0.88 0.92 0.01 0.49 0.4 0.88 0.88 0.89h2.67c0.5-0.01 0.89-0.42 0.88-0.92-0.01-0.49-0.4-0.88-0.88-0.89zm-16.31-3.85h-2.68c-0.49 0.02-0.88 0.43-0.86 0.93 0.01 0.48 0.39 0.86 0.86 0.87h2.68c0.49 0 0.89-0.4 0.89-0.9 0-0.5-0.4-0.9-0.89-0.9zm10.71 0h-2.68c-0.49 0.01-0.89 0.42-0.87 0.92 0.01 0.48 0.39 0.87 0.87 0.88h2.68c0.49 0 0.89-0.4 0.89-0.9 0-0.5-0.4-0.9-0.89-0.9zm10.7 0h-2.68c-0.49 0.01-0.88 0.42-0.87 0.92 0.01 0.48 0.4 0.87 0.87 0.88h2.68c0.49-0.01 0.88-0.42 0.87-0.92-0.01-0.48-0.39-0.87-0.87-0.88z"/>
</svg>