<svg version="1.2" xmlns="http://www.w3.org/2000/svg" viewBox="0 0 39 64" width="39" height="64">
	<style>
		.s0 { fill: #81d8d0 } 
		.s1 { fill: #4f4f4f } 
	</style>
	<path id="シェイプ 899" class="s0" d="m33.01 21.04c-2.44-1.22-3.25-4.06-3.25-6.5q0-0.24 0-0.69 0-0.15 0-0.34h-20.52q0 0.19 0 0.34c0 0.04 0 0.23 0 0.69 0 2.44-0.81 5.28-3.25 6.5-2.91 1.45-4.13 3.61-4.13 8.78 0 1.85 0 19.08 0 22.03 0 4.99 3.51 10.15 10.53 10.15h14.22c7.02 0 10.53-5.16 10.53-10.15 0-2.95 0-20.18 0-22.03 0-5.17-1.22-7.33-4.13-8.78zm-1.65 28.62h-23.72v-19.35h23.72v19.35z"/>
	<path id="シェイプ 899 のコピー" class="s1" d="m31.5 4.74c0-1.51-1.23-2.74-2.74-2.74h-18.52c-1.51 0-2.74 1.23-2.74 2.74v5.89h24v-5.89zm-14.03 42.6h4.06v-4.81h4.82v-4.05h-4.82v-4.82h-4.06v4.82h-4.82v4.05h4.82z"/>
</svg>