<svg version="1.2" xmlns="http://www.w3.org/2000/svg" viewBox="0 0 73 66" width="73" height="66">
	<style>
		.s0 { fill: #ffffff } 
	</style>
	<path id="シェイプ 831" fill-rule="evenodd" class="s0" d="m57.67 24.68c6.71 16.33 5.24 23.86 2.82 36.32q-0.21 1.08-0.43 2.22c-0.11 0.58-0.62 0.98-1.19 0.98q-0.11 0.01-0.23-0.02c-0.66-0.12-1.09-0.76-0.97-1.42q0.22-1.14 0.43-2.22c1.67-8.59 2.87-14.75 1.07-23.28-2.24 0.44-7.89 2.05-14.55 7.62-2.46 2.06-3.87 5.09-3.87 8.31v9.8c0 0.67-0.55 1.21-1.22 1.21-0.67 0-1.22-0.54-1.22-1.21v-9.8q0.01-2.27 0.73-4.35h-5.36q0.72 2.08 0.73 4.35v9.8c0 0.67-0.55 1.21-1.22 1.21-0.67 0-1.22-0.54-1.22-1.21v-9.8c0-3.22-1.41-6.25-3.87-8.31-6.66-5.57-12.31-7.18-14.55-7.62-1.8 8.53-0.6 14.69 1.07 23.28q0.21 1.08 0.43 2.22c0.12 0.66-0.31 1.3-0.97 1.42q-0.12 0.03-0.23 0.02c-0.57 0-1.08-0.4-1.19-0.98q-0.22-1.14-0.43-2.22c-2.42-12.46-3.88-19.98 2.81-36.3q0 0 0 0 0.01-0.02 0.02-0.03c5.66-13.78 2.46-21.5 2.43-21.58-0.27-0.61 0.02-1.33 0.63-1.6 0.62-0.26 1.34 0.02 1.6 0.64 0.15 0.34 3.47 8.39-2.03 22.49 11.39 6.74 26.46 6.74 37.35 0.02-5.51-14.12-2.19-22.17-2.04-22.51 0.26-0.62 0.98-0.9 1.6-0.64 0.61 0.27 0.9 0.98 0.63 1.6-0.04 0.1-3.18 7.92 2.43 21.58q0 0 0.01 0 0 0.01 0 0.01zm0.93 10.2c-0.63-2.41-1.5-5.03-2.65-7.95-5.74 3.45-12.53 5.17-19.38 5.17-6.87 0-13.8-1.73-19.79-5.19-1.16 2.92-2.03 5.55-2.66 7.97 2.62 0.52 8.55 2.28 15.54 8.13q1.75 1.47 2.89 3.39h7.62q1.14-1.92 2.89-3.39c6.99-5.85 12.92-7.61 15.54-8.13zm-47.58-17.47c-0.24 0.24-0.55 0.36-0.86 0.36-0.31 0-0.63-0.12-0.86-0.36-0.48-0.47-0.48-1.24 0-1.72l1.5-1.5h-8.09c-0.67 0-1.21-0.54-1.21-1.22 0-0.67 0.54-1.21 1.21-1.21h8.09l-1.5-1.5c-0.48-0.48-0.48-1.25 0-1.72 0.47-0.48 1.24-0.48 1.72 0l3.57 3.57q0.09 0.09 0.15 0.19 0.03 0.04 0.06 0.09 0.03 0.06 0.06 0.12 0.02 0.06 0.04 0.12 0.01 0.05 0.03 0.1 0.04 0.24 0 0.48-0.02 0.05-0.03 0.1-0.02 0.07-0.04 0.13-0.03 0.06-0.06 0.11-0.03 0.05-0.06 0.1-0.06 0.1-0.15 0.18zm60.49-4.43c0 0.67-0.55 1.21-1.22 1.21h-8.08l1.5 1.5c0.47 0.48 0.47 1.25 0 1.72-0.24 0.24-0.55 0.36-0.86 0.36-0.31 0-0.62-0.12-0.86-0.36l-3.58-3.57q-0.08-0.09-0.15-0.19-0.03-0.05-0.05-0.09-0.03-0.06-0.06-0.12-0.02-0.06-0.04-0.12-0.02-0.05-0.03-0.11-0.05-0.23 0-0.47 0.01-0.05 0.03-0.1 0.02-0.07 0.04-0.13 0.03-0.06 0.06-0.11 0.02-0.05 0.05-0.1 0.07-0.1 0.15-0.18l3.58-3.58c0.47-0.48 1.24-0.48 1.72 0 0.47 0.47 0.47 1.24 0 1.72l-1.5 1.5h8.08c0.67 0 1.22 0.54 1.22 1.22z"/>
</svg>