<svg version="1.2" xmlns="http://www.w3.org/2000/svg" viewBox="0 0 46 42" width="46" height="42">
	<style>
		.s0 { fill: #fbfefe } 
	</style>
	<path id="シェイプ 1094" class="s0" d="m12.17 40.99c-6.05 0-10.97-4.92-10.97-10.96 0-3.48 1.6-6.67 4.39-8.77l0.12-0.09v-0.16c0-3.94 1.83-7.62 5.14-10.38 1.77-1.48 3.85-2.59 6.16-3.31l0.41-0.13-0.24-0.36c-0.41-0.61-0.63-1.34-0.63-2.08 0-2.06 1.68-3.74 3.74-3.74 0.92 0 1.81 0.34 2.5 0.95l0.21 0.19 0.21-0.19c0.69-0.61 1.58-0.95 2.5-0.95 2.06 0 3.74 1.68 3.74 3.74 0 0.74-0.22 1.47-0.63 2.08l-0.24 0.36 0.41 0.13c2.31 0.72 4.39 1.83 6.16 3.31 3.31 2.76 5.14 6.44 5.14 10.37v0.14l0.11 0.11 0.01 0.01c2.79 2.1 4.39 5.29 4.39 8.77 0 6.04-4.92 10.96-10.97 10.96zm0-19.86c-4.9 0-8.89 3.99-8.89 8.9 0 4.9 3.99 8.89 8.89 8.89h21.67c4.91 0 8.9-3.99 8.9-8.89 0-4.91-3.99-8.9-8.9-8.9h-0.05c-0.52 0-0.97-0.39-1.03-0.91-0.48-4.05-4.76-7.21-9.75-7.21-4.99 0-9.27 3.16-9.75 7.21-0.07 0.52-0.51 0.91-1.03 0.91zm10.83-10.19c2.74 0 5.41 0.8 7.51 2.25 2.08 1.44 3.54 3.46 4.1 5.68l0.05 0.22 0.23 0.02q1.43 0.14 2.78 0.64l0.51 0.2-0.08-0.55c-0.97-6.22-7.46-10.91-15.1-10.91-7.64 0-14.12 4.69-15.09 10.91l-0.09 0.55 0.52-0.2q1.35-0.5 2.78-0.64l0.22-0.02 0.06-0.22c0.56-2.22 2.01-4.24 4.09-5.68 2.11-1.45 4.77-2.25 7.51-2.25zm2.71-7.87c-0.92 0-1.67 0.76-1.67 1.68 0 0.92 0.75 1.67 1.67 1.67 0.92 0 1.68-0.75 1.68-1.67 0-0.92-0.76-1.68-1.68-1.68zm-5.42 0c-0.92 0-1.67 0.76-1.67 1.68 0 0.92 0.75 1.67 1.67 1.67 0.93 0 1.68-0.75 1.68-1.67 0-0.92-0.75-1.68-1.68-1.68z"/>
</svg>