<svg version="1.2" xmlns="http://www.w3.org/2000/svg" viewBox="0 0 33 30" width="33" height="30">
	<style>
		.s0 { fill: #fdfefe } 
	</style>
	<path id="シェイプ 767" class="s0" d="m7.57 14.39c0.43 0.56 0.08 1-0.19 1.42q-1.12 1.82-0.69 3.9c0.44 2.15 2.07 3.54 4.15 3.54 2.1 0.01 3.89-1.48 4.31-3.59 0.27-1.39 0.11-2.74-0.38-4.07-0.12-0.32-0.31-0.63-0.26-1.16 1.12-0.43 2.29-0.23 3.39-0.11 0.41 0.52 0.16 0.91-0.02 1.3-0.63 1.37-0.84 2.79-0.47 4.27 0.45 1.81 1.75 3.07 3.49 3.31 1.85 0.26 3.28-0.5 4.31-2.01 0.81-1.2 0.98-2.56 0.76-3.98-0.1-0.61-0.26-1.22-0.36-1.83-0.12-0.73 0.15-1.14 0.87-1.16 1.6-0.04 2.31-0.03 3.91 0 0.64 0.01 0.99 0.41 0.99 1.05 0 4.01 0.04 5.14-0.03 9.15-0.04 2.02-2.08 4.39-4.3 4.41-3.44 0.02-6 0-9.44 0-4.03 0.01-7.18-0.05-11.22 0.03-2.61 0.06-5.05-1.65-4.93-4.95 0.12-3.41 0.02-4.61 0.03-8.02 0-1.4 0.27-1.68 1.65-1.69 1.41 0 1.94 0 3.34 0 0.36 0 0.71 0 1.09 0.19zm8.06-12.68q-0.86 1.34-1.44 2.75c-1.54 3.85-1.62 7.81-0.93 11.83 0.14 0.83 0.32 1.65 0.23 2.49-0.16 1.56-1.29 2.6-2.75 2.54-1.4-0.06-2.44-1.2-2.48-2.73-0.01-0.41-0.02-0.83 0.14-1.2 0.84-2 1.13-4.13 1.5-6.25 0.6-3.35 2.01-6.35 4.37-8.86 0.33-0.36 0.69-0.74 1.36-0.57zm10.56 0q-0.86 1.34-1.44 2.75c-1.54 3.85-1.62 7.81-0.93 11.83 0.14 0.83 0.32 1.65 0.23 2.49-0.15 1.56-1.29 2.6-2.75 2.54-1.4-0.06-2.44-1.2-2.48-2.73-0.01-0.41-0.02-0.83 0.14-1.2 0.84-2 1.13-4.13 1.5-6.25 0.6-3.35 2.01-6.35 4.37-8.86 0.33-0.36 0.69-0.74 1.36-0.57z"/>
</svg>