<svg version="1.2" xmlns="http://www.w3.org/2000/svg" viewBox="0 0 42 42" width="42" height="42">
	<style>
		.s0 { fill: #ffffff } 
	</style>
	<g id="グループ 63">
		<path id="シェイプ 843" class="s0" d="m37.66 40.99c-0.52 0-0.95-0.43-0.95-0.95v-1.43h-10v1.43c0 0.52-0.43 0.95-0.95 0.95-0.52 0-0.95-0.43-0.95-0.95v-1.58l-0.16-0.05c-1.33-0.48-2.22-1.73-2.22-3.13v-30.94c0-1.84 1.49-3.33 3.33-3.33h11.9c1.84 0 3.33 1.49 3.33 3.33v30.94c0 1.4-0.89 2.65-2.22 3.13l-0.16 0.05v1.58c0 0.52-0.43 0.95-0.95 0.95zm-11.9-38.08c-0.79 0-1.43 0.64-1.43 1.43v30.94c0 0.79 0.64 1.43 1.43 1.43h11.9c0.79 0 1.43-0.64 1.43-1.43v-30.94c0-0.79-0.64-1.43-1.43-1.43zm-9.52 38.08c-0.52 0-0.95-0.43-0.95-0.95v-1.43h-10v1.43c0 0.52-0.43 0.95-0.95 0.95-0.52 0-0.95-0.43-0.95-0.95v-1.58l-0.16-0.05c-1.33-0.48-2.22-1.73-2.22-3.13v-30.94c0-1.84 1.49-3.33 3.33-3.33h11.9c1.84 0 3.33 1.49 3.33 3.33v30.94c0 1.4-0.89 2.65-2.22 3.13l-0.16 0.05v1.58c0 0.52-0.43 0.95-0.95 0.95zm-11.9-38.08c-0.79 0-1.43 0.64-1.43 1.43v30.94c0 0.79 0.64 1.43 1.43 1.43h11.9c0.79 0 1.43-0.64 1.43-1.43v-30.94c0-0.79-0.64-1.43-1.43-1.43zm30.94 21.42c-0.52 0-0.95-0.43-0.95-0.95v-2.38c0-0.53 0.43-0.95 0.95-0.95 0.53 0 0.95 0.42 0.95 0.95v2.38c0 0.52-0.42 0.95-0.95 0.95zm-21.42 0c-0.52 0-0.95-0.43-0.95-0.95v-2.38c0-0.53 0.43-0.95 0.95-0.95 0.52 0 0.95 0.42 0.95 0.95v2.38c0 0.52-0.43 0.95-0.95 0.95zm14.28-9.52c-0.52 0-0.95-0.43-0.95-0.95 0-0.52 0.43-0.95 0.95-0.95h7.14c0.53 0 0.95 0.43 0.95 0.95 0 0.52-0.42 0.95-0.95 0.95zm-21.42 0c-0.52 0-0.95-0.43-0.95-0.95 0-0.52 0.43-0.95 0.95-0.95h7.14c0.52 0 0.95 0.43 0.95 0.95 0 0.52-0.43 0.95-0.95 0.95zm21.42-4.76c-0.52 0-0.95-0.42-0.95-0.95 0-0.52 0.43-0.95 0.95-0.95h7.14c0.52 0 0.95 0.43 0.95 0.95 0 0.53-0.43 0.95-0.95 0.95zm-21.42 0c-0.53 0-0.95-0.42-0.95-0.95 0-0.52 0.42-0.95 0.95-0.95h7.14c0.52 0 0.95 0.43 0.95 0.95 0 0.53-0.43 0.95-0.95 0.95z"/>
	</g>
</svg>