<?xml version="1.0" encoding="UTF-8" standalone="no"?>
<!DOCTYPE svg PUBLIC "-//W3C//DTD SVG 1.1//EN" "http://www.w3.org/Graphics/SVG/1.1/DTD/svg11.dtd">
<svg width="60px" height="61px" version="1.1" xmlns="http://www.w3.org/2000/svg" xmlns:xlink="http://www.w3.org/1999/xlink" xml:space="preserve" xmlns:serif="http://www.serif.com/" style="fill-rule:evenodd;clip-rule:evenodd;stroke-linejoin:round;stroke-miterlimit:2;">
    <g transform="matrix(1,0,0,1,-16049.6,-10437.1)">
        <g transform="matrix(1,0,0,1,15406.5,590.168)">
            <g id="icon">
                <path id="シェイプ-1654" serif:id="シェイプ 1654" d="M693.76,9847.15L702.777,9856.17C703.125,9856.52 703.125,9857.09 702.777,9857.44L671.904,9888.35L661.624,9878.06L692.495,9847.15C692.843,9846.79 693.411,9846.79 693.76,9847.15ZM670.524,9889.5L664.444,9891.14L658.286,9892.79C657.632,9892.96 657.015,9892.36 657.195,9891.69L660.475,9879.44L660.475,9879.44L670.524,9889.5Z" style="fill:rgb(129,215,207);"/>
                <path id="シェイプ-1654-のコピー" serif:id="シェイプ 1654 のコピー" d="M695.126,9875.69L695.126,9902.57C695.126,9903.8 694.622,9904.92 693.808,9905.74L693.813,9905.74C693.001,9906.55 691.881,9907.05 690.649,9907.05L647.532,9907.05C646.305,9907.05 645.187,9906.55 644.375,9905.74L644.367,9905.73C643.558,9904.92 643.054,9903.8 643.054,9902.57L643.054,9859.4C643.054,9858.17 643.558,9857.05 644.367,9856.24L644.375,9856.23C645.187,9855.42 646.305,9854.91 647.532,9854.91L674.377,9854.91L674.377,9858.64L647.532,9858.64C647.326,9858.64 647.135,9858.72 646.999,9858.86L646.993,9858.86C646.859,9859 646.776,9859.19 646.776,9859.4L646.776,9902.57C646.776,9902.78 646.859,9902.97 646.993,9903.1L646.999,9903.11C647.135,9903.25 647.326,9903.33 647.532,9903.33L690.649,9903.33C690.855,9903.33 691.042,9903.24 691.182,9903.1L691.187,9903.1C691.321,9902.97 691.404,9902.78 691.404,9902.57L691.404,9875.69L695.126,9875.69Z" style="fill:rgb(79,79,79);fill-rule:nonzero;"/>
            </g>
        </g>
    </g>
</svg>
