<svg version="1.2" xmlns="http://www.w3.org/2000/svg" viewBox="0 0 100 73" width="100" height="73">
	<style>
		.s0 { fill: #81d8d0 } 
	</style>
	<path id="シェイプ 585" class="s0" d="m95.98 33.75c-2.33-3.66-6.17-5.16-10.34-5.16q-7.14 0-14.27 0-0.05-0.24-0.24-0.5-6.26-8.5-12.53-17-0.31-0.4-0.71-0.51 0.06-0.44 0.08-0.9c-0.16-4.49-3.65-8.27-8.25-8.27-4.49 0-8.25 3.77-8.25 8.27q0 0.46 0.06 0.91-0.39 0.11-0.69 0.5-6.27 8.5-12.53 17-0.19 0.25-0.24 0.5c-5-0.01-10-0.04-14.99 0-5.44 0.05-10.28 3.75-11.18 9.25-0.63 3.85-0.16 8.07-0.16 11.95 0 3.79-0.3 7.7 0.05 11.48 0.55 5.86 5.47 9.99 11.21 10.09 6.17 0.1 12.34 0 18.51 0q27.02 0 54.03 0 0.56 0 1.11 0c6.43-0.17 11.02-5.26 11.05-11.6 0.02-4.51 0-9.02 0-13.52 0-4.13 0.61-8.84-1.72-12.49zm-46.51-29.7c3.24-0.15 5.76 2.47 5.87 5.63-0.11 3.07-2.47 5.64-5.62 5.64-3.06 0-5.62-2.57-5.62-5.64 0-2.98 2.41-5.49 5.37-5.63zm-7.09 9.35c1.38 2.68 4.18 4.57 7.34 4.56 3.26-0.02 5.96-1.9 7.31-4.6q5.62 7.62 11.23 15.23-18.05 0-36.1 0-0.49 0-0.98 0 5.6-7.59 11.2-15.19zm52.3 49.42c-1.12 3.55-4.38 5.81-8.03 5.9q-22.18 0-44.36 0-12.51 0-25.03 0c-1.48 0-2.97 0.04-4.45 0-3.27-0.07-6.26-1.87-7.66-4.88-0.78-1.66-0.79-3.38-0.79-5.16q0-7.05 0-14.09c0-4.36-0.47-9.02 3.65-11.87 2.25-1.56 4.65-1.49 7.2-1.49q4.56 0 9.12 0 27.86 0 55.72 0 3.1-0.01 6.2 0c4.91 0.03 8.73 3.59 8.82 8.58 0.08 3.93 0 7.87 0 11.79q0 3.27 0 6.53c0 1.58 0.1 3.17-0.39 4.69z"/>
	<path id="Gym" class="s0" aria-label="Gym"  d="m39.7 48.5v6.4q-1.3 0.6-2.6 0.9-1.4 0.3-2.9 0.3-3.2 0-5.2-1.8-1.9-1.9-1.9-5 0-3.2 2-5 1.9-1.8 5.3-1.8 1.3 0 2.5 0.2 1.2 0.3 2.3 0.7v2.8q-1.1-0.7-2.2-1-1.1-0.3-2.2-0.3-2 0-3.1 1.2-1.1 1.1-1.1 3.2 0 2.1 1.1 3.2 1 1.1 3 1.1 0.5 0 1 0 0.4-0.1 0.8-0.2v-2.6h-2.1v-2.3zm6.7 7.7l-4.4-10.2h3.1l2.7 6.7 2.2-6.7h3.2l-4.2 10.8q-0.6 1.6-1.4 2.3-0.9 0.6-2.2 0.6h-1.8v-2h0.9q0.8 0 1.2-0.3 0.4-0.3 0.6-0.9zm18.1-8.6q0.6-0.9 1.4-1.4 0.8-0.5 1.8-0.5 1.7 0 2.6 1.1 0.9 1 0.9 3v6h-3.2v-5.1q0-0.1 0-0.3 0-0.1 0-0.3 0-1.1-0.3-1.5-0.3-0.5-1-0.5-0.9 0-1.3 0.7-0.5 0.8-0.5 2.2v4.8h-3.2v-5.1q0-1.7-0.3-2.1-0.3-0.5-1-0.5-0.9 0-1.4 0.7-0.5 0.8-0.5 2.2v4.8h-3.2v-9.8h3.2v1.4q0.6-0.8 1.3-1.3 0.8-0.4 1.7-0.4 1 0 1.8 0.5 0.8 0.5 1.2 1.4z"/>
</svg>