<svg version="1.2" xmlns="http://www.w3.org/2000/svg" viewBox="0 0 52 43" width="52" height="43">
	<style>
		.s0 { fill: #ffffff } 
	</style>
	<path id="シェイプ 887" class="s0" d="m50.04 1.47h-38.08c-0.53 0-0.96 0.43-0.96 0.96v9.41l-0.11 0.01c-3.96 0.53-6.94 3.95-6.94 7.94 0 2.77 1.41 5.31 3.76 6.79l0.21 0.13-0.23 0.09c-4.06 1.73-6.69 5.69-6.69 10.1v3.67c0 0.53 0.43 0.96 0.95 0.96h19.98v-0.31l0.01 0.31h0.02c0.53 0 0.95-0.43 0.95-0.96v-3.67c0-1.99-0.54-3.94-1.56-5.64l-0.12-0.19h8.81v2.34h-4.65c-0.53 0-0.97 0.43-0.97 0.96 0 0.53 0.44 0.96 0.97 0.96h11.22c0.53 0 0.96-0.43 0.96-0.96 0-0.53-0.43-0.96-0.96-0.96h-4.65v-2.34h18.08c0.53 0 0.96-0.43 0.96-0.96v-27.68c0-0.53-0.43-0.96-0.96-0.96zm-47.12 35.43c0-4.99 4.06-9.04 9.04-9.04 4.98 0 9.03 4.05 9.03 9.04v3.14l-18.07-0.02zm31.25-19.72l-0.16-0.09 0.14-0.12c1.16-0.98 1.83-2.42 1.83-3.94 0-2.85-2.31-5.16-5.16-5.16-2.84 0-5.16 2.31-5.16 5.16 0 1.52 0.67 2.96 1.84 3.94l0.14 0.12-0.16 0.09c-2.2 1.22-3.57 3.54-3.57 6.05v1.5h-5.65l0.15-0.2c1.02-1.38 1.55-3.02 1.55-4.74 0-4-2.98-7.41-6.93-7.94l-0.11-0.01v-8.45h36.16v21.34h-11.34v-1.5c0-2.51-1.37-4.83-3.57-6.05zm-8.34 6.05c0-2.75 2.24-4.99 4.99-4.99 2.76 0 5 2.24 5 4.99v1.5h-9.99zm8.23-10.2c0 1.78-1.45 3.24-3.24 3.24-1.78 0-3.23-1.46-3.23-3.24 0-1.79 1.45-3.24 3.23-3.24 1.79 0 3.24 1.45 3.24 3.24zm-22.1 12.85c-3.36 0-6.09-2.73-6.09-6.09 0-3.36 2.73-6.09 6.09-6.09 3.35 0 6.08 2.73 6.08 6.09 0 3.36-2.73 6.09-6.08 6.09zm37.12 0.77v2.49h-29.39l-0.03-0.03q-1.42-1.4-3.22-2.22l-0.05-0.02 0.05-0.22z"/>
</svg>