<svg version="1.2" xmlns="http://www.w3.org/2000/svg" viewBox="0 0 41 74" width="41" height="74">
	<style>
		.s0 { fill: #81d8d0 } 
		.s1 { fill: #4f4f4f } 
	</style>
	<path id="シェイプ 667" class="s0" d="m38.15 16.36h-1.45q-1.14-2-2.65-3.6v-6.62c0-2.1-1.7-3.8-3.8-3.8-1.31 0-2.47 0.67-3.15 1.68-1.6-0.81-4.69-2.08-7.82-1.68h-10.18q-0.19-0.07-0.41-0.08-0.21 0.01-0.4 0.08h-1.58c-0.61 0-1.1 0.49-1.1 1.09 0 0.61 0.49 1.1 1.1 1.1h0.89v7.74c-1.68 1.62-2.64 3.21-3.09 4.09h-1.66c-0.94 0-1.71 0.77-1.71 1.71v5.91c0 0.94 0.77 1.71 1.71 1.71h0.62l2.39 41.8c0.15 2.71 2.41 4.84 5.13 4.84h18.8c1.32 0 2.56-0.49 3.52-1.39 0.96-0.9 1.53-2.12 1.61-3.42l1.9-30.15q0.01-0.01 0.01-0.02l0.73-11.66h0.59c0.94 0 1.71-0.77 1.71-1.71v-5.91c0-0.94-0.77-1.71-1.71-1.71zm-7.9-11.83c0.89 0 1.61 0.72 1.61 1.61v4.67q-1.49-1.13-3.22-1.92v-2.75c0-0.89 0.72-1.61 1.61-1.61zm-10.9 0q0.08 0 0.15-0.01c2.8-0.39 5.75 0.98 6.96 1.64v1.89c-3.12-0.98-5.6-0.87-5.88-0.86q-0.96 0.04-1.88 0.14v-2.8zm-2.85 0v3.14q-2.01 0.43-3.8 1.21-1.55 0.68-2.92 1.62v-5.97zm-7.27 9.2q3.42-3.21 8.47-4.06 0.07-0.01 0.14-0.03 1.35-0.22 2.81-0.26 0.02 0 0.04 0c0.07-0.01 2.47-0.14 5.42 0.86q0.5 0.16 0.97 0.36 0.04 0.01 0.09 0.03 2.82 1.17 4.93 3.26 0.07 0.09 0.15 0.16 1.03 1.04 1.88 2.31h-27.11c0.48-0.74 1.2-1.68 2.21-2.63zm23.5 53.65c-0.1 1.55-1.39 2.76-2.95 2.76h-18.8c-1.57 0-2.86-1.22-2.95-2.78l-2.39-41.67h29.72zm4.93-43.88h-1.14-32.04-1.16v-4.95h32.72q0 0 0.01 0 0 0 0.01 0h1.6z"/>
	<path id="シェイプ 671" fill-rule="evenodd" class="s1" d="m31.46 43.5c0 2.18-0.64 4.29-1.85 6.11-1.21 1.81-2.92 3.21-4.93 4.04-1.35 0.56-2.77 0.84-4.2 0.84q-1.08 0-2.15-0.21c-2.14-0.43-4.09-1.47-5.63-3.01-1.55-1.54-2.59-3.49-3.01-5.63-0.43-2.14-0.21-4.33 0.62-6.35 0.84-2.01 2.24-3.72 4.05-4.93 1.82-1.21 3.93-1.85 6.11-1.85q2.18 0 4.2 0.84 2.02 0.84 3.57 2.38 1.54 1.55 2.38 3.57 0.84 2.01 0.84 4.2zm-3.52-4.99c-0.99-1.49-2.38-2.63-4.03-3.31q-1.66-0.69-3.44-0.69-0.88 0-1.75 0.17c-1.75 0.35-3.35 1.2-4.61 2.46-1.26 1.27-2.11 2.86-2.46 4.61-0.34 1.75-0.17 3.54 0.52 5.19 0.68 1.65 1.82 3.04 3.31 4.03 1.48 0.99 3.21 1.52 4.99 1.52 2.4-0.01 4.66-0.94 6.35-2.64 1.7-1.7 2.64-3.95 2.64-6.35 0-1.78-0.53-3.51-1.52-4.99zm-6.28 2.62q-0.29-0.29-0.3-0.7c0-0.68 0.27-1.32 0.75-1.8 0.48-0.48 1.11-0.74 1.79-0.74 0.68 0 1.32 0.26 1.8 0.74 0.48 0.48 0.74 1.12 0.74 1.8q0 0.41-0.29 0.7-0.3 0.29-0.71 0.3-0.41-0.01-0.71-0.3-0.29-0.29-0.29-0.7-0.01-0.22-0.16-0.38-0.16-0.16-0.38-0.16-0.22 0-0.38 0.16-0.15 0.16-0.15 0.38-0.01 0.41-0.3 0.7-0.29 0.29-0.71 0.3-0.41-0.01-0.7-0.3zm-6.87 0q-0.29-0.29-0.29-0.7c0-0.68 0.26-1.32 0.74-1.8 0.48-0.48 1.12-0.74 1.8-0.74 0.68 0 1.31 0.26 1.79 0.74 0.48 0.48 0.75 1.12 0.75 1.8q-0.01 0.41-0.3 0.7-0.29 0.29-0.71 0.3-0.41-0.01-0.7-0.3-0.29-0.29-0.3-0.7 0-0.22-0.15-0.38-0.16-0.16-0.38-0.16-0.22 0-0.38 0.16-0.16 0.16-0.16 0.38 0 0.41-0.29 0.7-0.3 0.29-0.71 0.3-0.41-0.01-0.71-0.3zm12.03 4.67q0.1 0.4-0.11 0.76v0.01c-0.66 1.05-1.59 1.94-2.67 2.56-1.08 0.62-2.32 0.97-3.56 1h-0.01-0.01c-1.24-0.04-2.48-0.38-3.56-1-1.08-0.62-2.01-1.51-2.67-2.56v-0.01q-0.14-0.23-0.14-0.51v-0.38q0-0.89 0.49-1.63c0.32-0.48 0.78-0.85 1.31-1.07 0.54-0.23 1.12-0.28 1.69-0.17q0.87 0.18 1.5 0.8 0.41 0.41 0.63 0.95 0.23 0.54 0.22 1.12v2.41q0.27 0.04 0.54 0.05c0.9-0.04 1.79-0.3 2.57-0.74 0.79-0.45 1.46-1.09 1.95-1.85q0.21-0.35 0.61-0.45 0.4-0.1 0.76 0.1 0.35 0.22 0.46 0.61zm-9.16-0.78q-0.27-0.27-0.65-0.27-0.38 0-0.65 0.27-0.26 0.27-0.27 0.65v0.1c0.47 0.7 1.1 1.27 1.84 1.66v-1.76q0-0.38-0.27-0.65z"/>
</svg>