<svg version="1.2" xmlns="http://www.w3.org/2000/svg" viewBox="0 0 53 54" width="53" height="54">
	<style>
		.s0 { fill: #ffffff } 
	</style>
	<path id="シェイプ 549" class="s0" d="m43 46.33l-1.24-28.97c-0.07-1.67-1.45-2.99-3.12-2.98h-3.5v-3.48c0-4.94-4.02-8.96-8.96-8.96h-0.25c-4.93 0-8.95 4.02-8.95 8.96v3.48h-3.62c-1.67-0.01-3.05 1.31-3.13 2.98l-1.23 28.97c-0.07 1.46 0.47 2.88 1.49 3.93 1.02 1.08 2.44 1.68 3.93 1.68h23.16c1.49 0 2.91-0.6 3.94-1.68 1.01-1.05 1.55-2.47 1.48-3.93zm-24.1-35.43c0.01-3.89 3.15-7.03 7.03-7.04h0.25c3.89 0.01 7.03 3.15 7.04 7.04v3.48h-14.32zm15.28 9.93c0.87 0 1.57 0.7 1.57 1.57 0 0.87-0.7 1.58-1.57 1.58-0.87 0-1.57-0.71-1.57-1.58 0-0.87 0.7-1.57 1.57-1.57zm-16.24 0c0.87 0 1.57 0.7 1.57 1.57 0 0.87-0.7 1.58-1.57 1.58-0.87 0-1.57-0.71-1.57-1.58 0-0.87 0.7-1.57 1.57-1.57zm-5.78-3.39c0.03-0.64 0.56-1.15 1.2-1.14h3.62v2.74c-1.46 0.42-2.54 1.77-2.54 3.36 0 1.93 1.57 3.5 3.5 3.5 1.93 0 3.49-1.57 3.49-3.5 0-1.59-1.07-2.94-2.53-3.36v-2.74h14.32v2.74c-1.46 0.42-2.54 1.77-2.54 3.36 0 1.93 1.57 3.5 3.5 3.5 1.93 0 3.49-1.57 3.49-3.5 0-1.59-1.07-2.94-2.53-3.36v-2.74h3.5c0.64-0.01 1.17 0.5 1.2 1.14l1.07 24.91h-29.82zm27.97 31.49c-0.66 0.69-1.58 1.09-2.54 1.08h-23.17c-0.96 0.01-1.88-0.39-2.54-1.08-0.65-0.67-1-1.59-0.95-2.52l0.09-2.14h29.98l0.09 2.14c0.04 0.93-0.31 1.85-0.96 2.52z"/>
	<path id="線 538" fill-rule="evenodd" class="s0" d="m1.51 3.91l1.4-1.4 48.58 48.58-1.4 1.4z"/>
	<path id="線 538 のコピー" fill-rule="evenodd" class="s0" d="m50.59 3.01l1.4 1.4-48.58 48.58-1.4-1.4z"/>
</svg>