<svg version="1.2" xmlns="http://www.w3.org/2000/svg" viewBox="0 0 39 39" width="39" height="39">
	<style>
		.s0 { fill: #ffffff } 
	</style>
	<path id="シェイプ 550" fill-rule="evenodd" class="s0" d="m4.3 37.5c-1.55 0-2.8-1.25-2.8-2.8v-27.57c0-1.55 1.25-2.81 2.8-2.81h2.85v-1.79c0-0.57 0.47-1.03 1.04-1.03 0.57 0 1.04 0.46 1.04 1.03v1.79h20.54v-1.79c0-0.57 0.47-1.03 1.04-1.03 0.57 0 1.04 0.46 1.04 1.03v1.79h2.85c1.55 0 2.8 1.26 2.8 2.81v27.57c0 1.55-1.25 2.8-2.8 2.8zm-0.73-2.8c0 0.4 0.33 0.73 0.73 0.73h30.4c0.4 0 0.73-0.33 0.73-0.73v-21.23h-31.86zm0.73-28.3c-0.4 0-0.73 0.33-0.73 0.73v4.26h31.86v-4.26c0-0.4-0.33-0.73-0.73-0.73h-2.85v1.79c0 0.57-0.47 1.04-1.04 1.04-0.57 0-1.04-0.47-1.04-1.04v-1.79h-20.54v1.79c0 0.57-0.47 1.04-1.04 1.04-0.58 0-1.04-0.47-1.04-1.04v-1.79zm13.78 24.03q-0.31 0-0.57-0.17l-4.24-2.83q-0.36-0.24-0.44-0.66-0.08-0.42 0.15-0.78c0.19-0.29 0.52-0.46 0.86-0.46q0.32 0 0.58 0.17l3.35 2.24 6.5-10.4c0.19-0.31 0.52-0.49 0.89-0.49q0.29 0 0.54 0.16 0.36 0.23 0.46 0.64 0.1 0.42-0.13 0.78l-7.07 11.32c-0.14 0.23-0.38 0.4-0.66 0.46q-0.11 0.02-0.22 0.02z"/>
</svg>