<svg version="1.2" xmlns="http://www.w3.org/2000/svg" viewBox="0 0 26 22" width="26" height="22">
	<style>
		.s0 { fill: #ffffff } 
	</style>
	<path id="シェイプ 753" fill-rule="evenodd" class="s0" d="m24.62 20.54c-0.16 0.28-0.47 0.46-0.8 0.46h-21.83c-0.33 0-0.63-0.18-0.79-0.46-0.17-0.29-0.16-0.64 0.01-0.92l10.92-18.18c0.16-0.27 0.46-0.44 0.78-0.44 0.32 0 0.61 0.17 0.78 0.44l10.91 18.18c0.17 0.28 0.18 0.63 0.02 0.92zm-2.4-1.36l-9.31-15.5-9.32 15.5zm-9.31-11.82c0.51 0 0.91 0.41 0.91 0.91v4.55c0 0.5-0.4 0.91-0.91 0.91-0.5 0-0.91-0.41-0.91-0.91v-4.55c0-0.5 0.41-0.91 0.91-0.91zm0.91 8.18v0.91c0 0.5-0.4 0.91-0.91 0.91-0.5 0-0.91-0.41-0.91-0.91v-0.91c0-0.5 0.41-0.9 0.91-0.9 0.51 0 0.91 0.4 0.91 0.9z"/>
</svg>