<svg version="1.2" xmlns="http://www.w3.org/2000/svg" viewBox="0 0 32 28" width="32" height="28">
	<style>
		.s0 { fill: #fdfefe } 
	</style>
	<path id="シェイプ 769" fill-rule="evenodd" class="s0" d="m30 21.04v2.5c0 0.32-0.26 0.58-0.59 0.58h-0.65c0 1.04-0.84 1.88-1.88 1.88-1.03 0-1.88-0.84-1.88-1.88h-7.36c0 1.04-0.84 1.88-1.87 1.88-1.04 0-1.88-0.84-1.88-1.88h-0.27c-0.33 0-0.59-0.26-0.59-0.58v-4.18l1.09-3.96c0.05-0.19 0.22-0.32 0.42-0.32h9.56c0.18 0 0.34 0.11 0.41 0.28l1.43 3.6 2.86 0.57c0.7 0.14 1.2 0.77 1.2 1.51zm-13.02 3c0-0.66-0.54-1.2-1.2-1.2-0.66 0-1.2 0.54-1.2 1.2 0 0.67 0.54 1.2 1.2 1.2 0.66 0 1.2-0.53 1.2-1.2zm1.28-7.53c0-0.2-0.16-0.36-0.35-0.36h-2.58c-0.16 0-0.3 0.11-0.34 0.27l-0.59 2.24c-0.06 0.22 0.11 0.44 0.34 0.44h3.17c0.19 0 0.35-0.16 0.35-0.35zm6.08 2.13l-0.77-2.25c-0.05-0.14-0.18-0.23-0.33-0.23h-3.41c-0.19 0-0.35 0.15-0.35 0.35v2.24c0 0.2 0.16 0.35 0.35 0.35h4.18c0.24 0 0.41-0.23 0.33-0.46zm3.76 5.41c0-0.67-0.54-1.2-1.2-1.2-0.66 0-1.2 0.53-1.2 1.2 0 0.66 0.54 1.19 1.2 1.19 0.66 0 1.2-0.53 1.2-1.19zm-15.29-15.35c0 0.87-0.6 1.45-1.54 1.45h-1.93v-2.91h1.93c0.94 0 1.54 0.6 1.54 1.46zm0.93 4.79c-0.55 0-1.04 0.37-1.19 0.91l-1.11 4.06v0.94h-7.67c-0.98 0-1.77-0.79-1.77-1.77v-13.86c0-0.98 0.79-1.77 1.77-1.77h13.85c0.98 0 1.77 0.79 1.77 1.77v9.72zm1.14-4.79c0-1.8-1.31-3.3-3.5-3.3h-4.11v10.61h2.07v-4h2.04c2.19 0 3.5-1.5 3.5-3.31z"/>
</svg>