<svg version="1.2" xmlns="http://www.w3.org/2000/svg" viewBox="0 0 40 54" width="40" height="54">
	<style>
		.s0 { fill: #81d7cf } 
	</style>
	<path id="シェイプ 628" class="s0" d="m34.78 0.99h-31.28c-1.93 0-3.49 1.53-3.5 3.42v36.96c0.01 1.88 1.57 3.42 3.5 3.42h1.63v5.78c0 1.88 1.56 3.42 3.49 3.42h27.88c1.93 0 3.49-1.54 3.5-3.42v-44.47c-0.02-2.8-2.36-5.1-5.22-5.11zm-27.71 28.08c1.09-0.49 2.3-0.72 3.51-0.69 1.2-0.03 2.41 0.2 3.51 0.69 1.38 0.6 2.9 0.9 4.4 0.87 1.52 0.03 3.03-0.27 4.42-0.87 1.09-0.48 2.32-0.72 3.51-0.69 1.07-0.03 2.15 0.16 3.14 0.55v3.78q-1.54-0.45-3.15-0.41c-1.48-0.04-3.03 0.26-4.41 0.86-1.09 0.48-2.31 0.71-3.51 0.68-1.2 0.03-2.41-0.2-3.5-0.68-1.38-0.6-2.92-0.91-4.42-0.86-1.5-0.04-3.03 0.26-4.41 0.85-1.18 0.51-2.47 0.75-3.76 0.69v-3.91q0.12 0.01 0.25 0.01 0 0 0 0c1.51 0.04 3.03-0.27 4.42-0.87zm22.49-22.97v20.35q-1.55-0.45-3.15-0.42c-1.49-0.03-3.03 0.27-4.41 0.87-1.09 0.48-2.29 0.72-3.51 0.69-1.2 0.03-2.41-0.21-3.5-0.69-1.38-0.6-2.91-0.89-4.42-0.87-1.51-0.03-3.03 0.27-4.41 0.87-1.18 0.5-2.48 0.74-3.76 0.69v-23.18c0-0.59 0.49-1.08 1.1-1.08h26.89c-0.54 0.82-0.83 1.79-0.83 2.77zm-27.16 30.09c2.08 0.07 3.24-0.36 4.36-0.77 1.01-0.38 2.06-0.77 3.82-0.78 1.2-0.03 2.41 0.21 3.51 0.69 1.38 0.59 2.91 0.89 4.4 0.86q0.05 0 0.09 0c2.08 0 3.12-0.41 4.13-0.8 0.97-0.38 1.89-0.74 3.71-0.75 1.06-0.04 2.15 0.16 3.14 0.55v6.18c0.01 0.58-0.47 1.07-1.1 1.07h-24.96c-0.61 0-1.1-0.48-1.1-1.07zm5.12 8.6h20.94c1.93 0 3.49-1.54 3.5-3.43-0.01-3.25-0.01-9.93-0.01-16.29 0.01-5.28 0.01-10.34 0.01-13.03v-5.94c0-0.74 0.3-1.43 0.84-1.95 0.54-0.52 1.27-0.78 2-0.79 1.53 0.01 2.78 1.24 2.8 2.74v0.18h0.01c0.03 1.32 0.01 10.37 0 18.41-0.03 11.92-0.02 13.68 0 13.99l-0.01 11.89c0 0.59-0.49 1.08-1.1 1.08h-27.88c-0.61 0-1.1-0.49-1.1-1.08z"/>
</svg>