<?xml version="1.0" encoding="UTF-8" standalone="no"?>
<!DOCTYPE svg PUBLIC "-//W3C//DTD SVG 1.1//EN" "http://www.w3.org/Graphics/SVG/1.1/DTD/svg11.dtd">
<svg width="68px" height="61px" version="1.1" xmlns="http://www.w3.org/2000/svg" xmlns:xlink="http://www.w3.org/1999/xlink" xml:space="preserve" xmlns:serif="http://www.serif.com/" style="fill-rule:evenodd;clip-rule:evenodd;stroke-linejoin:round;stroke-miterlimit:2;">
    <g transform="matrix(1,0,0,1,-16333.1,-7409.19)">
        <g transform="matrix(1,0,0,1,15406.5,590.168)">
            <g id="icon">
                <path id="シェイプ-719" serif:id="シェイプ 719" d="M962.52,6836.56L962.52,6838.51L943.269,6838.51L943.269,6836.56L962.52,6836.56ZM938.445,6825.35L937.902,6822.28C937.753,6821.44 937.964,6820.61 938.48,6819.99C938.997,6819.38 939.782,6819.02 940.634,6819.02L956.495,6819.02C957.347,6819.02 958.132,6819.38 958.648,6819.99C959.165,6820.61 959.376,6821.44 959.227,6822.28L958.684,6825.35C958.393,6826.98 956.863,6828.27 955.2,6828.27L941.929,6828.27C940.266,6828.27 938.736,6826.98 938.445,6825.35ZM939.97,6821.24C939.822,6821.42 939.767,6821.67 939.816,6821.94L940.36,6825.01C940.484,6825.7 941.217,6826.32 941.929,6826.32L955.2,6826.32C955.911,6826.32 956.645,6825.7 956.769,6825.01L957.312,6821.94C957.361,6821.67 957.306,6821.42 957.158,6821.24C957.01,6821.06 956.774,6820.97 956.495,6820.97L940.634,6820.97C940.354,6820.97 940.119,6821.06 939.97,6821.24ZM939.485,6833.37L940.86,6834.74L935.467,6840.14L931.964,6836.64L933.34,6835.26L935.467,6837.39L939.485,6833.37ZM943.269,6849.61L943.269,6847.67L959.254,6847.67L959.254,6849.61L943.269,6849.61ZM940.86,6845.85L935.467,6851.25L931.964,6847.74L933.34,6846.37L935.467,6848.5L939.485,6844.48L940.86,6845.85ZM935.467,6862.36L931.964,6858.86L933.34,6857.48L935.467,6859.61L939.485,6855.59L940.86,6856.96L935.467,6862.36ZM968.61,6875.02L968.61,6866.49L970.554,6865.79L970.554,6875.02C970.554,6877.24 968.751,6879.04 966.534,6879.04L930.594,6879.04C928.378,6879.04 926.574,6877.24 926.574,6875.02L926.574,6826.58C926.574,6824.36 928.378,6822.56 930.594,6822.56L935.603,6822.56C935.609,6822.6 935.611,6822.64 935.619,6822.69L935.941,6824.5L930.594,6824.5C929.45,6824.5 928.519,6825.43 928.519,6826.58L928.519,6875.02C928.519,6876.16 929.45,6877.1 930.594,6877.1L966.534,6877.1C967.679,6877.1 968.61,6876.16 968.61,6875.02ZM968.61,6826.58C968.61,6825.43 967.679,6824.5 966.534,6824.5L961.188,6824.5L961.51,6822.69C961.517,6822.64 961.519,6822.6 961.526,6822.56L966.534,6822.56C968.751,6822.56 970.554,6824.36 970.554,6826.58L970.554,6853.98L968.61,6854.69L968.61,6826.58ZM994.27,6854.13C994.359,6854.37 994.347,6854.64 994.238,6854.87C994.129,6855.1 993.932,6855.28 993.689,6855.37L990.233,6856.63L991.699,6860.66C991.881,6861.16 991.857,6861.71 991.631,6862.19C991.404,6862.68 991.003,6863.05 990.501,6863.23L987.467,6864.33C987.245,6864.42 987.014,6864.46 986.783,6864.46C986.654,6864.46 986.525,6864.44 986.398,6864.42C986.177,6864.69 985.882,6864.91 985.528,6865.04L982.494,6866.15C982.271,6866.23 982.04,6866.27 981.81,6866.27C981.521,6866.27 981.232,6866.2 980.962,6866.08C980.476,6865.85 980.107,6865.45 979.925,6864.95L978.459,6860.92L964.11,6866.14L965.576,6870.17C965.758,6870.68 965.734,6871.22 965.508,6871.7C965.281,6872.19 964.88,6872.56 964.378,6872.74L961.345,6873.85C961.119,6873.93 960.888,6873.97 960.661,6873.97C960.531,6873.97 960.403,6873.95 960.277,6873.93C960.056,6874.2 959.76,6874.42 959.404,6874.55L956.371,6875.66C956.149,6875.74 955.917,6875.78 955.687,6875.78C955.398,6875.78 955.109,6875.72 954.839,6875.59C954.353,6875.36 953.985,6874.96 953.802,6874.46L952.336,6870.43L948.88,6871.69C948.77,6871.73 948.658,6871.75 948.548,6871.75C948.15,6871.75 947.778,6871.5 947.634,6871.11L945.784,6866.02C945.696,6865.78 945.708,6865.51 945.817,6865.28C945.926,6865.05 946.123,6864.87 946.365,6864.78L949.822,6863.52L948.805,6860.72L943.269,6860.72L943.269,6858.78L948.238,6858.78C948.249,6857.97 948.751,6857.21 949.554,6856.92L952.587,6855.82C952.942,6855.69 953.31,6855.67 953.656,6855.74C953.883,6855.45 954.18,6855.24 954.527,6855.11L957.561,6854.01C958.063,6853.82 958.607,6853.85 959.093,6854.07C959.579,6854.3 959.947,6854.7 960.13,6855.2L961.596,6859.23L975.944,6854.01L974.479,6849.98C974.101,6848.94 974.638,6847.79 975.677,6847.41L978.71,6846.31C979.057,6846.18 979.425,6846.15 979.78,6846.22C980.001,6845.95 980.295,6845.73 980.65,6845.6L983.684,6844.49C984.186,6844.31 984.73,6844.34 985.216,6844.56C985.702,6844.79 986.07,6845.19 986.253,6845.69L987.718,6849.72L991.175,6848.46C991.678,6848.28 992.237,6848.54 992.421,6849.04L994.27,6854.13ZM989.568,6854.8L992.111,6853.88L990.926,6850.62L988.383,6851.55L989.568,6854.8ZM984.862,6863.21C984.891,6863.2 984.909,6863.16 984.898,6863.14L979.452,6848.17C979.444,6848.15 979.415,6848.13 979.391,6848.13L979.375,6848.13L976.342,6849.24C976.313,6849.25 976.295,6849.28 976.306,6849.31L981.752,6864.28C981.762,6864.31 981.804,6864.33 981.829,6864.32L984.862,6863.21ZM989.872,6861.33L989.872,6861.32L984.426,6846.36C984.418,6846.34 984.389,6846.32 984.364,6846.32C984.359,6846.32 984.354,6846.32 984.349,6846.32L981.315,6847.43C981.286,6847.44 981.269,6847.47 981.279,6847.5L986.725,6862.47C986.735,6862.5 986.777,6862.52 986.802,6862.51L989.836,6861.4C989.862,6861.39 989.881,6861.35 989.872,6861.33ZM958.739,6872.73C958.768,6872.72 958.786,6872.68 958.775,6872.65L953.329,6857.68C953.321,6857.66 953.295,6857.64 953.271,6857.64L953.252,6857.64L950.219,6858.75C950.19,6858.76 950.173,6858.8 950.183,6858.82L955.629,6873.79C955.639,6873.82 955.68,6873.84 955.706,6873.83L958.739,6872.73ZM963.713,6870.91C963.74,6870.9 963.758,6870.86 963.749,6870.84L958.303,6855.87C958.295,6855.85 958.266,6855.83 958.242,6855.83L958.226,6855.83L955.192,6856.94C955.166,6856.95 955.147,6856.99 955.157,6857.01L960.603,6871.98C960.613,6872.01 960.651,6872.03 960.68,6872.02L963.713,6870.91ZM949.129,6869.53L951.671,6868.6L950.487,6865.35L947.944,6866.27L949.129,6869.53ZM963.445,6864.32L977.794,6859.09L976.609,6855.84L962.261,6861.06L963.445,6864.32Z" style="fill:white;"/>
            </g>
        </g>
    </g>
</svg>
