<?xml version="1.0" encoding="UTF-8" standalone="no"?>
<!DOCTYPE svg PUBLIC "-//W3C//DTD SVG 1.1//EN" "http://www.w3.org/Graphics/SVG/1.1/DTD/svg11.dtd">
<svg width="334px" height="51px" version="1.1" xmlns="http://www.w3.org/2000/svg" xmlns:xlink="http://www.w3.org/1999/xlink" xml:space="preserve" xmlns:serif="http://www.serif.com/" style="fill-rule:evenodd;clip-rule:evenodd;stroke-linejoin:round;stroke-miterlimit:2;">
    <g transform="matrix(1,0,0,1,-16078.7,-6272.87)">
        <g transform="matrix(1,0,0,1,15406.5,590.168)">
            <g id="グループ-64" serif:id="グループ 64">
                <path id="シェイプ-1228" serif:id="シェイプ 1228" d="M700.689,5691.44C698.289,5691.43 696.313,5689.46 696.312,5687.07C696.31,5684.61 698.343,5682.65 700.839,5682.7C703.267,5682.76 705.146,5684.71 705.106,5687.14C705.066,5689.55 703.11,5691.46 700.689,5691.44ZM718.602,5698.17C719.348,5699.28 718.927,5699.94 717.866,5700.74C716.366,5701.87 715.269,5702.75 715.306,5703.07C715.07,5704.57 715.066,5704.95 714.757,5706.07C713.33,5711.28 711.787,5716.44 710.251,5721.62C710.024,5722.38 709.867,5723.1 710.248,5723.82C711.354,5725.94 710.846,5729.76 708.399,5730.29C708.313,5730.31 707.558,5730.34 706.342,5730.36L706.342,5732.11C706.342,5732.45 705.526,5732.73 704.53,5732.73C703.534,5732.73 702.719,5732.45 702.719,5732.11L702.719,5730.43C697.652,5730.51 690.223,5730.58 684.782,5730.53L684.782,5731.84C684.782,5732.33 683.967,5732.73 682.97,5732.73C681.974,5732.73 681.159,5732.33 681.159,5731.84L681.159,5730.48C679.213,5730.42 677.93,5730.34 677.756,5730.22C673.387,5728.14 671.371,5724.1 672.414,5719.78C673.432,5715.56 677.065,5712.91 681.793,5712.95L682.284,5712.95L682.386,5712.71C680.93,5711.92 679.476,5711.14 678.019,5710.35C676.796,5709.7 676.218,5708.76 676.83,5707.39C677.38,5706.17 678.622,5705.83 680.015,5706.54C682.348,5707.72 684.652,5708.95 686.969,5710.17C689.871,5711.69 688.388,5712.79 688.981,5714.42C689.356,5715.45 692.571,5716.44 693.587,5716.28C693.849,5716.23 693.995,5716.13 693.971,5715.89C693.856,5714.72 694.337,5713.49 692.871,5712.6C690.169,5710.96 687.622,5709.07 685.01,5707.28C681.577,5704.93 681.147,5701.73 683.907,5698.55C685.233,5697.03 686.665,5695.6 688.054,5694.13C689.105,5693.01 690.132,5691.88 691.228,5690.81C692.437,5689.63 693.88,5689.32 695.445,5690.02C696.934,5690.69 697.669,5691.89 697.688,5693.52C697.713,5695.73 699.034,5697.51 699.657,5699.52C699.81,5700.02 700.46,5700.02 700.926,5700.15C702.345,5700.53 703.777,5700.87 705.188,5701.28C706.483,5701.66 707.118,5702.56 706.768,5703.89C706.411,5705.26 705.36,5705.65 704.084,5705.34C702.021,5704.83 699.974,5704.26 697.927,5703.69C697.04,5703.45 696.413,5702.91 696.091,5701.99C695.681,5700.82 695.186,5699.69 694.639,5698.32C692.82,5700.23 691.148,5702 689.466,5703.76C688.788,5704.47 689.621,5704.56 689.914,5704.76C692.192,5706.36 694.461,5707.98 696.805,5709.47C698.137,5710.32 698.71,5711.4 698.778,5712.97C698.85,5714.63 698.165,5716.72 699.26,5717.84C700.267,5718.87 702.248,5718.96 703.805,5719.45C706.147,5720.18 706.152,5720.17 706.846,5717.8C707.825,5714.45 709.289,5710.43 710.315,5707.1C710.558,5706.31 710.222,5706.18 709.115,5706.43C707.211,5706.86 706.916,5703.81 708.498,5702.63C710.817,5700.91 713.202,5699.27 715.594,5697.64C716.712,5696.88 717.842,5697.04 718.602,5698.17ZM681.175,5724.33C682.486,5724.32 683.53,5723.24 683.522,5721.9C683.514,5720.56 682.468,5719.52 681.144,5719.53C679.817,5719.54 678.79,5720.59 678.796,5721.93C678.801,5723.26 679.873,5724.34 681.175,5724.33ZM699.989,5725.35C700.081,5724.72 699.645,5724.13 699.019,5724.04L693.853,5723.28C693.227,5723.18 692.64,5723.62 692.547,5724.25C692.455,5724.87 692.892,5725.46 693.517,5725.56L698.683,5726.32C699.309,5726.41 699.897,5725.97 699.989,5725.35Z" style="fill:rgb(129,215,207);"/>
                <path id="シェイプ-1229" serif:id="シェイプ 1229" d="M772.269,5707.41L763.961,5707.17C763.206,5707.17 763.151,5705.55 763.961,5705.52L770.119,5705.33C775.351,5705.16 775.087,5701.58 777.255,5698.85C777.977,5697.94 778.39,5697.59 779.393,5697.86L781.302,5698.4L774.302,5707.32L778.959,5725.47C779.179,5725.38 779.4,5725.31 779.623,5725.23C780.018,5725.11 781.865,5724.64 782.206,5724.93C782.383,5725.08 782.477,5725.3 782.518,5725.73L782.518,5733L738.1,5733L738.1,5730.32C738.1,5729.93 738.426,5729.61 738.818,5729.61L771.887,5729.61C773.467,5728.58 775.126,5727.37 776.913,5726.41L772.269,5707.41ZM760.142,5687.01C760.142,5689.22 758.348,5691.01 756.134,5691.01C753.921,5691.01 752.127,5689.22 752.127,5687.01C752.127,5684.79 753.921,5683 756.134,5683C758.348,5683 760.142,5684.79 760.142,5687.01ZM757.523,5698.21L758.75,5700.23C758.75,5700.23 758.773,5700.46 759.123,5700.46C759.473,5700.46 765.674,5699.9 765.674,5699.9C765.674,5699.9 767.26,5699.65 767.516,5701.07C767.703,5701.84 767.423,5702.94 766.467,5703.15C765.511,5703.36 759.123,5704.31 759.123,5704.31C759.123,5704.31 757.934,5704.57 757.281,5704.08C756.628,5703.59 755.882,5702.61 755.882,5702.61L757.523,5698.21ZM751.784,5691.01C751.784,5691.01 756.246,5691.21 756.742,5695.09C756.791,5697.04 756.596,5697.72 756.134,5698.69C755.442,5700.62 753.777,5705.94 753.777,5705.94L758.687,5713.52C758.687,5713.52 759.354,5714.35 759.354,5715.31C759.354,5716.28 760.168,5725.83 760.168,5725.83C760.168,5725.83 760.319,5728.43 758.119,5728.7C757.125,5728.82 755.678,5728.46 755.347,5726.74C755.015,5725.02 754.142,5716.31 754.142,5716.31L746.548,5708.08C746.548,5708.08 745.132,5706.63 746.277,5703.28C747.422,5699.94 748.658,5696.2 748.658,5696.2C748.658,5696.2 748.869,5695.66 748.236,5695.84L747.603,5696.02L744.801,5696.56C744.801,5696.56 744.289,5696.53 743.957,5697.07C743.626,5697.62 740.402,5702.62 740.402,5702.62C740.402,5702.62 739.257,5703.59 737.961,5702.68C736.906,5701.81 737.569,5700.72 737.569,5700.72L741.396,5694.39C741.396,5694.39 742.119,5693.31 743.596,5692.91C745.072,5692.52 749.2,5691.26 749.2,5691.26C749.2,5691.26 750.853,5690.88 751.784,5691.01ZM745.873,5708.73L750.357,5713.65L749.446,5716.03C749.446,5716.03 749.045,5718.07 746.638,5718.18C744.232,5718.29 735.7,5718.54 735.7,5718.54C735.7,5718.54 733.878,5718.18 734.096,5716.21C734.133,5714.93 734.534,5714.13 735.81,5713.87C737.086,5713.62 744.742,5713.29 744.742,5713.29L745.873,5708.73Z" style="fill:rgb(129,215,207);"/>
                <path id="シェイプ-1230" serif:id="シェイプ 1230" d="M898.22,5723.5C898.59,5725.05 897.598,5726.58 896.044,5726.95C894.55,5727.3 893.017,5726.38 892.631,5724.85C892.041,5722.5 891.485,5720.15 890.917,5717.8C890.892,5717.7 890.889,5717.59 890.778,5717.5C889.809,5718.81 888.839,5720.11 887.873,5721.42C887.155,5722.4 886.454,5723.38 885.725,5724.35C884.427,5726.07 882.693,5726.99 880.534,5727.01C876.744,5727.04 872.953,5727.03 869.163,5727.01C866.125,5727 863.796,5724.61 863.944,5721.65C864.021,5720.12 864.722,5718.88 865.951,5717.96C866.2,5717.77 866.278,5717.59 866.273,5717.3C866.256,5716.34 866.272,5715.38 866.262,5714.43C866.259,5714.2 866.313,5714.13 866.538,5714.19C868.079,5714.59 869.619,5714.55 871.158,5714.17C871.197,5714.16 871.242,5714.17 871.31,5714.17C871.31,5714.99 871.321,5715.79 871.304,5716.6C871.299,5716.87 871.36,5716.95 871.647,5716.95C875.093,5716.94 878.538,5716.94 881.984,5716.95C882.277,5716.95 882.411,5716.8 882.565,5716.61C884.921,5713.82 887.278,5711.04 889.633,5708.25C890.624,5707.07 891.98,5706.73 893.245,5707.34C894.048,5707.73 894.567,5708.37 894.776,5709.23C895.933,5713.98 897.087,5718.74 898.22,5723.5ZM876.71,5704.23C876.684,5708.56 873.058,5712.08 868.694,5712.03C864.336,5711.98 860.815,5708.42 860.849,5704.1C860.883,5699.67 864.437,5696.16 868.843,5696.19C873.26,5696.23 876.737,5699.79 876.71,5704.23ZM865.901,5704.09C865.886,5705.69 867.152,5706.98 868.751,5706.99C870.353,5707 871.651,5705.73 871.664,5704.14C871.677,5702.55 870.387,5701.24 868.803,5701.23C867.204,5701.22 865.915,5702.49 865.901,5704.09ZM870.227,5704.11C870.228,5704.91 869.578,5705.55 868.77,5705.55C867.986,5705.55 867.349,5704.92 867.342,5704.13C867.336,5703.32 867.965,5702.68 868.768,5702.67C869.567,5702.66 870.226,5703.31 870.227,5704.11ZM858.378,5717.31C860.958,5717.32 863.049,5719.43 863.035,5722.01C863.022,5724.57 860.926,5726.65 858.364,5726.65C855.784,5726.65 853.683,5724.55 853.686,5721.97C853.689,5719.4 855.795,5717.31 858.378,5717.31ZM893.027,5733.16L853.786,5733.16C853.528,5733.16 853.319,5732.96 853.319,5732.7L853.319,5729.93C853.319,5729.67 853.528,5729.46 853.786,5729.46L893.027,5729.46C893.285,5729.46 893.494,5729.67 893.494,5729.93L893.494,5732.7C893.494,5732.96 893.285,5733.16 893.027,5733.16Z" style="fill:rgb(129,215,207);"/>
                <path id="シェイプ-1235" serif:id="シェイプ 1235" d="M985.158,5723.42C985.522,5723.5 985.436,5723.72 985.436,5723.93C985.439,5727.12 985.438,5730.31 985.438,5733.49L973.612,5733.49C972.963,5733.15 972.673,5732.55 972.429,5731.9C971.35,5728.98 970.067,5726.14 969.129,5723.17C968.064,5719.8 967.829,5716.35 968.393,5712.85C968.533,5712.8 968.605,5712.91 968.689,5712.97C973.188,5716 977.688,5719.03 982.181,5722.08C983.1,5722.7 984.066,5723.21 985.158,5723.42ZM1005.18,5712.94C1005.25,5712.9 1005.32,5712.86 1005.43,5712.79C1005.69,5714.43 1005.77,5716.04 1005.69,5717.66C1005.54,5720.92 1004.55,5723.96 1003.32,5726.95C1002.62,5728.66 1001.96,5730.39 1001.32,5732.12C1001.09,5732.75 1000.76,5733.24 1000.12,5733.49L988.395,5733.49C988.395,5730.31 988.401,5727.12 988.386,5723.93C988.385,5723.59 988.47,5723.47 988.818,5723.39C989.888,5723.16 990.83,5722.64 991.733,5722.03C996.212,5718.99 1000.7,5715.97 1005.18,5712.94ZM975.102,5694.04C974.178,5691.3 973.284,5688.55 972.376,5685.8C971.913,5684.4 972.555,5683.51 974.032,5683.51L999.788,5683.51C1001.27,5683.51 1001.92,5684.4 1001.46,5685.79C1000.55,5688.55 999.645,5691.32 998.719,5694.07C998.021,5696.16 998.242,5698.12 999.399,5699.98C1000.45,5701.67 1001.47,5703.37 1002.52,5705.06C1002.69,5705.33 1002.67,5705.44 1002.38,5705.62C996.26,5709.43 989.608,5710.63 982.515,5709.66C978.521,5709.12 974.833,5707.74 971.416,5705.6C971.129,5705.42 971.158,5705.31 971.308,5705.07C972.346,5703.4 973.358,5701.71 974.402,5700.04C975.586,5698.14 975.816,5696.16 975.102,5694.04ZM986.943,5703.97C986.123,5703.95 985.42,5704.62 985.4,5705.44C985.379,5706.28 986.074,5707 986.915,5707C987.735,5707 988.426,5706.32 988.434,5705.5C988.442,5704.67 987.766,5703.98 986.943,5703.97ZM993.158,5717.92C992,5718.7 990.843,5719.48 989.681,5720.26C988.838,5720.82 987.904,5721.09 986.887,5721.1C985.879,5721.08 984.951,5720.79 984.111,5720.23C979.205,5716.92 974.301,5713.61 969.392,5710.31C969.15,5710.14 969.065,5710 969.183,5709.71C969.449,5709.06 969.69,5708.39 969.924,5707.73C970.035,5707.41 970.151,5707.34 970.468,5707.54C972.012,5708.52 973.628,5709.35 975.33,5710.02C979.558,5711.66 983.94,5712.34 988.47,5712.13C993.068,5711.91 997.42,5710.8 1001.49,5708.63C1002.16,5708.28 1002.81,5707.89 1003.45,5707.5C1003.68,5707.36 1003.78,5707.38 1003.87,5707.64C1004.11,5708.3 1004.34,5708.97 1004.62,5709.61C1004.78,5709.98 1004.67,5710.16 1004.36,5710.36C1000.62,5712.87 996.892,5715.4 993.158,5717.92Z" style="fill:rgb(129,215,207);"/>
                <path id="線-1" serif:id="線 1" d="M938.199,5712L918.194,5712L918.194,5711.05L938.199,5711.05L938.199,5707L948.202,5712L938.199,5712Z" style="fill:rgb(79,79,79);"/>
                <path id="シェイプ-1231" serif:id="シェイプ 1231" d="M842.565,5686.88C843.204,5686.88 843.723,5687.39 843.723,5688.03L843.723,5694.15C843.723,5694.79 843.204,5695.31 842.565,5695.31C841.926,5695.31 841.407,5694.79 841.407,5694.15L841.407,5688.03C841.407,5687.39 841.926,5686.88 842.565,5686.88ZM832.507,5689.49C832.777,5689.49 833.019,5689.66 833.114,5689.91L835.144,5689.91L835.144,5692.09L832.816,5692.09C830.124,5697 827.269,5702.16 824.066,5706.51C823.493,5707.29 823.43,5707.14 823.204,5707.97C822.743,5709.73 822.764,5711.18 822.748,5713.04C823.501,5715.13 826.147,5721.45 826.147,5722.7L826.147,5731.66C826.147,5732.4 825.544,5733 824.808,5733L823.395,5733C822.658,5733 822.056,5732.4 822.056,5731.66L822.056,5724.25C822.056,5724.19 822.061,5724.12 822.069,5724.07L822.069,5722.7C822.069,5721.98 819.28,5718.94 818.619,5717.51C818.244,5717.06 817.749,5717.03 817.321,5717.8C816.029,5719.82 814.165,5722.16 813.947,5722.71L813.947,5731.66C813.947,5732.4 813.345,5733 812.608,5733L811.216,5733C810.479,5733 809.876,5732.4 809.876,5731.66L809.876,5730.29L809.861,5730.29L809.861,5722.7C809.861,5721.45 812.494,5715.13 813.256,5713.04C813.215,5711.14 813.256,5709.67 812.838,5708.02C812.612,5707.14 812.553,5707.35 811.942,5706.52C808.739,5702.17 805.888,5697.02 803.196,5692.11L800.571,5692.11L800.571,5689.92L802.769,5689.92C802.865,5689.67 803.109,5689.5 803.38,5689.51L804.758,5689.51C805.028,5689.5 805.27,5689.67 805.365,5689.92L830.518,5689.92C830.614,5689.67 830.858,5689.5 831.129,5689.51L831.129,5689.49L832.507,5689.49ZM820.972,5702.67C823.92,5699.54 826.582,5695.77 829.651,5692.1L806.349,5692.1C809.417,5695.77 812.097,5699.54 815.027,5702.67L815.446,5702.67C817.204,5702.04 819,5702.15 820.834,5702.67L820.972,5702.67ZM818.008,5701.34C815.724,5701.34 813.87,5699.49 813.868,5697.21L813.868,5697.21C813.865,5694.93 815.714,5693.08 817.996,5693.08L818,5693.08C820.284,5693.08 822.138,5694.92 822.14,5697.2C822.143,5699.48 820.293,5701.34 818.008,5701.34ZM839.247,5683C840.19,5683 840.955,5683.76 840.955,5684.7L840.955,5697.32C840.955,5698.27 840.19,5699.03 839.247,5699.03L838.314,5699.03C837.37,5699.03 836.605,5698.27 836.605,5697.32L836.605,5684.7C836.605,5683.76 837.37,5683 838.314,5683L839.247,5683ZM797.556,5683C798.548,5683 799.353,5683.8 799.353,5684.79L799.353,5697.24C799.353,5698.23 798.548,5699.03 797.556,5699.03L796.799,5699.03C795.807,5699.03 795.003,5698.23 795.003,5697.24L795.003,5684.79C795.003,5683.8 795.807,5683 796.799,5683L797.556,5683ZM793.414,5686.88C794.042,5686.88 794.551,5687.39 794.551,5688.01L794.551,5694.17C794.551,5694.8 794.042,5695.31 793.414,5695.31C792.786,5695.31 792.277,5694.8 792.277,5694.17L792.277,5688.01C792.277,5687.39 792.786,5686.88 793.414,5686.88Z" style="fill:rgb(129,215,207);"/>
            </g>
        </g>
    </g>
</svg>
