<svg version="1.2" xmlns="http://www.w3.org/2000/svg" viewBox="0 0 55 39" width="55" height="39">
	<style>
		.s0 { fill: #ffffff } 
	</style>
	<path id="シェイプ 865" fill-rule="evenodd" class="s0" d="m28.88 36.45c-1.79 0-3.6-0.3-5.32-0.92-6.3-2.29-10.56-8.37-10.62-15.13q0-0.02 0-0.03 0-0.01 0-0.03c0.07-7.64 5.46-14.25 12.83-15.74 3.25-0.66 6.6-0.29 9.68 1.07 3.09 1.36 5.62 3.59 7.32 6.45 1.69 2.83 2.45 6.09 2.19 9.45-0.26 3.34-1.49 6.46-3.57 9.02-3.06 3.76-7.76 5.86-12.51 5.86zm-14.23-16.08c0.05 6.84 4.91 12.77 11.54 14.11 5.83 1.17 12.04-1.59 15.1-6.72 3.09-5.18 2.56-12-1.29-16.6-3.88-4.63-10.29-6.36-15.95-4.3-5.58 2.03-9.35 7.46-9.4 13.51zm-7.87-3.73q-0.45 0-0.89-0.07-0.04 0-0.08-0.01l-0.37 6.99q-0.08 1.41-0.15 2.82c-0.1 1.84-0.21 3.75-0.3 5.62-0.02 0.44-0.03 0.84 0.08 1.24 0.18 0.64 0.64 1.18 1.2 1.41 0.3 0.12 0.77 0.21 1.3-0.09 1.07-0.61 1.1-1.77 1.03-3.11l-0.8-14.89q-0.5 0.09-1.02 0.09zm-4.74-2.87c-0.33-0.78-0.3-1.52-0.28-2.31l0.24-9.01c0.02-0.56 0.48-0.85 0.9-0.84 0.42 0.01 0.83 0.31 0.82 0.85l-0.16 5.8h0.81l0.16-5.81c0.01-0.55 0.45-0.84 0.87-0.84q0.01 0 0.03 0c0.41 0.01 0.82 0.31 0.81 0.85l-0.16 5.8h1.46l-0.16-5.8c-0.02-0.54 0.4-0.84 0.81-0.85 0.43-0.01 0.89 0.28 0.9 0.84l0.16 5.81h0.88q-0.04-1.28-0.1-2.53-0.08-1.63-0.13-3.27c-0.01-0.31 0.13-0.57 0.37-0.72 0.27-0.16 0.63-0.17 0.91-0.02 0.27 0.15 0.42 0.41 0.43 0.73l0.18 6.4q0.01 0.51 0.05 1.06c0.11 1.66 0.23 3.54-0.9 4.91q-0.59 0.71-1.45 1.16l0.45 8.38q0.07 1.32 0.15 2.63c0.11 1.73 0.22 3.51 0.27 5.27 0.03 1.35-0.58 2.73-1.58 3.52-0.58 0.46-1.25 0.69-1.96 0.69q-0.42 0-0.85-0.11c-1.98-0.53-2.78-2.56-2.7-4.35 0.18-3.68 0.39-7.42 0.59-11.04q0.13-2.48 0.27-4.96c-0.95-0.5-1.68-1.27-2.09-2.24zm1.44-2.6q0 0.19-0.02 0.39c-0.02 0.45-0.04 0.93 0.08 1.33 0.26 0.88 0.95 1.46 1.77 1.77q0.04 0.01 0.09 0.03c0.64 0.22 1.35 0.28 2.01 0.19 1.24-0.17 2.71-0.96 2.76-2.62q0.02-1.13 0.01-2.28h-6.67zm47.01 25.28c-0.95 0-1.83-0.4-2.45-1.11-0.85-0.97-0.83-2.07-0.72-3.2l0.72-7.71c0.11-1.14-0.1-2.34-0.3-3.51q-0.11-0.66-0.2-1.31-0.15-1.07-0.32-2.14c-0.24-1.59-0.5-3.24-0.57-4.86-0.21-4.35 2.08-8.63 5.81-10.9 0.3-0.18 0.6-0.16 0.83-0.02q0.06 0.02 0.11 0.05c0.24 0.15 0.37 0.41 0.36 0.72l-0.01 0.1q0 0.1 0 0.2c-0.05 3.27-0.2 6.59-0.33 9.81-0.07 1.6-0.14 3.26-0.2 4.9l-0.21 5.97c-0.04 1.04 0.07 2.12 0.19 3.17q0.07 0.68 0.13 1.37l0.34 4.14c0.09 1.04 0.17 2.02-0.53 2.99-0.58 0.8-1.49 1.29-2.49 1.33q-0.08 0.01-0.16 0.01zm1.49-32.28q-0.5 0.43-0.95 0.93c-1.41 1.55-2.33 3.55-2.6 5.63-0.16 1.26-0.02 2.49 0.13 3.65l0.98 7.38q0.05 0.32 0.11 0.65 0.04 0.27 0.08 0.54h1.57q0.02-0.39 0.03-0.77 0.02-0.29 0.03-0.58zm-2.28 21.01q-0.05 0.33-0.08 0.65-0.11 1.16-0.23 2.34c-0.15 1.52-0.3 3.11-0.42 4.66-0.05 0.57 0.04 0.97 0.3 1.31 0.26 0.35 0.68 0.56 1.12 0.59 0.45 0.03 0.88-0.13 1.19-0.44 0.54-0.55 0.47-1.27 0.39-2.03q-0.02-0.2-0.04-0.39l-0.59-7.21h-1.58q-0.03 0.26-0.06 0.52zm-21.59-0.65q-0.4-0.01-0.72-0.28l-4.57-4.08c-0.47-0.42-0.39-1.02-0.07-1.38 0.35-0.39 0.98-0.56 1.49-0.11l3.82 3.42 5.64-5.6c0.47-0.47 1.09-0.34 1.44 0.02 0.35 0.35 0.47 0.97 0.01 1.43l-5.55 5.52 0.03 0.03h-0.07l-0.74 0.73q-0.29 0.29-0.71 0.3z"/>
</svg>