<svg version="1.2" xmlns="http://www.w3.org/2000/svg" viewBox="0 0 63 64" width="63" height="64">
	<style>
		.s0 { fill: #81d8d0 } 
		.s1 { fill: #4f4f4f } 
	</style>
	<path id="シェイプ 765" class="s0" d="m60.85 15.35c-0.53-0.73-1.39-1.15-2.36-1.15h-41.24l-1.87-9.69c-0.37-1.91-2.18-3.4-4.12-3.4h-8.12c-0.97 0-1.76 0.79-1.76 1.76 0 0.97 0.79 1.76 1.76 1.76h8.12c0.26 0 0.61 0.29 0.66 0.55l8.1 41.96q0.02 0.11 0.05 0.23c-2.32 0.83-3.98 3.05-3.98 5.65 0 3.31 2.69 6 6 6 3.31 0 6-2.69 6-6q-0.01-1.33-0.53-2.48h10.54q0.03-0.97 0.06-2.28 0.02-0.61 0.04-1.24h-14.06c-0.26 0-0.62-0.29-0.67-0.55l-0.67-3.47h15.51c0.05-1.92 0.09-3.67 0.11-4.8 0.03-2.53 1.46-4.77 3.73-5.82q1.29-0.6 2.71-0.61c1.5 0 2.97 0.53 4.14 1.49 1.25 1.03 3.51 2.82 5.74 4.59l6.47-19.91c0.3-0.92 0.17-1.86-0.36-2.59zm-36.28 37.67c0 1.37-1.11 2.48-2.48 2.48-1.36 0-2.48-1.11-2.48-2.48 0-1.37 1.12-2.48 2.48-2.48 1.37 0 2.48 1.11 2.48 2.48zm11.92-15.56q-0.3 0.37-0.78 0.43l-3.84 0.41q-0.09 0.01-0.19 0c-0.57-0.02-1.03-0.46-1.09-1.03-0.07-0.64 0.39-1.22 1.03-1.28l3.84-0.41q0.1-0.01 0.19-0.01c0.57 0.03 1.03 0.47 1.09 1.04q0.05 0.48-0.25 0.85zm1.78-6.03q-0.31 0.37-0.78 0.43-0.1 0.01-0.19 0-0.37-0.02-0.67-0.25l-3.01-2.43c-0.5-0.4-0.57-1.14-0.17-1.64 0.23-0.29 0.59-0.45 0.96-0.43q0.38 0.02 0.67 0.26l3.01 2.43c0.5 0.4 0.58 1.13 0.18 1.63zm4.73-2.58q-0.09 0.01-0.18 0.01c-0.58-0.03-1.04-0.47-1.1-1.04l-0.41-3.85q-0.04-0.48 0.25-0.85 0.31-0.37 0.78-0.43 0.1-0.01 0.19 0c0.57 0.02 1.03 0.46 1.09 1.03l0.41 3.85c0.07 0.64-0.39 1.21-1.03 1.28zm9.24-1.66l-2.43 3.01q-0.31 0.37-0.78 0.43-0.09 0.01-0.19 0-0.37-0.02-0.67-0.26-0.37-0.3-0.42-0.78-0.05-0.48 0.25-0.85l2.43-3.01c0.23-0.29 0.59-0.45 0.96-0.43q0.38 0.02 0.67 0.25c0.5 0.41 0.58 1.14 0.18 1.64z"/>
	<path id="シェイプ 765 のコピー" class="s1" d="m59.61 46.05c-0.43-0.4-9.59-7.59-12.74-10.17-0.91-0.74-2.17-0.96-3.3-0.44-1.12 0.53-1.76 1.64-1.77 2.81-0.06 4.07-0.44 15.71-0.41 16.3 0.02 0.38 0.14 0.71 0.22 0.88 0.72 1.55 2.55 2.21 4.1 1.49q0.51-0.24 0.89-0.63l0.08-0.08q0.01-0.01 0.02-0.02l2.1-2.24 3.33 7.14 0.03 0.01c0.81 1.3 2.49 1.82 3.91 1.16 1.43-0.67 2.11-2.28 1.63-3.75l0.02-0.03-3.33-7.14 3.06-0.17q0.02 0 0.03 0l0.11-0.01h0.01q0.53-0.04 1.05-0.28c1.54-0.72 2.21-2.55 1.49-4.1-0.08-0.16-0.25-0.47-0.53-0.73z"/>
</svg>