<svg version="1.2" xmlns="http://www.w3.org/2000/svg" viewBox="0 0 14 19" width="14" height="19">
	<style>
		.s0 { fill: #81d8d0 } 
	</style>
	<path id="Forma 1" class="s0" d="m4.82 7.63c0.21 2.19 1.19 4.31 2.64 6.01l1.99-0.89c0.27-0.12 0.56-0.08 0.71 0.13q0.92 0.81 2.19 1.3c0.39 0.16 0.56 0.52 0.4 0.91l-0.86 2.24c-0.15 0.39-0.51 0.55-0.9 0.4-6.13-2.39-9.18-9.31-6.8-15.48 0.15-0.39 0.51-0.55 0.9-0.4l2.29 0.89c0.39 0.15 0.55 0.52 0.4 0.91q-0.46 1.18-0.52 2.52c-0.01 0.22-0.18 0.46-0.38 0.6z"/>
</svg>