<svg version="1.2" xmlns="http://www.w3.org/2000/svg" viewBox="0 0 59 66" width="59" height="66">
	<style>
		.s0 { fill: #ffffff } 
		.s1 { fill: #ffffff;stroke: #81d8d0;paint-order:stroke fill markers;stroke-linejoin: round;stroke-width: 6 } 
	</style>
	<path id="シェイプ 831 のコピー" class="s0" d="m50.67 24.67q-0.01 0-0.01 0c-5.61-13.66-2.47-21.48-2.43-21.58 0.27-0.62-0.02-1.33-0.63-1.6-0.62-0.26-1.34 0.02-1.6 0.64-0.15 0.34-3.47 8.39 2.04 22.51-10.89 6.72-25.96 6.72-37.35-0.02 5.5-14.1 2.18-22.15 2.03-22.49-0.26-0.62-0.98-0.9-1.6-0.64-0.61 0.27-0.9 0.99-0.63 1.6 0.03 0.08 3.23 7.8-2.43 21.58q-0.01 0.01-0.02 0.03 0 0 0 0c-6.69 16.32-5.23 23.84-2.81 36.3q0.21 1.08 0.43 2.22c0.11 0.58 0.62 0.98 1.19 0.98q0.11 0.01 0.23-0.02c0.66-0.12 1.09-0.76 0.97-1.42q-0.22-1.14-0.43-2.22c-1.67-8.59-2.87-14.75-1.07-23.28 2.24 0.44 7.89 2.05 14.55 7.62 2.46 2.06 3.87 5.09 3.87 8.31v9.8c0 0.67 0.55 1.21 1.22 1.21 0.67 0 1.22-0.54 1.22-1.21v-9.8q-0.01-2.27-0.73-4.35h5.36q-0.72 2.08-0.73 4.35v9.8c0 0.67 0.55 1.21 1.22 1.21 0.67 0 1.22-0.54 1.22-1.21v-9.8c0-3.22 1.41-6.25 3.87-8.31 6.66-5.57 12.31-7.18 14.55-7.62 1.8 8.53 0.6 14.69-1.07 23.28q-0.21 1.08-0.43 2.22c-0.12 0.66 0.31 1.3 0.97 1.42q0.12 0.03 0.23 0.02c0.57 0 1.08-0.4 1.19-0.98q0.22-1.14 0.43-2.22c2.42-12.46 3.89-19.99-2.82-36.32q0 0 0-0.01zm-14.61 18.34q-1.75 1.47-2.89 3.39h-7.62q-1.14-1.92-2.89-3.39c-6.99-5.85-12.92-7.61-15.54-8.13 0.63-2.42 1.5-5.05 2.66-7.97 5.99 3.46 12.92 5.19 19.79 5.19 6.85 0 13.64-1.72 19.38-5.17 1.15 2.92 2.02 5.54 2.65 7.95-2.62 0.52-8.55 2.28-15.54 8.13z"/>
	<path id="シェイプ 828 のコピー" class="s1" d="m30.27 24.29l-0.79-0.79-0.78 0.78c-0.22 0.22-5.2 5.22-5.2 9.27 0 3.28 2.69 5.95 5.98 5.95 3.3 0 5.99-2.67 5.99-5.95 0-4.05-4.98-9.05-5.2-9.26zm2.97 9.26c0 2.05-1.69 3.73-3.76 3.73-2.07 0-3.75-1.68-3.75-3.73 0-2.32 2.53-5.46 3.75-6.85 1.23 1.39 3.76 4.53 3.76 6.85z"/>
</svg>