<svg version="1.2" xmlns="http://www.w3.org/2000/svg" viewBox="0 0 41 39" width="41" height="39">
	<style>
		.s0 { fill: #fbfdfd } 
	</style>
	<path id="シェイプ 1093" class="s0" d="m6.79 38.49c-1.73 0-3.15-1.42-3.15-3.16v-15h-0.07q-0.05 0.01-0.1 0.01-0.67 0-1.21-0.34c-1.25-0.79-1.77-2.7-1.77-6.58q0-0.84 0.16-1.65 0.01-0.21 0.09-0.39 0.16-0.63 0.4-1.2l3.23-7.73c0.5-1.18 1.64-1.94 2.91-1.94h26.44c1.27 0 2.41 0.76 2.9 1.94l3.24 7.73q0.24 0.58 0.4 1.19 0.08 0.19 0.08 0.39 0.17 0.82 0.17 1.66c0 3.88-0.52 5.79-1.77 6.58q-0.54 0.34-1.22 0.34-0.04 0-0.08-0.01h-0.08v15c0 1.74-1.41 3.16-3.15 3.16zm17.38-13.94c0.93 0 1.68 0.76 1.68 1.68v10.37h8.36c0.69 0 1.26-0.57 1.26-1.27v-15.69l-0.04-0.02q-0.12-0.08-0.24-0.16c-0.51-0.35-0.85-0.57-1.65-0.57-0.8 0-1.13 0.22-1.65 0.57-0.59 0.4-1.32 0.9-2.7 0.9-1.38 0-2.12-0.5-2.71-0.9-0.51-0.35-0.84-0.57-1.64-0.57-0.8 0-1.13 0.22-1.65 0.57-0.59 0.4-1.32 0.9-2.69 0.9-1.38 0-2.11-0.5-2.7-0.9-0.51-0.35-0.85-0.57-1.65-0.57-0.79 0-1.13 0.22-1.64 0.57-0.59 0.4-1.33 0.9-2.71 0.9-1.37 0-2.11-0.5-2.7-0.9-0.51-0.35-0.85-0.57-1.65-0.57-0.8 0-1.13 0.22-1.64 0.57q-0.12 0.08-0.25 0.16l-0.03 0.02v15.69c0 0.7 0.56 1.27 1.26 1.27h8.35v-10.37c0-0.92 0.75-1.68 1.68-1.68zm-7.14 12.04h6.93v-10.15h-6.93zm7.81-19.6c1.37 0 2.11 0.5 2.7 0.9 0.51 0.35 0.85 0.58 1.64 0.58 0.8 0 1.14-0.23 1.65-0.58 0.59-0.4 1.33-0.9 2.71-0.9 1.37 0 2.11 0.5 2.7 0.9q0.3 0.21 0.58 0.36c0.16 0.07 0.46 0.2 0.69 0.2q0.13 0 0.22-0.05c0.33-0.21 0.88-1.13 0.88-4.98q0-0.32-0.03-0.64l-0.01-0.06h-36.16v0.06q-0.03 0.32-0.03 0.64c0 3.85 0.55 4.77 0.88 4.98q0.08 0.05 0.21 0.05c0.24 0 0.54-0.13 0.7-0.21q0.28-0.14 0.57-0.35c0.6-0.4 1.33-0.9 2.71-0.9 1.37 0 2.11 0.5 2.7 0.9 0.51 0.35 0.85 0.58 1.65 0.58 0.8 0 1.14-0.23 1.65-0.58 0.59-0.4 1.32-0.9 2.7-0.9 1.37 0 2.11 0.5 2.7 0.9 0.51 0.35 0.85 0.58 1.64 0.58 0.8 0 1.13-0.23 1.64-0.58 0.59-0.4 1.33-0.9 2.71-0.9zm-17.57-14.58c-0.51 0-0.96 0.3-1.16 0.77l-3.2 7.65h35.16l-3.2-7.65c-0.19-0.47-0.65-0.77-1.16-0.77z"/>
</svg>