<svg version="1.2" xmlns="http://www.w3.org/2000/svg" viewBox="0 0 34 33" width="34" height="33">
	<style>
		.s0 { fill: #06c755 } 
	</style>
	<g id="2">
		<path id="シェイプ 1090" class="s0" d="m26.84 13.37c0.46 0 0.82 0.37 0.82 0.82 0 0.45-0.36 0.82-0.82 0.82h-2.28v1.45h2.28c0.46 0 0.82 0.37 0.82 0.82 0 0.45-0.36 0.82-0.82 0.82h-3.09c-0.45 0-0.81-0.37-0.81-0.82v-6.19c0-0.45 0.36-0.82 0.81-0.82h3.1c0.45 0 0.81 0.37 0.81 0.82 0 0.46-0.36 0.82-0.82 0.82h-2.27v1.46zm-5 3.91c0 0.35-0.23 0.67-0.56 0.78q-0.13 0.04-0.26 0.04-0.42-0.01-0.66-0.32l-3.17-4.31v3.81c0 0.45-0.36 0.82-0.81 0.82-0.46 0-0.82-0.37-0.82-0.82v-6.18c0-0.35 0.23-0.67 0.56-0.78q0.13-0.04 0.25-0.04c0.25 0 0.49 0.13 0.64 0.33l3.19 4.32v-3.83c0-0.46 0.37-0.83 0.82-0.83 0.45 0 0.82 0.37 0.82 0.83zm-7.45 0c0 0.44-0.36 0.81-0.82 0.81-0.44 0-0.81-0.37-0.81-0.81v-6.19c0-0.45 0.37-0.82 0.82-0.82 0.45 0 0.82 0.37 0.82 0.82zm-3.2 0.82h-3.1c-0.45 0-0.82-0.37-0.82-0.82v-6.19c0-0.45 0.37-0.82 0.82-0.82 0.45 0 0.82 0.37 0.82 0.82v5.37h2.28c0.45 0 0.81 0.37 0.81 0.82 0 0.45-0.37 0.82-0.81 0.82zm21.65-4.15c0-6.97-6.99-12.64-15.56-12.64-8.58 0-15.57 5.67-15.57 12.64 0 6.24 5.54 11.47 13.02 12.47 0.5 0.11 1.19 0.33 1.37 0.76 0.16 0.39 0.1 1 0.05 1.41l-0.21 1.32c-0.06 0.39-0.32 1.54 1.36 0.84 1.67-0.7 8.97-5.29 12.24-9.06 2.23-2.44 3.3-4.96 3.3-7.74z"/>
	</g>
</svg>