<?xml version="1.0" encoding="UTF-8" standalone="no"?>
<!DOCTYPE svg PUBLIC "-//W3C//DTD SVG 1.1//EN" "http://www.w3.org/Graphics/SVG/1.1/DTD/svg11.dtd">
<svg width="20px" height="20px" version="1.1" xmlns="http://www.w3.org/2000/svg" xmlns:xlink="http://www.w3.org/1999/xlink" xml:space="preserve" xmlns:serif="http://www.serif.com/" style="fill-rule:evenodd;clip-rule:evenodd;stroke-linejoin:round;stroke-miterlimit:2;">
    <g transform="matrix(1,0,0,1,-2479.61,-29108.4)">
        <g transform="matrix(1,0,0,1,960.608,16327.4)">
            <path id="シェイプ-964" serif:id="シェイプ 964" d="M1524.86,12781.1C1525.93,12781 1526.27,12781 1528.98,12781C1531.69,12781 1532.04,12781 1533.1,12781.1C1534.17,12781.1 1534.89,12781.3 1535.53,12781.5C1536.19,12781.8 1536.75,12782.1 1537.3,12782.7C1537.86,12783.2 1538.2,12783.8 1538.46,12784.4C1538.71,12785.1 1538.88,12785.8 1538.93,12786.9C1538.98,12787.9 1538.99,12788.3 1539,12791C1539,12793.7 1538.99,12794 1538.94,12795.1C1538.9,12796.2 1538.73,12796.9 1538.48,12797.5C1538.23,12798.2 1537.89,12798.7 1537.33,12799.3C1536.78,12799.9 1536.22,12800.2 1535.57,12800.5C1534.93,12800.7 1534.2,12800.9 1533.14,12800.9C1532.07,12801 1531.73,12801 1529.02,12801C1526.31,12801 1525.96,12801 1524.9,12800.9C1523.83,12800.9 1523.11,12800.7 1522.47,12800.5C1521.81,12800.2 1521.26,12799.9 1520.7,12799.3C1520.14,12798.8 1519.8,12798.2 1519.54,12797.6C1519.29,12796.9 1519.12,12796.2 1519.07,12795.1C1519.02,12794.1 1519.01,12793.7 1519.01,12791C1519,12788.3 1519.01,12788 1519.06,12786.9C1519.1,12785.8 1519.27,12785.1 1519.52,12784.5C1519.77,12783.8 1520.11,12783.3 1520.67,12782.7C1521.22,12782.1 1521.78,12781.8 1522.43,12781.5C1523.07,12781.3 1523.8,12781.1 1524.86,12781.1ZM1524.98,12799.1C1526.03,12799.2 1526.35,12799.2 1529.02,12799.2C1531.68,12799.2 1532,12799.2 1533.06,12799.1C1534.03,12799.1 1534.56,12798.9 1534.91,12798.8C1535.38,12798.6 1535.71,12798.4 1536.06,12798C1536.41,12797.7 1536.62,12797.3 1536.8,12796.9C1536.94,12796.5 1537.1,12796 1537.14,12795C1537.19,12794 1537.2,12793.7 1537.19,12791C1537.19,12788.3 1537.18,12788 1537.13,12786.9C1537.08,12786 1536.92,12785.4 1536.78,12785.1C1536.6,12784.6 1536.38,12784.3 1536.03,12783.9C1535.68,12783.6 1535.35,12783.4 1534.88,12783.2C1534.53,12783.1 1534,12782.9 1533.02,12782.9C1531.97,12782.8 1531.65,12782.8 1528.98,12782.8C1526.32,12782.8 1526,12782.8 1524.95,12782.9C1523.97,12782.9 1523.44,12783.1 1523.09,12783.2C1522.62,12783.4 1522.29,12783.6 1521.94,12784C1521.59,12784.3 1521.38,12784.7 1521.2,12785.1C1521.06,12785.5 1520.9,12786 1520.86,12787C1520.81,12788 1520.8,12788.3 1520.81,12791C1520.81,12793.7 1520.82,12794 1520.87,12795.1C1520.92,12796 1521.08,12796.6 1521.22,12796.9C1521.4,12797.4 1521.62,12797.7 1521.97,12798.1C1522.32,12798.4 1522.65,12798.6 1523.12,12798.8C1523.47,12798.9 1524,12799.1 1524.98,12799.1ZM1533.13,12785.7C1533.12,12785 1533.66,12784.5 1534.32,12784.5C1534.99,12784.5 1535.52,12785 1535.53,12785.7C1535.53,12786.3 1534.99,12786.9 1534.33,12786.9C1533.66,12786.9 1533.13,12786.3 1533.13,12785.7ZM1523.87,12791C1523.86,12788.2 1526.16,12785.9 1528.99,12785.9C1531.83,12785.9 1534.13,12788.2 1534.13,12791C1534.14,12793.8 1531.84,12796.1 1529.01,12796.1C1526.17,12796.1 1523.87,12793.8 1523.87,12791ZM1525.67,12791C1525.67,12792.8 1527.17,12794.3 1529.01,12794.3C1530.85,12794.3 1532.34,12792.8 1532.33,12791C1532.33,12789.2 1530.83,12787.7 1528.99,12787.7C1527.15,12787.7 1525.66,12789.2 1525.67,12791Z" style="fill:rgb(79,79,79);"/>
        </g>
    </g>
</svg>
