<svg version="1.2" xmlns="http://www.w3.org/2000/svg" viewBox="0 0 33 33" width="33" height="33">
	<style>
		.s0 { fill: #ffffff } 
	</style>
	<path id="シェイプ 568" fill-rule="evenodd" class="s0" d="m31 16.91c0 8.28-6.72 15-15 15-8.28 0-15-6.72-15-15 0-8.29 6.72-15 15-15 8.28 0.01 14.99 6.72 15 15zm-1.67 0c0-7.37-5.97-13.34-13.33-13.34-7.36 0-13.33 5.97-13.33 13.34 0 7.36 5.97 13.33 13.33 13.33 7.36-0.01 13.32-5.97 13.33-13.33zm-17.48-4.57q0-0.01 0-0.01c0-2.29 1.86-4.15 4.16-4.15 2.29 0.01 4.14 1.86 4.14 4.16 0 2.29-1.86 4.15-4.15 4.14-2.29 0-4.14-1.85-4.15-4.14zm1.67 0.01c0.01 1.37 1.12 2.47 2.49 2.47 1.37 0 2.48-1.11 2.48-2.49 0-1.37-1.12-2.48-2.49-2.48-1.37 0.01-2.48 1.13-2.48 2.5zm10.23 11.02c0 0.46-0.37 0.83-0.83 0.83-0.46 0-0.84-0.37-0.84-0.83 0-2.17-1.75-3.92-3.91-3.92h-4.34c-2.16 0-3.91 1.75-3.91 3.92 0 0.46-0.38 0.83-0.84 0.83-0.46 0-0.83-0.37-0.83-0.83 0-3.09 2.5-5.58 5.58-5.59h4.34c3.08 0.01 5.58 2.5 5.58 5.59z"/>
</svg>