<svg version="1.2" xmlns="http://www.w3.org/2000/svg" viewBox="0 0 69 69" width="69" height="69">
	<style>
		.s0 { fill: #ffffff } 
	</style>
	<path id="シェイプ 823" fill-rule="evenodd" class="s0" d="m62 24.19c0 0.8-0.31 1.55-0.87 2.12l-34.82 34.82c-0.57 0.56-1.32 0.87-2.12 0.87-0.8 0-1.55-0.31-2.12-0.87l-19.2-19.2c-0.56-0.57-0.87-1.32-0.87-2.12 0-0.8 0.31-1.55 0.87-2.12l34.82-34.82c0.57-0.56 1.32-0.87 2.12-0.87 0.8 0 1.55 0.31 2.12 0.87l19.2 19.2c0.56 0.57 0.87 1.32 0.87 2.12zm-2.3 0q-0.01-0.28-0.21-0.48l-19.2-19.21c-0.26-0.26-0.7-0.26-0.97 0l-34.81 34.82q-0.2 0.21-0.21 0.49 0.01 0.28 0.21 0.48l19.2 19.2c0.26 0.26 0.71 0.26 0.97 0l34.81-34.81q0.2-0.21 0.21-0.49zm-18.51-11.93c1.68 1.68 1.68 4.41 0 6.09q0 0 0 0c-0.81 0.82-1.89 1.27-3.05 1.27-1.15 0-2.23-0.45-3.04-1.27-1.69-1.68-1.69-4.41 0-6.09 0.81-0.82 1.89-1.27 3.04-1.27 1.16 0 2.24 0.45 3.05 1.27zm-1.63 1.63c-0.38-0.38-0.88-0.59-1.42-0.59-0.53 0-1.03 0.21-1.41 0.59-0.78 0.78-0.78 2.05 0 2.83 0.38 0.38 0.88 0.59 1.41 0.59 0.54 0 1.04-0.21 1.42-0.59 0.78-0.78 0.78-2.05 0-2.83zm12.18 8.92c1.68 1.68 1.68 4.41 0 6.09-0.84 0.84-1.94 1.26-3.05 1.26-1.1 0-2.2-0.42-3.05-1.26-1.68-1.68-1.68-4.41 0-6.09q0 0 0 0c1.69-1.68 4.42-1.68 6.1 0zm-1.63 1.63c-0.78-0.78-2.05-0.78-2.83 0-0.78 0.78-0.78 2.05 0 2.83 0.78 0.78 2.05 0.78 2.83 0 0.78-0.78 0.78-2.05 0-2.83zm-20.34-0.76c1.69 1.68 1.69 4.41 0 6.09q0 0 0 0c-0.81 0.82-1.89 1.27-3.04 1.27-1.16 0-2.24-0.45-3.05-1.27-1.68-1.68-1.68-4.41 0-6.09 1.68-1.68 4.41-1.68 6.09 0zm-1.63 1.63c-0.39-0.39-0.9-0.59-1.41-0.59-0.52 0-1.03 0.2-1.42 0.59-0.78 0.78-0.78 2.05 0 2.83 0.38 0.38 0.88 0.59 1.42 0.59 0.53 0 1.03-0.21 1.41-0.59 0.78-0.78 0.78-2.05 0-2.83zm12.18 8.92c0.82 0.81 1.27 1.89 1.27 3.04 0 1.16-0.45 2.24-1.27 3.05-0.84 0.84-1.94 1.26-3.05 1.26-1.1 0-2.2-0.42-3.04-1.26-1.69-1.68-1.69-4.41 0-6.09q0 0 0 0c1.68-1.69 4.41-1.69 6.09 0zm-1.04 3.04c0-0.53-0.21-1.03-0.59-1.41-0.78-0.78-2.05-0.78-2.83 0-0.78 0.78-0.78 2.05 0 2.83 0.78 0.78 2.05 0.78 2.83 0 0.38-0.38 0.59-0.88 0.59-1.42zm-20.92-2.17c1.68 1.68 1.68 4.41 0 6.09-0.85 0.84-1.95 1.26-3.05 1.26-1.11 0-2.21-0.42-3.05-1.26-1.68-1.68-1.68-4.41 0-6.09 1.68-1.68 4.41-1.68 6.1 0zm-1.64 1.63c-0.39-0.39-0.9-0.59-1.41-0.59-0.52 0-1.03 0.2-1.42 0.59-0.78 0.78-0.78 2.05 0 2.83 0.78 0.78 2.05 0.78 2.83 0 0.78-0.78 0.78-2.05 0-2.83zm12.18 8.92c0.82 0.81 1.27 1.89 1.27 3.04 0 1.16-0.45 2.24-1.27 3.05-0.81 0.82-1.89 1.27-3.04 1.27-1.16 0-2.24-0.45-3.05-1.27-0.82-0.81-1.27-1.89-1.27-3.05 0-1.15 0.45-2.23 1.27-3.04q0-0.01 0 0c0.81-0.82 1.89-1.27 3.05-1.27 1.15 0 2.23 0.45 3.04 1.27zm-1.04 3.04c0-0.53-0.21-1.03-0.59-1.41-0.38-0.38-0.88-0.59-1.41-0.59-0.54 0-1.04 0.21-1.42 0.59q0 0 0 0c-0.38 0.38-0.59 0.88-0.59 1.41 0 0.54 0.21 1.04 0.59 1.42 0.38 0.38 0.88 0.59 1.42 0.59 0.53 0 1.03-0.21 1.41-0.59 0.38-0.38 0.59-0.88 0.59-1.42z"/>
	<path id="シェイプ 824" class="s0" d="m65.4 46.97c-2.39-2.38-6.27-2.38-8.66 0l-9.77 9.77c-2.38 2.39-2.38 6.27 0 8.66 1.19 1.19 2.76 1.79 4.33 1.79 1.56 0 3.13-0.6 4.32-1.79l9.78-9.77c1.15-1.16 1.79-2.7 1.79-4.33 0-1.64-0.64-3.17-1.79-4.33zm-11.28 16.92c-1.56 1.55-4.09 1.55-5.64 0-1.55-1.55-1.55-4.08 0-5.64l4.13-4.13 5.64 5.64zm9.77-9.78l-4.13 4.14-5.64-5.64 4.13-4.13c1.56-1.56 4.09-1.56 5.64 0 0.75 0.75 1.17 1.75 1.17 2.82 0 1.06-0.42 2.06-1.17 2.81z"/>
</svg>