<svg version="1.2" xmlns="http://www.w3.org/2000/svg" viewBox="0 0 62 68" width="62" height="68">
	<style>
		.s0 { fill: #81d8d0 } 
		.s1 { fill: #4f4f4f } 
	</style>
	<g id="グループ 63">
		<path id="シェイプ 762" fill-rule="evenodd" class="s0" d="m42.11 27.33h3.85l1.89 2.84c0.21 0.31 0.56 0.5 0.93 0.5h6.66c1.41 0 2.66 0.89 3.13 2.22h-19.79c0-1.23 0.99-2.22 2.22-2.22 0.61 0 1.11-0.5 1.11-1.11zm-4.17 30h-36.94v-35.56h42.22v3.33h-2.22c-0.61 0-1.11 0.5-1.11 1.11v2.37c-1.96 0.51-3.33 2.28-3.33 4.3h-1.12c-0.61 0-1.11 0.5-1.11 1.11v6.67c0 0.61 0.5 1.11 1.11 1.11h1.2zm-7.15-18.8q0.21-0.29 0.21-0.64c0-0.62-0.49-1.12-1.11-1.12h-5.55v-9.44c0-0.39-0.2-0.74-0.53-0.95-0.53-0.32-1.21-0.16-1.53 0.37l-8.89 14.44q-0.16 0.27-0.16 0.58c0 0.62 0.49 1.12 1.11 1.12h4.44v8.88c0 0.49 0.31 0.91 0.77 1.06q0.17 0.06 0.34 0.06c0.36 0 0.7-0.18 0.9-0.47l10-13.89zm8.09 3.24h19.81l-0.56 6.67h-7.13v2.22h6.95l-0.19 2.23h-4.53v2.22h4.35l-0.19 2.22h-6.39v2.22h6.2l-0.18 2.22h-3.79v2.23h3.6c-0.16 1.26-1.22 2.21-2.49 2.22h-11.11c-1.31-0.01-2.39-1.01-2.51-2.3z"/>
		<path id="シェイプ 762 のコピー 3" class="s1" d="m6.56 1.78h31.11v4.44h-31.11z"/>
		<path id="シェイプ 762 のコピー 2" class="s0" d="m35.44 12.89c-0.61 0-1.11-0.5-1.11-1.11v-3.34h-24.44v3.34c0 0.61-0.5 1.11-1.11 1.11-3.86 0.01-7.14 2.84-7.69 6.67h42.04c-0.55-3.83-3.82-6.66-7.69-6.67zm2.69 46.67h-37.04c0.55 3.82 3.83 6.66 7.69 6.66h26.66c1.18 0 2.34-0.27 3.4-0.78q-0.27-0.65-0.34-1.34z"/>
		<path id="シェイプ 762 のコピー" class="s1" d="m22.11 37.89v-6.63l-5.79 9.41h3.57c0.61 0 1.11 0.49 1.11 1.11v6.55l6.72-9.33h-4.5c-0.61 0-1.11-0.5-1.11-1.11zm14.45-2.78h24.44v4.45h-24.44z"/>
	</g>
</svg>