<svg version="1.2" xmlns="http://www.w3.org/2000/svg" viewBox="0 0 45 64" width="45" height="64">
	<style>
		.s0 { fill: #ffffff } 
	</style>
	<path id="シェイプ 532" fill-rule="evenodd" class="s0" d="m2.86 56.9q-0.05 0-0.11-0.01-0.35-0.04-0.58-0.32-0.21-0.28-0.17-0.63l1.52-11.96q0.27-2.13 0.12-4.28l-0.89-12.38c-0.35-2.72 0.46-5.46 2.17-7.31 1.46-1.58 3.49-2.43 5.72-2.38h0.55c1.46 0.03 2.86-0.38 4.07-1.19l1.34-0.89c0.51-0.34 0.81-0.9 0.81-1.5v-0.57c-2.24-1.59-3.57-4.14-3.57-6.85v-3.78c0-0.47 0.39-0.85 0.86-0.85 0.48 0 0.87 0.38 0.87 0.85v3.78c0 1.72 0.67 3.35 1.84 4.6v-0.86c0-0.46 0.39-0.84 0.87-0.84 0.48 0 0.87 0.38 0.87 0.84v3.68c0 1.16-0.59 2.24-1.57 2.9l-1.34 0.89c-1.49 1-3.25 1.51-5.08 1.49l-0.55-0.01c-1.74-0.04-3.26 0.59-4.4 1.82-1.38 1.5-2.02 3.75-1.73 6.02l0.89 12.42q0.17 2.31-0.13 4.61l-1.52 11.96c-0.05 0.43-0.42 0.75-0.86 0.75zm5.68 5.1c-0.48 0-0.87-0.39-0.87-0.85 0-6.07 1.23-9.74 2.23-12.7 0.62-1.86 1.12-3.33 1.12-4.88 0-1.71-0.47-3.35-1.01-5.26-0.75-2.64-1.69-5.92-1.86-10.87q-0.01-0.35 0.24-0.61 0.24-0.26 0.6-0.27c0.48-0.02 0.88 0.35 0.9 0.82 0.16 4.75 1.06 7.92 1.79 10.48 0.58 2.02 1.07 3.77 1.07 5.71 0 1.83-0.56 3.49-1.2 5.41-0.96 2.84-2.15 6.37-2.15 12.17 0 0.46-0.39 0.85-0.86 0.85zm33.6-5.1c-0.44 0-0.81-0.32-0.86-0.75l-1.52-11.92q-0.3-2.34-0.13-4.68l0.89-12.34c0.29-2.31-0.35-4.57-1.73-6.07-1.13-1.22-2.65-1.85-4.4-1.82l-0.55 0.01c-1.83 0.02-3.58-0.49-5.08-1.49l-1.34-0.89c-0.98-0.66-1.57-1.74-1.57-2.9v-3.68c0-0.46 0.39-0.84 0.87-0.84 0.48 0 0.87 0.38 0.87 0.84v0.86c1.18-1.24 1.84-2.88 1.84-4.6v-3.78c0-0.47 0.39-0.85 0.87-0.85 0.48 0 0.87 0.38 0.87 0.85v3.78c0 2.71-1.34 5.26-3.58 6.86v0.56c0 0.6 0.3 1.16 0.81 1.5l1.34 0.89c1.2 0.8 2.6 1.21 4.07 1.19l0.55-0.01c2.22-0.04 4.26 0.8 5.72 2.39 1.71 1.85 2.52 4.6 2.16 7.36l-0.88 12.3q-0.15 2.18 0.12 4.35l1.52 11.92q0.04 0.35-0.17 0.63-0.23 0.27-0.58 0.32-0.05 0.01-0.11 0.01zm-5.68 5.1c-0.47 0-0.86-0.39-0.86-0.85 0-5.8-1.19-9.33-2.15-12.17-0.64-1.92-1.2-3.58-1.2-5.41 0-1.94 0.49-3.69 1.07-5.71 0.73-2.55 1.63-5.73 1.79-10.48 0.02-0.47 0.43-0.84 0.9-0.82q0.36 0.01 0.6 0.27 0.25 0.26 0.24 0.61c-0.17 4.95-1.11 8.23-1.86 10.87-0.54 1.91-1.01 3.55-1.01 5.26 0 1.55 0.5 3.02 1.12 4.88 1 2.96 2.23 6.63 2.23 12.7 0 0.46-0.39 0.85-0.87 0.85zm-23.81-26.93c-0.35 0-0.66-0.21-0.8-0.53-0.18-0.43 0.03-0.93 0.47-1.11l1.78-0.71c1.39-0.56 2.29-1.87 2.29-3.34v-4.53c0-0.47 0.39-0.85 0.87-0.85 0.47 0 0.86 0.38 0.86 0.85v4.53c0 2.16-1.32 4.09-3.36 4.91l-1.78 0.71q-0.16 0.07-0.33 0.07zm19.65 0q-0.17 0-0.33-0.07l-1.78-0.71c-2.04-0.82-3.36-2.75-3.36-4.91v-4.53c0-0.47 0.38-0.85 0.86-0.85 0.48 0 0.87 0.38 0.87 0.85v4.53c0 1.47 0.9 2.78 2.29 3.34l1.78 0.71c0.44 0.18 0.65 0.68 0.47 1.11-0.14 0.32-0.45 0.53-0.8 0.53z"/>
	<path id="線 537" fill-rule="evenodd" class="s0" d="m22 2h1v60h-1z"/>
	<path id="楕円形 532" fill-rule="evenodd" class="s0" d="m22.5 10.5c1.38 0 2.5 1.12 2.5 2.5 0 1.38-1.12 2.5-2.5 2.5-1.38 0-2.5-1.12-2.5-2.5 0-1.38 1.12-2.5 2.5-2.5z"/>
	<path id="楕円形 532 のコピー" fill-rule="evenodd" class="s0" d="m22.5 22c1.38 0 2.5 1.12 2.5 2.5 0 1.38-1.12 2.5-2.5 2.5-1.38 0-2.5-1.12-2.5-2.5 0-1.38 1.12-2.5 2.5-2.5z"/>
	<path id="楕円形 532 のコピー 2" fill-rule="evenodd" class="s0" d="m22.5 34.5c1.38 0 2.5 1.12 2.5 2.5 0 1.38-1.12 2.5-2.5 2.5-1.38 0-2.5-1.12-2.5-2.5 0-1.38 1.12-2.5 2.5-2.5z"/>
	<path id="楕円形 532 のコピー 3" fill-rule="evenodd" class="s0" d="m22.5 46c1.38 0 2.5 1.12 2.5 2.5 0 1.38-1.12 2.5-2.5 2.5-1.38 0-2.5-1.12-2.5-2.5 0-1.38 1.12-2.5 2.5-2.5z"/>
	<path id="楕円形 532 のコピー 4" fill-rule="evenodd" class="s0" d="m22.5 57.5c1.38 0 2.5 1.12 2.5 2.5 0 1.38-1.12 2.5-2.5 2.5-1.38 0-2.5-1.12-2.5-2.5 0-1.38 1.12-2.5 2.5-2.5z"/>
</svg>