<svg version="1.2" xmlns="http://www.w3.org/2000/svg" viewBox="0 0 52 32" width="52" height="32">
	<style>
		.s0 { fill: #fdfefe } 
	</style>
	<path id="シェイプ 550" fill-rule="evenodd" class="s0" d="m51 2.67v26.66c0 0.5-0.33 0.84-0.83 0.84h-48.34c-0.5 0-0.83-0.34-0.83-0.84v-26.66c0-0.5 0.33-0.84 0.83-0.84h48.34c0.5 0 0.83 0.34 0.83 0.84zm-1.67 0.83h-46.66v25h46.66zm-45 16.67v-8.34c0-0.5 0.34-0.83 0.84-0.83 2.75 0 5-2.25 5-5 0-0.5 0.33-0.83 0.83-0.83h30c0.5 0 0.83 0.33 0.83 0.83 0 2.75 2.25 5 5 5 0.5 0 0.84 0.33 0.84 0.83v8.34c0 0.5-0.34 0.83-0.84 0.83-2.75 0-5 2.25-5 5 0 0.5-0.33 0.83-0.83 0.83h-30c-0.5 0-0.83-0.33-0.83-0.83 0-2.75-2.25-5-5-5-0.5 0-0.84-0.33-0.84-0.83zm1.67-0.84c3 0.34 5.33 2.75 5.75 5.75h28.42c0.33-3 2.75-5.33 5.75-5.75v-6.75c-3-0.33-5.34-2.75-5.75-5.75h-28.42c-0.33 3-2.75 5.34-5.75 5.75zm12.5-3.33c0-4.17 3.33-7.5 7.5-7.5 4.17 0 7.5 3.33 7.5 7.5 0 4.17-3.33 7.5-7.5 7.5-4.17 0-7.5-3.33-7.5-7.5zm1.67 0c0 3.25 2.58 5.83 5.83 5.83 3.25 0 5.83-2.58 5.83-5.83 0-3.25-2.58-5.83-5.83-5.83-3.25 0-5.83 2.58-5.83 5.83zm15-0.83h3.33v1.66h-3.33zm-21.67 0h3.33v1.67h-3.33z"/>
</svg>