<svg version="1.2" xmlns="http://www.w3.org/2000/svg" viewBox="0 0 53 52" width="53" height="52">
	<style>
		.s0 { fill: #ffffff } 
	</style>
	<path id="シェイプ 548" class="s0" d="m20.08 17.18q4.73 0 9.46 0c1.09 0 1.09-1.7 0-1.7q-4.73 0-9.46 0c-1.1 0-1.1 1.7 0 1.7zm-9.74 0.01q1.04 0.91 2.07 1.81c0.33 0.29 0.88 0.36 1.2 0q1.81-2.07 3.62-4.14c0.71-0.82-0.48-2.02-1.2-1.2q-1.81 2.07-3.62 4.14 0.6 0 1.2 0-1.04-0.9-2.07-1.8c-0.82-0.72-2.02 0.48-1.2 1.19zm9.74 10.37q4.73 0 9.46 0c1.09 0 1.09-1.69 0-1.69q-4.73 0-9.46 0c-1.1 0-1.1 1.69 0 1.69zm-9.74 0.01q1.04 0.91 2.07 1.81c0.33 0.28 0.88 0.36 1.2 0q1.81-2.07 3.62-4.14c0.71-0.82-0.48-2.02-1.2-1.2q-1.81 2.07-3.62 4.14 0.6 0 1.2 0-1.04-0.9-2.07-1.8c-0.82-0.72-2.02 0.48-1.2 1.19zm9.74 10.37q4.73 0 9.46 0c1.09 0 1.09-1.7 0-1.7q-4.73 0-9.46 0c-1.1 0-1.1 1.7 0 1.7zm-9.74 0.01q1.04 0.91 2.07 1.81c0.33 0.28 0.88 0.36 1.2 0q1.81-2.07 3.62-4.14c0.71-0.82-0.48-2.02-1.2-1.2q-1.81 2.07-3.62 4.14 0.6 0 1.2 0-1.04-0.9-2.07-1.8c-0.82-0.72-2.02 0.47-1.2 1.19zm-0.29-34.24q-1.7 0-3.4 0c-1.12 0-2.62-0.23-3.64 0.34-1.61 0.9-1.45 2.57-1.45 4.12q0 7.59 0 15.18 0 9.02 0 18.05 0 2.47 0 4.94c0 0.43-0.02 0.87 0.09 1.29 0.37 1.4 1.62 2.07 2.98 2.08 5.05 0.05 10.1 0 15.14 0q6.66 0 13.32 0c2.07 0 5.18 0.5 5.76-2.2 0.22-1.01 0.07-2.18 0.07-3.19q0-8.1 0-16.2 0-8.68 0-17.37c0-1.35 0.02-2.71 0-4.07-0.02-1.13-0.51-2.15-1.56-2.68-1.03-0.51-2.51-0.29-3.62-0.29q-1.66 0-3.31 0c-1.09 0-1.1 1.69 0 1.69q1.61 0 3.22 0c0.82 0 2.72-0.35 3.33 0.41 0.53 0.65 0.25 2.25 0.25 3.01q0 7.59 0 15.18 0 8.56 0 17.12 0 2.5 0 5c0 0.26 0.02 0.54 0 0.8-0.11 1.08-0.97 1.1-1.8 1.1q-13.75 0-27.5 0-1.48 0-2.96 0c-0.82 0-1.62-0.07-1.72-1.11-0.09-0.95 0-1.95 0-2.9q0-7.85 0-15.7 0-8.41 0-16.81 0-2.25 0-4.51c0-0.49-0.03-0.99 0.41-1.35 0.36-0.29 0.83-0.24 1.26-0.24q1.05 0 2.1 0 1.52 0 3.03 0c1.09 0 1.09-1.69 0-1.69zm19.28 4.47q2.98 0 5.96 0-0.42-0.43-0.84-0.85 0 6.55 0 13.11 0 10.44 0 20.87 0 2.39 0 4.78 0.42-0.42 0.84-0.85-13.17 0-26.35 0-1.88 0-3.76 0 0.43 0.43 0.85 0.85 0-6.55 0-13.1 0-10.44 0-20.88 0-2.39 0-4.78-0.42 0.42-0.85 0.85 2.99 0 5.97 0c1.09 0 1.1-1.7 0-1.7q-2.98 0-5.97 0c-0.45 0-0.84 0.39-0.84 0.85q0 6.55 0 13.11 0 10.44 0 20.87 0 2.39 0 4.78c0 0.46 0.39 0.85 0.84 0.85q13.18 0 26.36 0 1.88 0 3.75 0c0.46 0 0.85-0.39 0.85-0.85q0-6.55 0-13.1 0-10.44 0-20.88 0-2.39 0-4.78c0-0.46-0.39-0.85-0.85-0.85q-2.98 0-5.96 0c-1.09 0-1.1 1.7 0 1.7zm-4.73-2.01q-2.78 0-5.56 0c-1.94 0-4.98 0.53-5.72-1.89-0.17-0.56-0.24-1.17 0.46-1.31 0.19-0.04 0.44 0 0.63 0q1.37 0 2.75 0 3.63 0 7.27 0c0.71 0 1.54-0.11 2.24 0 0.81 0.13 0.65 0.97 0.39 1.58-0.43 1-1.4 1.58-2.46 1.62-1.09 0.04-1.1 1.73 0 1.69 2.14-0.08 4-1.56 4.32-3.74 0.23-1.6-0.73-2.8-2.36-2.84-2.51-0.06-5.03 0-7.54 0q-1.99 0-3.98 0c-0.79 0-1.72-0.12-2.44 0.3-1.99 1.16-0.94 4.06 0.47 5.24 1.04 0.88 2.25 1.04 3.55 1.04q3.99 0 7.98 0c1.09 0 1.09-1.69 0-1.69zm18.48 40.06c0 0.9 1.1 1.48 1.89 1.39 1.24-0.15 1.56-1.38 1.89-2.39 0.89-2.64 1.29-5.44 1.3-8.22q0.01-2.26 0-4.53 0-9.18 0-18.37c0-1.49 0.35-3.72-0.47-5.06-0.83-1.35-2.68-1.44-4.1-1.2-1.51 0.25-2.2 1.7-2.22 3.09-0.08 5.12 0 10.25 0 15.37q0 4.22 0 8.44c0 2.5 0.02 4.96 0.49 7.43q0.43 2.19 1.25 4.27c0.4 1 2.04 0.57 1.64-0.45-2.03-5.14-1.69-10.56-1.69-15.96q0-8.34 0-16.68c0-0.98-0.42-3.68 0.97-3.85 0.45-0.06 1.12-0.09 1.56 0 0.67 0.12 0.86 0.72 0.88 1.33q0.01 0.73 0 1.46 0 8.01 0 16.01 0 3.8 0 7.6 0 0.73 0 1.45-0.03 2.46-0.54 4.87-0.24 1.13-0.6 2.24c-0.18 0.58-0.55 1.21-0.55 1.76 0-1.09-1.7-1.1-1.7 0zm4.23-31.91c0.55 0 1.3-0.14 1.82 0.04 0.73 0.26 0.52 0.99 0.46 1.56-0.17 1.59-0.5 3.64 0.12 5.16 0.41 1 2.05 0.56 1.64-0.45-0.68-1.66-0.04-3.72 0.02-5.44 0.04-1.07-0.66-2.07-1.68-2.42-0.74-0.25-1.61-0.14-2.38-0.14-1.09 0-1.09 1.69 0 1.69zm-3.39 32.56q0 0.99 0 1.99c0 1.09 1.69 1.09 1.69 0q0-1 0-1.99c0-1.09-1.69-1.09-1.69 0zm-1.71-32.56q2.55 0 5.1 0c1.1 0 1.1-1.69 0-1.69q-2.55 0-5.1 0c-1.09 0-1.09 1.69 0 1.69z"/>
</svg>