<svg version="1.2" xmlns="http://www.w3.org/2000/svg" viewBox="0 0 41 28" width="41" height="28">
	<style>
		.s0 { fill: #fbfefe } 
	</style>
	<path id="シェイプ 1093" class="s0" d="m40.49 1.81q0-0.01 0-0.02-0.01-0.04-0.01-0.07-0.01-0.02-0.01-0.03 0-0.03-0.01-0.05-0.01-0.02-0.01-0.04-0.01-0.02-0.01-0.03-0.01-0.03-0.02-0.06-0.01-0.01-0.01-0.02-0.02-0.03-0.04-0.07 0-0.01-0.01-0.02-0.02-0.03-0.04-0.06 0 0 0 0-0.01-0.01-0.02-0.03-0.01-0.02-0.03-0.04-0.02-0.02-0.04-0.04-0.01-0.02-0.03-0.03-0.02-0.02-0.04-0.04-0.01-0.01-0.03-0.02-0.02-0.02-0.04-0.04-0.02-0.01-0.03-0.02-0.02-0.01-0.05-0.03-0.02-0.01-0.04-0.02-0.02-0.01-0.04-0.02-0.02-0.01-0.04-0.02-0.02-0.01-0.04-0.01-0.02-0.01-0.05-0.02-0.02 0-0.04-0.01-0.02-0.01-0.05-0.01-0.02 0-0.05-0.01-0.02 0-0.04 0-0.03-0.01-0.06-0.01-0.02 0-0.03 0h-0.02q0 0 0 0h-38.04q0 0 0 0-0.03 0-0.06 0-0.02 0.01-0.04 0.01-0.02 0-0.04 0-0.16 0.03-0.31 0.1 0 0-0.01 0.01-0.01 0.01-0.03 0.02-0.12 0.07-0.22 0.18-0.02 0.02-0.03 0.04-0.01 0.01-0.02 0.02-0.02 0.03-0.04 0.05 0 0.01-0.01 0.01 0 0.01-0.01 0.02-0.02 0.03-0.03 0.06-0.01 0.01-0.02 0.03-0.01 0.03-0.02 0.05-0.01 0.02-0.02 0.04 0 0.03-0.01 0.05-0.01 0.03-0.01 0.05-0.01 0.02-0.01 0.04-0.01 0.03-0.01 0.06-0.01 0.02-0.01 0.04 0 0.03 0 0.06 0 0.01 0 0.03v0.01q0 0 0 0v24.21c0 0.54 0.43 0.97 0.96 0.97h38.06c0.53 0 0.96-0.43 0.96-0.97v-24.22q0-0.01 0-0.01 0-0.03 0-0.07zm-4.05 1.04l-15.39 10.69-16.34-10.69zm-34 22.3v-21.48l18.1 11.84q0.25 0.16 0.53 0.16 0.3 0 0.55-0.17l16.94-11.77v21.42z"/>
</svg>