<svg version="1.2" xmlns="http://www.w3.org/2000/svg" viewBox="0 0 26 34" width="26" height="34">
	<style>
		.s0 { fill: #fdfefe } 
	</style>
	<path id="シェイプ 771" class="s0" d="m13.34 10.77c2.51 0 4.55-2.03 4.55-4.54 0-2.51-2.04-4.55-4.55-4.55-2.51 0-4.54 2.04-4.54 4.55 0 2.51 2.03 4.54 4.54 4.54zm-4.4 11.5c0 0-2.82 2.81-2.82 2.82-0.91 0.9-0.67 2.49 0.17 3.36l2.57 2.72c1.52 1.52 3.95-0.99 2.49-2.46l-1.53-1.53 2.01-2.01zm8.78 0l-2.9 2.89 2.16 2.15-1.53 1.53c-1.47 1.47 0.83 3.85 2.35 2.33l2.56-2.73c0.85-0.86 1.08-2.45 0.18-3.36-0.01 0-2.82-2.81-2.82-2.81zm5.51-3.34l-5.63-5.64c-0.46-0.46-0.99-0.73-1.78-0.73h-5c-0.78 0-1.28 0.28-1.73 0.73l-5.57 5.58c-1.53 1.53 0.54 3.48 2.06 1.96l3.36-3.39v3.18h8.78v-3.2l3.46 3.46c1.39 1.47 3.5-0.5 2.05-1.95z"/>
</svg>