<svg version="1.2" xmlns="http://www.w3.org/2000/svg" viewBox="0 0 41 41" width="41" height="41">
	<style>
		.s0 { fill: #81d8d0 } 
		.s1 { fill: #ffffff } 
	</style>
	<g id="q">
		<path id="楕円形 518" fill-rule="evenodd" class="s0" d="m20 0.81c11.05 0 20 8.96 20 20.01 0 11.05-8.95 20.01-20 20.01-11.04 0-20-8.96-20-20.01 0-11.05 8.96-20.01 20-20.01z"/>
		<path id="Q" class="s1" aria-label="Q"  d="m19 13q-2.6 0-4.1 2-1.5 1.9-1.5 5.2 0 3.3 1.5 5.2 1.5 2 4.1 2 2.6 0 4.1-2 1.5-1.9 1.5-5.2 0-3.3-1.5-5.2-1.5-2-4.1-2zm3.3 15.6l3.1 3.4h-2.8l-2.6-2.8q-0.4 0.1-0.6 0.1-0.2 0-0.4 0-3.7 0-5.9-2.5-2.2-2.5-2.2-6.6 0-4.1 2.2-6.6 2.2-2.5 5.9-2.5 3.7 0 5.9 2.5 2.2 2.5 2.2 6.6 0 3.1-1.3 5.2-1.2 2.2-3.5 3.2z"/>
	</g>
</svg>