<?xml version="1.0" encoding="UTF-8" standalone="no"?>
<!DOCTYPE svg PUBLIC "-//W3C//DTD SVG 1.1//EN" "http://www.w3.org/Graphics/SVG/1.1/DTD/svg11.dtd">
<svg width="20px" height="15px" version="1.1" xmlns="http://www.w3.org/2000/svg" xmlns:xlink="http://www.w3.org/1999/xlink" xml:space="preserve" xmlns:serif="http://www.serif.com/" style="fill-rule:evenodd;clip-rule:evenodd;stroke-linejoin:round;stroke-miterlimit:2;">
    <g transform="matrix(1,0,0,1,-2479.58,-29076.4)">
        <g transform="matrix(1,0,0,1,960.608,16327.4)">
            <path id="シェイプ-952" serif:id="シェイプ 952" d="M1538.54,12751.2C1538.31,12750.3 1537.64,12749.6 1536.78,12749.4C1535.22,12749 1528.97,12749 1528.97,12749C1528.97,12749 1522.71,12749 1521.16,12749.4C1520.3,12749.6 1519.62,12750.3 1519.39,12751.2C1518.97,12752.8 1518.97,12756 1518.97,12756C1518.97,12756 1518.97,12759.3 1519.39,12760.8C1519.62,12761.7 1520.3,12762.4 1521.16,12762.6C1522.71,12763 1528.97,12763 1528.97,12763C1528.97,12763 1535.22,12763 1536.78,12762.6C1537.64,12762.4 1538.31,12761.7 1538.54,12760.8C1538.96,12759.3 1538.96,12756 1538.96,12756C1538.96,12756 1538.96,12752.8 1538.54,12751.2ZM1532.16,12756L1526.97,12759L1526.97,12753L1532.16,12756L1532.16,12756L1532.16,12756Z" style="fill:rgb(79,79,79);fill-rule:nonzero;"/>
        </g>
    </g>
</svg>
