<svg version="1.2" xmlns="http://www.w3.org/2000/svg" viewBox="0 0 26 27" width="26" height="27">
	<style>
		.s0 { fill: #fdfefe } 
	</style>
	<path id="シェイプ 748" fill-rule="evenodd" class="s0" d="m8.63 25.84q-0.35 0-0.67-0.18c-0.85-0.48-1.42-1.76-1.67-2.8-0.21-0.9-0.29-1.81-0.38-2.77-0.12-1.31-0.25-2.65-0.72-3.95-0.36-0.97-0.87-1.86-1.37-2.71-0.42-0.73-0.81-1.41-1.12-2.15-1.14-2.68-0.84-5.32 0.82-7.27 0.92-1.07 2.15-1.8 3.47-2.05q0.55-0.11 1.14-0.11c1.69 0 3.27 0.69 4.3 1.26 0.35 0.2 0.8 0.2 1.15 0 1.34-0.75 3.36-1.56 5.44-1.15 1.32 0.25 2.55 0.98 3.47 2.05 1.66 1.95 1.96 4.59 0.82 7.27-0.31 0.74-0.71 1.42-1.13 2.15-0.49 0.85-1 1.74-1.36 2.71-0.48 1.3-0.6 2.64-0.72 3.95-0.09 0.96-0.17 1.87-0.39 2.77-0.25 1.04-0.82 2.32-1.67 2.8q-0.53 0.3-1.17 0.09c-0.72-0.23-1.04-0.94-1.34-2.09-0.25-0.97-0.4-1.95-0.56-2.99q-0.06-0.43-0.13-0.86-0.01-0.09-0.03-0.18v-0.01c-0.11-0.76-0.27-1.79-0.87-2.43-0.24-0.26-0.58-0.41-0.94-0.41-0.35 0-0.69 0.15-0.93 0.4-0.6 0.65-0.76 1.68-0.87 2.44q-0.02 0.1-0.03 0.19-0.07 0.43-0.13 0.86c-0.16 1.04-0.31 2.02-0.56 2.99-0.31 1.15-0.62 1.86-1.34 2.09q-0.26 0.09-0.51 0.09zm15.15-14.09v-0.54z"/>
</svg>