<svg version="1.2" xmlns="http://www.w3.org/2000/svg" viewBox="0 0 95 63" width="95" height="63">
	<style>
		.s0 { fill: #81d8d0 } 
		.s1 { fill: #ffffff } 
	</style>
	<g id="グループ 63">
		<path id="シェイプ 920" fill-rule="evenodd" class="s0" d="m75.17 58.43c-0.29 0-0.57-0.1-0.79-0.32l-7.56-7.56c-0.43-0.44-0.43-1.15 0-1.58l6.07-6.07-20.26-20.27-6.06 6.07c-0.44 0.43-1.15 0.43-1.58 0l-7.56-7.56q-0.32-0.34-0.32-0.8 0-0.45 0.32-0.78l17.43-17.44c0.43-0.44 1.14-0.44 1.57 0l7.56 7.56c0.44 0.44 0.44 1.14 0 1.58l-6.06 6.07 20.25 20.27 6.07-6.07q0.33-0.32 0.79-0.33 0.46 0.01 0.79 0.33l7.55 7.56q0.32 0.33 0.33 0.79-0.01 0.46-0.33 0.79l-17.42 17.44c-0.22 0.22-0.5 0.32-0.79 0.32zm-5.98-8.67l5.98 5.98 3.36-3.36-5.98-5.98zm4.93-4.94l5.98 5.99 10.91-10.92-5.98-5.99zm-19.91-23.77l20.25 20.27 2.15-2.14-20.26-20.27zm-14.41-0.71l5.98 5.99 3.35-3.36-5.98-5.99zm4.94-4.93l5.98 5.98 10.91-10.92-5.98-5.98z"/>
		<path id="シェイプ 920 のコピー" fill-rule="evenodd" class="s1" d="m56.29 61.8h-8.56c-3.67 0-6.7-4.85-7.4-11.81h-15.53c-0.7 6.96-3.73 11.81-7.4 11.81h-8.56c-4.23 0-7.55-6.49-7.55-14.78 0-8.29 3.32-14.79 7.55-14.79h8.56c3.67 0 6.7 4.85 7.4 11.81h15.53c0.7-6.96 3.73-11.81 7.4-11.81h8.56c4.23 0 7.55 6.5 7.55 14.79 0 8.29-3.32 14.78-7.55 14.78zm0-27.33c-1.24 0-2.53 1.22-3.54 3.36-1.14 2.44-1.78 5.7-1.78 9.19 0 3.49 0.64 6.75 1.78 9.19 1.01 2.13 2.3 3.36 3.54 3.36 1.24 0 2.53-1.23 3.54-3.36 1.15-2.44 1.78-5.7 1.78-9.19v-0.12c-0.02-3.45-0.65-6.66-1.78-9.07-1.01-2.14-2.3-3.36-3.54-3.36zm-12.55 20.65q0.21 0.58 0.45 1.09c1.01 2.13 2.3 3.36 3.54 3.36h4.51c-0.92-1.13-1.71-2.66-2.3-4.45zm-26.34-20.65c-1.24 0-2.53 1.22-3.54 3.36-1.14 2.44-1.78 5.7-1.78 9.19 0 3.49 0.64 6.75 1.78 9.19 1.01 2.13 2.3 3.36 3.54 3.36 2.36 0 4.56-4.1 5.16-9.58h-3.15c-1.64 0-2.98-1.33-2.98-2.97 0-1.64 1.34-2.98 2.98-2.98h3.15c-0.6-5.47-2.8-9.57-5.16-9.57zm-12.56 20.65q0.22 0.58 0.46 1.09c1.01 2.13 2.3 3.36 3.54 3.36h4.51c-0.92-1.13-1.71-2.66-2.3-4.45zm38.22-2.24h6.28q-0.61-2.9-0.6-5.86c0-5.23 1.3-9.88 3.5-12.55h-4.51c-1.25 0-2.54 1.22-3.54 3.36-1.15 2.44-1.78 5.7-1.78 9.19v0.26q0.01 2.84 0.65 5.6zm-38.89 0h6.27q-0.6-2.9-0.59-5.86c0-5.23 1.3-9.88 3.49-12.55h-4.51c-1.24 0-2.53 1.22-3.54 3.36-1.14 2.44-1.77 5.7-1.77 9.19q-0.02 2.97 0.65 5.86zm15.23-6.61c-0.41 0-0.74 0.34-0.74 0.75 0 0.41 0.33 0.74 0.74 0.74h20.79q-0.01-0.4-0.01-0.74 0-0.34 0.01-0.75zm36.88 5.33c-1.59 0-2.74-1.93-2.74-4.58 0-2.66 1.15-4.59 2.74-4.59 1.6 0 2.75 1.93 2.75 4.59 0 2.65-1.15 4.58-2.75 4.58zm0-6.82c-0.2 0.29-0.51 1.05-0.51 2.24 0 1.19 0.31 1.94 0.51 2.24 0.21-0.3 0.52-1.05 0.52-2.24 0-1.19-0.31-1.95-0.52-2.24z"/>
	</g>
</svg>