<svg version="1.2" xmlns="http://www.w3.org/2000/svg" viewBox="0 0 40 41" width="40" height="41">
	<style>
		.s0 { fill: #ffffff } 
	</style>
	<path id="シェイプ 774" fill-rule="evenodd" class="s0" d="m35.48 39.51h-30.96c-1.43 0-2.59-1.16-2.59-2.59v-32.84c0-1.43 1.16-2.59 2.59-2.59h30.96c1.43 0 2.59 1.16 2.59 2.59v32.84c0 1.43-1.16 2.59-2.59 2.59zm-30.96-36.14c-0.39 0-0.71 0.32-0.71 0.71v32.84c0 0.39 0.32 0.71 0.71 0.71h30.96c0.39 0 0.71-0.32 0.71-0.71v-32.84c0-0.39-0.32-0.71-0.71-0.71zm24.78 13.4h-18.61c-0.52 0-0.94-0.42-0.94-0.94 0-5.65 4.6-10.24 10.25-10.24 5.65 0 10.24 4.59 10.24 10.24 0 0.52-0.42 0.94-0.94 0.94zm-17.61-1.88h6.45l-1.78-2.41c-0.31-0.42-0.22-1.01 0.2-1.31 0.41-0.31 1-0.22 1.31 0.19l2.6 3.53h7.84c-0.47-4.17-4.02-7.42-8.31-7.42-4.3 0-7.85 3.25-8.31 7.42zm16.02 18.93h-15.42c-0.52 0-0.94-0.43-0.94-0.94 0-0.52 0.42-0.94 0.94-0.94h15.42c0.51 0 0.94 0.42 0.94 0.94 0 0.51-0.43 0.94-0.94 0.94z"/>
</svg>