<svg version="1.2" xmlns="http://www.w3.org/2000/svg" viewBox="0 0 43 46" width="43" height="46">
	<style>
		.s0 { fill: #ffffff } 
	</style>
	<path id="シェイプ 838" fill-rule="evenodd" class="s0" d="m12.85 38.81c-2.48 0-4.5-2.02-4.5-4.51 0-2.49 2.02-4.51 4.5-4.51 1.58 0 3.05 0.84 3.86 2.19l2.09-0.71c0.44-0.14 0.92 0.09 1.06 0.53q0.11 0.33-0.04 0.64-0.16 0.31-0.48 0.43l-2.04 0.69q0.06 0.37 0.06 0.74c0 2.49-2.02 4.51-4.51 4.51zm0-7.34c-1.56 0-2.82 1.27-2.82 2.83 0 1.56 1.26 2.83 2.82 2.83 1.56 0 2.83-1.27 2.83-2.83q0-0.1-0.01-0.19l-2.55 0.86q-0.13 0.05-0.27 0.05c-0.36 0-0.68-0.24-0.79-0.58q-0.11-0.32 0.04-0.64 0.16-0.3 0.48-0.42l2.48-0.84c-0.53-0.67-1.34-1.07-2.21-1.07zm21.9 13.12h-23.92c-5.15 0-9.34-4.19-9.34-9.34v-0.22c0-3.45 1.58-6.64 4.32-8.74q1.47-1.13 3.21-1.72l-0.88-4.24h-3.9c-1.51 0-2.75-1.23-2.75-2.75v-0.05c0-1.09 0.49-2.11 1.33-2.8 0.85-0.68 1.95-0.95 3.01-0.73l9.8 2.02c1 0.21 1.73 1.1 1.73 2.12 0 1.21-0.97 2.19-2.17 2.19h-5.33l0.79 3.83q2.36-0.4 4.71 0.23l20.8 6.7v-20.24l-1.99-1.32-4.34 4.66c-0.43 0.47-1.01 0.75-1.65 0.77-0.64 0.04-1.26-0.19-1.73-0.62-0.47-0.43-0.75-1.02-0.78-1.65-0.03-0.64 0.19-1.26 0.62-1.73l7.88-8.46c0.43-0.47 1.02-0.75 1.65-0.78 0.64-0.03 1.25 0.19 1.73 0.63 0.47 0.43 0.75 1.02 0.78 1.66 0.03 0.63-0.19 1.25-0.62 1.72l-2.38 2.55 5.81 3.85q0.17 0.11 0.26 0.29 0.02 0.02 0.03 0.05 0.01 0.01 0.01 0.02 0.01 0.02 0.01 0.03l0.01 0.02q0 0.02 0.01 0.03 0 0.01 0 0.02 0.02 0.05 0.02 0.09 0.01 0.02 0.01 0.05 0 0.01 0 0.02l-0.14 0.01 0.14-0.01q0 0.03 0.01 0.06v25.02c0 3.73-3.04 6.76-6.76 6.76zm-24.47-18.63q-0.06 0.01-0.11 0.02-0.01 0.01-0.02 0.01-1.81 0.47-3.32 1.63c-2.32 1.78-3.66 4.48-3.66 7.41v0.22c0 4.23 3.44 7.66 7.66 7.66h23.92c2.8 0 5.08-2.28 5.08-5.08v-0.1c0-1.97-1.16-3.78-2.94-4.61q-0.22-0.03-0.4-0.16-0.21-0.08-0.42-0.14l-21.18-6.82c-1.5-0.4-3.1-0.42-4.61-0.04zm27.56 5.76c0.75 0.38 1.43 0.91 1.99 1.55v-20l-1.99-1.31zm-32.74-16.12c-0.44 0-0.87 0.15-1.22 0.43-0.45 0.37-0.71 0.92-0.71 1.5v0.05c0 0.59 0.48 1.07 1.07 1.07h10.95c0.27 0 0.49-0.22 0.49-0.49 0-0.24-0.16-0.45-0.39-0.5l-9.8-2.02q-0.2-0.04-0.39-0.04zm30.84-12.2q-0.02 0-0.03 0-0.3 0.02-0.5 0.24l-7.88 8.46q-0.19 0.21-0.18 0.5 0.02 0.3 0.23 0.5 0.23 0.2 0.52 0.19 0.29-0.02 0.5-0.24l7.87-8.46q0.19-0.21 0.18-0.51-0.01-0.29-0.23-0.49-0.21-0.19-0.48-0.19z"/>
</svg>