<svg version="1.2" xmlns="http://www.w3.org/2000/svg" viewBox="0 0 35 63" width="35" height="63">
	<style>
		.s0 { fill: #81d8d0 } 
		.s1 { fill: #4f4f4f } 
	</style>
	<path id="シェイプ 887" class="s0" d="m29.01 1.95h-22.83c-2.39 0-4.33 1.71-4.33 3.8v52.39c0 2.09 1.94 3.8 4.33 3.8h22.83c2.39 0 4.34-1.71 4.34-3.8v-52.39c0-2.09-1.95-3.8-4.34-3.8zm-4.83 2.98h5.01c0.56 0 1.03 0.46 1.03 1.03 0 0.56-0.47 1.02-1.03 1.02h-5.01c-0.57 0-1.03-0.46-1.03-1.02 0-0.57 0.46-1.03 1.03-1.03zm-17.12-0.04c0.58 0 1.06 0.47 1.06 1.05 0 0.59-0.48 1.05-1.06 1.05-0.58 0-1.05-0.46-1.05-1.05 0-0.58 0.47-1.05 1.05-1.05zm13.04 54.16h-5c-0.58 0-1.03-0.46-1.03-1.02 0-0.57 0.45-1.02 1.03-1.02h5c0.58 0 1.03 0.45 1.03 1.02 0 0.56-0.45 1.02-1.03 1.02zm11.19-5.17h-27.38v-43.87h27.38z"/>
	<path id="シェイプ 886" class="s1" d="m28 30.45c0-4.48-4.48-8.11-10-8.11-5.52 0-10 3.63-10 8.11 0 4.01 3.55 7.36 8.36 8 0.33 0.07 0.77 0.21 0.88 0.49 0.1 0.25 0.07 0.65 0.04 0.91 0 0-0.12 0.7-0.15 0.85-0.04 0.25-0.2 0.99 0.87 0.54 1.07-0.45 5.76-3.39 7.86-5.8 1.45-1.59 2.14-3.2 2.14-4.99zm-13.53 2.39c0 0.1-0.09 0.19-0.19 0.19h-2.81c-0.11 0-0.19-0.09-0.19-0.19v-4.36c0-0.11 0.08-0.19 0.19-0.19h0.71c0.1 0 0.19 0.08 0.19 0.19v3.46h1.91c0.1 0 0.19 0.08 0.19 0.19zm1.69 0c0 0.11-0.08 0.19-0.19 0.19h-0.71c-0.1 0-0.19-0.08-0.19-0.19v-4.36c0-0.11 0.09-0.19 0.19-0.19h0.71c0.11 0 0.19 0.08 0.19 0.19zm4.83 0c0 0.1-0.08 0.19-0.19 0.19h-0.7q-0.03 0-0.05-0.01-0.01 0-0.01 0 0 0-0.01 0 0 0-0.01 0 0-0.01-0.01-0.01 0 0 0 0-0.01 0-0.01-0.01-0.01 0-0.01 0 0 0 0 0-0.03-0.02-0.05-0.05l-2-2.7v2.59c0 0.1-0.09 0.19-0.2 0.19h-0.7c-0.11 0-0.2-0.09-0.2-0.19v-4.36c0-0.11 0.09-0.19 0.2-0.19h0.7q0 0 0.01 0 0 0 0.01 0 0 0 0.01 0 0 0 0.01 0 0 0 0.01 0 0 0 0 0 0.01 0 0.02 0.01 0 0 0 0 0.01 0 0.01 0 0.01 0.01 0.01 0.01 0 0 0.01 0 0 0 0.01 0.01 0 0 0.01 0 0 0.01 0 0.01 0.01 0 0.01 0.01 0 0 0 0 0.01 0.01 0.02 0.01 0 0 0 0 0.01 0.01 0.01 0.02l2 2.7v-2.59c0-0.11 0.09-0.19 0.19-0.19h0.71c0.11 0 0.19 0.08 0.19 0.19zm3.88-3.66c0 0.11-0.09 0.19-0.19 0.19h-1.91v0.74h1.91c0.1 0 0.19 0.09 0.19 0.19v0.71c0 0.11-0.09 0.19-0.19 0.19h-1.91v0.74h1.91c0.1 0 0.19 0.08 0.19 0.19v0.71c0 0.1-0.09 0.19-0.19 0.19h-2.81c-0.11 0-0.2-0.09-0.2-0.19v-0.01-4.35-0.01c0-0.1 0.09-0.19 0.2-0.19h2.81c0.1 0 0.19 0.09 0.19 0.19z"/>
</svg>