<svg version="1.2" xmlns="http://www.w3.org/2000/svg" viewBox="0 0 39 63" width="39" height="63">
	<style>
		.s0 { fill: #81d8d0 } 
		.s1 { fill: #4f4f4f } 
	</style>
	<path id="シェイプ 643 のコピー 2" class="s0" d="m15.12 12.55c3.18 0 5.77-2.59 5.77-5.78 0-3.18-2.59-5.77-5.77-5.77-3.18 0-5.77 2.59-5.77 5.77 0 3.19 2.59 5.78 5.77 5.78zm22.85 15.39c0-0.56-0.45-1.01-1.01-1.01q-0.13 0-0.26 0.04v-3.35c0-0.37-0.3-0.68-0.67-0.68h-2.24c-0.37 0-0.67 0.31-0.67 0.68v12.58c0 0.37 0.3 0.67 0.67 0.67h2.17v7.14h-18.05c-0.83 0-1.51 0.67-1.51 1.51 0 0.77 0.58 1.4 1.32 1.5v13.98h2.8v-13.97h13.78v13.97h2.8v-14.11c0.51-0.24 0.87-0.76 0.87-1.37q0-0.08-0.01-0.16 0.01-0.08 0.01-0.16z"/>
	<path id="シェイプ 643 のコピー" class="s0" d="m26.05 39.16c0.55-0.74 0.88-1.65 0.93-2.64 0.29-7.13-0.41-12.82-2.09-16.91-1.53-3.73-3.49-5.16-4.27-5.6-2.3-1.32-5.24-0.53-6.56 1.78-0.37 0.65-0.68 2.27-0.7 2.38l-1.61 8.93-7.34 5.37c-1.19 0.87-1.58 2.51-0.84 3.84 0.79 1.43 2.6 1.95 4.03 1.15l9.42-5.22c0.73-0.41 1.3-1.11 1.52-1.98l0.08-0.33 2.12-8.51 1.69 0.16-2.26 9.08c-0.32 1.29-1.17 2.39-2.33 3.04l-9.43 5.23c-0.68 0.38-1.46 0.59-2.25 0.59-1.24 0-2.41-0.5-3.27-1.36l-1.07 19.31c-0.09 1.69 1.15 3.19 2.85 3.39 1.77 0.21 3.38-1.06 3.59-2.84l1.95-16.7c0 0 11.04-0.02 12.03-0.02 0.99 0 3.09-0.96 3.81-2.14z"/>
	<path id="シェイプ 644" class="s1" d="m29.48 40.4c0.01-0.15 0.04-0.71 0.08-1.56l1.5 0.07c-0.04 0.87-0.07 1.43-0.08 1.59l-0.75-0.05zm1.65-3.1l-1.5-0.05q0.05-1.69 0.06-3.31l1.5 0.01q-0.01 1.64-0.06 3.35zm-1.45-4.96q-0.01-1.75-0.09-3.3l1.5-0.08q0.08 1.59 0.1 3.36zm-0.2-4.89q-0.1-1.23-0.23-2.3-0.06-0.48-0.14-0.94l1.48-0.24q0.08 0.48 0.15 0.98 0.14 1.11 0.24 2.39zm-0.67-4.78q-0.36-1.6-0.92-3.1l1.41-0.52q0.59 1.59 0.97 3.29zm-1.5-4.55q-0.67-1.49-1.52-2.83l1.27-0.81q0.91 1.43 1.62 3.03zm-2.4-4.12c-1.16-1.55-2.1-2.32-2.11-2.32l0.94-1.18c0.05 0.04 1.09 0.89 2.37 2.6z"/>
</svg>