<svg version="1.2" xmlns="http://www.w3.org/2000/svg" viewBox="0 0 31 28" width="31" height="28">
	<style>
		.s0 { fill: #fdfefe } 
	</style>
	<path id="シェイプ 772" class="s0" d="m18.19 10.48l-0.75-0.75c-0.24-0.24-0.62-0.24-0.86 0-0.24 0.23-0.24 0.62 0 0.85l0.76 0.76q0.18 0.18 0.43 0.18 0.24 0 0.42-0.18c0.24-0.24 0.24-0.62 0-0.86zm2.42 3.27c0.23-0.23 0.23-0.62 0-0.86l-0.76-0.75c-0.24-0.24-0.62-0.24-0.86 0-0.24 0.24-0.24 0.62 0 0.86l0.76 0.75q0.18 0.18 0.43 0.18 0.24 0 0.43-0.18zm1.65 0.8c-0.24-0.24-0.62-0.24-0.86 0-0.23 0.24-0.23 0.62 0 0.86l0.76 0.76q0.19 0.17 0.43 0.17 0.24 0 0.43-0.17c0.23-0.24 0.23-0.63 0-0.86zm2.41 2.41c-0.24-0.24-0.62-0.24-0.86 0-0.24 0.24-0.24 0.62 0 0.86l0.76 0.75q0.18 0.18 0.43 0.18 0.24 0 0.42-0.18c0.24-0.23 0.24-0.62 0-0.85zm-5.57-8.75l0.87 0.62q0.17 0.11 0.35 0.11c0.19 0 0.38-0.09 0.5-0.26 0.19-0.28 0.12-0.66-0.15-0.85l-0.88-0.61c-0.27-0.2-0.65-0.13-0.84 0.14-0.19 0.28-0.13 0.66 0.15 0.85zm4.36 1.58l-0.87-0.61c-0.28-0.2-0.66-0.13-0.85 0.15-0.19 0.27-0.13 0.65 0.15 0.84l0.87 0.62q0.17 0.11 0.35 0.11c0.19 0 0.38-0.09 0.5-0.26 0.19-0.28 0.12-0.65-0.15-0.85zm2.79 1.96l-0.87-0.61c-0.28-0.19-0.66-0.13-0.85 0.15-0.19 0.27-0.13 0.65 0.15 0.84l0.87 0.62q0.17 0.11 0.35 0.11c0.19 0 0.38-0.09 0.5-0.26 0.19-0.27 0.13-0.65-0.15-0.85zm2.79 1.96l-0.87-0.61c-0.28-0.19-0.66-0.13-0.85 0.15-0.19 0.27-0.13 0.65 0.15 0.84l0.87 0.62q0.17 0.11 0.35 0.11c0.19 0 0.38-0.09 0.5-0.26 0.19-0.27 0.13-0.65-0.15-0.85zm-13.97-1.48c-0.19-0.27-0.57-0.34-0.84-0.14-0.28 0.19-0.34 0.57-0.15 0.84l0.62 0.88c0.11 0.17 0.3 0.26 0.49 0.26q0.19 0 0.35-0.11c0.28-0.2 0.34-0.58 0.15-0.85zm1.96 2.79c-0.19-0.27-0.57-0.34-0.85-0.15-0.27 0.2-0.34 0.58-0.14 0.85l0.61 0.88c0.12 0.16 0.31 0.25 0.5 0.25q0.18 0 0.35-0.11c0.27-0.19 0.34-0.57 0.14-0.84zm1.96 2.79c-0.19-0.28-0.57-0.34-0.84-0.15-0.28 0.19-0.34 0.57-0.15 0.85l0.62 0.87c0.11 0.17 0.3 0.26 0.49 0.26q0.19 0 0.35-0.11c0.28-0.19 0.34-0.57 0.15-0.85zm1.96 2.8c-0.19-0.28-0.57-0.34-0.85-0.15-0.27 0.19-0.34 0.57-0.14 0.84l0.61 0.88c0.12 0.17 0.31 0.26 0.5 0.26q0.18 0 0.35-0.11c0.27-0.19 0.34-0.57 0.14-0.85zm-4.24-16.88c-0.96-1.17-2.47-2.05-4.94-2.05-8.5 0-10.47 11.44-10.47 19.34h3.81c0 0-0.01-8.13 2.28-9.62 0.78-0.52 1.91-0.26 2.87 0.18 0.35 0.16 1.05 0.43 1.61-0.26 1.34-1.65 3.59-4.09 4.78-5.43 0.83-0.93 0.37-1.77 0.06-2.16zm-14.81 22.58h2.55v-4.56h-2.55z"/>
</svg>