<svg version="1.2" xmlns="http://www.w3.org/2000/svg" viewBox="0 0 52 77" width="52" height="77">
	<style>
		.s0 { fill: #81d8d0 } 
	</style>
	<path id="シェイプ 563" fill-rule="evenodd" class="s0" d="m51 49.1v17.12c0 1.74-0.51 3.41-1.48 4.86l-0.81 1.23q-0.21 0.31-0.21 0.7l0.01 1.74c0 0.32-0.12 0.65-0.36 0.88-0.24 0.23-0.55 0.37-0.89 0.37h-18.76c-0.69 0-1.25-0.57-1.25-1.25v-3.38l-0.5-0.76c-1.91-2.84-2.66-6.27-2.16-9.61h-17.34c-3.45 0-6.25-2.8-6.25-6.25v-47.5c0-3.45 2.8-6.25 6.25-6.25h27.5c3.45 0 6.25 2.8 6.25 6.25v27.2l6.7 6.7c2.12 2.12 3.3 4.95 3.3 7.95zm-47.5-40.6h35v-1.25c0-2.06-1.69-3.75-3.75-3.75h-27.5c-2.06 0-3.75 1.69-3.75 3.75zm0 42.5h27.3l-2.69-2.68c-1.93-1.96-1.93-5.12 0-7.07 1.94-1.91 5.16-1.89 7.08-0.01l3.31 3.31v-33.55h-35zm28.97 7.5c0.1-1.54 0.57-3.05 1.44-4.38l-0.61-0.62h-29.8v1.25c0 2.06 1.69 3.75 3.75 3.75zm16.03-9.4c0-2.34-0.92-4.52-2.57-6.19l-4.93-4.93v9.07l3.03 3.02c0.49 0.49 0.49 1.29 0 1.78-0.48 0.49-1.28 0.49-1.77 0l-8.84-8.84c-0.94-0.92-2.57-0.95-3.55 0-0.96 0.98-0.96 2.57 0.01 3.55l6.57 6.55c0.46 0.46 0.48 1.2 0.06 1.7-2.05 2.4-2.11 5.95-0.13 8.44l0.59 0.71c0.43 0.54 0.35 1.33-0.19 1.76q-0.36 0.28-0.78 0.28c-0.37 0-0.73-0.16-0.98-0.46l-0.59-0.73c-0.91-1.15-1.5-2.45-1.78-3.81h-5.52c-0.53 2.85 0.07 5.8 1.69 8.22l0.71 1.09q0.21 0.31 0.22 0.69v2.5h16.25v-0.48c0-0.75 0.21-1.47 0.63-2.1l0.82-1.22c0.68-1.04 1.05-2.24 1.05-3.48zm-16.25-21.85c0 6.21-5.05 11.25-11.25 11.25-6.21 0-11.25-5.04-11.25-11.25 0-6.2 5.04-11.24 11.25-11.24 6.2 0 11.25 5.04 11.25 11.24zm-2.5 0c0-4.82-3.93-8.74-8.75-8.74-4.83 0-8.75 3.92-8.75 8.74 0 4.83 3.92 8.75 8.75 8.75 4.82 0 8.75-3.92 8.75-8.75zm-2.87-4.63c0.49 0.49 0.49 1.28 0 1.77l-7.5 7.5c-0.24 0.24-0.56 0.36-0.88 0.36-0.32 0-0.64-0.12-0.89-0.36l-3.75-3.75c-0.49-0.49-0.49-1.28 0-1.77 0.49-0.49 1.28-0.49 1.77 0l2.87 2.87 6.61-6.62c0.49-0.49 1.28-0.49 1.77 0zm-8.38-16.61c0-0.69 0.56-1.25 1.25-1.25h2.5c0.69 0 1.25 0.56 1.25 1.25 0 0.69-0.56 1.25-1.25 1.25h-2.5c-0.69 0-1.25-0.56-1.25-1.25zm5 49.99c0 0.69-0.56 1.25-1.25 1.25h-2.5c-0.69 0-1.25-0.56-1.25-1.25 0-0.69 0.56-1.25 1.25-1.25h2.5c0.69 0 1.25 0.56 1.25 1.25z"/>
</svg>