<svg version="1.2" xmlns="http://www.w3.org/2000/svg" viewBox="0 0 74 74" width="74" height="74">
	<style>
		.s0 { fill: #ffffff } 
	</style>
	<path id="シェイプ 830" fill-rule="evenodd" class="s0" d="m51.94 39.07c-1.18 1.1-1.83 2.65-1.8 4.27 0.15 4.64-1.96 9.07-5.67 11.88-0.99 0.72-2.32 0.72-3.32 0.01-1.1-0.82-1.69-2.16-1.55-3.52-0.04-2.78-0.2-7.48-2.61-10.32-2.11 2.35-2.56 6.47-2.61 10.46 0.11 1.36-0.52 2.68-1.65 3.44-4.15 2.43-8.44-5.96-8.75-9.76-0.3-2.44 0.16-4.65-1.96-6.49-4.61-4.44-5.02-11.68-0.94-16.61 3.57-4.6 10.16-5.54 14.88-2.1 1.01 0.71 1.28 0.57 1.8 0.18 6.32-4.99 15.98-1.12 17.56 6.78 1.13 4.25-0.17 8.78-3.38 11.78zm-12.67-16.56c-1.38 1.14-3.39 1.09-4.72-0.11-3.63-2.72-8.77-2-11.52 1.6-3.26 3.94-2.93 9.71 0.74 13.26 2.48 2.21 2.53 4.89 2.68 7.88 0.33 3.19 1.95 6.1 4.49 8.06q0.2 0.11 0.41 0.01c0.26-0.17 0.53-0.43 0.53-1.36 0.02-4.11 0.76-11.99 4.89-12.94 4.63-0.1 5.44 10.36 5.33 12.82-0.02 1.01 0.25 1.29 0.51 1.48q0.19 0.1 0.38 0c3.06-2.34 4.79-6.01 4.65-9.86-0.04-2.29 0.88-4.49 2.54-6.06 8.04-7.57-1.33-21.52-10.91-14.78zm-2.28-13.01c-0.69 0-1.25-0.56-1.25-1.25v-5c0-0.69 0.56-1.25 1.25-1.25 0.69 0 1.25 0.56 1.25 1.25 0 0 0 5 0 5 0 0.69-0.56 1.25-1.25 1.25q0 0 0 0zm-15.46 3.23l-2.5-4.33c-0.34-0.6-0.14-1.36 0.46-1.71 0.6-0.35 1.36-0.14 1.71 0.46l2.5 4.33q0.16 0.28 0.16 0.6c0.01 0.7-0.55 1.27-1.24 1.27-0.45 0-0.86-0.23-1.09-0.62zm-8.21 9.87c0.02 0.69-0.54 1.27-1.23 1.28-0.34 0.18-4.58-2.52-4.95-2.67-0.58-0.35-0.78-1.09-0.45-1.68 0.33-0.6 1.09-0.82 1.7-0.49l4.33 2.51c0.37 0.22 0.59 0.61 0.6 1.05zm-11.31 14.43c-0.01-0.69 0.54-1.26 1.23-1.27h5c0.67 0.01 1.21 0.55 1.22 1.22 0.02 0.69-0.53 1.26-1.22 1.28h-5c-0.67-0.02-1.21-0.56-1.23-1.23zm11.13 13.72c0.36 0.59 0.17 1.36-0.42 1.72-0.36 0.13-4.64 2.86-4.96 2.66-0.43 0-0.83-0.23-1.05-0.6-0.36-0.6-0.17-1.37 0.43-1.73l4.33-2.5c0.58-0.33 1.33-0.13 1.67 0.45zm10.1 10.08c0.6 0.34 0.81 1.11 0.46 1.7l-2.5 4.33c-0.35 0.6-1.11 0.81-1.71 0.46-0.6-0.34-0.8-1.11-0.46-1.71l2.5-4.33q0 0 0 0c0.35-0.6 1.11-0.8 1.71-0.45q0 0 0 0zm13.73 3.71c0.69-0.02 1.26 0.53 1.27 1.22v5c-0.01 0.67-0.55 1.21-1.22 1.23-0.69 0.01-1.26-0.54-1.28-1.23v-5c0.02-0.67 0.56-1.21 1.23-1.22zm13.78-3.71c0.59-0.35 1.36-0.15 1.7 0.45l2.51 4.33c0.34 0.6 0.14 1.37-0.46 1.71-0.6 0.35-1.37 0.14-1.71-0.46l-2.5-4.33q0 0 0 0c-0.35-0.6-0.14-1.36 0.46-1.7q0 0 0 0zm10.07-10.04c0.34-0.6 1.1-0.82 1.7-0.49l4.33 2.5c0.58 0.35 0.78 1.09 0.45 1.67-0.33 0.61-1.09 0.83-1.7 0.5l-4.33-2.5c-0.57-0.35-0.77-1.09-0.45-1.68zm11.18-13.78c0 0.69-0.56 1.25-1.25 1.25h-5c-0.69 0-1.25-0.56-1.25-1.25 0-0.69 0.56-1.25 1.25-1.25 0 0 5 0 5 0 0.69 0 1.25 0.56 1.25 1.25q0 0 0 0zm-11.19-13.76c-0.34-0.6-0.14-1.36 0.46-1.7l4.33-2.51c0.6-0.34 1.36-0.14 1.71 0.46 0.35 0.6 0.14 1.37-0.46 1.71l-4.33 2.5c-0.6 0.35-1.36 0.14-1.71-0.46zm-10.04-10.06c-0.61-0.34-0.82-1.11-0.48-1.71l2.5-4.33c0.35-0.58 1.09-0.78 1.68-0.45 0.6 0.33 0.82 1.09 0.49 1.7l-2.51 4.33c-0.22 0.39-0.63 0.62-1.08 0.62q-0.32 0-0.6-0.16z"/>
</svg>