<svg version="1.2" xmlns="http://www.w3.org/2000/svg" viewBox="0 0 53 51" width="53" height="51">
	<style>
		.s0 { fill: #ffffff } 
	</style>
	<path id="シェイプ 921" fill-rule="evenodd" class="s0" d="m44.61 38.28c-1.82 0-2.79-0.8-3.57-1.44-0.71-0.58-1.27-1.04-2.47-1.04-1.2 0-1.76 0.46-2.47 1.04-0.78 0.64-1.75 1.44-3.57 1.44-1.81 0-2.78-0.8-3.56-1.44-0.71-0.58-1.27-1.04-2.47-1.04-1.2 0-1.76 0.46-2.47 1.04-0.78 0.64-1.75 1.44-3.57 1.44-1.82 0-2.78-0.8-3.56-1.44-0.71-0.58-1.27-1.04-2.47-1.04-1.2 0-1.76 0.46-2.47 1.04-0.78 0.64-1.75 1.44-3.57 1.44-1.82 0-2.79-0.8-3.56-1.44-0.71-0.58-1.27-1.04-2.47-1.04-0.48 0-0.87-0.39-0.87-0.87 0-0.48 0.39-0.86 0.87-0.86 1.81 0 2.78 0.79 3.56 1.43 0.71 0.59 1.27 1.05 2.47 1.05 1.2 0 1.76-0.46 2.47-1.05 0.78-0.64 1.75-1.43 3.57-1.43 1.82 0 2.79 0.79 3.56 1.43 0.71 0.59 1.27 1.05 2.47 1.05 1.2 0 1.76-0.46 2.47-1.05 0.78-0.64 1.75-1.43 3.57-1.43 1.82 0 2.79 0.79 3.57 1.43 0.7 0.59 1.27 1.05 2.46 1.05 1.2 0 1.76-0.46 2.47-1.05 0.78-0.64 1.75-1.43 3.57-1.43 1.82 0 2.79 0.79 3.57 1.43 0.71 0.59 1.27 1.05 2.47 1.05 1.2 0 1.76-0.46 2.47-1.05 0.78-0.64 1.75-1.43 3.56-1.43 0.48 0 0.87 0.38 0.87 0.86 0 0.48-0.39 0.87-0.87 0.87-1.2 0-1.76 0.46-2.47 1.04-0.77 0.64-1.74 1.44-3.56 1.44zm6.03-8.31h-48.28c-0.48 0-0.87-0.39-0.87-0.87 0-0.47 0.39-0.86 0.87-0.86h48.28c0.48 0 0.87 0.39 0.87 0.86 0 0.48-0.39 0.87-0.87 0.87zm-45.01 14.13h-3.27c-0.48 0-0.87-0.38-0.87-0.86 0-0.48 0.39-0.86 0.87-0.86h3.27c0.48 0 0.87 0.38 0.87 0.86 0 0.48-0.39 0.86-0.87 0.86zm18.02 0h-3.28c-0.48 0-0.86-0.38-0.86-0.86 0-0.48 0.38-0.86 0.86-0.86h3.28c0.48 0 0.86 0.38 0.86 0.86 0 0.48-0.38 0.86-0.86 0.86zm8.98 0h-3.28c-0.48 0-0.86-0.38-0.86-0.86 0-0.48 0.38-0.86 0.86-0.86h3.28c0.48 0 0.86 0.38 0.86 0.86 0 0.48-0.38 0.86-0.86 0.86zm-17.96 0h-3.28c-0.48 0-0.86-0.38-0.86-0.86 0-0.48 0.38-0.86 0.86-0.86h3.28c0.48 0 0.86 0.38 0.86 0.86 0 0.48-0.38 0.86-0.86 0.86zm26.94 0h-3.28c-0.48 0-0.86-0.38-0.86-0.86 0-0.48 0.38-0.86 0.86-0.86h3.28c0.48 0 0.86 0.38 0.86 0.86 0 0.48-0.38 0.86-0.86 0.86zm9.03 0h-3.27c-0.48 0-0.87-0.38-0.87-0.86 0-0.48 0.39-0.86 0.87-0.86h3.27c0.48 0 0.87 0.38 0.87 0.86 0 0.48-0.39 0.86-0.87 0.86zm-31.51 5.83h-3.28c-0.47 0-0.86-0.39-0.86-0.86 0-0.48 0.39-0.87 0.86-0.87h3.28c0.48 0 0.87 0.39 0.87 0.87 0 0.47-0.39 0.86-0.87 0.86zm8.98 0h-3.28c-0.47 0-0.86-0.39-0.86-0.86 0-0.48 0.39-0.87 0.86-0.87h3.28c0.48 0 0.87 0.39 0.87 0.87 0 0.47-0.39 0.86-0.87 0.86zm-17.96 0h-3.28c-0.47 0-0.86-0.39-0.86-0.86 0-0.48 0.39-0.87 0.86-0.87h3.28c0.48 0 0.87 0.39 0.87 0.87 0 0.47-0.39 0.86-0.87 0.86zm26.94 0h-3.28c-0.47 0-0.86-0.39-0.86-0.86 0-0.48 0.39-0.87 0.86-0.87h3.28c0.48 0 0.87 0.39 0.87 0.87 0 0.47-0.39 0.86-0.87 0.86zm9.04 0h-3.28c-0.48 0-0.87-0.39-0.87-0.86 0-0.48 0.39-0.87 0.87-0.87h3.28c0.47 0 0.86 0.39 0.86 0.87 0 0.47-0.39 0.86-0.86 0.86zm-34.81-26.53c-0.48 0-0.87-0.39-0.87-0.87v-1c0-0.48 0.39-0.86 0.87-0.86 0.47 0 0.86 0.38 0.86 0.86v1c0 0.48-0.39 0.87-0.86 0.87zm0-4.61c-0.48 0-0.87-0.39-0.87-0.86v-1c0-0.48 0.39-0.87 0.87-0.87 0.47 0 0.86 0.39 0.86 0.87v1c0 0.47-0.39 0.86-0.86 0.86zm-1.81 1.8h-1c-0.47 0-0.86-0.38-0.86-0.86 0-0.48 0.39-0.87 0.86-0.87h1c0.48 0 0.87 0.39 0.87 0.87 0 0.48-0.39 0.86-0.87 0.86zm4.61 0h-1c-0.48 0-0.87-0.38-0.87-0.86 0-0.48 0.39-0.87 0.87-0.87h1c0.48 0 0.86 0.39 0.86 0.87 0 0.48-0.38 0.86-0.86 0.86zm31.12-11.07q-0.35 0-0.61-0.25l-0.86-0.86c-0.33-0.33-0.33-0.88 0-1.22 0.34-0.34 0.89-0.34 1.23 0l0.85 0.85c0.34 0.34 0.34 0.89 0 1.23q-0.27 0.25-0.61 0.25zm-3.93-3.93q-0.34 0-0.61-0.25l-0.85-0.86c-0.34-0.33-0.34-0.88 0-1.22 0.33-0.34 0.88-0.34 1.22 0l0.85 0.85c0.34 0.34 0.34 0.89 0 1.23q-0.26 0.25-0.61 0.25zm-0.85 3.93q-0.35 0-0.61-0.25c-0.34-0.34-0.34-0.89 0-1.23l0.85-0.85c0.34-0.34 0.88-0.34 1.22 0 0.34 0.34 0.34 0.88 0 1.22l-0.85 0.86q-0.27 0.25-0.61 0.25zm3.93-3.93q-0.35 0-0.62-0.25c-0.33-0.34-0.33-0.89 0-1.23l0.86-0.85c0.34-0.34 0.88-0.34 1.22 0 0.34 0.34 0.34 0.89 0 1.22l-0.85 0.86q-0.27 0.25-0.61 0.25zm-25.01 5.87c-0.35 0-0.66-0.21-0.8-0.53-0.73-1.77-2.1-3.14-3.86-3.87-0.32-0.13-0.53-0.45-0.53-0.8 0-0.35 0.21-0.66 0.53-0.8 1.76-0.73 3.13-2.1 3.86-3.86 0.14-0.32 0.45-0.53 0.8-0.53 0.35 0 0.67 0.21 0.8 0.53 0.73 1.76 2.1 3.13 3.86 3.86 0.32 0.14 0.54 0.45 0.54 0.8 0 0.35-0.22 0.67-0.54 0.8-1.76 0.73-3.13 2.1-3.86 3.87-0.13 0.32-0.45 0.53-0.8 0.53zm-2.49-5.2q1.5 1 2.49 2.5 1-1.5 2.49-2.5-1.49-0.99-2.49-2.49-0.99 1.5-2.49 2.49zm14.98 18.1c-0.35 0-0.67-0.21-0.8-0.53-1.06-2.56-3.05-4.56-5.61-5.62-0.32-0.13-0.53-0.45-0.53-0.8 0-0.35 0.21-0.66 0.53-0.8 2.56-1.06 4.55-3.05 5.61-5.61 0.13-0.32 0.45-0.53 0.8-0.53 0.35 0 0.66 0.21 0.8 0.53 1.06 2.56 3.05 4.55 5.61 5.61 0.32 0.14 0.53 0.45 0.53 0.8 0 0.35-0.21 0.67-0.53 0.8-2.56 1.06-4.55 3.06-5.61 5.62-0.14 0.32-0.45 0.53-0.8 0.53zm-4.16-6.95c1.71 1.03 3.14 2.45 4.16 4.16 1.02-1.71 2.44-3.13 4.16-4.16-1.72-1.02-3.14-2.44-4.16-4.16-1.02 1.72-2.45 3.14-4.16 4.16z"/>
</svg>