<svg version="1.2" xmlns="http://www.w3.org/2000/svg" viewBox="0 0 69 70" width="69" height="70">
	<style>
		.s0 { fill: #4f4f4f } 
		.s1 { fill: #81d8d0 } 
	</style>
	<path id="シェイプ 631" fill-rule="evenodd" class="s0" d="m43.99 41.64c0.21 0.66-0.15 1.35-0.79 1.56-2.59 0.79-4.61 2.83-5.39 5.44q-0.01 0.02-0.01 0.03c-0.2 0.64-0.88 1-1.52 0.8-0.65-0.21-1.01-0.9-0.82-1.56 1.03-3.54 3.86-6.26 7.4-7.13 0.52 0.01 0.98 0.36 1.13 0.86zm16.97 25.78c-1.41 1.47-3.72 1.49-5.17 0.07-0.62-0.63-2.19-2.24-2.83-2.88-5.67 3.13-12.67 2.36-17.55-1.92-7.57-6.4-6.68-19.21 1.52-24.56 13.94-9.32 30.49 7.18 21.41 21.45 0.55 0.57 2.09 2.14 2.62 2.67 1.39 1.44 1.39 3.74 0 5.17zm-2.52-16.41c0.09-10.54-12.09-16.79-20.39-10.64q-1 0.73-1.85 1.64c-4.91 5.28-4.67 13.58 0.54 18.55 7.98 7.71 21.76 1.85 21.7-9.55z"/>
	<path id="シェイプ 631 のコピー" fill-rule="evenodd" class="s1" d="m19.05 16.03c-1.9 0.01-3.45-1.56-3.46-3.49 0 0 0-2.27 0-2.27 0.01-1.94 1.56-3.5 3.47-3.5 0.67 0 1.22-0.55 1.22-1.24q0.01-0.26 0.04-0.53c0.33-2.28 2.43-3.87 4.69-3.54 2.22 0 4.02 1.83 4.02 4.07 0 0.69 0.55 1.24 1.22 1.24q0 0 0.01 0c1.9 0 3.45 1.57 3.46 3.5 0 0 0 2.27 0 2.27-0.01 1.93-1.56 3.5-3.47 3.49 0 0-11.2 0-11.2 0zm12.92 46.66h-26.52c-1.91-0.01-3.46-1.57-3.46-3.51v-45.5c0-1.93 1.55-3.49 3.46-3.5 1.67 0.01 6.06-0.01 7.69 0v2.49c0.07 3.25 2.7 5.85 5.92 5.85h11.19c3.22 0 5.85-2.6 5.92-5.85v-2.49c1.63 0 5.99-0.01 7.69 0 1.91 0 3.47 1.57 3.47 3.5v19.39c-5.25-0.54-10.48 1.31-14.25 5.06h-10.41c-0.68 0-1.23 0.56-1.23 1.24 0 0.69 0.55 1.25 1.23 1.25h8.31c-2.09 2.96-3.22 6.51-3.26 10.15h-5.05c-0.66 0.02-1.18 0.55-1.2 1.21-0.02 0.69 0.52 1.26 1.2 1.28h5.19c0.42 3.48 1.86 6.76 4.11 9.43zm-21.59-36.86c-0.49 0.48-0.51 1.26-0.04 1.76l2.33 2.36c0.23 0.23 0.55 0.36 0.87 0.36 0.32 0 0.63-0.13 0.86-0.36l4.66-4.71c0.45-0.48 0.46-1.24 0-1.72-0.47-0.5-1.25-0.52-1.74-0.04l-3.78 3.84-1.46-1.48c-0.47-0.46-1.22-0.47-1.7-0.01zm8.68 10.34c-0.47-0.5-1.25-0.51-1.74-0.04l-3.78 3.83-1.46-1.47c-0.47-0.46-1.22-0.46-1.7 0-0.49 0.47-0.51 1.26-0.04 1.75l2.33 2.35q0.02 0.02 0.03 0.04c0.48 0.46 1.24 0.45 1.7-0.04l4.66-4.7c0.45-0.48 0.46-1.24 0-1.72zm-8.72 14.97c-0.48 0.49-0.48 1.27 0 1.76l2.33 2.34q0.02 0.02 0.03 0.04c0.48 0.46 1.24 0.45 1.7-0.04l4.66-4.71c0.45-0.48 0.45-1.23 0-1.71-0.47-0.5-1.25-0.51-1.74-0.04l-3.78 3.83-1.46-1.47q-0.01-0.01-0.02-0.02c-0.49-0.48-1.26-0.46-1.72 0.02q0 0 0 0zm28.97-24.41c0.01-0.69-0.53-1.25-1.21-1.26h-15.45c-0.66 0.01-1.2 0.55-1.21 1.22-0.01 0.69 0.54 1.25 1.21 1.26h15.45c0.66-0.01 1.2-0.55 1.21-1.22z"/>
</svg>