<svg version="1.2" xmlns="http://www.w3.org/2000/svg" viewBox="0 0 42 53" width="42" height="53">
	<style>
		.s0 { fill: #ffffff } 
	</style>
	<path id="シェイプ 1094" fill-rule="evenodd" class="s0" d="m6.66 14.64c0-0.46 0.37-0.83 0.82-0.83h20.03c0.45 0 0.82 0.37 0.82 0.83 0 0.45-0.37 0.82-0.82 0.82h-20.03c-0.45 0-0.82-0.37-0.82-0.82zm0 4.82c0-0.46 0.37-0.82 0.82-0.82h20.03c0.45 0 0.82 0.36 0.82 0.82 0 0.45-0.37 0.82-0.82 0.82h-20.03c-0.45 0-0.82-0.37-0.82-0.82zm0 4.82c0-0.46 0.37-0.82 0.82-0.82h20.03c0.45 0 0.82 0.36 0.82 0.82 0 0.45-0.37 0.82-0.82 0.82h-20.03c-0.45 0-0.82-0.37-0.82-0.82zm0 4.82c0-0.46 0.37-0.82 0.82-0.82h20.03c0.45 0 0.82 0.36 0.82 0.82 0 0.45-0.37 0.82-0.82 0.82h-20.03c-0.45 0-0.82-0.37-0.82-0.82zm13.38 4.82c0 0.45-0.37 0.82-0.82 0.82h-11.74c-0.45 0-0.82-0.37-0.82-0.82 0-0.45 0.37-0.82 0.82-0.82h11.74c0.45 0 0.82 0.37 0.82 0.82zm-7.67 4.82c0 0.45-0.37 0.82-0.83 0.82h-4.06c-0.45 0-0.82-0.37-0.82-0.82 0-0.45 0.37-0.82 0.82-0.82h4.06c0.46 0 0.83 0.37 0.83 0.82zm27.64 2.94c0 2.61-1.02 5.06-2.86 6.9-1.84 1.84-4.29 2.85-6.89 2.85-2.61 0-5.06-1.01-6.9-2.85q-1.35-1.36-2.08-3.08h-18.47c-0.45 0-0.82-0.36-0.82-0.82v-38.03c0-0.46 0.37-0.83 0.82-0.83h6.78v-1.04c0-0.45 0.37-0.82 0.82-0.82h3.82c0.37-1.45 1.69-2.54 3.26-2.54 1.57 0 2.89 1.09 3.26 2.54h3.82q0 0 0 0 0.34 0 0.58 0.24 0.24 0.24 0.24 0.58v1.04h6.78c0.46 0 0.83 0.37 0.83 0.83v25.67c1.55 0.46 2.97 1.29 4.15 2.47 1.84 1.84 2.86 4.29 2.86 6.89zm-28.78-36.07v0.96q0.01 0.03 0.01 0.08 0 0.04-0.01 0.07v1.02h12.52v-2.14l-3.72 0.01q0 0 0 0-0.34-0.01-0.58-0.24-0.24-0.25-0.24-0.59c0-0.94-0.77-1.71-1.72-1.71-0.94 0-1.71 0.77-1.71 1.71 0 0.46-0.37 0.83-0.83 0.83zm9.52 38.25q-0.25-1.06-0.25-2.18c0-2.6 1.02-5.05 2.86-6.89 1.84-1.84 4.29-2.85 6.89-2.85q0.56 0 1.1 0.06v-24.53h-5.96v1.09c0 0.46-0.37 0.82-0.82 0.82h-14.16c-0.45 0-0.82-0.36-0.82-0.82v-1.09h-5.95v36.39zm17.61-2.18c0-3.86-2.72-7.1-6.34-7.91q-0.02 0-0.03 0-0.84-0.19-1.74-0.19c-4.47 0-8.1 3.64-8.1 8.1 0 4.47 3.63 8.11 8.1 8.11 4.47 0 8.11-3.64 8.11-8.11zm-4.38-2.8c0.33 0.33 0.33 0.85 0 1.17l-4.44 4.44q-0.24 0.23-0.58 0.24 0 0 0 0-0.34-0.01-0.58-0.24l-1.86-1.86c-0.32-0.33-0.32-0.85 0-1.17 0.33-0.32 0.85-0.32 1.17 0l1.27 1.28 3.86-3.86c0.32-0.32 0.84-0.32 1.16 0z"/>
</svg>