<svg version="1.2" xmlns="http://www.w3.org/2000/svg" viewBox="0 0 26 53" width="26" height="53">
	<style>
		.s0 { fill: #fbfefe } 
	</style>
	<g id="グループ 63">
		<path id="シェイプ 843" fill-rule="evenodd" class="s0" d="m13.07 11.77c-2.84 0-5.15-2.31-5.15-5.15 0-2.84 2.31-5.15 5.15-5.15 2.83 0 5.14 2.31 5.14 5.15 0 2.84-2.31 5.15-5.14 5.15zm0-8.43c-1.81 0-3.28 1.47-3.28 3.28 0 1.81 1.47 3.28 3.28 3.28 1.81 0 3.28-1.47 3.28-3.28 0-1.81-1.47-3.28-3.28-3.28zm0.64 48.13h-1.29c-1.33 0-2.42-1.04-2.49-2.37l-0.78-11.55h-3.84c-0.49 0-0.95-0.22-1.25-0.61-0.3-0.38-0.4-0.88-0.28-1.36q0.01-0.04 0.03-0.09l1.6-4.4q-0.57 0.04-1.1-0.12l-0.15-0.05c-1.32-0.41-2.18-1.71-2.03-3.09l1.3-8.83q0.01-0.06 0.03-0.13c0.74-2.91 3.35-4.94 6.35-4.94h6.51c3 0 5.62 2.03 6.36 4.94q0.01 0.07 0.02 0.13l1.3 8.83c0.15 1.38-0.7 2.68-2.03 3.09l-0.15 0.05q-0.53 0.16-1.1 0.12l1.61 4.4q0.01 0.05 0.02 0.09c0.13 0.48 0.02 0.98-0.28 1.36-0.3 0.39-0.76 0.61-1.25 0.61h-3.84l-0.78 11.55c-0.06 1.33-1.16 2.37-2.49 2.37zm-7.99-15.78h4.32c0.5 0 0.91 0.39 0.93 0.89l0.82 12.43c0.02 0.33 0.29 0.59 0.63 0.59h1.29c0.34 0 0.61-0.26 0.63-0.59l0.82-12.43c0.03-0.5 0.44-0.89 0.93-0.89h4.33l-2.62-7.17q-0.04-0.12-0.05-0.25l-0.82-7.09q-0.03-0.38 0.22-0.68 0.25-0.28 0.63-0.32c0.51-0.04 0.97 0.34 1.01 0.85l0.78 6.64 0.44 0.96c0.22 0.47 0.76 0.71 1.26 0.56l0.15-0.05c0.47-0.15 0.78-0.61 0.73-1.11l-1.3-8.77c-0.54-2.03-2.4-3.47-4.53-3.47h-6.51c-2.12 0-3.99 1.44-4.54 3.49l-1.28 8.75c-0.06 0.5 0.25 0.96 0.72 1.11l0.15 0.05c0.5 0.15 1.04-0.09 1.26-0.56l0.44-0.96 0.79-6.64c0.04-0.51 0.49-0.89 1-0.85 0.51 0.04 0.89 0.49 0.85 1l-0.82 7.09q-0.01 0.13-0.05 0.25z"/>
	</g>
</svg>