<svg version="1.2" xmlns="http://www.w3.org/2000/svg" viewBox="0 0 594 542" width="594" height="542">
	<style>
		.s0 { opacity: .6;fill: #81d8d0 } 
	</style>
	<path id="シェイプ 1110" class="s0" d="m188.15 351.39c-57.95-0.24-181.51 4.71-186.23 59.35q-0.51 5.72 0.82 12.19l0.74 11.05c-0.41 4.09-0.14 8.45 0.88 13.12q1.38 6.41 4.73 13.6c37.2 79.43 159.49 71.45 205.66 36.33l-1.52-23.67c-46.16 35.12-168.45 43.09-205.66-36.33q-1.95-4.19-3.22-8.1c12.26-49.49 129.37-54.1 185.32-53.87 63.72 0.26 181.11-9.65 185.94-46.71q0.28-2.11 0.05-4.34-0.13-1.22-0.4-2.33l-1.02-19.44q0-0.94-0.1-1.9c-3.94-38.81-121.55 9.78-151.21-41.24 34.94-52.91 344.02-92.75 370.03-233.96l-1.52-23.68c-28.05 152.31-385.15 186.57-372.93 246.73l1.24 19.75q-0.11 1.83 0.23 3.68 0.31 1.61 0.89 3.3c19.57 56.75 124.08 19 149.37 39-21.42 29.49-124.03 37.7-182.09 37.47z"/>
</svg>