<svg version="1.2" xmlns="http://www.w3.org/2000/svg" viewBox="0 0 1944 414" width="1944" height="414">
	<style>
		.s0 { opacity: .6;fill: #ffffff } 
	</style>
	<path id="シェイプ 716" fill-rule="evenodd" class="s0" d="m1273.79 74.08q-0.46-0.26-0.92-0.5 0.48 0.19 0.96 0.39 9.26 3.91 18.45 8.29c102.22 48.82 84.94 110.38 115.11 142.65q0.99 0.37 2.01 0.71c67.44 22.54 176.8-40.65 246.49-25.64 24.76 5.33 46.31 12.63 62.14 23.16q-0.12-0.1-0.25-0.2c15.47 7.63 28.64 18.1 38.08 30.18 60.06-9.35 132.04-5.7 172.7 28.42l13.46 30.51c-42.8-35.91-115.72-45.2-174.52-38.6 5.39 14.24 5.76 29.57-0.6 44.55-24.11 56.82-73.14 94.58-111.16 81.73-3.69-1.25-6.81-3.02-9.37-5.23l-17.17-10.94q-3.49-1.62-6.16-3.92c-22.46-19.32-2.22-72.48 51.15-101.87 16.27-8.96 41.07-17.15 69.41-22.53-4.19-10.04-11.02-19.46-20.21-27.66-12.54-5.81-27.93-9.21-44.1-12.69-69.69-15.01-179.05 48.18-246.49 25.64q-5.85-1.96-10.6-4.45c-2.81-1.47-5.35-3.08-7.67-4.8l-18.58-11.62q-2.15-1.24-4.11-2.57c-41.41-28.27-24.77-91.56-118.05-143.01zm474.62 202.16c-20.24 3.67-37.91 9.33-50.81 16.44-47.34 26.06-68.6 70.82-57.16 94.09 36.64 5.52 80.63-30.82 103.06-83.68 3.75-8.85 5.33-17.92 4.91-26.85zm-1746.42 91.74c82.81-75.66 224.06-152.67 312.75-195.4 57.86-27.87 79.14-31.38 83.05-24.41l12.33 23.73c1.63 1.02 2.37 2.6 2.4 4.6 0.12 10.79-20.4 33.68-30.87 46.47-10.9 13.32-19.09 29.03-22.58 41.99 9.47-2.05 23.55-10.02 43.26-26.55 57.17-47.93 122.73-92.43 170.54-84.73q5.94 0.96 11.49 3.02l20.36 5.35q1.64 0.37 3.24 0.84 3.81 1.16 7.39 2.93c59.94-56.49 159.57-117.57 296.69-142.29 78.42-16.01 211.58-21.72 346.55 42.75q7.53 3.6 14.28 7.3c-138.75-58.14-290.06-33.51-362.59-21.9l-0.07-0.13c-128.91 24.94-221.59 78.89-277.37 128.62q1.51 1.87 2.94 3.94c18.61 26.98-8.55 103.33-53.33 100.64q-2.05-0.13-3.77-0.61l-18.22-2.9c-26.21-1.58-9.66-51.66 47.39-108.19-4.65-5.2-9.72-9.32-15.16-12.44-49.98-0.81-119.5 55.64-176.32 103.27-36.08 30.26-53.32 31.89-57.89 20.87l-13.14-23.76q-0.37-0.58-0.68-1.22c-5.59-11.99 5.02-40.37 22.95-62.28 5.17-6.31 12.77-15.07 19.14-23.62-12.99 3.91-31.71 11.54-57.97 24.19-88.69 42.73-229.94 119.74-312.75 195.39zm616.8-174.61c-39.93 39.55-55.5 74.37-46.35 86.68 32.07-8.44 51.93-57.42 46.35-86.68z"/>
</svg>