<svg version="1.2" xmlns="http://www.w3.org/2000/svg" viewBox="0 0 1546 512" width="1546" height="512">
	<style>
		.s0 { opacity: .6;fill: #ffffff } 
	</style>
	<path id="シェイプ 718" fill-rule="evenodd" class="s0" d="m1.22 492.92c62.58-54.48 191.54-134.78 361.73-140.31q8.9-0.29 17.09-0.1c-159.95 13.02-290.87 105.78-350.65 157.82zm379.95-140.39q-0.56-0.01-1.12-0.02 0.55-0.05 1.11-0.1 10.69-0.85 21.54-1.2c120.78-3.93 134.68 62.96 179.11 78.74q1.12-0.14 2.26-0.31c28.02-4.4 55.73-20.24 81.33-39.74 34.37-34.95 66.3-63.46 96.41-87.56q3.15-2.65 5.99-4.76c58.79-46.31 110.69-76.09 160.34-104.85 50.87-29.47 70.04-34.14 74.09-28.04l12.9 20.84c1.56 0.82 2.34 2.22 2.5 4.04 0.86 9.86-16.27 32.19-24.95 44.61-9.02 12.92-15.41 27.85-17.7 39.94 8.5-2.52 20.8-10.79 37.64-27.26 48.85-47.75 105.59-92.94 149.75-89.19q5.49 0.46 10.7 1.97l18.95 3.48q1.52 0.23 3.01 0.56 3.55 0.79 6.94 2.16c59.49-65.32 168.22-140.14 327.51-164.09l14.57 22.32c-159.94 24.06-267.3 93.61-325.12 153.68q1.5 1.61 2.95 3.4c18.86 23.38-0.65 95.05-41.7 95.67q-1.88 0.03-3.48-0.29l-16.82-1.41c-24.03 0.37-12.39-46.55 35.76-102.15-4.61-4.44-9.52-7.86-14.7-10.33-45.66 2.7-105.19 59.09-153.74 106.55-30.84 30.14-46.45 32.82-51.38 23.06l-13.64-20.81q-0.38-0.51-0.71-1.08c-5.93-10.57 1.79-37.24 16.64-58.5 4.28-6.13 10.61-14.66 15.83-22.92-11.58 4.47-28.14 12.73-51.23 26.11-46.04 26.67-101.23 64.23-157.76 105.41l0.03 0.03c-98.75 71.21-96.49 100.02-171.42 111.79q-6.51 1.01-12.23 0.99c-3.39-0.01-6.58-0.29-9.63-0.78l-23.3-1.9q-2.64-0.11-5.15-0.42c-53.1-6.46-68.47-74.67-182.08-77.64zm825.85-161.75c-33.7 38.91-45.5 71.8-36.3 82.43 28.69-9.92 43.41-56.06 36.3-82.43z"/>
</svg>