<svg version="1.2" xmlns="http://www.w3.org/2000/svg" viewBox="0 0 953 293" width="953" height="293">
	<style>
		.s0 { opacity: .6;fill: #81d8d0 } 
	</style>
	<path id="シェイプ 716 のコピー 3" fill-rule="evenodd" class="s0" d="m351.17 268.77q0.25 0.08 0.5 0.16-0.26-0.05-0.51-0.11-4.9-1.11-9.81-2.47c-54.59-15.13-51.46-46.97-69.13-60.24q-0.52-0.09-1.06-0.17c-35.17-5.21-83.49 35.47-119.1 34.15-12.66-0.46-23.91-2.18-32.62-5.99q0.07 0.04 0.14 0.08c-8.28-2.41-15.68-6.41-21.39-11.54-28.74 9.85-64.5 14.33-87.5 1.07l-9.29-13.86c24.2 13.96 60.91 12.17 89.29 3.79-3.9-6.55-5.42-14.07-3.6-22.01 6.91-30.1 27.74-52.98 47.59-49.97q2.89 0.45 5.06 1.76l9.41 3.89q1.86 0.49 3.38 1.4c12.74 7.55 7.43 35.51-16.28 54.66-7.23 5.83-18.72 12.03-32.21 17.15 2.95 4.59 7.13 8.63 12.37 11.87 6.68 1.76 14.56 2.1 22.82 2.4 35.62 1.31 83.94-39.37 119.11-34.15q3.05 0.45 5.61 1.27 2.26 0.72 4.2 1.69l10.16 4.11q1.16 0.41 2.25 0.9c22.85 10.31 20.19 42.95 70.61 60.16zm-251.32-58.17c9.64-3.58 17.84-7.91 23.57-12.54 21.03-16.97 27.59-40.88 19.92-51.35-18.52 0.48-37 22.23-43.43 50.23-1.07 4.68-1.06 9.29-0.06 13.66zm851.77-197.66c-34.16 44.5-96.97 94.77-136.9 123.57-26.05 18.78-36.22 22.37-38.75 19.28l-8.15-10.62c-0.89-0.36-1.39-1.07-1.58-2.06-1-5.3 7.1-18.37 11.14-25.59 4.2-7.51 6.86-15.96 7.45-22.66-4.49 1.84-10.72 7-18.99 16.86-23.95 28.61-52.34 56.26-76.55 56.63q-3.01 0.06-5.92-0.48l-10.49-0.85q-0.84-0.05-1.67-0.14-1.98-0.24-3.89-0.8c-24.58 33.07-68.29 71.86-133.64 96.01-37.21 14.74-102.26 29.17-174.35 9.19q-4.02-1.11-7.66-2.35c73.39 16.54 145.73-8.81 180.42-20.86l0.05 0.06c61.28-23.55 102.19-58.21 125.31-87.59q-0.9-0.79-1.79-1.68c-11.52-11.67-4.82-51.66 17.46-54.24q1.02-0.12 1.91-0.04l9.22-0.15c13.05-1.52 9.27 24.6-13.88 57.44q4.13 3.22 8.55 4.8c24.68-3.96 53.98-37.84 77.79-66.27 15.12-18.06 23.46-20.37 26.68-15.34l8.54 10.56q0.24 0.25 0.44 0.54c3.8 5.42 1.06 20.33-5.86 32.69-1.99 3.56-4.97 8.54-7.35 13.31 6.05-3.06 14.6-8.45 26.42-16.98 39.93-28.8 102.74-79.07 136.9-123.57zm-288.4 139.87c16.2-22.97 20.83-41.48 15.24-46.75-15.05 6.96-20.55 32.82-15.24 46.75z"/>
</svg>