<svg version="1.2" xmlns="http://www.w3.org/2000/svg" viewBox="0 0 406 366" width="406" height="366">
	<style>
		.s0 { fill: #4cc764 } 
		.s1 { fill: #ffffff } 
	</style>
	<g id="LINE LOGO">
		<g id="&lt;Group&gt;">
			<path id="&lt;Path&gt;" class="s0" d="m364 180c0 88.37-71.63 160-160 160-88.37 0-160-71.63-160-160 0-88.37 71.63-160 160-160 88.37 0 160 71.63 160 160z"/>
			<g id="&lt;Group&gt;">
				<g id="&lt;Group&gt;">
					<g id="&lt;Group&gt;">
						<path id="&lt;Path&gt;" class="s1" d="m310.7 170.68c0-47.79-47.91-86.68-106.81-86.68-58.89 0-106.81 38.89-106.81 86.68 0 42.85 38 78.74 89.33 85.52 3.48 0.75 8.21 2.29 9.41 5.27 1.07 2.7 0.7 6.93 0.34 9.65 0 0-1.25 7.54-1.52 9.15-0.47 2.7-2.15 10.56 9.25 5.76 11.4-4.81 61.51-36.22 83.92-62.02 15.48-16.97 22.89-34.2 22.89-53.33z"/>
					</g>
					<g id="&lt;Group&gt;">
						<path id="&lt;Path&gt;" class="s0" d="m275.17 198.28c1.13 0 2.04-0.91 2.04-2.04v-7.57c0-1.13-0.92-2.04-2.04-2.04h-20.39v-7.87h20.39c1.13 0 2.04-0.91 2.04-2.04v-7.58c0-1.12-0.92-2.03-2.04-2.03h-20.39v-7.87h20.39c1.13 0 2.04-0.91 2.04-2.04v-7.58c0-1.12-0.92-2.04-2.04-2.04h-29.97-0.04c-1.12 0-2.04 0.92-2.04 2.04v0.05 46.53 0.01 0.03c0 1.13 0.92 2.04 2.04 2.04h0.04z"/>
						<path id="&lt;Path&gt;" class="s0" d="m164.17 198.28c1.12 0 2.04-0.91 2.04-2.04v-7.57c0-1.13-0.92-2.04-2.04-2.04h-20.4v-37.01c0-1.12-0.92-2.04-2.04-2.04h-7.57c-1.13 0-2.04 0.92-2.04 2.04v46.58 0.01 0.03c0 1.13 0.91 2.04 2.04 2.04h0.04z"/>
						<path id="&lt;Path&gt;" class="s0" d="m182.23 147.58h-7.57c-1.13 0-2.04 0.92-2.04 2.04v46.62c0 1.13 0.91 2.04 2.04 2.04h7.57c1.13 0 2.04-0.91 2.04-2.04v-46.62c0-1.12-0.91-2.04-2.04-2.04z"/>
						<path id="&lt;Path&gt;" class="s0" d="m233.8 147.58h-7.57c-1.13 0-2.04 0.92-2.04 2.04v27.69l-21.33-28.8q-0.08-0.11-0.17-0.21 0-0.01-0.01-0.02-0.06-0.06-0.12-0.12-0.02-0.02-0.04-0.04-0.05-0.05-0.11-0.09-0.03-0.02-0.06-0.04-0.05-0.04-0.1-0.08-0.03-0.02-0.07-0.04-0.05-0.03-0.11-0.06-0.03-0.01-0.06-0.03-0.06-0.03-0.12-0.05-0.04-0.01-0.07-0.03-0.06-0.02-0.12-0.03-0.04-0.01-0.08-0.02-0.06-0.02-0.12-0.03-0.04-0.01-0.08-0.01-0.06-0.01-0.11-0.02-0.06 0-0.11 0-0.04 0-0.07-0.01h-7.54c-1.12 0-2.03 0.92-2.03 2.04v46.62c0 1.13 0.91 2.04 2.03 2.04h7.58c1.13 0 2.04-0.91 2.04-2.04v-27.68l21.35 28.84q0.23 0.31 0.53 0.51 0.01 0.01 0.02 0.02 0.07 0.04 0.13 0.08 0.03 0.02 0.06 0.03 0.05 0.03 0.1 0.05 0.05 0.02 0.1 0.04 0.03 0.01 0.06 0.03 0.07 0.02 0.15 0.04 0.01 0 0.02 0.01 0.26 0.07 0.54 0.07h7.53c1.13 0 2.04-0.91 2.04-2.04v-46.62c0-1.12-0.91-2.04-2.04-2.04z"/>
					</g>
				</g>
			</g>
		</g>
	</g>
</svg>