<svg version="1.2" xmlns="http://www.w3.org/2000/svg" viewBox="0 0 1920 827" width="1920" height="827">
	<style>
		.s0 { opacity: .8;fill: #81d7cf } 
	</style>
	<path id="シェイプ 716" fill-rule="evenodd" class="s0" d="m756.62 785.24q0.55 0.08 1.1 0.16-0.55-0.02-1.11-0.04-10.71-0.48-21.53-1.47c-120.33-11.04-125.84-79.06-167.98-100.21q-1.12 0.01-2.27 0.04c-75.81 2.4-161.81 106.13-237.07 116.9-26.75 3.82-51.01 4.49-70.75-0.2q0.16 0.06 0.33 0.11c-18.3-1.91-35.36-7.51-49.28-16.12-56.61 31.59-129.96 54.58-183.28 35.47l-24.76-25.56c56.11 20.11 132.49 2.42 188.88-25.95-10.67-12.26-16.72-27.47-15.91-44.82 3.08-65.81 38.13-121.75 80.93-122.96 4.15-0.12 7.92 0.5 11.3 1.77l21.23 4.59q4.09 0.33 7.62 1.65c29.62 11.02 29.07 71.74-13.44 120.92-12.95 14.99-34.73 32.36-61.09 48.24 7.92 8.5 18.24 15.4 30.46 20.2 14.7 1.18 31.36-1.11 48.82-3.61 75.27-10.77 161.26-114.5 237.07-116.9q6.58-0.2 12.26 0.54c3.36 0.43 6.49 1.1 9.45 1.96l22.89 4.76q2.6 0.44 5.06 1.05c51.89 12.98 58.7 82.49 171.07 99.48zm-549.66-26.73c18.88-11.17 34.46-23.37 44.74-35.26 37.69-43.61 42.39-96.29 22.32-115.35-38.7 8.03-69.24 60.7-72.1 121.91-0.48 10.25 1.31 19.92 5.04 28.7zm1713.02-738.19c-54.82 106.38-167.59 235.75-240.48 311.36-47.56 49.32-67.54 60.71-74.03 55.17l-21.13-19.18c-2.01-0.43-3.34-1.74-4.1-3.73-4.13-10.76 7.92-41.26 13.66-57.94 5.98-17.37 8.35-36.13 7.04-50.4-8.71 5.56-19.84 18.75-33.45 42.6-39.42 69.14-88.52 137.95-139.2 147.93q-6.3 1.25-12.62 1.23l-22.35 2.19q-1.77 0.23-3.55 0.35-4.23 0.25-8.47-0.19c-39.05 78.74-116.09 176.75-244.09 252.25-72.51 45.05-203.61 100.04-362.51 85.46q-8.86-0.82-16.98-2.02c160.33 6.85 302.57-73.81 370.83-112.27l0.11 0.1c119.71-72.68 192.44-160.98 229.82-231.42q-2.2-1.31-4.39-2.85c-28.62-20.12-29.72-106.62 16.07-120.49q2.1-0.64 3.99-0.79l19.3-3.83c26.81-8.13 28.8 48.13-7.34 125.84 6.59 3.49 13.19 5.74 19.78 6.84 50.3-17.68 98.93-99.92 138.12-168.64 24.9-43.65 41.53-51.66 50.19-42.31l21.94 18.91q0.59 0.45 1.14 0.98c10.03 9.93 9.93 42.27 0.1 70.83-2.83 8.23-7.19 19.82-10.39 30.75 11.54-8.73 27.44-23.3 49.03-45.68 72.89-75.61 185.66-204.98 240.48-311.36zm-552.33 403.08c25.3-54.37 27.98-94.99 14.26-103.93-28.96 20.33-30.68 76.7-14.26 103.93z"/>
</svg>