<?xml version="1.0" encoding="UTF-8" standalone="no"?><!DOCTYPE svg PUBLIC "-//W3C//DTD SVG 1.1//EN" "http://www.w3.org/Graphics/SVG/1.1/DTD/svg11.dtd"><svg width="538px" height="90px" version="1.1" xmlns="http://www.w3.org/2000/svg" xmlns:xlink="http://www.w3.org/1999/xlink" xml:space="preserve" xmlns:serif="http://www.serif.com/" style="fill-rule:evenodd;clip-rule:evenodd;stroke-linejoin:round;stroke-miterlimit:2;"><g id="logo"><path id="シェイプ-1513" serif:id="シェイプ 1513" d="M82.571,17.27c9.045,9.257 9.045,24.251 0,33.499l-37.895,38.743l-37.884,-38.736c-9.056,-9.25 -9.056,-24.249 -0,-33.506c9.038,-9.265 23.71,-9.265 32.764,0l5.12,5.228l5.124,-5.228c9.05,-9.265 23.716,-9.265 32.771,0Zm-8.848,37.081c2.35,0 4.255,-1.949 4.255,-4.351c0,-2.402 -1.905,-4.35 -4.255,-4.35c-1.764,-0 -3.279,1.1 -3.922,2.665l-13.911,-0.003l-2.774,-8.589c-0.256,-0.788 -0.991,-1.298 -1.804,-1.252c-0.809,0.047 -1.485,0.64 -1.653,1.451l-4.989,24.322l-6.928,-38.474c-0.149,-0.826 -0.824,-1.442 -1.645,-1.493c-0.824,-0.057 -1.568,0.462 -1.823,1.265l-7.191,22.773l-7.039,0c-0.645,-1.565 -2.158,-2.665 -3.923,-2.665c-2.35,-0 -4.256,1.948 -4.256,4.35c0,2.402 1.906,4.351 4.256,4.351c1.649,0 3.065,-0.972 3.771,-2.376l8.495,0c0.779,0 1.466,-0.512 1.702,-1.268l5.413,-17.135l7.291,40.491c0.152,0.858 0.885,1.484 1.739,1.498l0.025,-0c0.844,-0 1.575,-0.608 1.749,-1.455l5.494,-26.776l1.095,3.389c0.245,0.752 0.931,1.259 1.701,1.259l15.358,0c0.707,1.403 2.12,2.373 3.769,2.373Zm156.394,-12.915l11.312,32.728c1.119,3.245 1.928,5.437 2.428,6.576l-14.799,-0c-0.242,-1.812 -0.629,-3.762 -1.162,-5.852l-1.007,-3.702l-13.611,-0l-1.007,3.702c-0.569,2.176 -0.956,4.127 -1.163,5.852l-14.798,-0c0.533,-1.226 1.343,-3.417 2.427,-6.576l11.26,-32.728c0.948,-2.727 1.516,-4.722 1.705,-5.982l16.659,0c0.24,1.312 0.826,3.306 1.756,5.982Zm-13.921,19.16l7.722,-0l-3.848,-14.112l-3.874,14.112Zm85.847,-1.657l0,13.153c0,3.384 0.138,6.267 0.414,8.648l-13.042,-0c0.275,-2.227 0.413,-5.109 0.413,-8.648l0,-10.357c0,-2.209 -0.439,-3.754 -1.317,-4.635c-0.62,-0.621 -1.456,-0.932 -2.505,-0.932c-1.395,-0 -2.584,0.57 -3.565,1.71c-0.464,0.553 -0.826,1.13 -1.085,1.734c-0.257,0.552 -0.516,1.226 -0.774,2.021l0,10.459c0,3.315 0.137,6.197 0.414,8.648l-13.043,-0c0.275,-2.261 0.413,-5.143 0.413,-8.648l0,-10.357c0,-2.037 -0.293,-3.478 -0.878,-4.324c-0.569,-0.829 -1.464,-1.243 -2.686,-1.243c-1.257,-0 -2.359,0.424 -3.306,1.269c-0.654,0.57 -1.21,1.269 -1.666,2.097c-0.456,0.829 -0.685,1.546 -0.685,2.15l0,10.408c0,3.435 0.138,6.318 0.414,8.648l-12.939,-0c0.275,-2.451 0.413,-5.333 0.413,-8.648l0,-16.235c0,-3.935 -0.138,-6.817 -0.413,-8.648l12.525,0l0,3.651c0.81,-1.243 1.972,-2.269 3.487,-3.081c2.015,-1.052 4.313,-1.579 6.896,-1.579c2.772,0 4.959,0.544 6.56,1.631c0.689,0.466 1.257,0.993 1.705,1.58c0.258,0.362 0.584,0.923 0.981,1.683c1.102,-1.26 2.023,-2.141 2.763,-2.641c2.29,-1.536 5.131,-2.305 8.523,-2.305c3.943,0 6.87,0.975 8.782,2.926c2.134,2.175 3.201,5.464 3.201,9.865Zm39.413,-0.622l-0,14.372c-0,3.296 0.12,5.98 0.361,8.051l-12.475,-0l0,-2.977c-1.067,1.208 -2.091,2.037 -3.072,2.485c-2.049,0.915 -4.486,1.373 -7.309,1.373c-3.668,-0 -6.535,-0.76 -8.6,-2.278c-2.756,-2.038 -4.133,-4.946 -4.133,-8.726c0,-2.382 0.56,-4.341 1.679,-5.879c0.912,-1.207 2.186,-2.209 3.822,-3.003c1.102,-0.534 2.467,-1 4.093,-1.398c1.628,-0.397 3.233,-0.656 4.817,-0.776c2.514,-0.208 5.415,-0.347 8.703,-0.416l0,-1.423c0,-0.898 -0.267,-1.605 -0.8,-2.123c-0.758,-0.742 -1.903,-1.114 -3.435,-1.114c-1.773,0 -3.125,0.518 -4.055,1.554c-0.396,0.448 -0.758,1.14 -1.085,2.071l-11.983,-1.864c0.637,-1.847 1.274,-3.202 1.911,-4.065c1.515,-2.089 3.651,-3.616 6.406,-4.583c2.461,-0.881 5.604,-1.32 9.426,-1.32c3.478,0 6.568,0.491 9.271,1.475c1.293,0.45 2.48,1.208 3.565,2.279c1.928,1.917 2.893,4.678 2.893,8.285Zm-12.114,10.125l0,-2.072c-3.201,0.104 -5.432,0.311 -6.688,0.622c-1.705,0.414 -2.841,1.009 -3.409,1.787c-0.362,0.5 -0.543,1.096 -0.543,1.786c0,0.864 0.259,1.544 0.775,2.045c0.706,0.691 1.756,1.036 3.151,1.036c2.134,-0 3.908,-0.699 5.32,-2.097c0.93,-0.932 1.394,-1.968 1.394,-3.107Zm32.051,1.734l5.502,-0c3.529,-0 6.404,-0.12 8.626,-0.362l-0,11.289c-2.049,-0.242 -4.942,-0.363 -8.678,-0.363l-13.843,-0c-3.771,-0 -6.293,0.052 -7.567,0.156l-0,-9.607c1.532,-1.484 3.133,-3.107 4.804,-4.867l8.161,-8.907l-3.332,-0c-3.581,-0 -6.457,0.121 -8.626,0.363l-0,-11.031c2.41,0.242 5.286,0.362 8.626,0.362l11.725,0c3.926,0 6.517,-0.051 7.774,-0.156l0,9.193c-2.169,2.158 -3.77,3.797 -4.804,4.92l-8.368,9.01Zm92.563,-11.34l0,13.256c0,3.435 0.138,6.318 0.414,8.648l-13.043,-0c0.275,-2.416 0.413,-5.298 0.413,-8.648l0,-10.357c0,-3.711 -1.326,-5.567 -3.977,-5.567c-1.74,-0 -3.297,0.708 -4.675,2.123c-0.723,0.743 -1.42,1.857 -2.092,3.342l0,10.459c0,3.074 0.138,5.956 0.413,8.648l-12.938,-0c0.275,-2.313 0.413,-5.195 0.413,-8.648l-0,-16.235c-0.018,-3.624 -0.155,-6.508 -0.413,-8.648l12.525,0l0,3.651c1.171,-1.121 2.161,-1.924 2.971,-2.407c2.479,-1.502 5.225,-2.253 8.238,-2.253c3.633,0 6.483,1.018 8.549,3.055c0.946,0.95 1.644,2.029 2.092,3.236c0.739,1.935 1.11,4.049 1.11,6.345Zm39.773,6.368c0.034,0.848 0.077,1.486 0.13,1.917l-23.812,0c0.136,0.95 0.309,1.666 0.516,2.149c0.946,2.279 2.763,3.419 5.449,3.419c1.894,-0 3.4,-0.45 4.52,-1.348c0.482,-0.397 0.86,-0.837 1.136,-1.32c0.155,-0.293 0.336,-0.734 0.542,-1.321l11.055,2.978c-0.914,1.986 -1.705,3.409 -2.377,4.271c-1.394,1.814 -3.099,3.22 -5.113,4.222c-2.67,1.346 -5.82,2.019 -9.453,2.019c-4.649,0 -8.471,-1.087 -11.467,-3.262c-2.117,-1.554 -3.754,-3.47 -4.907,-5.749c-1.343,-2.692 -2.015,-5.755 -2.015,-9.191c0,-3.936 0.87,-7.328 2.609,-10.176c1.601,-2.641 3.753,-4.651 6.456,-6.033c2.635,-1.328 5.622,-1.993 8.962,-1.993c5.079,0 9.178,1.493 12.294,4.479c3.323,3.194 5.131,7.836 5.424,13.93c0.034,0.415 0.051,0.752 0.051,1.009Zm-23.579,-5.514l11.647,0c-0.224,-1.07 -0.611,-1.925 -1.162,-2.564c-1.085,-1.225 -2.617,-1.838 -4.597,-1.838c-2.084,-0 -3.693,0.717 -4.83,2.149c-0.431,0.518 -0.783,1.269 -1.058,2.253Zm58.522,5.257c0.843,1.416 1.266,3.158 1.266,5.229c-0,3.125 -0.948,5.619 -2.841,7.483c-1.154,1.139 -2.42,1.959 -3.797,2.461c-2.979,1.052 -6.259,1.578 -9.84,1.578c-1.962,0 -3.93,-0.168 -5.901,-0.505c-1.972,-0.336 -3.577,-0.781 -4.817,-1.333c-2.496,-1.087 -4.312,-2.857 -5.449,-5.308c-0.431,-0.914 -0.766,-2.21 -1.007,-3.884l12.474,-1.321c0.103,1.192 0.481,2.107 1.136,2.745c0.878,0.846 2.247,1.269 4.106,1.269c2.687,0 4.03,-0.767 4.03,-2.304c-0,-0.743 -0.31,-1.286 -0.93,-1.631c-0.448,-0.242 -1.042,-0.45 -1.782,-0.622l-2.35,-0.415c-2.48,-0.43 -4.744,-0.896 -6.793,-1.397c-3.186,-0.759 -5.44,-2.072 -6.766,-3.936c-1.206,-1.674 -1.808,-3.703 -1.808,-6.085c0,-2.797 0.878,-5.058 2.634,-6.784c1.171,-1.139 2.47,-1.975 3.9,-2.511c2.737,-1 5.759,-1.503 9.065,-1.503c5.372,0 9.384,1.141 12.036,3.419c1.084,0.949 1.91,2.01 2.479,3.185c0.344,0.69 0.714,1.761 1.11,3.21l-12.19,1.217c-0.035,-0.863 -0.198,-1.502 -0.491,-1.916c-0.551,-0.777 -1.662,-1.165 -3.332,-1.165c-1.394,0 -2.393,0.294 -2.995,0.88c-0.345,0.363 -0.517,0.777 -0.517,1.243c0,0.466 0.319,0.88 0.956,1.243c0.413,0.242 0.921,0.439 1.524,0.595c0.154,0.036 0.765,0.156 1.833,0.363c0.706,0.138 2.505,0.535 5.398,1.191c2.909,0.656 5.07,1.407 6.482,2.252c1.429,0.864 2.488,1.882 3.177,3.057Zm-132.335,-19.11c10.241,0 18.544,8.133 18.544,18.164c-0,10.031 -8.303,18.163 -18.544,18.163c-10.241,0 -18.544,-8.132 -18.544,-18.163c0,-10.031 8.303,-18.164 18.544,-18.164Zm12.869,22.739l-0,-9.152l-8.393,0l0,-8.579l-8.952,-0l-0,8.579l-8.393,0l0,9.152l8.393,0l-0,8.582l8.952,-0l0,-8.582l8.393,0Z" style="fill:#81d7cf;"/><g id="_-提携医療機関---東京銀座-NEW-AGE-CLINIC" serif:id="[提携医療機関]  東京銀座 NEW AGE CLINIC" transform="matrix(1,0,0,1,224.665,13.0703)"><text x="0px" y="0px" style="font-family:'ArialMT', 'Arial', sans-serif;font-size:16px;fill:#4f4f4f;">[</text><text x="4.445px" y="0px" style="font-family:'MalgunGothic', 'Malgun Gothic', sans-serif;font-size:16px;fill:#4f4f4f;">提携</text><text x="36.445px" y="0px" style="font-family:'MS-UIGothic', 'MS UI Gothic', sans-serif;font-size:16px;fill:#4f4f4f;">医</text><text x="52.445px" y="0px" style="font-family:'MalgunGothic', 'Malgun Gothic', sans-serif;font-size:16px;fill:#4f4f4f;">療機</text><text x="84.445px" y="0px" style="font-family:'MS-UIGothic', 'MS UI Gothic', sans-serif;font-size:16px;fill:#4f4f4f;">関</text><text x="100.445px" y="0px" style="font-family:'ArialMT', 'Arial', sans-serif;font-size:16px;fill:#4f4f4f;">]</text><text x="113.781px" y="0px" style="font-family:'MalgunGothic', 'Malgun Gothic', sans-serif;font-size:16px;fill:#4f4f4f;">東京銀座</text><g transform="matrix(16,0,0,16,313.805,0)"></g><text x="182.227px" y="0px" style="font-family:'ArialMT', 'Arial', sans-serif;font-size:16px;fill:#4f4f4f;">NEW <tspan x="223.117px 233.789px " y="0px 0px ">AG</tspan>E CLINIC</text></g><path id="シェイプ-1513-のコピー" serif:id="シェイプ 1513 のコピー" d="M103.254,80.664l0,-45.21l19.408,0c14.249,0 23.092,6.782 23.092,21.663c0,17.017 -9.273,23.547 -23.46,23.547l-19.04,-0Zm14.495,-10.549l3.07,0c6.756,0 10.441,-3.642 10.441,-12.182c-0,-9.418 -3.009,-11.93 -10.748,-11.93l-2.763,0l-0,24.112Zm32.487,-22.354l11.608,-0l-0,6.656l0.123,0c1.781,-5.148 4.912,-7.598 9.888,-7.598c0.552,0 1.105,0.126 1.658,0.189l-0,13.061c-0.86,-0.127 -1.781,-0.377 -2.641,-0.377c-5.22,-0 -7.862,2.512 -7.862,9.606l0,11.366l-12.774,-0l-0,-32.903Zm27.758,32.903l-0,-12.935l13.02,0l0,12.935l-13.02,-0Z" style="fill:#4f4f4f;"/></g></svg>