<svg version="1.2" xmlns="http://www.w3.org/2000/svg" viewBox="0 0 2071 428" width="2071" height="428">
	<style>
		.s0 { opacity: .6;fill: #81d7cf } 
	</style>
	<path id="シェイプ 716 のコピー" fill-rule="evenodd" class="s0" d="m709.48 357.68q0.48 0.27 0.97 0.55-0.51-0.22-1.02-0.44-9.81-4.33-19.54-9.17c-108.17-53.86-88.68-119.26-120.3-154.23q-1.05-0.4-2.14-0.79c-71.53-25.21-189.25 40.35-263.31 23.12-26.32-6.12-49.17-14.28-65.88-25.79q0.13 0.11 0.27 0.22c-16.37-8.41-30.24-19.81-40.1-32.87-64.21 8.94-140.91 3.82-183.7-33.31l-13.82-32.79c45.02 39.07 122.63 50.24 185.46 44.2-5.51-15.28-5.64-31.65 1.4-47.54 26.7-60.23 79.63-99.68 119.97-85.31 3.91 1.4 7.2 3.34 9.89 5.75l18.13 11.96q3.69 1.79 6.51 4.3c23.61 21 1.11 77.39-56.32 107.85-17.5 9.28-44.09 17.58-74.41 22.84 4.3 10.79 11.42 20.96 21.08 29.87 13.28 6.42 29.63 10.31 46.82 14.31 74.06 17.22 191.78-48.34 263.31-23.13q6.21 2.19 11.24 4.94c2.97 1.61 5.65 3.37 8.1 5.25l19.61 12.73q2.27 1.35 4.34 2.81c43.67 30.88 24.84 98.14 123.44 154.67zm-502.7-223.94c21.64-3.58 40.58-9.31 54.47-16.67 50.93-27.01 74.38-74.41 62.57-99.44-38.98-6.53-86.51 31.5-111.35 87.53-4.15 9.38-5.99 19.04-5.69 28.58zm1864.12-67.84c-89.62 79.31-241.58 159.07-336.9 203.15-62.19 28.76-84.94 32.14-88.99 24.63l-12.75-25.53c-1.72-1.13-2.48-2.83-2.47-4.96 0.05-11.52 22.32-35.59 33.71-49.07 11.86-14.02 20.86-30.65 24.81-44.43-10.13 2.03-25.29 10.3-46.6 27.6-61.79 50.17-132.47 96.53-183.33 87.49q-6.32-1.12-12.21-3.42l-21.62-6.05q-1.74-0.43-3.44-0.97-4.04-1.29-7.83-3.24c-64.9 59.26-172.21 122.73-318.87 146.76-83.91 15.74-226.02 19.53-368.86-51.6q-7.97-3.97-15.1-8.03c146.98 64.44 308.77 40.75 386.33 29.61l0.07 0.14c137.9-24.4 237.67-80.38 298.02-132.5q-1.57-2.02-3.06-4.25c-19.39-29.12 10.9-110.14 58.61-106.5q2.18 0.17 4 0.71l19.39 3.42c27.92 2.13 9.41 55.3-52.41 114.65 4.87 5.63 10.21 10.12 15.95 13.53 53.29 1.73 128.41-57.32 189.82-107.18 39.01-31.67 57.42-33.12 62.11-21.27l13.6 25.58q0.39 0.62 0.71 1.32c5.75 12.89-6.05 43-25.55 66.06-5.62 6.65-13.88 15.87-20.82 24.9 13.92-3.95 34.02-11.78 62.24-24.83 95.33-44.08 247.29-123.84 336.91-203.16zm-660.82 175.75c43.27-41.53 60.48-78.42 50.92-91.72-34.35 8.46-56.36 60.39-50.92 91.72z"/>
</svg>