<svg version="1.2" xmlns="http://www.w3.org/2000/svg" viewBox="0 0 1133 298" width="1133" height="298">
	<style>
		.s0 { opacity: .6;fill: #ffffff } 
	</style>
	<path id="シェイプ 719" fill-rule="evenodd" class="s0" d="m1.97 279.19c62.58-54.57 191.54-134.98 361.73-140.45q8.9-0.27 17.1-0.08c-159.96 12.97-290.88 105.86-350.66 157.98zm379.95-140.5q-0.56-0.01-1.12-0.02 0.55-0.05 1.11-0.1 10.69-0.84 21.55-1.19c120.78-3.88 134.68 63.16 179.11 79q1.12-0.14 2.26-0.31c74.93-11.76 147.41-125.66 220.77-145.67 26.07-7.11 50.05-10.77 70.23-8.55q-0.17-0.03-0.34-0.07c18.4-0.35 36.01 3.12 50.89 9.96 52.27-38.44 122.21-70.39 177.49-57.95l27.73 22.39c-58.17-13.09-131.77 13.96-184.21 49.17 12.11 10.88 20 25.27 21.34 42.65 5.11 65.9-22.75 125.92-65.07 132.42-4.1 0.63-7.93 0.47-11.44-0.37l-21.63-1.95q-4.1 0.17-7.77-0.7c-30.75-7.32-37.73-67.83-1.65-122.04 11-16.53 30.46-36.51 54.65-55.57-8.91-7.49-20.01-13.08-32.74-16.35-14.73 0.64-30.97 4.98-47.99 9.63-73.36 20.01-145.84 133.9-220.77 145.66q-6.51 1.01-12.23 0.98c-3.39-0.01-6.58-0.29-9.63-0.79l-23.3-1.91q-2.64-0.11-5.15-0.42c-53.11-6.5-68.47-74.87-182.09-77.9zm548.77-41.3c-17.35 13.45-31.3 27.52-40.03 40.64-32 48.07-30.13 101.1-7.85 117.59 37.41-12.78 61.18-68.98 56.43-130.28-0.79-10.26-3.76-19.67-8.55-27.95z"/>
</svg>