<svg version="1.2" xmlns="http://www.w3.org/2000/svg" viewBox="0 0 1581 367" width="1581" height="367">
	<style>
		.s0 { opacity: .6;fill: #81d7cf } 
	</style>
	<path id="シェイプ 718" fill-rule="evenodd" class="s0" d="m1580.45 20.86c-67.41 48.37-203.33 116.23-373.29 105.77q-8.89-0.55-17.03-1.51c160.47 2.04 299.51-78.03 363.91-124.23zm-391.44 104.14q0.56 0.06 1.12 0.12-0.56 0-1.12 0-10.72-0.17-21.56-0.83c-120.62-7.42-128.18-75.31-170.94-95.2q-1.12 0.04-2.27 0.11c-28.31 1.75-57.39 14.92-84.7 31.93-37.5 31.57-71.96 56.96-104.2 78.14q-3.38 2.33-6.42 4.17c-62.87 40.59-117.33 65.37-169.46 89.36-53.41 24.56-72.93 27.42-76.39 20.96l-10.89-21.96c-1.48-0.97-2.12-2.43-2.11-4.26 0.06-9.89 19.22-30.52 29.02-42.07 10.2-12.02 17.96-26.28 21.37-38.1-8.7 1.71-21.71 8.79-40.03 23.6-53.11 42.96-113.84 82.63-157.45 74.76q-5.42-0.98-10.47-2.96l-18.54-5.25q-1.49-0.37-2.95-0.83-3.46-1.12-6.71-2.81c-65.35 59.46-180.61 123.75-341.45 132.65l-12.42-23.59c161.5-8.94 274.91-68.12 338.11-122.51q-1.35-1.74-2.62-3.66c-16.58-25.04 9.57-94.56 50.49-91.33q1.87 0.15 3.43 0.61l16.63 2.98c23.95 1.89 7.96 47.51-45.19 98.35 4.17 4.85 8.74 8.71 13.66 11.66 45.72 1.6 110.28-48.96 163.06-91.66 33.53-27.12 49.32-28.32 53.32-18.14l11.63 22q0.33 0.54 0.6 1.14c4.91 11.08-5.28 36.91-22.05 56.68-4.83 5.7-11.94 13.6-17.91 21.34 11.94-3.37 29.2-10.04 53.45-21.2 48.34-22.23 106.81-54.45 166.95-90.14l-0.02-0.03c104.99-61.64 105.44-90.54 181.15-95.23q6.57-0.4 12.26 0.16c3.37 0.33 6.53 0.91 9.51 1.69l23.02 4.07q2.62 0.36 5.1 0.9c52.26 11.41 61.15 80.76 173.99 94.38zm-837.38 83.58c37.2-35.58 52.03-67.22 43.87-78.67-29.49 7.2-48.48 51.75-43.87 78.67z"/>
</svg>