<?xml version="1.0" encoding="UTF-8" standalone="no"?>
<!DOCTYPE svg PUBLIC "-//W3C//DTD SVG 1.1//EN" "http://www.w3.org/Graphics/SVG/1.1/DTD/svg11.dtd">
<svg width="1226px" height="236px" version="1.1" xmlns="http://www.w3.org/2000/svg" xmlns:xlink="http://www.w3.org/1999/xlink" xml:space="preserve" xmlns:serif="http://www.serif.com/" style="fill-rule:evenodd;clip-rule:evenodd;stroke-linejoin:round;stroke-miterlimit:2;">
    <g transform="matrix(1,0,0,1,-60339.5,-179.244)">
        <g transform="matrix(1.04564,0,0,1.00018,10998.8,5051.59)">
            <g transform="matrix(0.721158,0,0,1.23751,3870.81,-5252.23)">
                <clipPath id="_clip1">
                    <rect x="60064.6" y="307.703" width="1625.83" height="190.592"/>
                </clipPath>
                <g clip-path="url(#_clip1)">
                    <rect x="60064.6" y="136.14" width="1625.83" height="362.155" style="fill:white;fill-opacity:0;"/>
                    <clipPath id="_clip2">
                        <rect x="60064.6" y="136.14" width="1625.83" height="362.155"/>
                    </clipPath>
                    <g clip-path="url(#_clip2)">
                        <g id="シェイプ-716" serif:id="シェイプ 716" transform="matrix(1.32613,0,0,0.807927,59274.2,159.093)">
                            <path d="M1353.72,378.402C1514.05,385.252 1656.29,304.593 1724.55,266.128L1724.66,266.233C1844.37,193.555 1917.1,105.249 1954.48,34.814C1953.02,33.937 1951.55,32.987 1950.09,31.959C1921.47,11.838 1920.37,-74.655 1966.16,-88.533C1967.56,-88.955 1968.89,-89.217 1970.15,-89.323L1989.45,-93.154C2016.26,-101.277 2018.25,-45.016 1982.11,32.693C1988.7,36.179 1995.3,38.426 2001.89,39.532C2052.18,21.849 2100.82,-60.391 2140.01,-129.108C2164.91,-172.758 2181.54,-180.77 2190.2,-171.424L2212.14,-152.507C2212.53,-152.208 2212.91,-151.889 2213.28,-151.53C2223.31,-141.597 2223.21,-109.26 2213.38,-80.695C2210.55,-72.465 2206.19,-60.879 2202.99,-49.954C2214.53,-58.675 2230.43,-73.247 2252.02,-95.634C2324.91,-171.236 2437.68,-300.608 2492.49,-406.99L2515.98,-386.681C2461.16,-280.298 2348.39,-150.926 2275.5,-75.325C2227.94,-25.998 2207.96,-14.615 2201.47,-20.146L2180.34,-39.334C2178.32,-39.758 2177,-41.067 2176.24,-43.061C2172.11,-53.816 2184.16,-84.319 2189.9,-101.004C2195.88,-118.371 2198.25,-137.125 2196.94,-151.398C2188.23,-145.845 2177.1,-132.649 2163.49,-108.8C2124.07,-39.662 2074.97,29.149 2024.29,39.132C2020.09,39.957 2015.88,40.378 2011.67,40.363L1989.32,42.551C1988.14,42.701 1986.95,42.826 1985.77,42.9C1982.95,43.068 1980.12,43.003 1977.3,42.706C1938.26,121.447 1861.21,219.46 1733.21,294.963C1660.7,340.014 1529.6,395.004 1370.7,380.424C1364.79,379.881 1359.14,379.2 1353.72,378.402ZM1353.72,378.402C1353.35,378.385 1352.98,378.378 1352.61,378.361C1345.47,378.038 1338.29,377.551 1331.08,376.889C1210.75,365.849 1205.24,297.829 1163.1,276.682C1162.35,276.689 1161.6,276.694 1160.83,276.719C1085.02,279.12 999.023,382.853 923.755,393.617C897.009,397.441 872.751,398.108 853.009,393.423C853.12,393.459 853.228,393.497 853.339,393.531C835.037,391.618 817.984,386.016 804.061,377.413C747.453,408.998 674.097,431.99 620.778,412.878L596.023,387.318C652.131,407.43 728.513,389.741 784.896,361.367C774.226,349.112 768.177,333.902 768.989,316.547C772.067,250.735 807.122,194.798 849.921,193.585C854.072,193.467 857.845,194.091 861.224,195.36L882.451,199.951C885.176,200.169 887.722,200.723 890.073,201.598C919.688,212.623 919.137,273.336 876.631,322.517C863.675,337.508 841.896,354.877 815.543,370.757C823.455,379.259 833.78,386.16 846.003,390.963C860.704,392.139 877.357,389.847 894.823,387.35C970.091,376.584 1056.08,272.852 1131.89,270.451C1136.29,270.312 1140.36,270.502 1144.15,270.985C1147.51,271.415 1150.64,272.087 1153.61,272.952L1176.49,277.712C1178.23,278.004 1179.91,278.353 1181.55,278.764C1233.44,291.736 1240.25,361.248 1352.62,378.242C1352.98,378.298 1353.36,378.348 1353.72,378.402ZM1977.91,-87.529C1948.95,-67.206 1947.23,-10.829 1963.65,16.404C1988.95,-37.97 1991.63,-78.59 1977.91,-87.529ZM797.922,322.814C797.443,333.059 799.225,342.728 802.961,351.514C821.839,340.344 837.419,328.143 847.699,316.249C885.393,272.637 890.09,219.959 870.018,200.9C831.32,208.931 800.785,261.596 797.922,322.814Z" style="fill:rgb(129,215,207);fill-opacity:0.8;"/>
                        </g>
                    </g>
                </g>
            </g>
        </g>
    </g>
</svg>
