<svg version="1.2" xmlns="http://www.w3.org/2000/svg" viewBox="0 0 1583 369" width="1583" height="369">
	<style>
		.s0 { opacity: .6;fill: #81d8d0 } 
	</style>
	<path id="シェイプ 718" fill-rule="evenodd" class="s0" d="m27.96 1.89c64.4 46.2 203.44 126.27 363.91 124.23q-8.14 0.96-17.03 1.51c-169.96 10.46-305.88-57.4-373.29-105.77zm539.01 29.73q2.48-0.54 5.1-0.9l23.02-4.07c2.99-0.78 6.14-1.36 9.51-1.68q5.7-0.57 12.27-0.17c75.7 4.69 76.16 33.59 181.14 95.23l-0.01 0.03c60.13 35.69 118.6 67.91 166.95 90.14 24.24 11.16 41.5 17.83 53.44 21.2-5.97-7.74-13.07-15.64-17.91-21.34-16.77-19.77-26.96-45.6-22.04-56.68q0.27-0.6 0.6-1.14l11.62-22c4-10.18 19.79-8.98 53.32 18.14 52.78 42.7 117.34 93.26 163.06 91.66 4.92-2.94 9.49-6.81 13.66-11.66-53.15-50.84-69.14-96.46-45.18-98.35l16.62-2.98q1.56-0.46 3.43-0.61c40.92-3.23 67.07 66.29 50.49 91.34q-1.27 1.91-2.62 3.65c63.2 54.39 176.61 113.57 338.11 122.51l-12.42 23.59c-160.84-8.9-276.1-73.19-341.45-132.65q-3.25 1.69-6.71 2.81-1.46 0.46-2.95 0.84l-18.54 5.24q-5.05 1.99-10.47 2.96c-43.61 7.87-104.34-31.8-157.45-74.76-18.32-14.81-31.33-21.88-40.03-23.6 3.41 11.83 11.17 26.08 21.37 38.1 9.8 11.55 28.96 32.18 29.02 42.07 0.01 1.83-0.63 3.3-2.11 4.27l-10.89 21.95c-3.46 6.46-22.98 3.61-76.39-20.96-52.13-23.99-106.59-48.77-169.46-89.36v0.01q-3.04-1.85-6.41-4.18c-32.24-21.18-66.71-46.57-104.2-78.14-27.32-17.01-56.4-30.18-84.7-31.93q-1.15-0.07-2.28-0.11c-42.76 19.89-50.32 87.78-170.93 95.2q-10.84 0.67-21.57 0.83-0.56 0-1.11 0 0.56-0.06 1.11-0.12c112.84-13.62 121.73-82.97 173.99-94.38zm619.53 99.3c-8.17 11.44 6.66 43.09 43.86 78.66 4.61-26.92-14.38-71.47-43.86-78.66z"/>
</svg>