<?xml version="1.0" encoding="UTF-8" standalone="no"?>
<!DOCTYPE svg PUBLIC "-//W3C//DTD SVG 1.1//EN" "http://www.w3.org/Graphics/SVG/1.1/DTD/svg11.dtd">
<svg width="1941px" height="390px" version="1.1" xmlns="http://www.w3.org/2000/svg" xmlns:xlink="http://www.w3.org/1999/xlink" xml:space="preserve" xmlns:serif="http://www.serif.com/" style="fill-rule:evenodd;clip-rule:evenodd;stroke-linejoin:round;stroke-miterlimit:2;">
    <g transform="matrix(1,0,0,1,-15396.5,-5767.17)">
        <g transform="matrix(1,0,0,1,15406.5,590.168)">
            <path id="シェイプ-716" serif:id="シェイプ 716" d="M659.132,5505.67C797.884,5563.81 949.191,5539.18 1021.72,5527.57L1021.79,5527.7C1150.7,5502.76 1243.38,5448.82 1299.16,5399.08C1298.15,5397.83 1297.18,5396.52 1296.23,5395.14C1277.61,5368.16 1304.78,5291.81 1349.55,5294.5C1350.92,5294.59 1352.17,5294.79 1353.32,5295.11L1371.54,5298.01C1397.75,5299.59 1381.2,5349.67 1324.14,5406.2C1328.8,5411.4 1333.87,5415.52 1339.31,5418.64C1389.29,5419.45 1458.81,5363 1515.63,5315.37C1551.71,5285.11 1568.94,5283.48 1573.52,5294.5L1586.66,5318.26C1586.91,5318.65 1587.14,5319.05 1587.34,5319.48C1592.93,5331.47 1582.32,5359.85 1564.39,5381.76C1559.23,5388.07 1551.62,5396.83 1545.25,5405.39C1558.24,5401.47 1576.96,5393.84 1603.22,5381.19C1691.91,5338.46 1833.15,5261.45 1915.97,5185.8L1930.01,5211.28C1847.19,5286.93 1705.95,5363.94 1617.26,5406.67C1559.4,5434.55 1538.12,5438.05 1534.22,5431.08L1521.88,5407.36C1520.25,5406.33 1519.51,5404.74 1519.49,5402.75C1519.36,5391.96 1539.88,5369.07 1550.35,5356.28C1561.25,5342.96 1569.44,5327.25 1572.93,5314.29C1563.46,5316.34 1549.38,5324.31 1529.67,5340.84C1472.5,5388.77 1406.94,5433.27 1359.13,5425.57C1355.18,5424.93 1351.34,5423.93 1347.64,5422.55L1327.28,5417.2C1326.19,5416.95 1325.11,5416.68 1324.04,5416.36C1321.5,5415.59 1319.04,5414.61 1316.65,5413.43C1256.71,5469.93 1157.08,5531 1019.96,5555.72C941.544,5571.73 808.384,5577.44 673.407,5512.97C668.38,5510.57 663.635,5508.14 659.132,5505.67ZM659.132,5505.67C658.811,5505.54 658.489,5505.41 658.168,5505.28C651.995,5502.67 645.842,5499.91 639.718,5496.99C537.502,5448.17 554.785,5386.61 524.612,5354.34C523.949,5354.1 523.283,5353.86 522.598,5353.63C455.157,5331.1 345.797,5394.28 276.112,5379.27C251.349,5373.94 229.802,5366.64 213.967,5356.11C214.053,5356.17 214.135,5356.24 214.223,5356.31C198.751,5348.68 185.579,5338.21 176.136,5326.13C116.084,5335.48 44.102,5331.83 3.436,5297.71L-10.015,5267.2C32.777,5303.11 105.696,5312.4 164.503,5305.8C159.109,5291.56 158.738,5276.23 165.098,5261.25C189.214,5204.43 238.236,5166.68 276.264,5179.52C279.952,5180.77 283.067,5182.54 285.625,5184.76L302.797,5195.69C305.122,5196.77 307.18,5198.08 308.963,5199.61C331.417,5218.93 311.181,5272.09 257.806,5301.48C241.537,5310.44 216.736,5318.62 188.397,5324.01C192.589,5334.05 199.422,5343.47 208.607,5351.67C221.151,5357.48 236.54,5360.88 252.71,5364.36C322.395,5379.37 431.755,5316.18 499.196,5338.72C503.106,5340.02 506.622,5341.51 509.8,5343.17C512.614,5344.64 515.15,5346.25 517.474,5347.97L536.049,5359.59C537.479,5360.41 538.85,5361.27 540.159,5362.16C581.566,5390.43 564.933,5453.72 658.211,5505.17C658.514,5505.34 658.827,5505.51 659.132,5505.67ZM1359.56,5299.21C1327.49,5307.65 1307.63,5356.62 1313.21,5385.89C1353.14,5346.34 1368.71,5311.52 1359.56,5299.21ZM188.499,5276.16C184.745,5285.01 183.167,5294.08 183.593,5303.01C203.827,5299.34 221.496,5293.68 234.404,5286.57C281.737,5260.51 303.004,5215.75 291.555,5192.48C254.916,5186.96 210.933,5223.3 188.499,5276.16Z" style="fill:rgb(129,215,207);fill-opacity:0.6;"/>
        </g>
    </g>
</svg>
