<svg version="1.2" xmlns="http://www.w3.org/2000/svg" viewBox="0 0 262 174" width="262" height="174">
	<style>
		.s0 { fill: #ff5f00 } 
		.s1 { fill: #eb001b } 
		.s2 { fill: #f79e1b } 
	</style>
	<g id="レイヤー 1">
		<path id="&lt;Path&gt;" class="s0" d="m96.74 30.48h69.32v113.22h-69.32z"/>
		<path id="&lt;Path&gt;" class="s1" d="m103.88 87.1c-0.02-22.09 10.12-42.96 27.5-56.6-31.26-24.57-76.53-19.14-101.1 12.12-24.57 31.27-19.14 76.53 12.12 101.1 26.11 20.52 62.87 20.52 88.98 0-17.38-13.64-27.52-34.52-27.5-56.62z"/>
		<path id="&lt;Compound Path&gt;" class="s2" d="m241 131.72v-2.32h1v-0.48h-2.38v0.48h0.94v2.32zm4.62 0v-2.8h-0.72l-0.84 2-0.84-2h-0.72v2.8h0.52v-2.12l0.78 1.82h0.54l0.78-1.82v2.12z"/>
		<path id="&lt;Path&gt;" class="s2" d="m247.88 87.1c0 39.76-32.24 72-72 72-16.14 0-31.81-5.42-44.5-15.4 31.26-24.57 36.69-69.83 12.12-101.1-3.54-4.51-7.61-8.58-12.12-12.12 31.26-24.58 76.53-19.16 101.1 12.1 9.98 12.69 15.4 28.36 15.4 44.5z"/>
	</g>
</svg>