<svg version="1.2" xmlns="http://www.w3.org/2000/svg" viewBox="0 0 97 34" width="97" height="34">
	<style>
		.s0 { fill: #1434cb } 
	</style>
	<path id="シェイプ 596" class="s0" d="m37.31 2.51l-12.18 29.06h-7.95l-5.99-23.19c-0.36-1.43-0.68-1.95-1.79-2.55-1.8-0.98-4.79-1.9-7.41-2.47l0.18-0.85h12.79c1.63 0 3.09 1.09 3.46 2.96l3.17 16.82 7.82-19.78zm31.13 19.57c0.04-7.67-10.6-8.09-10.53-11.52 0.03-1.04 1.02-2.15 3.19-2.43 1.08-0.14 4.05-0.25 7.41 1.3l1.32-6.16c-1.81-0.66-4.13-1.29-7.03-1.29-7.43 0-12.66 3.95-12.7 9.6-0.05 4.19 3.73 6.52 6.58 7.91 2.93 1.42 3.91 2.34 3.9 3.61-0.02 1.95-2.34 2.81-4.5 2.85-3.78 0.05-5.97-1.03-7.72-1.84l-1.36 6.37c1.75 0.8 5 1.5 8.36 1.54 7.89 0 13.06-3.9 13.08-9.94m19.62 9.49h6.96l-6.07-29.06h-6.42c-1.44 0-2.66 0.84-3.2 2.13l-11.28 26.93h7.89l1.57-4.34h9.65zm-8.39-10.3l3.96-10.91 2.27 10.91zm-31.62-18.76l-6.22 29.06h-7.52l6.22-29.06z"/>
</svg>