<svg version="1.2" xmlns="http://www.w3.org/2000/svg" viewBox="0 0 1548 507" width="1548" height="507">
	<style>
		.s0 { opacity: .6;fill: #81d8d0 } 
	</style>
	<path id="シェイプ 718" fill-rule="evenodd" class="s0" d="m1.99 487.74c62.76-54.31 191.98-134.24 362.19-139.18q8.9-0.25 17.09-0.04c-159.99 12.48-291.21 104.86-351.17 156.74zm380.41-139.19q-0.56-0.01-1.12-0.03 0.55-0.04 1.11-0.09 10.69-0.81 21.55-1.13c120.79-3.5 134.46 63.49 178.84 79.45q1.12-0.14 2.26-0.31c28.03-4.31 55.8-20.06 81.46-39.49 34.48-34.86 66.51-63.29 96.7-87.31q3.16-2.63 6.01-4.74c58.94-46.14 110.93-75.77 160.68-104.39 50.97-29.32 70.16-33.93 74.19-27.8l12.82 20.9c1.56 0.83 2.34 2.23 2.49 4.06 0.83 9.87-16.38 32.16-25.09 44.56-9.07 12.9-15.51 27.82-17.84 39.91 8.51-2.49 20.83-10.72 37.74-27.15 49-47.62 105.89-92.65 150.03-88.75q5.49 0.48 10.7 2.01l18.93 3.55q1.52 0.23 3.02 0.57 3.54 0.8 6.93 2.18c59.7-65.17 168.67-139.67 328.05-163.09l14.5 22.39c-160.03 23.52-267.61 92.76-325.63 152.69q1.49 1.61 2.93 3.41c18.78 23.47-0.96 95.13-42.01 95.61q-1.88 0.02-3.48-0.3l-16.82-1.46c-24.03 0.28-12.23-46.65 36.1-102.13-4.59-4.46-9.49-7.9-14.66-10.39-45.67 2.54-105.39 58.77-154.09 106.11-30.94 30.06-46.56 32.69-51.46 22.9l-13.57-20.88q-0.38-0.5-0.7-1.08c-5.9-10.6 1.91-37.27 16.83-58.5 4.29-6.11 10.66-14.63 15.9-22.88-11.59 4.43-28.17 12.65-51.31 25.96-46.13 26.53-101.44 63.93-158.1 104.95l0.02 0.03c-98.98 70.93-96.82 99.78-171.79 111.3q-6.51 0.99-12.23 0.94c-3.39-0.02-6.58-0.31-9.63-0.81l-23.29-1.98q-2.64-0.12-5.15-0.44c-53.08-6.65-68.22-74.98-181.82-78.35zm826.37-159.01c-33.83 38.82-45.74 71.71-36.56 82.38 28.71-9.84 43.59-55.97 36.56-82.38z"/>
</svg>