<svg version="1.2" xmlns="http://www.w3.org/2000/svg" viewBox="0 0 383 158" width="383" height="158">
	<style>
		.s0 { fill: #eef0f3 } 
		.s1 { fill: #81d8d0 } 
		.s2 { fill: #98a6b5 } 
		.s3 { fill: #fdfefe } 
		.s4 { fill: #4f4f4f } 
	</style>
	<g id="pic">
		<path id="長方形 9" fill-rule="evenodd" class="s0" d="m2 0h379v158h-379z"/>
		<path id="線 611" fill-rule="evenodd" class="s1" d="m2 99v-1h379v1z"/>
		<g id="1">
			<path id="長方形 609" fill-rule="evenodd" class="s2" d="m32 30h70v24h-70z"/>
			<path id="ご契約日" class="s3" aria-label="ご契約日"  d="m45.2 46.5q-1.4 0-2.3-0.4-0.8-0.5-1.3-1.8l1.2-0.6q0.2 0.7 0.8 1.1 0.6 0.4 1.6 0.4 0.9 0 1.9-0.1 0.9-0.1 1.7-0.2 0.8-0.2 1.4-0.3 0 0.1 0 0.4 0 0.3 0.1 0.6 0 0.2 0.1 0.4-0.6 0.1-1.4 0.3-0.9 0.1-1.9 0.2-0.9 0-1.9 0zm-2-8.2v-1.3q0.4 0.1 0.9 0.2 0.6 0 1.3 0.1 0.7 0 1.3 0 0.7-0.1 1.3-0.2 0.5-0.1 0.9-0.2v1.4q-0.3 0.1-0.9 0.1-0.6 0.1-1.2 0.1-0.7 0.1-1.4 0.1-0.6-0.1-1.2-0.1-0.6-0.1-1-0.2zm9.6-1.1l-0.6 0.5q-0.2-0.3-0.5-0.6-0.3-0.3-0.6-0.6-0.3-0.3-0.6-0.5l0.7-0.5q0.2 0.1 0.5 0.4 0.3 0.4 0.7 0.7 0.3 0.3 0.4 0.6zm-1.1 1l-0.7 0.5q-0.1-0.3-0.4-0.6-0.3-0.3-0.6-0.6-0.3-0.3-0.6-0.5l0.6-0.5q0.2 0.2 0.6 0.5 0.3 0.3 0.6 0.6 0.3 0.4 0.5 0.6zm2.6 9.9q0-0.2-0.2-0.6-0.1-0.4-0.3-0.6 2.1-0.2 3.3-0.8 1.2-0.6 1.8-1.8h-5v-1.1h5.3q0.2-0.6 0.2-1.3h0.2q-0.2-0.1-0.3-0.3-0.1-0.1-0.2-0.2-0.7 0.2-1.6 0.3-0.9 0.2-1.8 0.3-0.9 0.1-1.6 0.2l-0.3-1.1q0.5-0.1 1.2-0.1 0.7-0.1 1.4-0.2v-1.3h-2v-1h2v-1h-2.4v-1.1h2.4v-1.1h1.3v1.1h2.1v1.1h-2.1v1h1.7v1h-1.7v1.1q0.6-0.1 1.2-0.2 0.5-0.1 0.9-0.2 0 0.1-0.1 0.4 0 0.3 0 0.5 1.1-0.6 1.5-1.5 0.5-0.9 0.6-2.3h-1.6v-1.1h5.6q0 0.5 0 1.1 0 0.6-0.1 1.3 0 0.6-0.1 1.2 0 0.5-0.1 0.9-0.2 0.9-0.7 1.3-0.4 0.3-1.3 0.3h-0.8q0-0.3-0.1-0.7-0.1-0.4-0.2-0.6h0.9q0.4 0 0.5 0 0.2-0.1 0.3-0.3 0.1-0.1 0.2-0.5 0-0.3 0.1-0.8 0.1-0.5 0.1-1.1 0.1-0.6 0.1-1h-1.6q-0.1 1.6-0.7 2.8-0.5 1.1-1.8 1.9h0.2q0 0.3-0.1 0.6 0 0.3-0.1 0.6h5.7v1.1h-5q0.9 1.1 2.2 1.7 1.4 0.7 3.1 0.9-0.1 0.1-0.2 0.3-0.1 0.2-0.2 0.5-0.1 0.2-0.2 0.3-3.9-0.5-5.8-3.3-0.7 1.5-2.1 2.3-1.4 0.7-3.7 1.1zm17.2-0.1h-1.2v-5.8q-0.7 0.1-1.3 0.1-0.6 0.1-1 0.1l-0.2-1.1q0.2 0 0.5-0.1 0.3 0 0.6 0 0.2-0.2 0.6-0.6 0.3-0.4 0.6-0.9-0.3-0.2-0.7-0.5-0.5-0.3-0.9-0.7-0.4-0.3-0.8-0.5l0.7-0.9q0.2 0.1 0.3 0.2 0.2 0.1 0.4 0.3 0.2-0.4 0.5-0.8 0.2-0.4 0.4-0.8 0.2-0.5 0.4-0.7l1 0.4q-0.3 0.6-0.7 1.3-0.4 0.6-0.8 1.2 0.2 0.1 0.4 0.3 0.2 0.2 0.4 0.3 0.4-0.6 0.8-1.2 0.3-0.6 0.5-1l1 0.6q-0.3 0.5-0.7 1.2-0.5 0.7-1 1.4-0.5 0.7-1 1.3 0.6 0 1.1 0 0.4-0.1 0.8-0.1-0.1-0.3-0.2-0.5-0.1-0.2-0.3-0.3l1-0.5q0.2 0.2 0.3 0.5 0.5-0.6 0.9-1.5 0.4-0.8 0.7-1.7 0.3-0.9 0.5-1.6l1.2 0.2q-0.1 0.6-0.3 1.1-0.2 0.6-0.4 1.1h4.4v2.4q0 1.3-0.1 2.2 0 0.9 0 1.6-0.1 0.6-0.2 1.2-0.1 1-0.4 1.6-0.3 0.5-0.8 0.8-0.6 0.2-1.3 0.2h-1.2q0-0.3-0.1-0.6-0.1-0.4-0.2-0.6h1.5q0.6 0 0.8-0.3 0.3-0.3 0.5-1.2 0.1-0.7 0.2-1.8 0-1.1 0-3.1v-1.2h-3.6q-0.2 0.5-0.5 0.9-0.2 0.5-0.5 0.9-0.2-0.1-0.5-0.3-0.3-0.2-0.5-0.2 0.3 0.4 0.6 1 0.2 0.5 0.4 0.9-0.2 0.1-0.5 0.2-0.3 0.2-0.5 0.3-0.1-0.2-0.2-0.4-0.1-0.2-0.2-0.4-0.2 0-0.6 0.1-0.3 0-0.6 0.1zm-2.8-1.4q-0.1-0.1-0.3-0.2-0.2 0-0.4-0.1-0.2-0.1-0.4-0.1 0.3-0.4 0.5-1 0.2-0.6 0.4-1.2 0.2-0.6 0.3-1.1l1 0.2q-0.1 0.5-0.2 1.2-0.2 0.6-0.4 1.2-0.3 0.6-0.5 1.1zm7.7-2.7q-0.1-0.4-0.4-0.9-0.3-0.5-0.6-1-0.3-0.5-0.5-0.9l0.9-0.5q0.5 0.6 0.9 1.3 0.5 0.8 0.8 1.5-0.2 0-0.6 0.2-0.3 0.2-0.5 0.3zm-3.5 2q-0.1-0.3-0.3-0.9-0.2-0.5-0.4-1.1-0.1-0.5-0.2-0.9l1-0.2q0.1 0.3 0.3 0.9 0.2 0.5 0.4 1 0.2 0.4 0.3 0.8-0.1 0-0.3 0.1-0.2 0.1-0.4 0.2-0.3 0.1-0.4 0.1zm19.4 1.1h-8.5v-10.8h8.5zm-7.1-4.9v3.7h5.7v-3.7zm0-4.6v3.4h5.8v-3.4z"/>
			<path id="9月15日" class="s4" aria-label="9月15日"  d="m44.4 77.2q-0.8 0-1.5-0.4-0.7-0.5-1.2-1.1l1.1-0.8q0.3 0.5 0.7 0.7 0.4 0.3 0.9 0.3 0.9 0 1.4-0.6 0.6-0.6 0.8-1.6 0.2-1.1 0.2-2.4-0.3 0.5-0.8 0.8-0.6 0.3-1.2 0.3-0.9 0-1.6-0.4-0.6-0.4-1.1-1.1-0.4-0.8-0.4-1.8 0-1 0.4-1.8 0.4-0.8 1.1-1.2 0.7-0.5 1.6-0.5 0.7 0 1.3 0.3 0.6 0.2 1.1 0.9 0.5 0.6 0.7 1.7 0.3 1 0.3 2.7-0.1 3.1-1.1 4.6-0.9 1.4-2.7 1.4zm0.4-6.1q0.8 0 1.4-0.6 0.5-0.6 0.4-1.5-0.1-1-0.5-1.5-0.5-0.5-1.2-0.5-0.9 0-1.3 0.6-0.5 0.6-0.5 1.5 0 0.9 0.5 1.5 0.5 0.5 1.2 0.5zm6.3 7.1q-0.1-0.2-0.5-0.5-0.3-0.3-0.6-0.4 1.4-1 2.1-2.5 0.7-1.5 0.7-3.8v-6.8h8.7v12.4q0 1.5-1.8 1.5h-1.3q0-0.3-0.2-0.8 0-0.5-0.2-0.7h1.4q0.3 0 0.4-0.1 0.2-0.2 0.2-0.5v-3.3h-5.8q-0.2 1.9-1 3.2-0.7 1.3-2.1 2.3zm3.2-6.8h5.7v-2.2h-5.7v1.8q0 0.1 0 0.2 0 0.1 0 0.2zm0-5.8v2.2h5.7v-2.2zm14.9 11.4h-1.4v-9.4l-2.1 1.3-0.7-1.1 3.2-2h1zm5.6 0.1q-0.9 0-1.8-0.5-0.9-0.5-1.3-1.3l1.1-0.7q0.4 0.5 0.9 0.8 0.5 0.4 1.1 0.4 1 0 1.6-0.6 0.5-0.6 0.5-1.7 0-1.1-0.5-1.7-0.4-0.5-1.3-0.5-0.5 0-0.9 0.2-0.4 0.3-0.6 0.7h-1.2v-6.4h5.5v1.2h-4.2v3.6q0.7-0.6 1.5-0.6 0.9 0 1.6 0.4 0.7 0.4 1.1 1.2 0.4 0.8 0.4 1.9 0 1.7-1 2.7-0.9 0.9-2.5 0.9zm16.8 0h-9.6v-12.4h9.6zm-8.1-5.6v4.2h6.6v-4.2zm0-5.3v4h6.5v-4z"/>
			<path id="楕円形 610" fill-rule="evenodd" class="s1" d="m67 93c2.76 0 5 2.24 5 5 0 2.76-2.24 5-5 5-2.76 0-5-2.24-5-5 0-2.76 2.24-5 5-5z"/>
			<path id="10月・11月分お支払い" class="s4" aria-label="10月・11月分お支払い"  d="m118.7 126h-1.2v-8.2l-1.9 1.1-0.6-1 2.7-1.7h1zm5.3 0.2q-1.6 0-2.2-1.3-0.6-1.2-0.6-3.8 0-2.6 0.6-3.8 0.6-1.3 2.2-1.3 1.6 0 2.2 1.3 0.6 1.2 0.6 3.8 0 2.6-0.6 3.8-0.6 1.3-2.2 1.3zm0-1.2q0.6 0 0.9-0.4 0.4-0.3 0.6-1.2 0.1-0.8 0.1-2.3 0-1.5-0.1-2.3-0.2-0.9-0.6-1.2-0.3-0.4-0.9-0.4-0.6 0-0.9 0.4-0.4 0.3-0.6 1.2-0.1 0.8-0.1 2.3 0 1.5 0.1 2.3 0.2 0.9 0.6 1.2 0.3 0.4 0.9 0.4zm5.4 2.1q-0.1-0.2-0.4-0.5-0.3-0.3-0.6-0.4 1.3-0.9 1.9-2.2 0.6-1.3 0.6-3.2v-6h7.6v10.8q0 1.4-1.6 1.4h-1.1q0-0.3-0.1-0.7-0.1-0.4-0.2-0.7h1.1q0.3 0 0.5-0.1 0.1-0.1 0.1-0.4v-2.8h-5.1q-0.2 1.6-0.8 2.8-0.7 1.1-1.9 2zm2.8-6h5v-2h-5v1.6q0 0.1 0 0.2 0 0.1 0 0.2zm0-5.1v1.9h5v-1.9zm15.7 6q-0.5 0-1-0.3-0.3-0.5-0.3-1 0-0.6 0.3-1 0.5-0.4 1-0.4 0.6 0 1 0.4 0.4 0.4 0.4 1 0 0.5-0.4 1-0.4 0.3-1 0.3zm10.8 4h-1.2v-8.3l-1.9 1.2-0.6-1 2.8-1.7h0.9zm5.5 0h-1.2v-8.3l-1.8 1.2-0.6-1 2.7-1.7h0.9zm4.3 1q-0.1-0.2-0.4-0.4-0.3-0.3-0.6-0.4 1.3-0.9 1.9-2.2 0.6-1.3 0.6-3.3v-6h7.6v10.8q0 1.4-1.6 1.4h-1.1q0-0.3-0.1-0.7-0.1-0.4-0.2-0.6h1.1q0.3 0 0.5-0.1 0.1-0.1 0.1-0.4v-2.9h-5.1q-0.2 1.7-0.8 2.8-0.7 1.1-1.9 2zm2.8-6h5v-1.9h-5v1.6q0 0.1 0 0.2 0 0 0 0.1zm0-5v1.9h5v-1.9zm11.3 10.9q-0.1-0.1-0.2-0.3-0.1-0.2-0.2-0.4-0.2-0.3-0.3-0.4 1.9-0.6 2.9-1.8 1.1-1.3 1.2-3h-2.3v-1.3h7.7q0 0.7 0 1.4-0.1 0.8-0.1 1.6-0.1 0.7-0.2 1.4-0.1 0.6-0.2 1.1-0.3 0.9-0.9 1.3-0.5 0.3-1.5 0.3h-1.1q0-0.3-0.1-0.7-0.1-0.4-0.2-0.6h1.2q0.6 0 0.9-0.2 0.3-0.1 0.4-0.7 0.1-0.4 0.2-1 0.1-0.7 0.2-1.4 0-0.7 0-1.2h-2.7q-0.1 1.3-0.6 2.5-0.6 1.1-1.6 2-1 0.9-2.5 1.4zm10.9-5.9q-1.1-0.5-2-1.3-1-0.8-1.7-1.7-0.6-1-0.9-2.1h-2.5v-1.2h3.5q0.2 1.1 0.8 2.1 0.6 0.9 1.6 1.7 0.9 0.8 2.1 1.3-0.1 0.1-0.3 0.4-0.2 0.2-0.4 0.4-0.2 0.3-0.2 0.4zm-11.8 0.2q-0.1-0.1-0.2-0.3-0.2-0.2-0.4-0.4-0.2-0.2-0.3-0.3 0.8-0.5 1.6-1.2 0.8-0.7 1.5-1.6 0.7-0.8 1.1-1.7l1.2 0.6q-0.4 1-1.2 1.9-0.7 0.9-1.6 1.7-0.8 0.7-1.7 1.3zm17.8 5.1q-0.9 0.1-1.7-0.1-0.7-0.2-1.2-0.6-0.4-0.5-0.4-1.2 0-1 0.8-1.9 0.8-0.9 2.1-1.4v-2.5q-0.7 0.1-1.5 0.1-0.7 0-1.3 0l-0.1-1.2q0.5 0 1.3 0 0.8 0 1.6-0.1v-2.5h1.2v2.3q0.8-0.1 1.4-0.2 0.7-0.1 1.1-0.3l0.1 1.2q-1 0.4-2.6 0.6v2.2q1.1-0.3 2.4-0.3 1.3 0 2.2 0.4 0.9 0.3 1.4 1 0.5 0.6 0.5 1.5 0 1.3-0.8 2-0.8 0.7-2.1 0.7-2.1-0.1-2.8-2.2 0.3 0 0.6-0.2 0.4-0.2 0.6-0.3 0.2 0.7 0.6 1 0.4 0.4 1 0.4 0.7 0 1.1-0.4 0.5-0.4 0.5-1.1 0-0.7-0.8-1.2-0.7-0.5-2-0.5-0.6 0-1.2 0.1-0.6 0.1-1.2 0.2v3.6q0 0.4-0.1 0.6-0.2 0.2-0.7 0.3zm7.2-6.4q-0.3-0.4-0.9-0.8-0.5-0.4-1.1-0.7-0.6-0.4-1.1-0.5l0.7-1q0.4 0.2 1 0.5 0.6 0.3 1.2 0.7 0.6 0.4 1 0.7-0.1 0.1-0.3 0.3-0.2 0.3-0.3 0.5-0.1 0.2-0.2 0.3zm-8 5.2q0.2 0 0.3 0 0.1-0.1 0.1-0.3v-2.5q-0.8 0.4-1.2 1-0.5 0.5-0.5 1.1 0 0.4 0.4 0.6 0.3 0.2 0.9 0.1zm11.1 1.9q0-0.1-0.1-0.3-0.1-0.3-0.2-0.5-0.1-0.3-0.2-0.4 1.7-0.3 3-0.7 1.3-0.5 2.3-1.2-0.7-0.7-1.3-1.6-0.7-0.8-1.1-1.9h-1.7v-1.3h4.4v-1.6h-5.5v-1.2h5.5v-2h1.3v2h5.5v1.2h-5.5v1.6h3.1l0.4 0.5q-0.7 1.4-1.4 2.4-0.7 1.1-1.5 1.9 1.1 0.7 2.4 1.1 1.4 0.5 2.8 0.7-0.1 0.2-0.2 0.4-0.1 0.3-0.2 0.5-0.1 0.3-0.2 0.4-1.7-0.3-3.1-0.9-1.4-0.5-2.6-1.3-1.2 0.8-2.6 1.3-1.4 0.5-3.3 0.9zm5.8-3.9q0.7-0.6 1.2-1.3 0.6-0.6 1-1.4h-4.3q0.4 0.8 0.9 1.4 0.6 0.7 1.2 1.3zm19.2 3.6q-0.1-0.4-0.3-0.9-0.1-0.4-0.4-0.9-0.6 0.1-1.5 0.3-0.9 0.2-1.8 0.4-1 0.1-1.8 0.3-0.9 0.1-1.5 0.2l-0.3-1.3q0.3 0 0.7 0 0.4-0.1 0.8-0.1 0.3-0.8 0.5-1.8 0.3-1 0.5-2 0.3-1.2 0.5-2.3 0.2-1.1 0.4-2.1 0.2-1 0.3-1.8l1.3 0.1q-0.2 1.3-0.5 2.6-0.2 1.3-0.5 2.6-0.3 1.3-0.6 2.4-0.3 1.2-0.6 2.1 1-0.2 2-0.3 0.9-0.2 1.7-0.4-0.4-0.8-0.8-1.6-0.4-0.7-0.8-1.3l1.1-0.5q0.4 0.6 0.8 1.3 0.4 0.8 0.8 1.6 0.4 0.8 0.7 1.5 0.4 0.8 0.6 1.4-0.2 0-0.4 0.1-0.3 0.1-0.5 0.2-0.2 0.1-0.4 0.2zm-9.6 0.3h-1q0-0.2 0-0.4-0.1-0.3-0.1-0.5-0.1-0.3-0.2-0.4h1q0.3 0 0.4-0.1 0.2-0.1 0.2-0.3v-3q-0.7 0.2-1.3 0.4-0.5 0.2-0.8 0.2l-0.3-1.3q0.4 0 1-0.2 0.6-0.2 1.4-0.4v-2.8h-2.2v-1.2h2.2v-2.7h1.2v2.7h1.8v1.2h-1.8v2.4q0.6-0.2 1.1-0.4 0.4-0.1 0.7-0.2v1.2q-0.3 0.1-0.7 0.3-0.5 0.1-1.1 0.3v3.9q0 0.7-0.3 1-0.4 0.3-1.2 0.3zm17.1-2.6q-0.6 0.4-1.2 0.3-0.5-0.1-1-0.8-0.4-0.7-0.8-1.5-0.3-0.9-0.6-1.9-0.2-1-0.3-2-0.1-0.9-0.1-1.8h1.3q0 0.7 0 1.6 0.1 0.8 0.3 1.6 0.2 0.8 0.5 1.6 0.2 0.7 0.5 1.3 0.3 0.4 0.5 0.4 0.3 0 0.5-0.1 0.4-0.3 0.8-0.7 0.4-0.4 0.6-0.8 0.1 0.3 0.3 0.6 0.2 0.3 0.4 0.5-0.3 0.5-0.8 1-0.5 0.4-0.9 0.7zm5.5-2.5q-0.1-0.4-0.4-1-0.3-0.6-0.6-1.2-0.4-0.6-0.8-1.2-0.3-0.5-0.6-0.9l1-0.6q0.3 0.4 0.7 0.9 0.4 0.6 0.8 1.3 0.4 0.6 0.7 1.2 0.3 0.6 0.4 1-0.3 0-0.6 0.2-0.4 0.1-0.6 0.3z"/>
		</g>
		<g id="2">
			<path id="長方形 609" fill-rule="evenodd" class="s2" d="m152 30h70v24h-70z"/>
			<path id="ご入会日" class="s3" aria-label="ご入会日"  d="m165.2 46.5q-1.4 0-2.3-0.4-0.8-0.5-1.3-1.8l1.2-0.6q0.2 0.7 0.8 1.1 0.6 0.4 1.6 0.4 0.9 0 1.9-0.1 0.9-0.1 1.7-0.2 0.8-0.2 1.4-0.3 0 0.1 0 0.4 0 0.3 0.1 0.6 0 0.2 0.1 0.4-0.6 0.1-1.4 0.3-0.9 0.1-1.9 0.2-0.9 0-1.9 0zm-2-8.2v-1.3q0.4 0.1 0.9 0.2 0.6 0 1.3 0.1 0.7 0 1.3 0 0.7-0.1 1.3-0.2 0.5-0.1 0.9-0.2v1.4q-0.3 0.1-0.9 0.1-0.6 0.1-1.2 0.1-0.7 0.1-1.4 0.1-0.6-0.1-1.2-0.1-0.6-0.1-1-0.2zm9.6-1.1l-0.6 0.5q-0.2-0.3-0.5-0.6-0.3-0.3-0.6-0.6-0.3-0.3-0.6-0.5l0.7-0.5q0.2 0.1 0.5 0.4 0.3 0.4 0.7 0.7 0.3 0.3 0.4 0.6zm-1.1 1l-0.7 0.5q-0.1-0.3-0.4-0.6-0.3-0.3-0.6-0.6-0.3-0.3-0.6-0.5l0.6-0.5q0.2 0.2 0.6 0.5 0.3 0.3 0.6 0.6 0.3 0.4 0.5 0.6zm14 9.9q-2-1.3-3.5-3.1-1.4-1.9-1.9-4.4-0.4 1.6-1.2 3-0.9 1.4-2.1 2.6-1.2 1.1-2.7 1.9-0.1-0.3-0.4-0.6-0.2-0.3-0.4-0.5 1.7-0.9 2.9-2 1.2-1.2 1.9-2.7 0.7-1.5 0.9-3.1l0.8 0.2q0-0.6-0.1-1.2 0-0.5 0-1.1h-3.3v-1.3h4.6q-0.1 2.7 0.3 4.7 0.5 2.1 1.8 3.7 1.3 1.6 3.4 2.8-0.1 0.1-0.3 0.3-0.2 0.2-0.4 0.4-0.2 0.2-0.3 0.4zm12.7 0.1q-0.1-0.4-0.5-0.8-0.2-0.4-0.6-0.8-0.6 0.1-1.5 0.2-0.8 0.2-1.7 0.3-0.9 0.1-1.8 0.3-0.9 0-1.7 0.1-0.8 0.1-1.4 0.2l-0.3-1.3q0.3 0 0.8-0.1 0.4 0 0.9 0 0.3-0.4 0.5-0.9 0.3-0.5 0.6-1 0.3-0.5 0.5-1h-3.8v-1.1h11.4v1.1h-6.1q-0.3 0.7-0.7 1.4-0.4 0.7-0.8 1.3 1.1-0.1 2.3-0.2 1.1-0.2 2-0.3-0.7-0.8-1.3-1.2l1-0.7q0.4 0.2 0.8 0.7 0.5 0.4 1 1 0.5 0.5 0.9 1 0.4 0.5 0.6 0.9-0.1 0.1-0.3 0.2-0.2 0.2-0.5 0.4-0.2 0.2-0.3 0.3zm-10.3-7.1q-0.1-0.1-0.2-0.3-0.2-0.2-0.3-0.4-0.2-0.2-0.3-0.4 0.8-0.3 1.8-0.9 0.9-0.5 1.8-1.2 0.9-0.7 1.5-1.4 0.7-0.7 1.1-1.3l1.2 0.1q0.4 0.7 1.1 1.3 0.7 0.7 1.5 1.3 0.9 0.6 1.8 1.1 0.9 0.5 1.8 0.9-0.2 0.2-0.4 0.5-0.3 0.4-0.5 0.7-1-0.5-2.2-1.2-1.1-0.7-2.1-1.6-1-0.9-1.6-1.7-0.5 0.6-1.2 1.2-0.7 0.7-1.5 1.3-0.9 0.6-1.7 1.2-0.9 0.5-1.6 0.8zm9.3-0.2h-6.6v-1.2h6.6zm14.9 6.2h-8.5v-10.8h8.5zm-7.1-4.9v3.7h5.7v-3.7zm0-4.7v3.5h5.8v-3.5z"/>
			<path id="10月1日" class="s4" aria-label="10月1日"  d="m166 77h-1.4v-9.4l-2.1 1.3-0.7-1.1 3.1-2h1.1zm6.1 0.2q-1.8 0-2.5-1.5-0.8-1.4-0.8-4.3 0-2.9 0.8-4.4 0.7-1.4 2.5-1.4 1.8 0 2.5 1.4 0.7 1.5 0.7 4.4 0 2.9-0.7 4.3-0.7 1.5-2.5 1.5zm0-1.4q0.7 0 1.1-0.4 0.4-0.4 0.5-1.4 0.2-0.9 0.2-2.6 0-1.7-0.2-2.7-0.1-1-0.5-1.4-0.4-0.4-1.1-0.4-0.7 0-1.1 0.4-0.4 0.4-0.6 1.4-0.2 1-0.2 2.7 0 1.7 0.2 2.6 0.2 1 0.6 1.4 0.4 0.4 1.1 0.4zm6.2 2.4q-0.2-0.2-0.5-0.5-0.4-0.3-0.7-0.5 1.5-1 2.2-2.5 0.7-1.4 0.7-3.7v-6.8h8.7v12.3q0 1.6-1.9 1.6h-1.3q0-0.3-0.1-0.8-0.1-0.5-0.2-0.7h1.3q0.3 0 0.5-0.2 0.1-0.1 0.1-0.4v-3.3h-5.7q-0.3 1.9-1 3.2-0.8 1.3-2.1 2.3zm3.2-6.8h5.6v-2.3h-5.6v1.9q0 0.1 0 0.2 0 0.1 0 0.2zm0-5.8v2.2h5.6v-2.2zm14.9 11.4h-1.3v-9.5l-2.1 1.4-0.7-1.2 3.1-1.9h1zm15 0h-9.7v-12.3h9.7zm-8.2-5.6v4.2h6.6v-4.2zm0-5.3v3.9h6.6v-3.9z"/>
			<path id="楕円形 610" fill-rule="evenodd" class="s1" d="m187 93c2.76 0 5 2.24 5 5 0 2.76-2.24 5-5 5-2.76 0-5-2.24-5-5 0-2.76 2.24-5 5-5z"/>
		</g>
		<g id="3">
			<path id="長方形 609" fill-rule="evenodd" class="s2" d="m272 30h79v24h-79z"/>
			<path id="12月分引落日" class="s4" aria-label="12月分引落日"  d="m276.2 126.5h-1.2v-8.2l-1.9 1.1-0.6-1 2.7-1.7h1zm7.4 0h-5.2v-0.4q0-1 0.6-2 0.6-0.9 1.7-2 0.5-0.5 0.9-0.9 0.5-0.5 0.7-0.9 0.3-0.5 0.3-0.9 0-0.8-0.4-1.2-0.4-0.4-1.1-0.4-0.7 0-1.1 0.4-0.3 0.5-0.3 1.4h-1.2q0-1.4 0.7-2.2 0.7-0.8 1.9-0.8 0.8 0 1.4 0.4 0.6 0.3 1 0.9 0.3 0.6 0.3 1.5 0 0.7-0.3 1.3-0.3 0.5-0.8 1.1-0.5 0.5-1.1 1.1-0.7 0.7-1.3 1.3-0.5 0.6-0.6 1.2h3.9zm2.6 1.1q-0.2-0.2-0.5-0.5-0.3-0.3-0.6-0.4 1.3-0.9 1.9-2.2 0.6-1.3 0.6-3.2v-6h7.6v10.8q0 1.4-1.6 1.4h-1.1q0-0.3-0.1-0.7-0.1-0.5-0.2-0.7h1.1q0.3 0 0.5-0.1 0.1-0.1 0.1-0.4v-2.8h-5.1q-0.2 1.6-0.8 2.7-0.7 1.2-1.8 2.1zm2.7-6h5v-2h-5v1.6q0 0.1 0 0.2 0 0.1 0 0.2zm0-5.1v1.9h5v-1.9zm10.7 11q0-0.2-0.1-0.4-0.1-0.2-0.3-0.4-0.1-0.2-0.2-0.3 1.9-0.6 2.9-1.9 1-1.3 1.2-3h-2.3v-1.2h7.7q0 0.6-0.1 1.4 0 0.8-0.1 1.5-0.1 0.8-0.2 1.4-0.1 0.7-0.2 1.2-0.3 0.9-0.8 1.2-0.6 0.4-1.5 0.4h-1.2q0-0.3-0.1-0.7-0.1-0.4-0.2-0.6h1.3q0.6 0 0.8-0.2 0.3-0.2 0.5-0.7 0.1-0.4 0.2-1.1 0.1-0.7 0.1-1.4 0.1-0.7 0.1-1.2h-2.7q-0.1 1.4-0.7 2.5-0.5 1.2-1.5 2.1-1 0.9-2.6 1.4zm10.9-5.9q-1-0.6-2-1.3-0.9-0.8-1.6-1.8-0.7-0.9-1-2.1h-2.5v-1.2h3.6q0.2 1.2 0.8 2.1 0.6 1 1.5 1.8 1 0.7 2.1 1.3-0.1 0.1-0.3 0.3-0.2 0.2-0.3 0.5-0.2 0.2-0.3 0.4zm-11.7 0.1q-0.1-0.1-0.3-0.3-0.2-0.2-0.3-0.4-0.2-0.2-0.4-0.3 0.9-0.4 1.7-1.1 0.8-0.8 1.5-1.6 0.7-0.9 1-1.8l1.3 0.6q-0.5 1-1.2 1.9-0.7 1-1.6 1.7-0.9 0.8-1.7 1.3zm18 5.7h-1.7q0-0.3-0.1-0.7-0.1-0.5-0.2-0.7h1.8q0.7 0 1-0.2 0.4-0.3 0.5-0.9 0.1-0.5 0.2-1.2 0.1-0.7 0.1-1.3h-5q0-0.4 0.1-0.9 0.1-0.6 0.2-1.2 0.1-0.6 0.2-1.2 0.1-0.5 0.1-0.8h4.4v-1.8h-4.7v-1.2h6v4.2h-4.5q-0.1 0.1-0.1 0.4-0.1 0.4-0.1 0.7-0.1 0.4-0.1 0.6h4.9q0 1-0.1 2.1-0.1 1-0.2 1.9-0.2 0.8-0.5 1.3-0.4 0.5-0.9 0.7-0.6 0.2-1.3 0.2zm7.5 0h-1.4v-12.5h1.4zm13.5 0h-5.6v-3.5q-0.3 0.1-0.6 0.2-0.4 0.2-0.7 0.3 0-0.1-0.1-0.3-0.1-0.2-0.3-0.4-0.1-0.3-0.2-0.3 1.1-0.3 2.1-0.8 0.9-0.4 1.8-1-0.7-0.6-1.3-1.3-0.4 0.5-0.8 0.9-0.4 0.3-0.8 0.6 0-0.1-0.2-0.2-0.2-0.2-0.3-0.3-0.2-0.2-0.3-0.2 0.6-0.4 1.2-1 0.5-0.6 1-1.3 0.5-0.7 0.7-1.3l1.1 0.5v-1h-2.7v1.1h-1.2v-1.1h-3.5v-1h3.5v-1.2h1.2v1.2h2.7v-1.2h1.2v1.2h3.6v1h-3.6v1h-1.2q-0.1 0.2-0.2 0.4-0.1 0.1-0.2 0.3h3.6l0.5 0.6q-0.5 0.6-1 1.2-0.5 0.6-1.1 1.1 0.8 0.5 1.8 0.9 1 0.4 1.9 0.7 0 0.1-0.2 0.3-0.1 0.2-0.2 0.4-0.1 0.2-0.2 0.3-0.3-0.1-0.7-0.2-0.3-0.1-0.7-0.2zm-4.3-2.9v1.8h3.1v-1.8zm-5.4 2.8l-1-0.7q0.2-0.2 0.6-0.7 0.3-0.5 0.7-1 0.4-0.6 0.7-1.1 0.3-0.4 0.5-0.7 0.1 0 0.2 0.2 0.2 0.2 0.4 0.4 0.2 0.1 0.3 0.2-0.2 0.3-0.5 0.8-0.3 0.4-0.6 0.9-0.4 0.5-0.7 1-0.3 0.4-0.6 0.7zm2.3-7.2q-0.5-0.4-1.1-0.8-0.6-0.4-1.1-0.7l0.7-0.9q0.5 0.3 1.1 0.7 0.6 0.4 1.1 0.8-0.1 0.1-0.3 0.2-0.1 0.2-0.2 0.4-0.2 0.2-0.2 0.3zm-1.2 2.3q-0.5-0.3-1.1-0.7-0.6-0.4-1.1-0.6l0.6-1q0.6 0.3 1.2 0.6 0.6 0.4 1.1 0.8-0.1 0.1-0.3 0.3-0.1 0.1-0.2 0.3-0.1 0.2-0.2 0.3zm3.9 1h4.2q-1.1-0.4-2.2-1.1-0.4 0.3-0.9 0.6-0.5 0.3-1.1 0.5zm2-2.5q0.4-0.3 0.7-0.7 0.4-0.3 0.7-0.6h-2.8q0.6 0.7 1.4 1.3zm16.4 5.6h-8.5v-10.8h8.5zm-7.1-4.9v3.7h5.7v-3.7zm0-4.7v3.5h5.7v-3.5z"/>
			<path id="毎月27日" class="s3" aria-label="毎月27日"  d="m294.5 48.2h-1.1q0-0.2-0.1-0.6 0-0.3-0.1-0.5h1.1q0.6 0 0.8-0.2 0.3-0.2 0.4-0.8h-7.3q0.1-0.4 0.2-1.3 0.2-0.9 0.3-1.8h-2v-1.2h2.2q0.1-0.9 0.2-1.8 0.1-0.8 0.1-1.3h8.3q0 0.7-0.1 1.5 0 0.8-0.1 1.6h2.1v1.2h-2.2q0 0.5-0.1 1 0 0.6-0.1 1.1h2v1h-2.2v0.1q-0.1 0.8-0.4 1.2-0.3 0.5-0.7 0.7-0.5 0.1-1.2 0.1zm-7-8.2q-0.1-0.1-0.3-0.2-0.2-0.2-0.4-0.3-0.2-0.2-0.3-0.2 0.5-0.5 1.1-1.2 0.5-0.7 1-1.5 0.5-0.8 0.7-1.5l1.2 0.5q-0.1 0.2-0.2 0.5-0.1 0.3-0.3 0.6h8.7v1.1h-9.4q-0.4 0.6-0.8 1.2-0.5 0.6-1 1zm5.8 5.1h2.4q0.1-0.5 0.1-1 0.1-0.6 0.2-1.1h-2.4q-0.1 0.6-0.2 1.1 0 0.5-0.1 1zm-3.6 0h2.3q0-0.4 0.1-1 0.1-0.5 0.2-1.1h-2.3q-0.1 0.6-0.2 1.2-0.1 0.5-0.1 0.9zm4-3.3h2.4q0-0.6 0-1.1 0.1-0.5 0.1-0.9h-2.3q0 0.4-0.1 0.9 0 0.5-0.1 1.1zm-3.6 0h2.3q0.2-1.2 0.2-2h-2.2q-0.1 0.4-0.1 0.9-0.1 0.5-0.2 1.1zm11.9 6.3q-0.2-0.2-0.5-0.5-0.3-0.2-0.5-0.4 1.2-0.8 1.8-2.1 0.6-1.3 0.6-3.3v-6h7.6v10.8q0 1.4-1.6 1.4h-1.1q0-0.3-0.1-0.7-0.1-0.4-0.2-0.7h1.1q0.4 0 0.5-0.1 0.1-0.1 0.1-0.4v-2.8h-5q-0.2 1.6-0.9 2.8-0.7 1.1-1.8 2zm2.7-6h5v-2h-5v1.7q0 0 0 0.1 0 0.1 0 0.2zm0-5.1v1.9h5v-1.9zm15 10h-5.3v-0.4q0-1 0.6-2 0.6-0.9 1.8-2 0.4-0.5 0.9-0.9 0.4-0.5 0.6-0.9 0.3-0.5 0.3-0.9 0-0.8-0.4-1.2-0.4-0.4-1.1-0.4-0.6 0-1 0.5-0.4 0.4-0.4 1.3h-1.2q0-1.4 0.7-2.2 0.7-0.8 1.9-0.8 0.8 0 1.4 0.4 0.7 0.3 1 0.9 0.3 0.6 0.3 1.5 0 0.7-0.3 1.3-0.3 0.5-0.8 1.1-0.5 0.5-1.1 1.1-0.7 0.7-1.2 1.3-0.6 0.6-0.7 1.2h4zm3.6 0h-1.3q0.1-0.6 0.3-1.4 0.2-0.9 0.5-1.8 0.2-1 0.5-1.9 0.3-1 0.6-1.9 0.3-0.9 0.6-1.7h-4v-1.1h5.3v0.8q-0.2 0.7-0.6 1.6-0.3 0.9-0.6 1.9-0.3 1-0.5 2-0.3 1-0.5 2-0.2 0.9-0.3 1.5zm14 0.1h-8.5v-10.8h8.5zm-7.1-4.9v3.7h5.7v-3.7zm0-4.7v3.5h5.8v-3.5z"/>
			<path id="11月27日" class="s4" aria-label="11月27日"  d="m288.1 77h-1.4v-9.4l-2.1 1.3-0.7-1.1 3.2-2h1zm6.4 0h-1.4v-9.5l-2.1 1.4-0.7-1.2 3.1-1.9h1.1zm4.2 1.2q-0.1-0.3-0.5-0.6-0.3-0.3-0.6-0.4 1.4-1 2.1-2.5 0.7-1.5 0.7-3.7v-6.9h8.7v12.4q0 1.5-1.8 1.5h-1.3q0-0.3-0.2-0.7 0-0.5-0.2-0.8h1.4q0.3 0 0.4-0.1 0.2-0.1 0.2-0.5v-3.2h-5.8q-0.2 1.9-1 3.2-0.7 1.3-2.1 2.3zm3.2-6.9h5.7v-2.2h-5.7v1.8q0 0.1 0 0.2 0 0.1 0 0.2zm0-5.8v2.2h5.7v-2.2zm17.1 11.5h-6v-0.5q0-1.2 0.7-2.3 0.7-1.1 2-2.3 0.5-0.5 1-1 0.5-0.6 0.8-1.1 0.3-0.5 0.3-1 0-0.9-0.4-1.4-0.5-0.4-1.3-0.4-0.8 0-1.2 0.5-0.4 0.5-0.4 1.5h-1.4q0-1.5 0.8-2.4 0.8-0.9 2.2-0.9 0.9 0 1.6 0.3 0.7 0.4 1.1 1.1 0.4 0.7 0.4 1.8-0.1 0.7-0.4 1.4-0.4 0.6-0.9 1.2-0.6 0.6-1.3 1.3-0.7 0.8-1.4 1.5-0.6 0.7-0.7 1.4h4.5zm4.1 0h-1.4q0.1-0.7 0.3-1.7 0.2-0.9 0.5-2 0.3-1.1 0.6-2.2 0.4-1.1 0.7-2.2 0.4-1 0.7-1.8h-4.6v-1.3h6.2v0.9q-0.4 0.8-0.7 1.8-0.4 1-0.7 2.2-0.4 1.2-0.7 2.3-0.3 1.2-0.5 2.2-0.3 1-0.4 1.8zm16 0.1h-9.6v-12.4h9.6zm-8.1-5.6v4.2h6.6v-4.2zm0-5.3v4h6.5v-4z"/>
			<path id="楕円形 610" fill-rule="evenodd" class="s1" d="m312 93c2.76 0 5 2.24 5 5 0 2.76-2.24 5-5 5-2.76 0-5-2.24-5-5 0-2.76 2.24-5 5-5z"/>
		</g>
	</g>
</svg>