<?xml version="1.0" encoding="UTF-8" standalone="no"?>
<!DOCTYPE svg PUBLIC "-//W3C//DTD SVG 1.1//EN" "http://www.w3.org/Graphics/SVG/1.1/DTD/svg11.dtd">
<svg width="110px" height="113px" version="1.1" xmlns="http://www.w3.org/2000/svg" xmlns:xlink="http://www.w3.org/1999/xlink" xml:space="preserve" xmlns:serif="http://www.serif.com/" style="fill-rule:evenodd;clip-rule:evenodd;stroke-linejoin:round;stroke-miterlimit:2;">
    <g transform="matrix(1,0,0,1,-23096.5,-5623.56)">
        <g transform="matrix(1.04564,0,0,1.00018,3546.68,5051.59)">
            <g id="speak" transform="matrix(0.956348,0,0,0.999815,17382,132.926)">
                <path id="シェイプ-1481" serif:id="シェイプ 1481" d="M1435.69,544.649C1440.03,541.697 1444.52,538.963 1449.11,536.408C1467.72,526.039 1472.65,513.265 1473.81,493.513C1474.56,480.762 1465.2,441.629 1441.49,439.389C1412.3,436.633 1389.93,449.076 1380.52,477.415C1367.32,498.27 1376.99,527.897 1397.73,540.806C1412.26,554.267 1421.3,554.432 1435.69,544.649Z" style="fill:white;fill-rule:nonzero;"/>
                <g id="お役立ち-情報満載" serif:id="お役立ち 情報満載" transform="matrix(0.999403,0,0,1,1423.5,488.341)">
                    <text x="-29.44px" y="0px" style="font-family:'MalgunGothic', 'Malgun Gothic', sans-serif;font-size:16px;fill:rgb(79,79,79);">お<tspan x="-14.72px 0.96px 13.44px " y="0px 0px 0px ">役立ち</tspan></text>
                    <text x="-31.52px" y="25.6px" style="font-family:'MalgunGothic', 'Malgun Gothic', sans-serif;font-size:16px;fill:rgb(79,79,79);">情<tspan x="-15.84px " y="25.6px ">報</tspan></text>
                    <text x="-0.16px" y="25.6px" style="font-family:'MS-UIGothic', 'MS UI Gothic', sans-serif;font-size:16px;fill:rgb(79,79,79);">満</text>
                    <g transform="matrix(16,0,0,16,31.52,25.6)">
                    </g>
                    <text x="15.52px" y="25.6px" style="font-family:'MalgunGothic', 'Malgun Gothic', sans-serif;font-size:16px;fill:rgb(79,79,79);">載</text>
                </g>
                <path id="シェイプ-1484" serif:id="シェイプ 1484" d="M1431.06,546.544C1421.89,546.462 1413.19,544.437 1405.91,540.691C1400.23,537.763 1395.12,533.562 1391.15,528.541C1387.21,523.569 1384.47,517.897 1383.21,512.132C1383.01,512.038 1382.87,511.833 1382.87,511.601L1382.88,510.404C1382.89,510.102 1383.12,509.856 1383.42,509.831C1383.72,509.809 1383.98,510.014 1384.04,510.311C1386.09,522.351 1394.67,533.597 1406.44,539.659C1416.97,545.081 1430.23,546.724 1443.78,544.288C1451.54,542.893 1461.81,539.457 1466.73,531.016C1470.2,525.046 1470.3,517.776 1470.4,510.746C1470.48,504.184 1470.58,497.4 1473.35,491.482C1469.84,488.739 1467.63,483.397 1467.44,477.141C1467.38,475.289 1467.45,473.394 1467.51,471.563L1467.51,471.548C1467.65,467.281 1467.8,462.869 1466.41,458.853C1464.36,452.897 1458.87,447.996 1451.74,445.744C1446.14,443.977 1439.82,443.682 1431.23,444.789C1430.91,444.823 1430.62,444.6 1430.59,444.287C1430.55,443.97 1430.77,443.678 1431.09,443.639C1439.84,442.509 1446.32,442.818 1452.08,444.638C1459.57,446.999 1465.33,452.172 1467.51,458.475C1468.97,462.693 1468.81,467.214 1468.67,471.587C1468.61,473.406 1468.54,475.286 1468.6,477.106C1468.78,482.904 1470.75,487.855 1473.88,490.424C1475.04,488.273 1476.37,486.937 1477.94,486.34C1479.07,485.911 1480.45,485.98 1481.55,486.521C1482.45,486.966 1483.09,487.692 1483.35,488.565C1483.71,489.765 1483.38,490.93 1482.41,491.844C1480.91,493.258 1478.16,493.785 1476.15,493.042C1475.51,492.807 1474.9,492.509 1474.32,492.153C1471.73,497.807 1471.64,504.391 1471.55,510.76C1471.46,517.941 1471.36,525.366 1467.73,531.6C1462.59,540.424 1451.98,543.991 1443.99,545.429C1439.66,546.207 1435.31,546.583 1431.06,546.544ZM1474.83,491.106C1475.37,491.449 1475.95,491.733 1476.55,491.954C1478.16,492.547 1480.43,492.119 1481.62,491C1482.06,490.576 1482.54,489.869 1482.25,488.9C1482.03,488.179 1481.47,487.775 1481.04,487.562C1480.22,487.158 1479.19,487.105 1478.35,487.425C1477.02,487.93 1475.87,489.135 1474.83,491.106Z" style="fill:rgb(79,79,79);"/>
            </g>
        </g>
    </g>
</svg>
