<svg version="1.2" xmlns="http://www.w3.org/2000/svg" viewBox="0 0 73 53" width="73" height="53">
	<style>
		.s0 { fill: #87dad2;stroke: #ffffff;stroke-linejoin: round } 
		.s1 { fill: #ffffff } 
	</style>
	<path id="シェイプ 2300" class="s0" d="m50.15 12.86q-0.06 0-0.08-0.01-0.01-0.02 0.01-0.13l2.3-10.45c0.07-0.33 0.44-0.64 0.75-0.64h17.84q0.07 0 0.08 0.01 0.02 0.03 0 0.13l-2.31 10.46c-0.07 0.32-0.44 0.63-0.75 0.63zm-13.99 30.28l1.07-4.82v-0.05c0.02-0.14 0.03-0.19 0.04-0.25q0.01-0.08 0.04-0.26l0.19-1.31h-2.75l1.2-5.52h5.16l-2.65 12.21zm-14.44-6.69q-0.07 0-0.09-0.01-0.01-0.03 0.01-0.13l1.05-4.74c0.07-0.33 0.43-0.64 0.75-0.64h10.15l-1.2 5.52zm26.21 4.76l1.16-5.65h7.86l-1.11 5.01c-0.07 0.33-0.44 0.64-0.75 0.64zm1.65-7.95l2.08-9.56h-4l1.31-5.95c0.07-0.33 0.44-0.64 0.75-0.64h11.18q0.07 0.01 0.09 0.02 0.01 0.02-0.01 0.12l-3.53 16.01zm-27.86 12.74q-0.06 0-0.08-0.01-0.01-0.02 0-0.13l1.05-4.74c0.07-0.33 0.44-0.64 0.75-0.64h8.14q0.07 0.01 0.09 0.02 0.01 0.02-0.01 0.12l-1.04 4.74c-0.08 0.33-0.44 0.64-0.76 0.64zm-12.58 2.82q-0.07 0-0.08-0.01-0.01-0.02 0-0.13l2.98-13.49c0.07-0.33 0.44-0.64 0.75-0.64h6.14q0.06 0 0.08 0.01 0.01 0.02-0.01 0.13l-2.97 13.49c-0.07 0.33-0.44 0.64-0.75 0.64zm-8.05 2.55q-0.06 0-0.08-0.01-0.01-0.03 0-0.13l0.92-4.16c0.07-0.33 0.44-0.64 0.76-0.64h3.18q0.06 0 0.08 0.01 0.01 0.03 0 0.13l-0.92 4.16c-0.07 0.33-0.44 0.64-0.76 0.64z"/>
	<path id="シェイプ 2300 のコピー" class="s1" d="m40.82 43.14l2.65-12.21h2.59l1.09-4.93h1.65l-1.77 8.18-1.65 7.97v0.01c-0.1 0.59-0.25 0.87-0.32 0.98z"/>
</svg>