<svg version="1.2" xmlns="http://www.w3.org/2000/svg" viewBox="0 0 76 55" width="76" height="55">
	<style>
		.s0 { fill: #87dad2;stroke: #ffffff;stroke-linejoin: round } 
		.s1 { fill: #ffffff } 
	</style>
	<path id="シェイプ 2301" class="s0" d="m52.15 13.86q-0.06 0-0.08-0.01-0.01-0.02 0.01-0.13l2.3-10.45c0.07-0.33 0.44-0.64 0.75-0.64h17.84q0.07 0 0.08 0.01 0.02 0.03 0 0.13l-2.31 10.46c-0.07 0.32-0.44 0.63-0.75 0.63zm-28.43 23.59q-0.07 0-0.08-0.01-0.02-0.02 0-0.13l1.05-4.74c0.07-0.33 0.44-0.64 0.75-0.64h10.15l-1.19 5.52zm26.2 4.76l1.16-5.65h7.86l-1.11 5.01c-0.07 0.33-0.44 0.64-0.75 0.64zm-7.11 1.93l2.65-12.21h2.6l1.08-4.93h1.65l-1.77 8.18-1.64 7.97v0.01c-0.11 0.59-0.25 0.87-0.32 0.98zm8.76-9.87l2.07-9.57h-3.99l1.31-5.95c0.07-0.33 0.44-0.64 0.75-0.64h11.18q0.07 0.01 0.08 0.02 0.02 0.02 0 0.13l-3.53 16.01zm-27.86 12.73q-0.07 0-0.08-0.01-0.02-0.02 0-0.13l1.05-4.74c0.07-0.33 0.43-0.64 0.75-0.64h8.14q0.07 0.01 0.08 0.02 0.02 0.02 0 0.12l-1.05 4.74c-0.07 0.33-0.44 0.64-0.75 0.64zm-12.58 2.82q-0.07 0-0.09-0.01-0.01-0.02 0.01-0.13l2.97-13.49c0.08-0.33 0.44-0.64 0.76-0.64h6.13q0.07 0 0.09 0.01 0.01 0.02-0.01 0.13l-2.97 13.49c-0.08 0.33-0.44 0.64-0.76 0.64zm-8.04 2.55q-0.07 0-0.09-0.01-0.01-0.02 0.01-0.13l0.92-4.16c0.07-0.33 0.44-0.64 0.75-0.64h3.19q0.06 0 0.08 0.01 0.01 0.03-0.01 0.13l-0.91 4.16c-0.08 0.33-0.44 0.64-0.76 0.64z"/>
	<path id="シェイプ 2301 のコピー 3" class="s1" d="m38.17 44.14l1.06-4.82v-0.05c0.02-0.14 0.03-0.19 0.04-0.25q0.02-0.08 0.04-0.26l0.19-1.31h-2.75l1.2-5.52h5.16l-2.65 12.21z"/>
</svg>