<svg version="1.2" xmlns="http://www.w3.org/2000/svg" viewBox="0 0 17 17" width="17" height="17">
	<style>
		.s0 { fill: #81d7cf } 
	</style>
	<path id="シェイプ 894" class="s0" d="m6.81 16.4v-4.21c0-0.3 0.3-0.6 0.61-0.6h2.47c0.31 0 0.61 0.3 0.61 0.6v4.21c0 0.33 0.28 0.6 0.62 0.6h4.93c0.34 0 0.62-0.27 0.62-0.6v-8.41q-0.01-0.25-0.18-0.43l-1.67-1.62v-3.96c0-0.33-0.28-0.6-0.62-0.6h-1.23c-0.34 0-0.62 0.27-0.62 0.6v1.56l-3.26-3.19c-0.24-0.23-0.63-0.23-0.87 0q0 0 0 0l-7.4 7.21q-0.17 0.18-0.18 0.43v8.41c0 0.33 0.28 0.6 0.62 0.6h4.93c0.34 0 0.62-0.27 0.62-0.6z"/>
</svg>