<svg version="1.2" xmlns="http://www.w3.org/2000/svg" viewBox="0 0 46 46" width="46" height="46">
	<style>
		.s0 { fill: #ffffff } 
	</style>
	<path id="シェイプ 759 のコピー" fill-rule="evenodd" class="s0" d="m28.77 45c-0.57 0-1.04-0.47-1.04-1.04v-16.18-0.01q0-0.03 0.01-0.07 0-0.01 0-0.03 0-0.03 0.01-0.06 0-0.03 0.01-0.04 0-0.03 0.01-0.06 0.01-0.02 0.01-0.04 0.01-0.03 0.02-0.05 0.01-0.02 0.02-0.04 0-0.02 0.01-0.03l6.88-14.91q0.2-0.44 0.03-0.89-0.18-0.45-0.62-0.66-0.47-0.21-0.93-0.04-0.46 0.17-0.66 0.61l-0.01 0.01-4.18 8.38c-0.1 2.86-2.47 5.17-5.34 5.17-2.87 0-5.24-2.31-5.34-5.17l-4.18-8.37c-0.27-0.6-0.97-0.87-1.56-0.61q-0.49 0.22-0.66 0.68-0.17 0.45 0.03 0.9l6.89 14.92q0.01 0.03 0.03 0.07v0.02q0.02 0.03 0.02 0.07 0.01 0.02 0.01 0.03 0.01 0.03 0.01 0.06 0.01 0.03 0.01 0.05 0 0.02 0 0.04 0.01 0.03 0.01 0.06 0 0.01 0 0.02v16.17c0 0.57-0.47 1.04-1.04 1.04-0.57 0-1.04-0.47-1.04-1.04v-15.94l-5.48-11.88c-0.12 1.25-1.17 2.22-2.45 2.22h-4.79c-1.36 0-2.47-1.1-2.47-2.46v-12.43c0-1.36 1.11-2.46 2.47-2.46h4.79c1.36 0 2.46 1.1 2.46 2.46v5.18h24.56v-5.18c0-1.36 1.1-2.46 2.46-2.46h4.79c1.36 0 2.47 1.1 2.47 2.46v12.43c0 1.36-1.11 2.46-2.47 2.46h-4.79c-1.28 0-2.33-0.97-2.45-2.22l-5.48 11.88v15.94c0 0.57-0.47 1.04-1.04 1.04zm-5.77-28.59c-1.8 0-3.27 1.47-3.27 3.27 0 1.8 1.47 3.26 3.27 3.26 1.8 0 3.27-1.46 3.27-3.26 0-1.8-1.47-3.27-3.27-3.27zm-7.58-5.69l3.06 6.12c0.97-1.54 2.68-2.51 4.52-2.51 1.84 0 3.55 0.97 4.52 2.51l3.06-6.12zm22.32-7.64c-0.22 0-0.39 0.17-0.39 0.39v12.43c0 0.21 0.17 0.39 0.39 0.39h4.79c0.21 0 0.39-0.18 0.39-0.39v-12.43c0-0.22-0.18-0.39-0.39-0.39zm-34.28 0c-0.21 0-0.38 0.17-0.38 0.39v12.43c0 0.21 0.17 0.39 0.38 0.39h4.8c0.21 0 0.38-0.18 0.38-0.39v-12.43c0-0.22-0.17-0.39-0.38-0.39z"/>
</svg>