<svg version="1.2" xmlns="http://www.w3.org/2000/svg" viewBox="0 0 195 54" width="195" height="54">
	<style>
		.s0 { fill: #81d8d0 } 
		.s1 { fill: #ffffff } 
	</style>
	<g id="グループ 80">
		<path id="線 1465 のコピー" fill-rule="evenodd" class="s0" d="m192.38 23.92l0.98 0.82-23.35 28.25-0.99-0.82z"/>
		<path id="線 1465 のコピー 2" fill-rule="evenodd" class="s0" d="m1.64 24.74l0.98-0.82 23.36 28.25-0.99 0.82z"/>
		<path id="私たちと 一緒にTry！" class="s1" aria-label="私たちと
一緒にTry！"  d="m46.5-0.2l1.6 0.7q-2.4 10.7-5.1 15.2l5.9-0.8q-0.8-2.4-2.1-4.6l1.6-0.4q2.1 3.7 2.9 7.5l-1.7 0.5-0.3-1.5q-3.5 0.7-7 0.8l-0.8-1.5q3.2-6.5 5-15.9zm-5.1 0l0.7 1.4-3.3 0.7v3.3h3.4v1.5h-3.4v0.6l3.5 3.4-0.9 1.4-2.6-3v8.7h-1.5v-8.2q-1.4 2.7-3.4 4.9l-0.9-1.2q2.8-2.8 4.1-6.6h-3.7v-1.5h3.9v-2.9l-3.6 0.6-0.6-1.5q4.6-0.6 8.3-1.6zm4.6 0l1.6 0.7q-2.4 10.7-5.1 15.2l5.9-0.8q-0.8-2.4-2.1-4.6l1.5-0.4q2.2 3.7 3 7.5l-1.7 0.5-0.3-1.5q-3.5 0.7-7.1 0.8l-0.7-1.5q3.2-6.5 5-15.9zm-5.1 0l0.7 1.4-3.3 0.7v3.3h3.4v1.5h-3.4v0.6l3.5 3.4-0.9 1.4-2.6-3v8.7h-1.6v-8.2q-1.3 2.7-3.3 4.9l-1-1.2q2.9-2.8 4.2-6.6h-3.8v-1.5h3.9v-2.9l-3.6 0.6-0.5-1.5q4.5-0.6 8.3-1.6zm51.6 3.2v1.8l-4.4 0.3q-1.6 7.6-3.1 12l-1.7-0.6q1.6-4.3 3-11.3l-3.1 0.1-0.1-1.7 3.6-0.2 0.5-3.1 1.8 0.2-0.5 2.8zm6.4 3.1v1.7l-3-0.1-5.7 0.4-0.1-1.6 5.9-0.6zm-4.1 9.1l4.6-0.4-0.1 2-4.6 0.2q-5.7 0-5.7-3.4 0-1.4 1.5-3.1l1.3 0.9q-1 1.4-1 2 0 1.8 4 1.8zm-2.9-12.1v1.7l-4.3 0.4q-1.7 7.6-3.2 12l-1.7-0.7q1.6-4.3 3.1-11.2l-3.2 0.1-0.1-1.8 3.6-0.1 0.5-3.1 1.8 0.2-0.5 2.8zm6.5 3v1.8l-3.1-0.2-5.7 0.5-0.1-1.7 6-0.5zm-4.2 9.1l4.6-0.4v1.9l-4.7 0.3q-5.7 0-5.7-3.4 0-1.4 1.5-3.1l1.4 0.9q-1.1 1.3-1.1 2 0 1.8 4 1.8zm25.6-12.6l0.1 1.8-9.2 0.6q-0.7 2.5-1.7 4.8h0.2q2.9-1.9 4.9-1.9 2.6 0 4 1.2 1.4 1.3 1.4 3.2 0 4.6-7 4.6l-5-0.3v-2.1q2.2 0.6 4.9 0.6 5.1 0 5.1-2.8 0-2.7-3.4-2.7-3.2 0-6 2.7l-1.4-1.1q1.2-2 2.2-6.1h-4.5v-1.7l4.9-0.1 0.5-3.3 1.8 0.2-0.5 3zm-0.6 0l0.1 1.8-9.2 0.6q-0.6 2.5-1.6 4.8l0.1 0.1q2.9-2 4.9-2 2.6 0 4 1.3 1.4 1.2 1.4 3.2 0 4.5-6.9 4.5l-5-0.2-0.1-2.1q2.3 0.5 4.9 0.5 5.1 0 5.1-2.7 0-2.8-3.4-2.8-3.2 0-6 2.8l-1.4-1.1q1.3-2.1 2.2-6.2h-4.5v-1.7l4.9-0.1 0.5-3.3 1.8 0.3-0.5 2.9zm14 12.5l6.4-0.4-0.1 1.8-6.3 0.3q-4.5 0-6.2-1-1.7-1.1-1.7-3.3 0-3.2 4.5-5.2l-0.5-6.8 1.8-0.1q0 3 0.5 6.2l7.2-1.9 0.5 1.7q-8.1 1.9-10.2 3.3-2 1.4-2 2.8 0 2.6 6.1 2.6zm-0.5 0l6.3-0.4v1.8l-6.3 0.3q-4.5 0-6.2-1-1.7-1.1-1.7-3.3 0-3.2 4.5-5.2l-0.5-6.8 1.8-0.1q0 3 0.5 6.2l7.1-1.9 0.6 1.7q-8.1 1.9-10.2 3.3-2.1 1.4-2.1 2.8 0 2.6 6.2 2.6zm-81 27.7v-1.5h16.6v1.5zm-0.5 0v-1.5h16.7v1.5zm43.7-3.1l2.1-0.3 1.4-2.9 1.5 0.6q-2 4.4-4.4 7.1l3.1-0.8-0.6-1.6 1.1-0.6q1 1.9 1.6 4.2l-1.3 0.7-0.4-1.5q-2.4 0.9-5.2 1.4l-0.5-1.3q1.6-1.7 3-4l-2.9 0.5-0.3-1.4q1.8-2.2 2.8-5.9l1.7 0.5q-1.1 3.3-2.7 5.3zm3.5 7.3l1.3-0.4 0.9 3.8-1.4 0.4zm-4.4-0.2l1.4 0.4q-0.3 2.5-1 4.7l-1.4-0.7q0.7-2.2 1-4.4zm2.1 0.3l1.3-0.2q0.6 2.1 0.6 4.4l-1.5 0.1q0-2.4-0.4-4.3zm5.5-9.7v-1.4h2.9v-2.1h1.5v2.1h2.9l0.8-1.2 1.2 0.7-2.9 4h3.1v1.3h-4.4l-2.1 1.9h5.7v9.2h-1.6v-1.3h-4.8v1.3h-1.5v-7.5l-1 0.6-0.9-1.1q2-1.2 4-3.1h-3.6v-1.3h3.6v-2.1zm4.4 0v2l1.8-2zm-2.1 6.8v1.8h4.8v-1.8zm0 3.2v1.8h4.9v-1.8zm-9.5-7.7l2.1-0.3 1.5-2.8 1.4 0.5q-2 4.5-4.4 7.1l3.1-0.7-0.6-1.7 1.2-0.5q0.9 1.8 1.5 4.1l-1.3 0.7-0.4-1.5q-2.3 0.9-5.2 1.4l-0.5-1.3q1.6-1.6 3-4l-2.8 0.6-0.4-1.4q1.8-2.3 2.9-6l1.6 0.5q-1.1 3.3-2.7 5.3zm3.5 7.3l1.3-0.3 0.9 3.7-1.4 0.5zm-4.4-0.3l1.4 0.4q-0.2 2.5-1 4.7l-1.4-0.7q0.7-2.2 1-4.4zm2.1 0.4l1.3-0.3q0.6 2.1 0.6 4.4l-1.5 0.1q0-2.4-0.4-4.2zm5.5-9.8v-1.4h2.9v-2.1h1.5v2.1h2.9l0.8-1.2 1.2 0.7-2.9 4h3.1v1.3h-4.4l-2.1 2h5.7v9.1h-1.6v-1.3h-4.8v1.3h-1.5v-7.5l-1 0.6-0.9-1.1q2-1.2 4-3.1h-3.6v-1.3h3.6v-2.1zm4.4 0v2l1.8-2zm-2.1 6.8v1.9h4.8v-1.9zm0 3.2v1.9h4.9v-1.9zm-5.8-12.3l1.8 0.2q-0.5 4.4-0.5 9.5l0.1 6.4-1.8 0.2-0.1-6.2q0-6 0.5-10.1zm13.9 2.1v1.7l-9.8 0.3v-1.7zm-3.8 11.4l4.6-0.3-0.1 1.8-4.2 0.3q-6.9 0-6.9-3.5 0-1.7 1.2-3.5l1.5 0.8q-0.9 1.6-0.9 2.5 0 1.9 4.8 1.9zm-10.6-13.5l1.8 0.2q-0.5 4.4-0.5 9.5l0.1 6.4-1.8 0.2-0.1-6.2q0-6 0.5-10.1zm13.9 2.1v1.7l-9.8 0.3v-1.7zm-3.8 11.4l4.7-0.3-0.2 1.8-4.2 0.3q-6.9 0-6.9-3.5 0-1.7 1.2-3.5l1.5 0.8q-0.9 1.6-0.9 2.5 0 1.9 4.8 1.9zm6.9-11.4v-1.6h12.4v1.6h-5.2v12.9h-2v-12.9zm-0.5 0v-1.6h12.3v1.6h-5.2v12.9h-2v-12.9zm19.8 1.8l0.1 1.9q-0.4-0.2-0.7-0.3-0.4-0.1-0.8-0.1-1.5 0-2.3 1-0.8 1-0.8 2.9v5.7h-1.9v-10.9h1.9v1.7q0.5-1 1.4-1.5 0.9-0.5 2.2-0.5 0.2 0 0.4 0.1 0.3 0 0.5 0zm-0.5 0v1.9q-0.3-0.2-0.6-0.3-0.4-0.1-0.8-0.1-1.5 0-2.4 1-0.8 1-0.8 2.9v5.7h-1.8v-10.9h1.8v1.7q0.6-1 1.5-1.5 0.9-0.5 2.2-0.5 0.2 0 0.4 0.1 0.2 0 0.5 0zm13.6 0.2l-4.8 12q-0.8 1.9-1.5 2.5-0.7 0.6-2 0.6h-1.4v-1.5h1.1q0.7 0 1.1-0.4 0.4-0.3 0.9-1.6l0.3-0.8-4.4-10.8h1.9l3.4 8.6 3.5-8.6zm-0.6 0l-4.8 12q-0.7 1.9-1.5 2.5-0.7 0.6-1.9 0.6h-1.4v-1.5h1q0.8 0 1.2-0.4 0.4-0.3 0.9-1.6l0.3-0.8-4.4-10.8h1.9l3.4 8.6 3.4-8.6zm9.3 14.5h-10v-17.7h10zm-8.9-16.5v15.4h7.8v-15.4zm8.4 16.5h-10v-17.6h10zm-8.9-16.5v15.4h7.7v-15.4z"/>
	</g>
</svg>