<?xml version="1.0" encoding="UTF-8" standalone="no"?>
<!DOCTYPE svg PUBLIC "-//W3C//DTD SVG 1.1//EN" "http://www.w3.org/Graphics/SVG/1.1/DTD/svg11.dtd">
<svg width="71px" height="71px" version="1.1" xmlns="http://www.w3.org/2000/svg" xmlns:xlink="http://www.w3.org/1999/xlink" xml:space="preserve" xmlns:serif="http://www.serif.com/" style="fill-rule:evenodd;clip-rule:evenodd;stroke-linejoin:round;stroke-miterlimit:2;">
    <g transform="matrix(1,0,0,1,-240,-500)">
        <rect id="長方形-33-のコピー" serif:id="長方形 33 のコピー" x="240" y="500" width="70.005" height="70.005" style="fill:rgb(129,215,207);fill-opacity:0.95;"/>
        <path id="logo-のコピー" serif:id="logo のコピー" d="M282.315,544.851L282.593,543.056C282.732,542.711 282.732,542.085 282.805,541.746C282.877,541.407 282.931,541.051 282.967,540.681C283.045,540.005 283.117,539.35 283.181,538.711C283.246,538.073 283.333,537.416 283.445,536.738C283.439,536.672 283.399,536.592 283.325,536.497C283.249,536.402 283.179,536.358 283.113,536.362C283.077,536.335 283.025,536.323 282.959,536.327L282.212,536.388C281.951,536.479 281.699,536.555 281.453,536.625C281.208,536.696 280.955,536.775 280.695,536.863C279.983,537.157 279.278,537.423 278.579,537.664C277.879,537.904 277.173,538.172 276.462,538.464C275.553,538.804 274.664,539.168 273.792,539.558C272.921,539.946 272.069,540.36 271.235,540.793C271.074,540.872 270.932,540.977 270.809,541.102C270.686,541.231 270.563,541.367 270.441,541.51C270.41,541.543 270.397,541.579 270.4,541.612C270.402,541.647 270.387,541.664 270.354,541.667C270.182,542.014 270.008,542.337 269.832,542.634C269.656,542.932 269.48,543.239 269.305,543.553C268.878,544.457 268.676,544.776 268.248,545.66C267.819,546.547 265.896,550.56 265.538,551.491C265.402,551.871 265.241,552.249 265.055,552.63C264.869,553.013 264.675,553.396 264.473,553.778C264.356,553.989 264.185,554.154 263.962,554.273C263.834,554.349 263.673,554.429 263.479,554.514C263.022,554.65 262.604,554.65 262.225,554.515C262.158,554.52 262.107,554.507 262.072,554.479C262.035,554.448 261.983,554.417 261.914,554.39C261.744,554.371 261.607,554.315 261.499,554.225C261.391,554.132 260.622,553.705 261.377,553.059C261.466,552.982 261.518,552.837 261.571,552.669C261.97,551.835 261.831,552.29 262.214,551.457C262.596,550.624 264.802,545.942 265.163,545.046C265.333,544.664 265.198,544.459 264.761,544.428L264.562,544.446C264.298,544.5 264.056,544.504 263.835,544.455C263.613,544.406 263.382,544.341 263.142,544.261C263.075,544.266 262.97,544.21 262.826,544.086C262.543,543.909 262.494,543.712 262.677,543.497C262.763,543.326 262.821,543.221 262.852,543.182C263.093,542.864 263.433,542.533 263.875,542.196C264.129,542.044 264.369,541.907 264.593,541.79C264.817,541.671 265.04,541.534 265.262,541.385C265.614,541.188 265.942,541.012 266.247,540.854C266.552,540.694 266.864,540.519 267.182,540.326C267.534,540.131 267.826,539.915 268.057,539.676C268.289,539.442 268.509,539.184 268.72,538.899C269.047,538.404 269.382,537.902 269.725,537.391C270.067,536.878 270.401,536.375 270.729,535.881L272.076,533.968C272.526,533.331 272.976,532.712 273.428,532.106C274.063,531.285 274.681,530.47 275.283,529.653C275.884,528.835 276.503,528.015 277.137,527.196C277.53,526.699 277.926,526.216 278.322,525.748L279.557,524.298C279.832,523.973 280.097,523.65 280.355,523.33C280.613,523.01 280.88,522.687 281.154,522.364C281.306,522.183 281.434,522.016 281.538,521.857C281.642,521.699 281.77,521.532 281.923,521.347C282.109,521.166 282.294,520.977 282.478,520.779C282.662,520.58 282.846,520.374 283.029,520.159C283.27,519.837 283.593,519.494 283.997,519.127C284.119,518.982 284.243,518.858 284.368,518.747C284.492,518.635 284.633,518.525 284.792,518.41C285.504,517.719 286.011,516.977 286.314,516.184C286.369,516.048 286.434,515.917 286.507,515.793C286.58,515.671 286.643,515.526 286.697,515.353C286.81,515.11 286.964,514.939 287.156,514.839C287.349,514.74 287.576,514.662 287.839,514.608C287.939,514.599 288.047,514.599 288.165,514.607C288.283,514.615 288.408,514.612 288.541,514.601C288.71,514.622 288.859,514.707 288.99,514.865C289.119,515.022 289.208,515.179 289.255,515.344C289.34,515.571 289.347,515.854 289.275,516.19C289.238,516.56 289.175,516.911 289.085,517.234C288.994,517.558 288.915,517.906 288.845,518.279C288.508,519.876 288.218,521.416 287.972,522.905C287.914,523.412 287.832,523.933 287.726,524.477C287.62,525.02 287.505,525.542 287.38,526.055C287.187,526.972 287.021,527.886 286.879,528.797C286.736,529.714 286.569,530.626 286.378,531.543C286.352,531.645 286.344,531.737 286.35,531.821C286.357,531.904 286.346,531.978 286.319,532.047C286.215,532.825 286.525,533.13 287.249,532.974C287.445,532.924 287.625,532.883 287.791,532.852C287.955,532.821 288.136,532.783 288.333,532.734C288.399,532.726 288.483,532.73 288.584,532.737C288.685,532.748 288.785,532.746 288.885,532.74L288.993,532.829C289.07,532.956 289.08,533.072 289.022,533.177C288.941,533.419 288.788,533.596 288.564,533.712C288.126,534.087 287.664,534.357 287.176,534.531C287.015,534.611 286.854,534.682 286.692,534.745C286.53,534.808 286.369,534.879 286.208,534.959C285.95,535.08 285.798,535.26 285.751,535.499C285.695,535.635 285.642,535.807 285.593,536.012C285.275,537.436 284.976,538.874 284.693,540.314C284.52,541.197 283.926,544.15 283.754,545.038C283.646,545.73 283.53,546.311 283.405,546.779C283.294,547.056 283.161,547.265 283.006,547.414C282.944,547.485 282.837,547.503 282.684,547.464C282.53,547.428 282.432,547.361 282.391,547.263C282.35,547.169 282.326,547.077 282.319,546.994C282.312,546.912 282.287,546.823 282.246,546.725C282.271,546.621 282.27,546.507 282.243,546.377C282.214,546.242 282.213,546.128 282.239,546.025C282.263,545.62 282.288,545.233 282.315,544.851ZM285.931,520.671C285.959,520.603 285.966,520.485 285.952,520.32C285.939,520.152 285.881,520.058 285.778,520.032C285.706,519.971 285.591,519.995 285.434,520.111C285.281,520.291 285.121,520.485 284.955,520.701C284.789,520.913 284.613,521.112 284.427,521.296C284.178,521.515 283.97,521.739 283.806,521.97C283.641,522.2 283.451,522.441 283.238,522.693C282.819,523.295 282.416,523.884 282.03,524.469C281.643,525.052 281.186,525.596 280.66,526.108C280.596,526.146 280.522,526.251 280.436,526.428C280.191,526.713 279.965,527.016 279.758,527.333C279.55,527.649 279.325,527.969 279.084,528.288L278.329,529.177C278.07,529.482 277.872,529.82 277.737,530.2L277.576,530.389L277.416,530.579C277.111,530.937 276.84,531.302 276.603,531.671C276.366,532.037 276.13,532.421 275.894,532.803C275.597,533.263 275.3,533.712 275.002,534.152C274.704,534.594 274.406,535.046 274.11,535.504L273.752,536.033C273.633,536.208 273.531,536.384 273.444,536.559C273.383,536.629 273.36,536.75 273.373,536.913C273.346,536.985 273.377,537.058 273.467,537.132C273.556,537.209 273.634,537.243 273.701,537.238C273.765,537.2 273.847,537.175 273.946,537.167C274.046,537.16 274.127,537.139 274.192,537.098C274.842,536.874 275.501,536.656 276.169,536.434C276.836,536.214 277.497,536.009 278.151,535.821C278.804,535.635 279.455,535.423 280.105,535.186C280.754,534.948 281.404,534.719 282.056,534.499C282.645,534.353 283.194,534.106 283.701,533.764C283.981,533.508 284.145,533.278 284.196,533.073L284.496,531.847C284.596,531.439 284.68,531.032 284.746,530.626C284.855,529.916 284.947,529.209 285.023,528.502C285.098,527.796 285.157,527.089 285.199,526.385C285.249,526.181 285.267,525.988 285.252,525.806C285.237,525.623 285.255,525.447 285.308,525.274C285.445,524.499 285.557,523.73 285.645,522.971C285.733,522.211 285.828,521.446 285.931,520.671Z" style="fill:white;"/>
    </g>
</svg>
