<?xml version="1.0" encoding="UTF-8" standalone="no"?>
<!DOCTYPE svg PUBLIC "-//W3C//DTD SVG 1.1//EN" "http://www.w3.org/Graphics/SVG/1.1/DTD/svg11.dtd">
<svg width="71px" height="71px" version="1.1" xmlns="http://www.w3.org/2000/svg" xmlns:xlink="http://www.w3.org/1999/xlink" xml:space="preserve" xmlns:serif="http://www.serif.com/" style="fill-rule:evenodd;clip-rule:evenodd;stroke-linejoin:round;stroke-miterlimit:2;">
    <g transform="matrix(1,0,0,1,-1220,-1257)">
        <rect id="長方形-33-のコピー" serif:id="長方形 33 のコピー" x="1220" y="1257" width="70.005" height="70.005" style="fill:rgb(129,215,207);fill-opacity:0.95;"/>
        <path id="シェイプ-1363" serif:id="シェイプ 1363" d="M1260.09,1307.03L1241.05,1307.03C1239.36,1307.03 1237.99,1305.66 1237.99,1303.98L1237.99,1291.5C1237.99,1289.82 1239.36,1288.46 1241.05,1288.46L1246.71,1288.46C1248.3,1285.53 1250.45,1281.56 1249.89,1277.8L1249.88,1277.73L1249.88,1277.67C1249.88,1275.63 1251.55,1273.98 1253.6,1273.98C1255,1273.98 1256.32,1274.52 1257.31,1275.51C1258.31,1276.5 1258.86,1277.82 1258.86,1279.21L1258.86,1284.04C1258.86,1284.78 1259.46,1285.38 1260.2,1285.38L1266.53,1285.38C1268.24,1285.38 1269.83,1286.16 1270.88,1287.52C1271.92,1288.88 1272.26,1290.6 1271.82,1292.25L1269.85,1299.57C1268.67,1303.96 1264.66,1307.03 1260.09,1307.03ZM1248.08,1305.32L1260.09,1305.32C1263.88,1305.32 1267.21,1302.77 1268.19,1299.12L1270.16,1291.81C1270.47,1290.68 1270.23,1289.49 1269.51,1288.56C1268.8,1287.62 1267.71,1287.09 1266.53,1287.09L1260.2,1287.09C1258.51,1287.09 1257.14,1285.72 1257.14,1284.04L1257.14,1279.21C1257.14,1278.27 1256.77,1277.38 1256.1,1276.72C1255.43,1276.05 1254.54,1275.68 1253.6,1275.68C1252.52,1275.68 1251.62,1276.55 1251.6,1277.62C1251.87,1279.53 1251.61,1281.56 1250.79,1283.82C1250.11,1285.74 1249.12,1287.62 1248.08,1289.53L1248.08,1305.32ZM1241.05,1290.16C1240.31,1290.16 1239.71,1290.76 1239.71,1291.5L1239.71,1303.98C1239.71,1304.72 1240.31,1305.32 1241.05,1305.32L1246.36,1305.32L1246.36,1290.16L1241.05,1290.16Z" style="fill:white;"/>
    </g>
</svg>
