<?xml version="1.0" encoding="UTF-8" standalone="no"?>
<!DOCTYPE svg PUBLIC "-//W3C//DTD SVG 1.1//EN" "http://www.w3.org/Graphics/SVG/1.1/DTD/svg11.dtd">
<svg width="71px" height="71px" version="1.1" xmlns="http://www.w3.org/2000/svg" xmlns:xlink="http://www.w3.org/1999/xlink" xml:space="preserve" xmlns:serif="http://www.serif.com/" style="fill-rule:evenodd;clip-rule:evenodd;stroke-linejoin:round;stroke-miterlimit:2;">
    <g transform="matrix(1,0,0,1,-1220,-1063)">
        <rect id="長方形-33-のコピー" serif:id="長方形 33 のコピー" x="1220" y="1063" width="70.005" height="70.005" style="fill:rgb(129,215,207);fill-opacity:0.95;"/>
        <path id="シェイプ-1364" serif:id="シェイプ 1364" d="M1262.4,1102.24L1274.32,1114.28C1274.79,1114.75 1275.06,1115.39 1275.06,1116.07C1275.05,1116.71 1274.79,1117.33 1274.35,1117.8C1273.38,1118.81 1271.78,1118.83 1270.78,1117.85L1258.85,1105.82C1249.09,1113.01 1234.96,1105.64 1235.07,1093.43C1235.08,1085.04 1241.82,1078.24 1250.13,1078.23C1262.22,1078.11 1269.52,1092.39 1262.4,1102.24ZM1273.31,1116.83L1273.32,1116.82C1273.73,1116.4 1273.73,1115.72 1273.31,1115.3C1273.28,1115.35 1261.49,1103.21 1261.48,1103.43C1261.02,1103.97 1260.52,1104.47 1259.99,1104.93L1271.79,1116.83C1272.21,1117.25 1272.89,1117.25 1273.31,1116.83ZM1236.5,1093.43C1236.4,1104.75 1249.72,1111.33 1258.49,1104.31C1261.82,1101.7 1263.77,1097.69 1263.76,1093.43C1263.02,1075.18 1237.25,1075.17 1236.5,1093.43ZM1253.15,1094.11C1254.65,1094.59 1256.01,1095.46 1257.07,1096.63C1257.62,1097.26 1257.92,1098.07 1257.93,1098.91C1257.95,1100.85 1256.41,1102.43 1254.49,1102.44L1245.77,1102.44C1244.4,1102.45 1243.15,1101.64 1242.61,1100.37C1241.26,1097.31 1244.55,1094.95 1247.11,1094.11C1245.7,1093.11 1244.85,1091.48 1244.86,1089.74C1244.86,1086.8 1247.22,1084.42 1250.13,1084.42C1255.27,1084.41 1257.33,1091.21 1253.15,1094.11ZM1256.35,1099.78C1257.46,1096.93 1252.47,1094.96 1250.13,1095.08C1247.79,1094.97 1242.8,1096.93 1243.91,1099.78C1244.23,1100.53 1244.96,1101.01 1245.77,1101L1254.49,1101C1255.3,1101.01 1256.03,1100.53 1256.35,1099.78ZM1246.28,1089.75C1246.44,1094.88 1253.82,1094.88 1253.98,1089.75C1253.82,1084.61 1246.44,1084.61 1246.28,1089.75Z" style="fill:white;"/>
    </g>
</svg>
