<?xml version="1.0" encoding="UTF-8" standalone="no"?>
<!DOCTYPE svg PUBLIC "-//W3C//DTD SVG 1.1//EN" "http://www.w3.org/Graphics/SVG/1.1/DTD/svg11.dtd">
<svg width="71px" height="71px" version="1.1" xmlns="http://www.w3.org/2000/svg" xmlns:xlink="http://www.w3.org/1999/xlink" xml:space="preserve" xmlns:serif="http://www.serif.com/" style="fill-rule:evenodd;clip-rule:evenodd;stroke-linejoin:round;stroke-miterlimit:2;">
    <g transform="matrix(1,0,0,1,-730,-500)">
        <rect id="長方形-33-のコピー" serif:id="長方形 33 のコピー" x="730" y="500" width="70.005" height="70.005" style="fill:rgb(129,215,207);fill-opacity:0.95;"/>
        <g id="グループ-74" serif:id="グループ 74">
            <path id="シェイプ-571" serif:id="シェイプ 571" d="M752.466,548.004C751.617,548.004 750.764,547.999 749.917,547.983L749.872,547.983C747.422,547.983 745.376,546.146 745.109,543.693C745.011,542.628 745.039,541.529 745.066,540.466C745.079,539.967 745.092,539.469 745.092,538.977C744.982,537.36 745.004,535.708 745.156,534.082C745.583,531.769 747.564,530.121 749.883,530.121L749.955,530.121C751.962,530.106 754.006,530.113 755.983,530.121C756.007,530.072 756.036,530.027 756.07,529.986C757.78,527.678 759.498,525.365 761.216,523.053C761.276,522.968 761.355,522.896 761.447,522.843C761.441,522.762 761.438,522.681 761.438,522.6C761.445,520.628 763.049,519.017 765.015,519.01L765.028,519.01C765.982,519.01 766.879,519.382 767.556,520.056C768.237,520.734 768.614,521.637 768.617,522.6C768.615,522.681 768.611,522.762 768.602,522.841C768.697,522.894 768.78,522.968 768.843,523.058L774,529.995C774.029,530.037 774.053,530.079 774.074,530.121L779.809,530.121C781.539,530.02 783.245,530.86 784.232,532.313L784.235,532.317C785.062,533.606 785.023,535.154 784.985,536.651C784.978,536.949 784.971,537.244 784.971,537.531L784.972,539.367C784.974,540.593 784.976,541.823 784.971,543.052C785.006,545.755 782.877,547.949 780.224,547.983L757.535,547.983C756.692,547.983 755.848,547.989 755.003,547.995C754.168,547.999 753.319,548.004 752.466,548.004ZM764.937,520.495C763.817,520.553 762.927,521.478 762.91,522.603L762.911,522.669C762.93,523.233 763.167,523.754 763.576,524.138C763.985,524.521 764.513,524.723 765.08,524.702C765.64,524.683 766.159,524.446 766.541,524.035C766.923,523.624 767.123,523.088 767.103,522.526C767.084,521.964 766.848,521.443 766.439,521.06C766.029,520.677 765.492,520.469 764.937,520.495ZM750.263,531.565C749.449,531.565 748.667,531.773 747.96,532.176C746.528,533.165 746.544,534.711 746.561,536.348C746.562,536.518 746.564,536.688 746.564,536.857L746.564,542.606C746.511,543.307 746.618,544.007 746.874,544.645C747.416,545.771 748.583,546.509 749.842,546.514C750.251,546.525 750.655,546.522 751.059,546.518C751.262,546.516 751.466,546.514 751.67,546.514L780.221,546.514C781.633,546.503 782.886,545.594 783.34,544.251C783.485,543.645 783.536,543.021 783.491,542.398L783.49,539.724C783.49,539.189 783.494,538.653 783.497,538.117C783.504,537.063 783.511,535.974 783.49,534.907L783.489,534.806C783.427,532.975 781.887,531.526 780.07,531.599C779.492,531.594 778.928,531.596 778.36,531.597L777.507,531.599L750.831,531.599C750.64,531.576 750.451,531.565 750.263,531.565ZM757.795,530.121L772.26,530.121C770.859,528.237 769.46,526.351 768.064,524.467C767.419,525.523 766.284,526.17 765.032,526.174C763.781,526.169 762.641,525.528 761.986,524.479C760.589,526.362 759.192,528.243 757.795,530.121Z" style="fill:white;"/>
            <g id="Gym" transform="matrix(0.408941,0,0,0.404589,764.974,541.717)">
                <g transform="matrix(24.7165,0,0,24.7165,26.8277,0)">
                </g>
                <text x="-26.828px" y="0px" style="font-family:'ArialMT', 'Arial', sans-serif;font-size:24.716px;fill:white;">G<tspan x="-6.614px 6.239px " y="0px 0px ">ym</tspan></text>
            </g>
        </g>
    </g>
</svg>
