<?xml version="1.0" encoding="UTF-8" standalone="no"?>
<!DOCTYPE svg PUBLIC "-//W3C//DTD SVG 1.1//EN" "http://www.w3.org/Graphics/SVG/1.1/DTD/svg11.dtd">
<svg width="71px" height="71px" version="1.1" xmlns="http://www.w3.org/2000/svg" xmlns:xlink="http://www.w3.org/1999/xlink" xml:space="preserve" xmlns:serif="http://www.serif.com/" style="fill-rule:evenodd;clip-rule:evenodd;stroke-linejoin:round;stroke-miterlimit:2;">
    <g transform="matrix(1,0,0,1,-1220,-500)">
        <rect id="長方形-33-のコピー" serif:id="長方形 33 のコピー" x="1220" y="500" width="70.005" height="70.005" style="fill:rgb(129,215,207);fill-opacity:0.95;"/>
        <path id="シェイプ-1361" serif:id="シェイプ 1361" d="M1247.11,551.231C1246.72,551.231 1246.37,550.95 1246.29,550.564L1243.42,536.947L1241.11,536.561C1240.7,536.493 1240.41,536.145 1240.41,535.733L1240.41,535.107L1236.85,535.107C1236.39,535.107 1236.01,534.73 1236.01,534.267L1236.01,528.404C1236.01,527.941 1236.39,527.564 1236.85,527.564L1240.41,527.564L1240.41,526.938C1240.41,526.526 1240.7,526.177 1241.11,526.11L1249.82,524.659L1264.39,518.829C1264.49,518.789 1264.6,518.769 1264.7,518.769C1264.87,518.769 1265.04,518.819 1265.18,518.913C1265.41,519.07 1265.55,519.33 1265.55,519.609L1265.55,543.062C1265.55,543.341 1265.41,543.601 1265.18,543.757C1265.04,543.852 1264.87,543.902 1264.7,543.902C1264.6,543.902 1264.49,543.882 1264.39,543.842L1251.03,538.499L1252.35,550.299C1252.37,550.536 1252.3,550.773 1252.14,550.951C1251.98,551.129 1251.75,551.231 1251.51,551.231L1247.11,551.231ZM1247.79,549.552L1250.57,549.552L1249.28,537.923L1245.2,537.243L1247.79,549.552ZM1250.88,526.04L1250.88,536.63L1263.87,541.822L1263.87,520.849L1250.88,526.04ZM1242.09,527.649L1242.09,535.021L1249.2,536.207L1249.2,526.463L1242.09,527.649ZM1237.69,533.427L1240.41,533.427L1240.41,529.243L1237.69,529.243L1237.69,533.427ZM1270.75,532.175C1270.29,532.175 1269.91,531.798 1269.91,531.335C1269.91,530.872 1270.29,530.496 1270.75,530.496L1275.15,530.496C1275.61,530.496 1275.99,530.872 1275.99,531.335C1275.99,531.798 1275.61,532.175 1275.15,532.175L1270.75,532.175ZM1272.22,538.954C1271.99,538.954 1271.78,538.867 1271.62,538.709L1268.69,535.777C1268.37,535.45 1268.37,534.917 1268.69,534.59C1268.85,534.431 1269.06,534.343 1269.29,534.343C1269.51,534.343 1269.72,534.431 1269.88,534.589L1272.81,537.521C1272.97,537.68 1273.06,537.891 1273.06,538.115C1273.06,538.339 1272.97,538.55 1272.81,538.709C1272.65,538.867 1272.44,538.954 1272.22,538.954ZM1269.29,528.327C1269.06,528.327 1268.85,528.24 1268.69,528.081C1268.37,527.754 1268.37,527.221 1268.69,526.894L1271.62,523.962C1271.78,523.803 1271.99,523.716 1272.22,523.716C1272.44,523.716 1272.65,523.803 1272.81,523.962C1273.14,524.289 1273.14,524.822 1272.81,525.15L1269.88,528.081C1269.72,528.24 1269.51,528.327 1269.29,528.327Z" style="fill:white;"/>
    </g>
</svg>
