<?xml version="1.0" encoding="UTF-8" standalone="no"?>
<!DOCTYPE svg PUBLIC "-//W3C//DTD SVG 1.1//EN" "http://www.w3.org/Graphics/SVG/1.1/DTD/svg11.dtd">
<svg width="91px" height="91px" version="1.1" xmlns="http://www.w3.org/2000/svg" xmlns:xlink="http://www.w3.org/1999/xlink" xml:space="preserve" xmlns:serif="http://www.serif.com/" style="fill-rule:evenodd;clip-rule:evenodd;stroke-linejoin:round;stroke-miterlimit:2;">
    <g transform="matrix(1,0,0,1,-980,-1668)">
        <g id="icon">
            <rect id="長方形-33-のコピー" serif:id="長方形 33 のコピー" x="980" y="1668" width="90.003" height="90.003" style="fill:rgb(129,215,207);fill-opacity:0.95;"/>
            <path id="シェイプ-1365" serif:id="シェイプ 1365" d="M1024.9,1693.25L1024.96,1693.25C1027.44,1693.27 1029.76,1694.22 1031.5,1695.94C1033.24,1697.66 1034.19,1699.94 1034.18,1702.36C1034.15,1707.32 1029.99,1711.36 1024.91,1711.36L1024.85,1711.36C1019.76,1711.34 1015.62,1707.28 1015.64,1702.25C1015.67,1697.29 1019.83,1693.25 1024.9,1693.25M1024.89,1709.09L1024.94,1709.09C1028.77,1709.06 1031.87,1706 1031.84,1702.26C1031.82,1698.54 1028.7,1695.52 1024.85,1695.52L1024.85,1695.52C1021.04,1695.54 1017.95,1698.58 1017.95,1702.3C1017.95,1702.3 1017.95,1702.35 1017.95,1702.35C1017.98,1706.07 1021.09,1709.09 1024.89,1709.09M1027.11,1712.75C1035.48,1712.79 1042.27,1719.46 1042.26,1727.64L1042.26,1732.13C1042.26,1732.43 1042.14,1732.72 1041.92,1732.93C1041.7,1733.14 1041.41,1733.26 1041.11,1733.26L1008.6,1733.26C1008.29,1733.26 1008,1733.14 1007.78,1732.93C1007.57,1732.71 1007.45,1732.43 1007.45,1732.13L1007.45,1727.64C1007.44,1719.47 1014.23,1712.79 1022.59,1712.75L1027.11,1712.75M1010.01,1730.99L1039.7,1730.99C1039.84,1730.99 1039.96,1730.88 1039.96,1730.74L1039.96,1727.64C1039.96,1720.71 1034.2,1715.05 1027.11,1715.02L1022.59,1715.02C1015.5,1715.05 1009.74,1720.71 1009.75,1727.64L1009.75,1730.74C1009.75,1730.88 1009.87,1730.99 1010.01,1730.99" style="fill:white;fill-rule:nonzero;"/>
        </g>
    </g>
</svg>
