<?xml version="1.0" encoding="UTF-8" standalone="no"?>
<!DOCTYPE svg PUBLIC "-//W3C//DTD SVG 1.1//EN" "http://www.w3.org/Graphics/SVG/1.1/DTD/svg11.dtd">
<svg width="71px" height="71px" version="1.1" xmlns="http://www.w3.org/2000/svg" xmlns:xlink="http://www.w3.org/1999/xlink" xml:space="preserve" xmlns:serif="http://www.serif.com/" style="fill-rule:evenodd;clip-rule:evenodd;stroke-linejoin:round;stroke-miterlimit:2;">
    <g transform="matrix(1,0,0,1,-1220,-799)">
        <rect id="長方形-33-のコピー" serif:id="長方形 33 のコピー" x="1220" y="799" width="70.005" height="70.005" style="fill:rgb(129,215,207);fill-opacity:0.95;"/>
        <path id="シェイプ-1093-のコピー" serif:id="シェイプ 1093 のコピー" d="M1244.68,849.49C1243.31,849.49 1242.19,848.373 1242.19,847L1242.19,835.157L1242.13,835.159C1242.11,835.16 1242.08,835.16 1242.06,835.16C1241.71,835.16 1241.38,835.07 1241.1,834.893C1240.11,834.271 1239.71,832.766 1239.71,829.7C1239.71,829.26 1239.75,828.822 1239.83,828.397C1239.84,828.284 1239.86,828.183 1239.9,828.088C1239.98,827.759 1240.09,827.443 1240.21,827.141L1242.77,821.038C1243.16,820.11 1244.06,819.51 1245.06,819.51L1265.93,819.51C1266.94,819.51 1267.84,820.11 1268.23,821.038L1270.78,827.141C1270.91,827.444 1271.02,827.76 1271.1,828.079C1271.14,828.183 1271.16,828.282 1271.17,828.386C1271.25,828.822 1271.29,829.26 1271.29,829.7C1271.29,832.767 1270.89,834.271 1269.9,834.893C1269.62,835.07 1269.29,835.16 1268.94,835.16C1268.92,835.16 1268.89,835.16 1268.87,835.159L1268.81,835.157L1268.81,847C1268.81,848.373 1267.69,849.49 1266.32,849.49L1244.68,849.49ZM1258.4,838.489C1259.13,838.489 1259.73,839.085 1259.73,839.817L1259.73,847.996L1266.32,847.996C1266.87,847.996 1267.32,847.549 1267.32,847L1267.32,834.613L1267.29,834.596C1267.23,834.552 1267.16,834.508 1267.1,834.467C1266.69,834.195 1266.43,834.015 1265.8,834.015C1265.17,834.015 1264.9,834.195 1264.5,834.468C1264.03,834.784 1263.45,835.177 1262.36,835.177C1261.27,835.177 1260.69,834.783 1260.23,834.467C1259.82,834.195 1259.56,834.015 1258.93,834.015C1258.3,834.015 1258.03,834.195 1257.63,834.468C1257.16,834.784 1256.58,835.177 1255.5,835.177C1254.42,835.177 1253.84,834.784 1253.37,834.468C1252.97,834.195 1252.7,834.015 1252.07,834.015C1251.44,834.015 1251.18,834.195 1250.78,834.467C1250.31,834.783 1249.73,835.177 1248.64,835.177C1247.55,835.177 1246.97,834.784 1246.5,834.468C1246.1,834.195 1245.83,834.015 1245.2,834.015C1244.57,834.015 1244.31,834.195 1243.9,834.467C1243.84,834.508 1243.78,834.551 1243.71,834.594L1243.68,834.612L1243.68,847C1243.68,847.549 1244.13,847.996 1244.68,847.996L1251.27,847.996L1251.27,839.817C1251.27,839.085 1251.87,838.489 1252.6,838.489L1258.4,838.489ZM1252.76,847.994L1258.24,847.994L1258.24,839.983L1252.76,839.983L1252.76,847.994ZM1258.93,832.521C1260.02,832.521 1260.6,832.914 1261.06,833.23C1261.46,833.503 1261.73,833.683 1262.36,833.683C1262.99,833.683 1263.26,833.503 1263.66,833.23C1264.13,832.914 1264.71,832.521 1265.8,832.521C1266.88,832.521 1267.47,832.913 1267.93,833.229C1268.1,833.338 1268.24,833.433 1268.39,833.509C1268.51,833.569 1268.75,833.67 1268.93,833.67C1269,833.67 1269.06,833.655 1269.11,833.628C1269.37,833.464 1269.8,832.738 1269.8,829.7C1269.8,829.532 1269.79,829.363 1269.78,829.196L1269.77,829.144L1241.23,829.144L1241.22,829.196C1241.21,829.363 1241.2,829.532 1241.2,829.699C1241.2,832.738 1241.63,833.464 1241.89,833.628C1241.94,833.655 1242,833.67 1242.07,833.67C1242.25,833.67 1242.49,833.569 1242.61,833.508C1242.76,833.434 1242.9,833.339 1243.07,833.229C1243.53,832.913 1244.12,832.521 1245.2,832.521C1246.29,832.521 1246.87,832.914 1247.34,833.23C1247.74,833.503 1248.01,833.683 1248.64,833.683C1249.27,833.683 1249.54,833.503 1249.94,833.23C1250.4,832.914 1250.98,832.521 1252.07,832.521C1253.16,832.521 1253.74,832.915 1254.21,833.231C1254.61,833.504 1254.87,833.683 1255.5,833.683C1256.13,833.683 1256.39,833.504 1256.79,833.231C1257.26,832.915 1257.84,832.521 1258.93,832.521ZM1245.06,821.004C1244.66,821.004 1244.3,821.244 1244.15,821.615L1241.62,827.651L1269.38,827.651L1266.85,821.615C1266.7,821.244 1266.34,821.004 1265.93,821.004L1245.06,821.004Z" style="fill:rgb(251,253,253);fill-rule:nonzero;"/>
    </g>
</svg>
