<?xml version="1.0" encoding="UTF-8" standalone="no"?>
<!DOCTYPE svg PUBLIC "-//W3C//DTD SVG 1.1//EN" "http://www.w3.org/Graphics/SVG/1.1/DTD/svg11.dtd">
<svg width="91px" height="91px" version="1.1" xmlns="http://www.w3.org/2000/svg" xmlns:xlink="http://www.w3.org/1999/xlink" xml:space="preserve" xmlns:serif="http://www.serif.com/" style="fill-rule:evenodd;clip-rule:evenodd;stroke-linejoin:round;stroke-miterlimit:2;">
    <g transform="matrix(1,0,0,1,-240,-1668)">
        <g id="icon">
            <rect id="長方形-33-のコピー" serif:id="長方形 33 のコピー" x="240" y="1668" width="90.003" height="90.003" style="fill:rgb(129,215,207);fill-opacity:0.95;"/>
            <path id="シェイプ-1093" serif:id="シェイプ 1093" d="M305.489,1700.81C305.488,1700.8 305.488,1700.79 305.487,1700.79C305.485,1700.76 305.481,1700.74 305.477,1700.72C305.475,1700.71 305.474,1700.7 305.473,1700.69C305.469,1700.67 305.464,1700.65 305.459,1700.64C305.455,1700.62 305.453,1700.61 305.449,1700.6C305.446,1700.59 305.442,1700.58 305.439,1700.57C305.431,1700.55 305.424,1700.53 305.416,1700.51C305.413,1700.5 305.41,1700.5 305.408,1700.49C305.397,1700.47 305.386,1700.44 305.373,1700.42C305.37,1700.42 305.366,1700.41 305.362,1700.4C305.35,1700.38 305.337,1700.36 305.323,1700.34C305.322,1700.34 305.321,1700.34 305.32,1700.34C305.315,1700.33 305.309,1700.32 305.303,1700.31C305.291,1700.3 305.279,1700.28 305.266,1700.27C305.256,1700.25 305.245,1700.24 305.235,1700.23C305.224,1700.22 305.214,1700.21 305.202,1700.2C305.19,1700.18 305.177,1700.17 305.163,1700.16C305.153,1700.15 305.143,1700.14 305.133,1700.14C305.119,1700.12 305.104,1700.11 305.09,1700.1C305.079,1700.1 305.068,1700.09 305.057,1700.08C305.043,1700.07 305.028,1700.06 305.014,1700.05C305.001,1700.05 304.988,1700.04 304.974,1700.03C304.961,1700.03 304.948,1700.02 304.935,1700.01C304.919,1700.01 304.904,1700 304.888,1699.99C304.876,1699.99 304.864,1699.98 304.851,1699.98C304.834,1699.97 304.816,1699.97 304.799,1699.96C304.786,1699.96 304.774,1699.95 304.761,1699.95C304.744,1699.95 304.726,1699.94 304.708,1699.94C304.694,1699.94 304.679,1699.93 304.664,1699.93C304.648,1699.93 304.632,1699.93 304.616,1699.93C304.597,1699.92 304.577,1699.92 304.557,1699.92C304.547,1699.92 304.537,1699.92 304.527,1699.92L266.467,1699.92C266.447,1699.92 266.426,1699.92 266.406,1699.92C266.394,1699.93 266.381,1699.93 266.369,1699.93C266.356,1699.93 266.343,1699.93 266.329,1699.93C266.221,1699.95 266.118,1699.98 266.025,1700.03C266.021,1700.03 266.017,1700.04 266.014,1700.04C266.002,1700.04 265.99,1700.05 265.978,1700.06C265.898,1700.11 265.823,1700.17 265.758,1700.24C265.747,1700.25 265.736,1700.26 265.726,1700.28C265.719,1700.28 265.712,1700.29 265.706,1700.3C265.693,1700.32 265.68,1700.34 265.668,1700.35C265.667,1700.36 265.666,1700.36 265.665,1700.36C265.66,1700.37 265.656,1700.37 265.651,1700.38C265.64,1700.4 265.629,1700.42 265.619,1700.44C265.613,1700.45 265.608,1700.46 265.603,1700.47C265.594,1700.49 265.586,1700.51 265.579,1700.52C265.573,1700.54 265.569,1700.55 265.564,1700.56C265.558,1700.58 265.552,1700.6 265.548,1700.61C265.543,1700.63 265.539,1700.64 265.535,1700.66C265.532,1700.67 265.528,1700.69 265.525,1700.7C265.522,1700.72 265.519,1700.74 265.517,1700.76C265.515,1700.77 265.513,1700.78 265.512,1700.8C265.51,1700.82 265.509,1700.84 265.509,1700.86C265.508,1700.87 265.507,1700.88 265.507,1700.89L265.507,1725.11C265.507,1725.65 265.94,1726.08 266.473,1726.08L304.527,1726.08C305.06,1726.08 305.493,1725.65 305.493,1725.11L305.493,1700.89C305.493,1700.88 305.492,1700.88 305.492,1700.88C305.492,1700.86 305.491,1700.83 305.489,1700.81ZM301.444,1701.85L286.054,1712.54L269.713,1701.85L301.444,1701.85ZM267.438,1724.15L267.438,1702.67L285.542,1714.51C285.703,1714.62 285.887,1714.67 286.07,1714.67C286.263,1714.67 286.456,1714.61 286.621,1714.5L303.562,1702.73L303.562,1724.15L267.438,1724.15Z" style="fill:rgb(251,253,253);fill-rule:nonzero;"/>
        </g>
    </g>
</svg>
