<?xml version="1.0" encoding="UTF-8" standalone="no"?>
<!DOCTYPE svg PUBLIC "-//W3C//DTD SVG 1.1//EN" "http://www.w3.org/Graphics/SVG/1.1/DTD/svg11.dtd">
<svg width="91px" height="91px" version="1.1" xmlns="http://www.w3.org/2000/svg" xmlns:xlink="http://www.w3.org/1999/xlink" xml:space="preserve" xmlns:serif="http://www.serif.com/" style="fill-rule:evenodd;clip-rule:evenodd;stroke-linejoin:round;stroke-miterlimit:2;">
    <g transform="matrix(1,0,0,1,-240.034,-9755)">
        <rect id="長方形-33-のコピー" serif:id="長方形 33 のコピー" x="240.034" y="9755" width="90.018" height="90.005" style="fill:rgb(129,215,207);fill-opacity:0.95;"/>
        <g id="icon">
            <path id="シェイプ-802" serif:id="シェイプ 802" d="M264.478,9825.99L268,9822.43C268.36,9822.06 268.946,9822.06 269.306,9822.43C269.667,9822.8 269.667,9823.39 269.307,9823.75L267.362,9825.72L276.152,9825.72C276.663,9825.72 277.076,9826.14 277.076,9826.65C277.076,9827.17 276.663,9827.59 276.152,9827.59L267.362,9827.59L269.306,9829.56C269.667,9829.92 269.667,9830.51 269.306,9830.88C269.126,9831.06 268.89,9831.15 268.653,9831.15C268.417,9831.15 268.18,9831.06 268,9830.88L264.478,9827.31C264.117,9826.95 264.117,9826.36 264.478,9825.99Z" style="fill:rgb(251,253,253);fill-rule:nonzero;"/>
            <path id="シェイプ-808" serif:id="シェイプ 808" d="M285.149,9823.03C284.732,9823.03 284.394,9822.69 284.394,9822.28L284.394,9818.65L273.704,9818.65C273.625,9818.65 273.547,9818.63 273.472,9818.61L273.423,9818.59L273.373,9818.61C273.14,9818.68 272.896,9818.72 272.65,9818.72C271.314,9818.72 270.226,9817.63 270.224,9816.29L270.224,9812.53C270.224,9809.21 271.466,9806.04 273.723,9803.6L273.786,9803.53L272.567,9799.45L272.373,9799.66C271.096,9801.05 269.284,9801.84 267.4,9801.84L266.698,9801.84C266.025,9801.84 265.393,9801.58 264.917,9801.1C264.441,9800.63 264.179,9800 264.179,9799.32C264.179,9798.09 265.057,9797.05 266.268,9796.84C268.138,9796.51 269.734,9795.36 270.646,9793.7C271.104,9792.86 271.858,9792.25 272.77,9791.97L275.307,9791.18C276.494,9790.81 277.727,9790.62 278.97,9790.62L279.006,9790.62C280.843,9790.62 282.618,9791.17 284.14,9792.2L284.394,9792.38L284.394,9782.19C284.394,9781.85 284.622,9781.55 284.949,9781.46L294.349,9778.88L294.306,9778.56L276.18,9778.56L276.18,9785.83C276.18,9785.97 276.143,9786.1 276.074,9786.22L276.04,9786.27L276.056,9786.34C276.131,9786.64 276.169,9786.96 276.169,9787.27C276.167,9789.43 274.409,9791.19 272.251,9791.19C270.09,9791.19 268.333,9789.43 268.332,9787.27C268.332,9786.23 268.74,9785.24 269.48,9784.5C270.219,9783.76 271.203,9783.35 272.251,9783.35C273.025,9783.35 273.774,9783.58 274.417,9784.01L274.669,9784.17L274.669,9777.8C274.669,9777.39 275.008,9777.05 275.424,9777.05L301.101,9777.05C301.517,9777.05 301.856,9777.39 301.856,9777.8L301.856,9817.89C301.856,9817.91 301.855,9817.93 301.853,9817.96L301.85,9817.99L301.843,9818.03L301.837,9818.06L301.826,9818.1L301.819,9818.12L301.804,9818.17L301.795,9818.19C301.786,9818.21 301.777,9818.23 301.764,9818.25L301.757,9818.26L301.731,9818.31L301.717,9818.33L301.691,9818.36L301.676,9818.38L301.644,9818.41L301.63,9818.43L301.589,9818.47L301.579,9818.48L301.526,9818.51L301.518,9818.52C301.501,9818.53 301.484,9818.54 301.466,9818.55L301.445,9818.56L301.406,9818.58L301.379,9818.59L301.343,9818.6L301.313,9818.61L301.301,9818.62L285.349,9823.01C285.284,9823.02 285.216,9823.03 285.149,9823.03ZM272.251,9784.86C270.923,9784.86 269.843,9785.94 269.843,9787.27C269.842,9788.6 270.922,9789.68 272.251,9789.68C273.578,9789.68 274.658,9788.6 274.659,9787.27C274.657,9785.94 273.577,9784.86 272.251,9784.86ZM278.004,9804.41C278.206,9804.41 278.395,9804.49 278.538,9804.63C278.559,9804.65 278.579,9804.67 278.597,9804.7L279.463,9805.8C280.643,9807.3 282.324,9808.34 284.199,9808.72L284.394,9808.76L284.394,9806.7L284.284,9806.66C282.579,9806.08 281.079,9805.04 279.945,9803.64C279.879,9803.56 279.831,9803.46 279.803,9803.36L277.46,9794.71C277.407,9794.51 277.433,9794.31 277.534,9794.13C277.634,9793.96 277.797,9793.83 277.991,9793.78C278.055,9793.76 278.122,9793.75 278.189,9793.75L278.21,9793.75C280.293,9793.75 282.329,9794.6 283.798,9796.08L284.394,9796.67L284.394,9794.36L284.345,9794.32C282.908,9792.91 281.009,9792.14 279,9792.14L278.977,9792.14C277.884,9792.14 276.8,9792.3 275.755,9792.62L273.221,9793.41C272.686,9793.57 272.242,9793.94 271.972,9794.43C270.839,9796.5 268.859,9797.92 266.539,9798.33C266.111,9798.4 265.776,9798.74 265.704,9799.17C265.62,9799.72 265.999,9800.23 266.549,9800.32C266.599,9800.33 266.65,9800.33 266.701,9800.33L267.404,9800.33C269.412,9800.32 271.272,9799.15 272.142,9797.34C272.267,9797.08 272.533,9796.91 272.822,9796.91L272.886,9796.91C273.193,9796.94 273.457,9797.15 273.545,9797.45L275.36,9803.53C275.44,9803.8 275.367,9804.08 275.168,9804.28C272.963,9806.48 271.744,9809.41 271.737,9812.53L271.737,9816.29C271.723,9816.79 272.122,9817.22 272.627,9817.23L272.652,9817.23C273.151,9817.23 273.554,9816.84 273.567,9816.34L273.567,9816.29L273.567,9813.97C273.567,9812.24 273.903,9810.55 274.566,9808.95C275.229,9807.35 276.187,9805.91 277.413,9804.69L277.47,9804.63C277.612,9804.49 277.802,9804.41 278.004,9804.41ZM278.278,9806.73L277.951,9806.32L277.823,9806.47C276.044,9808.57 275.068,9811.23 275.076,9813.98L275.076,9816.29C275.075,9816.51 275.047,9816.72 274.99,9816.93L274.934,9817.14L284.394,9817.14L284.394,9810.29L284.258,9810.26C281.888,9809.87 279.764,9808.62 278.278,9806.73ZM279.451,9795.39L279.194,9795.34L281.216,9802.81L281.24,9802.84C282.032,9803.77 283.044,9804.52 284.166,9805L284.394,9805.1L284.394,9798.43L284.286,9798.39C283.975,9798.28 283.696,9798.1 283.458,9797.87L283.41,9797.83L282.73,9797.15C281.833,9796.24 280.699,9795.64 279.451,9795.39ZM300.346,9817.31L300.346,9778.79L285.904,9782.77L285.904,9821.29L300.346,9817.31ZM290.055,9803.84C288.531,9803.84 287.289,9802.6 287.287,9801.07C287.287,9799.55 288.528,9798.3 290.055,9798.3C291.581,9798.3 292.822,9799.55 292.822,9801.07C292.822,9802.6 291.581,9803.84 290.055,9803.84ZM290.055,9799.81C289.361,9799.82 288.797,9800.38 288.797,9801.07C288.798,9801.77 289.362,9802.33 290.055,9802.33C290.748,9802.33 291.312,9801.77 291.312,9801.07C291.312,9800.38 290.748,9799.81 290.055,9799.81Z" style="fill:rgb(251,253,253);"/>
        </g>
    </g>
</svg>
