<?xml version="1.0" encoding="UTF-8" standalone="no"?>
<!DOCTYPE svg PUBLIC "-//W3C//DTD SVG 1.1//EN" "http://www.w3.org/Graphics/SVG/1.1/DTD/svg11.dtd">
<svg width="91px" height="91px" version="1.1" xmlns="http://www.w3.org/2000/svg" xmlns:xlink="http://www.w3.org/1999/xlink" xml:space="preserve" xmlns:serif="http://www.serif.com/" style="fill-rule:evenodd;clip-rule:evenodd;stroke-linejoin:round;stroke-miterlimit:2;">
    <g transform="matrix(1,0,0,1,-239.999,-14466)">
        <g id="グループ-78" serif:id="グループ 78">
            <rect id="長方形-33-のコピー" serif:id="長方形 33 のコピー" x="239.999" y="14466" width="90.005" height="90.005" style="fill:rgb(129,215,207);fill-opacity:0.95;"/>
            <path id="シェイプ-825" serif:id="シェイプ 825" d="M284.999,14489C287.974,14489 290.814,14489.6 293.407,14490.7C296.102,14491.8 298.524,14493.4 300.55,14495.5C302.575,14497.5 304.208,14499.9 305.324,14502.6C306.398,14505.2 306.991,14508 306.991,14511C306.991,14514 306.398,14516.8 305.324,14519.4C304.208,14522.1 302.575,14524.5 300.55,14526.6C298.524,14528.6 296.102,14530.2 293.407,14531.3C290.814,14532.4 287.974,14533 284.999,14533C282.023,14533 279.184,14532.4 276.59,14531.3C273.895,14530.2 271.472,14528.6 269.447,14526.6C267.423,14524.5 265.789,14522.1 264.673,14519.4C263.599,14516.8 263.007,14514 263.007,14511C263.007,14508 263.599,14505.2 264.673,14502.6C265.789,14499.9 267.423,14497.5 269.447,14495.5C271.472,14493.4 273.895,14491.8 276.59,14490.7C279.184,14489.6 282.023,14489 284.999,14489ZM285.784,14496.9C286.518,14496.9 287.184,14497.2 287.665,14497.7C288.147,14498.2 288.445,14498.9 288.445,14499.6C288.445,14500.3 288.147,14501 287.665,14501.5C287.184,14502 286.518,14502.3 285.784,14502.3C285.048,14502.3 284.383,14502 283.901,14501.5C283.419,14501 283.122,14500.3 283.122,14499.6C283.122,14498.9 283.419,14498.2 283.901,14497.7C284.383,14497.2 285.048,14496.9 285.784,14496.9ZM287.84,14505.9L285.518,14521.2C285.235,14523 287.076,14520.6 287.754,14521.1C288.449,14521.7 287.048,14523.2 286.615,14523.6C284.428,14525.1 280.97,14524.9 281.437,14521.8L283.671,14507.1C283.681,14507 283.699,14507 283.167,14507C280.663,14507 281.516,14505.5 283.248,14505.2L286.486,14504.8C287.261,14504.8 287.985,14504.9 287.84,14505.9ZM298.981,14497C297.154,14495.2 294.978,14493.7 292.562,14492.7C290.235,14491.8 287.681,14491.2 284.999,14491.2C282.316,14491.2 279.762,14491.8 277.434,14492.7C275.02,14493.7 272.842,14495.2 271.017,14497C269.192,14498.9 267.723,14501 266.722,14503.4C265.758,14505.8 265.226,14508.3 265.226,14511C265.226,14513.7 265.758,14516.2 266.722,14518.6C267.723,14521 269.192,14523.2 271.017,14525C272.842,14526.8 275.02,14528.3 277.434,14529.3C279.762,14530.3 282.316,14530.8 284.999,14530.8C287.681,14530.8 290.235,14530.3 292.562,14529.3C294.978,14528.3 297.154,14526.8 298.981,14525C300.806,14523.2 302.274,14521 303.275,14518.6C304.24,14516.2 304.771,14513.7 304.771,14511C304.771,14508.3 304.24,14505.8 303.275,14503.4C302.274,14501 300.806,14498.9 298.981,14497Z" style="fill:white;fill-rule:nonzero;"/>
        </g>
    </g>
</svg>
