<?xml version="1.0" encoding="UTF-8" standalone="no"?>
<!DOCTYPE svg PUBLIC "-//W3C//DTD SVG 1.1//EN" "http://www.w3.org/Graphics/SVG/1.1/DTD/svg11.dtd">
<svg width="91px" height="91px" version="1.1" xmlns="http://www.w3.org/2000/svg" xmlns:xlink="http://www.w3.org/1999/xlink" xml:space="preserve" xmlns:serif="http://www.serif.com/" style="fill-rule:evenodd;clip-rule:evenodd;stroke-linejoin:round;stroke-miterlimit:2;">
    <g transform="matrix(1,0,0,1,-240,-613)">
        <rect id="長方形-33-のコピー" serif:id="長方形 33 のコピー" x="240" y="613" width="90.005" height="90.005" style="fill:rgb(129,215,207);fill-opacity:0.95;"/>
        <path id="シェイプ-802" serif:id="シェイプ 802" d="M295.196,636.286C294.002,635.769 292.677,636.01 291.736,636.916C291.7,636.951 291.667,636.99 291.636,637.029L284.642,646.282L277.649,637.029C277.618,636.99 277.585,636.951 277.548,636.916C276.607,636.009 275.282,635.768 274.089,636.286C272.895,636.804 272.154,637.943 272.154,639.257L272.154,660.857C272.154,662.023 272.504,663.145 273.165,664.102L283.855,679.57C283.864,679.584 283.876,679.592 283.885,679.604C283.916,679.645 283.95,679.683 283.987,679.719C284.008,679.738 284.028,679.756 284.05,679.773C284.065,679.785 284.076,679.799 284.091,679.81C284.122,679.832 284.155,679.848 284.187,679.867C284.196,679.872 284.204,679.877 284.213,679.882C284.273,679.913 284.337,679.936 284.401,679.951C284.414,679.956 284.428,679.958 284.441,679.961C284.507,679.976 284.575,679.985 284.641,679.985L284.643,679.985C284.71,679.985 284.777,679.976 284.844,679.961C284.857,679.958 284.87,679.956 284.884,679.951C284.948,679.936 285.011,679.913 285.072,679.881C285.081,679.877 285.088,679.872 285.097,679.868C285.129,679.85 285.162,679.832 285.193,679.81C285.208,679.799 285.22,679.785 285.235,679.773C285.256,679.756 285.277,679.738 285.297,679.719C285.335,679.683 285.369,679.644 285.4,679.603C285.409,679.591 285.421,679.584 285.429,679.57L296.12,664.102C296.781,663.145 297.131,662.023 297.131,660.857L297.131,639.257C297.131,637.943 296.389,636.805 295.196,636.286ZM274.075,660.857L274.075,639.257C274.075,638.726 274.363,638.283 274.846,638.074C275.308,637.873 275.8,637.952 276.175,638.281L283.88,648.474C283.885,648.482 283.893,648.487 283.899,648.495C283.919,648.52 283.943,648.544 283.966,648.568C283.99,648.591 284.013,648.615 284.038,648.636C284.045,648.642 284.051,648.649 284.058,648.655C284.075,648.668 284.093,648.676 284.109,648.687C284.138,648.707 284.167,648.726 284.198,648.742C284.225,648.756 284.253,648.768 284.281,648.78C284.31,648.792 284.339,648.803 284.369,648.812C284.399,648.822 284.43,648.828 284.461,648.834C284.49,648.84 284.52,648.846 284.55,648.848C284.581,648.852 284.611,648.852 284.642,648.852L284.642,648.852L284.642,677.316L284.642,677.317L274.739,662.987C274.305,662.359 274.075,661.623 274.075,660.857Z" style="fill:rgb(251,253,253);fill-rule:nonzero;"/>
    </g>
</svg>
