<?xml version="1.0" encoding="UTF-8" standalone="no"?>
<!DOCTYPE svg PUBLIC "-//W3C//DTD SVG 1.1//EN" "http://www.w3.org/Graphics/SVG/1.1/DTD/svg11.dtd">
<svg width="2050px" height="529px" version="1.1" xmlns="http://www.w3.org/2000/svg" xmlns:xlink="http://www.w3.org/1999/xlink" xml:space="preserve" xmlns:serif="http://www.serif.com/" style="fill-rule:evenodd;clip-rule:evenodd;stroke-linejoin:round;stroke-miterlimit:2;">
    <g transform="matrix(1,0,0,1,128.14,-14229)">
        <path id="シェイプ-716-のコピー" serif:id="シェイプ 716 のコピー" d="M609.835,14720.1C763.909,14765 921.283,14720.6 996.749,14699.5L996.838,14699.6C1130.43,14657.6 1222.13,14589.2 1275.23,14529.7C1274.02,14528.5 1272.82,14527.3 1271.65,14525.9C1248.65,14499.5 1268.22,14415.3 1316,14412.7C1317.46,14412.7 1318.81,14412.7 1320.06,14412.9L1339.72,14413.8C1367.69,14412.3 1356.2,14467.4 1302.57,14534.3C1308.14,14539.2 1314.01,14543 1320.14,14545.6C1373.21,14540.4 1440.07,14472.2 1494.52,14414.8C1529.11,14378.4 1547.17,14374.5 1553.35,14385.7L1570.15,14409.3C1570.46,14409.7 1570.75,14410.1 1571.02,14410.5C1578.39,14422.5 1570.58,14453.9 1554.22,14479.3C1549.51,14486.6 1542.51,14496.8 1536.8,14506.7C1550.08,14501 1569.01,14490.6 1595.31,14474C1684.13,14418 1824.51,14319.3 1903.12,14229L1921.08,14254.4C1842.47,14344.6 1702.09,14443.3 1613.27,14499.4C1555.32,14535.9 1533.19,14542.2 1528.21,14535.3L1512.27,14511.6C1510.41,14510.7 1509.44,14509.1 1509.17,14507C1507.73,14495.6 1526.71,14468.8 1536.27,14454C1546.21,14438.6 1552.99,14420.9 1555.12,14406.7C1545.33,14410 1531.38,14420.2 1512.48,14440.1C1457.69,14497.9 1393.6,14553 1342,14550.6C1337.72,14550.4 1333.54,14549.8 1329.45,14548.8L1307.23,14545.6C1306.04,14545.4 1304.86,14545.3 1303.69,14545C1300.91,14544.5 1298.18,14543.8 1295.51,14542.8C1238.81,14610 1140.61,14686.8 998.281,14729.6C917.113,14756 776.684,14778.2 625.845,14726.1C620.227,14724.2 614.904,14722.2 609.835,14720.1ZM609.835,14720.1C609.479,14720 609.122,14719.9 608.765,14719.8C601.908,14717.8 595.053,14715.6 588.209,14713.2C473.982,14673.8 484.857,14606.4 448.979,14575.8C448.246,14575.7 447.512,14575.5 446.758,14575.3C372.562,14559.6 264.303,14639.8 188.638,14632.3C161.751,14629.6 138.034,14624.5 119.978,14615.2C120.078,14615.3 120.173,14615.4 120.274,14615.4C102.955,14609.2 87.73,14599.7 76.261,14588C13.751,14605.2 -62.975,14610 -110.196,14578.7L-128.14,14548C-78.448,14580.9 -0.049,14582 61.476,14567.8C54.038,14553.4 51.792,14537.2 56.721,14520.5C75.409,14457.4 122.797,14411.4 164.651,14420.4C168.71,14421.3 172.226,14422.8 175.205,14424.8L194.725,14434.4C197.319,14435.2 199.66,14436.4 201.734,14437.8C227.865,14455.6 212.846,14514.4 159.834,14552C143.676,14563.5 118.381,14575.1 89,14584.3C94.656,14594.4 103.037,14603.6 113.761,14611.2C127.758,14615.8 144.477,14617.6 162.035,14619.3C237.701,14626.8 345.959,14546.6 420.155,14562.3C424.456,14563.2 428.362,14564.4 431.931,14565.8C435.091,14567 437.972,14568.4 440.644,14569.9L461.734,14580C463.349,14580.7 464.906,14581.5 466.401,14582.3C513.7,14607.2 503.723,14676.4 608.798,14719.7C609.139,14719.8 609.492,14719.9 609.835,14720.1ZM1327.17,14416.5C1294.2,14429.3 1279.08,14483.7 1288.53,14514C1326.07,14467.3 1338.36,14428.5 1327.17,14416.5ZM83.324,14533.5C80.415,14543.4 79.839,14553.2 81.371,14562.6C102.369,14556.2 120.41,14548.1 133.231,14539C180.242,14505.7 197.37,14455.6 182.424,14432.3C142.926,14430.9 100.708,14474.7 83.324,14533.5Z" style="fill:rgb(129,215,207);fill-opacity:0.6;"/>
    </g>
</svg>
