<?xml version="1.0" encoding="UTF-8" standalone="no"?>
<!DOCTYPE svg PUBLIC "-//W3C//DTD SVG 1.1//EN" "http://www.w3.org/Graphics/SVG/1.1/DTD/svg11.dtd">
<svg width="91px" height="91px" version="1.1" xmlns="http://www.w3.org/2000/svg" xmlns:xlink="http://www.w3.org/1999/xlink" xml:space="preserve" xmlns:serif="http://www.serif.com/" style="fill-rule:evenodd;clip-rule:evenodd;stroke-linejoin:round;stroke-miterlimit:2;">
    <g transform="matrix(1,0,0,1,-240.034,-13567)">
        <rect id="長方形-33-のコピー" serif:id="長方形 33 のコピー" x="240.034" y="13567" width="90.018" height="90.005" style="fill:rgb(129,215,207);fill-opacity:0.95;"/>
        <path id="シェイプ-1364" serif:id="シェイプ 1364" d="M263.783,13634.6C263.519,13634.6 263.269,13634.4 263.079,13634.3C262.693,13633.9 262.693,13633.2 263.08,13632.9L274.905,13621L274.8,13620.9C271.857,13617.5 270.236,13613.2 270.236,13608.8C270.236,13603.9 272.136,13599.3 275.587,13595.8C279.041,13592.4 283.632,13590.5 288.514,13590.5C293.396,13590.5 297.987,13592.4 301.44,13595.8C304.894,13599.3 306.796,13603.9 306.796,13608.8C306.796,13613.7 304.894,13618.3 301.44,13621.7C297.987,13625.2 293.396,13627.1 288.514,13627.1C284.054,13627.1 279.761,13625.5 276.427,13622.5L276.308,13622.4L264.482,13634.3C264.296,13634.4 264.047,13634.6 263.783,13634.6ZM288.514,13592.4C284.164,13592.4 280.071,13594.1 276.99,13597.2C273.913,13600.3 272.219,13604.4 272.219,13608.8C272.219,13613.1 273.913,13617.2 276.99,13620.3C280.07,13623.4 284.162,13625.1 288.514,13625.1C292.87,13625.1 296.963,13623.4 300.038,13620.3C303.118,13617.2 304.814,13613.1 304.814,13608.8C304.814,13604.4 303.118,13600.3 300.038,13597.2C296.961,13594.1 292.868,13592.4 288.514,13592.4ZM299.33,13619C298.945,13619 298.594,13618.7 298.434,13618.4C297.556,13616.5 296.158,13614.9 294.391,13613.7C292.637,13612.6 290.605,13612 288.514,13612C286.423,13612 284.39,13612.6 282.636,13613.7C280.874,13614.9 279.478,13616.5 278.599,13618.4C278.436,13618.7 278.083,13619 277.699,13619C277.557,13619 277.418,13618.9 277.288,13618.9C277.046,13618.8 276.863,13618.6 276.771,13618.3C276.68,13618.1 276.69,13617.8 276.802,13617.5C277.836,13615.3 279.487,13613.4 281.576,13612.1C283.657,13610.7 286.056,13610 288.514,13610C290.977,13610 293.376,13610.7 295.451,13612.1C297.537,13613.4 299.189,13615.3 300.231,13617.5C300.456,13618 300.239,13618.6 299.746,13618.9C299.613,13618.9 299.474,13619 299.33,13619ZM288.514,13609.7C286.652,13609.7 284.89,13609 283.554,13607.7L283.489,13607.6C282.144,13606.2 281.404,13604.5 281.404,13602.6C281.404,13600.7 282.144,13598.9 283.489,13597.5C284.83,13596.2 286.614,13595.4 288.514,13595.4C290.408,13595.4 292.193,13596.2 293.539,13597.5C294.885,13598.9 295.624,13600.7 295.624,13602.6C295.624,13604.4 294.902,13606.2 293.589,13607.5L293.539,13607.6C292.195,13608.9 290.41,13609.7 288.514,13609.7ZM288.514,13597.4C287.145,13597.4 285.858,13597.9 284.891,13598.9C283.921,13599.9 283.386,13601.2 283.386,13602.6C283.386,13603.9 283.921,13605.2 284.891,13606.2L284.944,13606.2C285.904,13607.2 287.171,13607.7 288.514,13607.7C289.886,13607.7 291.174,13607.2 292.141,13606.2C293.109,13605.2 293.641,13603.9 293.641,13602.6C293.641,13601.2 293.109,13599.9 292.141,13598.9C291.174,13597.9 289.886,13597.4 288.514,13597.4Z" style="fill:rgb(251,253,253);"/>
    </g>
</svg>
