<?xml version="1.0" encoding="UTF-8" standalone="no"?>
<!DOCTYPE svg PUBLIC "-//W3C//DTD SVG 1.1//EN" "http://www.w3.org/Graphics/SVG/1.1/DTD/svg11.dtd">
<svg width="91px" height="91px" version="1.1" xmlns="http://www.w3.org/2000/svg" xmlns:xlink="http://www.w3.org/1999/xlink" xml:space="preserve" xmlns:serif="http://www.serif.com/" style="fill-rule:evenodd;clip-rule:evenodd;stroke-linejoin:round;stroke-miterlimit:2;">
    <g transform="matrix(1,0,0,1,-240.034,-2457)">
        <g id="icon">
            <rect id="長方形-33-のコピー" serif:id="長方形 33 のコピー" x="240.034" y="2457" width="90.016" height="90.003" style="fill:rgb(129,215,207);fill-opacity:0.95;"/>
            <path id="シェイプ-1093" serif:id="シェイプ 1093" d="M271.832,2521.49C270.093,2521.49 268.68,2520.07 268.68,2518.33L268.68,2503.33L268.605,2503.34C268.573,2503.34 268.543,2503.34 268.513,2503.34C268.065,2503.34 267.657,2503.22 267.299,2503C266.044,2502.21 265.532,2500.3 265.531,2496.42C265.531,2495.86 265.585,2495.31 265.692,2494.77C265.695,2494.63 265.723,2494.5 265.778,2494.38C265.883,2493.96 266.016,2493.56 266.177,2493.18L269.413,2485.45C269.905,2484.27 271.046,2483.51 272.32,2483.51L298.761,2483.51C300.034,2483.51 301.175,2484.27 301.668,2485.45L304.904,2493.18C305.065,2493.56 305.198,2493.96 305.299,2494.37C305.357,2494.5 305.386,2494.62 305.388,2494.76C305.496,2495.31 305.55,2495.86 305.549,2496.42C305.549,2500.3 305.037,2502.21 303.782,2503C303.423,2503.22 303.015,2503.34 302.567,2503.34C302.538,2503.34 302.509,2503.34 302.479,2503.34L302.403,2503.33L302.403,2518.33C302.403,2520.07 300.99,2521.49 299.252,2521.49L271.832,2521.49ZM289.219,2507.55C290.146,2507.55 290.9,2508.31 290.9,2509.24L290.9,2519.6L299.252,2519.6C299.947,2519.6 300.513,2519.03 300.513,2518.33L300.513,2502.64L300.48,2502.62C300.395,2502.57 300.312,2502.51 300.234,2502.46C299.723,2502.11 299.385,2501.89 298.588,2501.89C297.789,2501.89 297.452,2502.11 296.94,2502.46C296.349,2502.86 295.612,2503.36 294.234,2503.36C292.855,2503.36 292.119,2502.86 291.527,2502.46C291.018,2502.11 290.681,2501.89 289.887,2501.89C289.088,2501.89 288.75,2502.11 288.239,2502.46C287.649,2502.86 286.914,2503.36 285.54,2503.36C284.167,2503.36 283.432,2502.86 282.841,2502.46C282.331,2502.11 281.993,2501.89 281.193,2501.89C280.399,2501.89 280.063,2502.11 279.554,2502.46C278.962,2502.86 278.226,2503.36 276.846,2503.36C275.469,2503.36 274.732,2502.86 274.14,2502.46C273.629,2502.11 273.291,2501.89 272.492,2501.89C271.696,2501.89 271.358,2502.11 270.847,2502.46C270.77,2502.51 270.688,2502.57 270.603,2502.62L270.57,2502.64L270.57,2518.33C270.57,2519.03 271.136,2519.6 271.832,2519.6L280.183,2519.6L280.183,2509.24C280.183,2508.31 280.937,2507.55 281.864,2507.55L289.219,2507.55ZM282.074,2519.59L289.009,2519.59L289.009,2509.44L282.074,2509.44L282.074,2519.59ZM289.887,2499.99C291.261,2499.99 291.996,2500.49 292.586,2500.89C293.097,2501.24 293.435,2501.47 294.234,2501.47C295.033,2501.47 295.371,2501.24 295.882,2500.89C296.474,2500.49 297.211,2499.99 298.588,2499.99C299.963,2499.99 300.699,2500.49 301.291,2500.89C301.496,2501.03 301.674,2501.15 301.869,2501.24C302.027,2501.32 302.327,2501.45 302.56,2501.45C302.648,2501.45 302.721,2501.43 302.778,2501.39C303.107,2501.19 303.659,2500.27 303.659,2496.42C303.659,2496.21 303.649,2495.99 303.629,2495.78L303.623,2495.72L267.458,2495.72L267.452,2495.78C267.432,2495.99 267.422,2496.21 267.422,2496.42C267.422,2500.27 267.974,2501.19 268.303,2501.39C268.36,2501.43 268.433,2501.45 268.52,2501.45C268.755,2501.45 269.054,2501.32 269.212,2501.24C269.405,2501.15 269.583,2501.03 269.789,2500.89C270.381,2500.49 271.118,2499.99 272.492,2499.99C273.87,2499.99 274.606,2500.49 275.198,2500.89C275.71,2501.24 276.047,2501.47 276.846,2501.47C277.646,2501.47 277.984,2501.24 278.494,2500.89C279.085,2500.49 279.82,2499.99 281.193,2499.99C282.573,2499.99 283.309,2500.49 283.901,2500.89C284.41,2501.24 284.746,2501.47 285.54,2501.47C286.334,2501.47 286.671,2501.24 287.18,2500.89C287.772,2500.49 288.508,2499.99 289.887,2499.99ZM272.32,2485.41C271.81,2485.41 271.353,2485.71 271.156,2486.18L267.956,2493.82L303.125,2493.82L299.924,2486.18C299.727,2485.71 299.271,2485.41 298.761,2485.41L272.32,2485.41Z" style="fill:rgb(251,253,253);fill-rule:nonzero;"/>
        </g>
    </g>
</svg>
