<?xml version="1.0" encoding="UTF-8" standalone="no"?>
<!DOCTYPE svg PUBLIC "-//W3C//DTD SVG 1.1//EN" "http://www.w3.org/Graphics/SVG/1.1/DTD/svg11.dtd">
<svg width="91px" height="91px" version="1.1" xmlns="http://www.w3.org/2000/svg" xmlns:xlink="http://www.w3.org/1999/xlink" xml:space="preserve" xmlns:serif="http://www.serif.com/" style="fill-rule:evenodd;clip-rule:evenodd;stroke-linejoin:round;stroke-miterlimit:2;">
    <g transform="matrix(1,0,0,1,-240.034,-5938)">
        <g id="icon">
            <rect id="長方形-33-のコピー" serif:id="長方形 33 のコピー" x="240.034" y="5938" width="90.018" height="90.005" style="fill:rgb(129,215,207);fill-opacity:0.95;"/>
            <path id="シェイプ-563" serif:id="シェイプ 563" d="M300.512,5985.41C301.93,5986.82 302.713,5988.71 302.713,5990.71L302.713,6002.13C302.713,6003.29 302.371,6004.41 301.73,6005.37L301.188,6006.19C301.096,6006.32 301.046,6006.49 301.046,6006.66L301.054,6007.82C301.054,6008.03 300.971,6008.25 300.813,6008.41C300.654,6008.56 300.446,6008.65 300.221,6008.65L287.707,6008.65C287.249,6008.65 286.873,6008.27 286.873,6007.82L286.873,6005.56L286.54,6005.06C285.264,6003.16 284.764,6000.87 285.098,5998.65L273.534,5998.65C271.233,5998.65 269.366,5996.78 269.366,5994.48L269.366,5962.8C269.366,5960.5 271.233,5958.63 273.534,5958.63L291.875,5958.63C294.176,5958.63 296.044,5960.5 296.044,5962.8L296.044,5980.94L300.512,5985.41ZM273.534,5996.98L290.358,5996.98C290.425,5995.95 290.733,5994.94 291.317,5994.06L290.908,5993.64L271.033,5993.64L271.033,5994.48C271.033,5995.85 272.159,5996.98 273.534,5996.98ZM283.539,5994.48C284,5994.48 284.372,5994.85 284.372,5995.31C284.372,5995.77 284,5996.14 283.539,5996.14L281.871,5996.14C281.41,5996.14 281.038,5995.77 281.038,5995.31C281.038,5994.85 281.41,5994.48 281.871,5994.48L283.539,5994.48ZM301.046,6002.13L301.046,5990.71C301.046,5989.15 300.437,5987.69 299.337,5986.58L296.044,5983.29L296.044,5989.34L298.07,5991.36C298.395,5991.69 298.395,5992.22 298.07,5992.54C297.744,5992.87 297.211,5992.87 296.886,5992.54L290.992,5986.65C290.366,5986.03 289.274,5986.02 288.624,5986.65C287.982,5987.3 287.982,5988.36 288.632,5989.02L293.009,5993.39C293.318,5993.69 293.334,5994.19 293.051,5994.52C291.684,5996.12 291.642,5998.49 292.967,6000.15L293.359,6000.62C293.643,6000.98 293.593,6001.51 293.234,6001.8C293.076,6001.92 292.893,6001.98 292.709,6001.98C292.467,6001.98 292.226,6001.87 292.059,6001.67L291.667,6001.19C291.058,6000.42 290.667,5999.55 290.475,5998.65L286.798,5998.65C286.44,6000.55 286.84,6002.51 287.924,6004.13L288.399,6004.86C288.491,6004.99 288.541,6005.15 288.541,6005.31L288.541,6006.98L299.379,6006.98L299.379,6006.66C299.379,6006.16 299.52,6005.68 299.804,6005.26L300.346,6004.45C300.804,6003.76 301.046,6002.95 301.046,6002.13ZM271.033,5962.8L271.033,5963.64L294.376,5963.64L294.376,5962.8C294.376,5961.43 293.251,5960.3 291.875,5960.3L273.534,5960.3C272.159,5960.3 271.033,5961.43 271.033,5962.8ZM281.871,5962.8C281.41,5962.8 281.038,5962.43 281.038,5961.97C281.038,5961.51 281.41,5961.14 281.871,5961.14L283.539,5961.14C284,5961.14 284.372,5961.51 284.372,5961.97C284.372,5962.43 284,5962.8 283.539,5962.8L281.871,5962.8ZM271.033,5965.3L271.033,5991.98L289.241,5991.98L287.448,5990.19C286.156,5988.89 286.156,5986.78 287.448,5985.48C288.741,5984.2 290.892,5984.22 292.167,5985.47L294.376,5987.68L294.376,5965.3L271.033,5965.3ZM282.705,5968.64C286.842,5968.64 290.208,5972 290.208,5976.14C290.208,5980.28 286.842,5983.64 282.705,5983.64C278.567,5983.64 275.202,5980.28 275.202,5976.14C275.202,5972 278.567,5968.64 282.705,5968.64ZM282.705,5981.97C285.922,5981.97 288.541,5979.36 288.541,5976.14C288.541,5972.92 285.922,5970.3 282.705,5970.3C279.488,5970.3 276.869,5972.92 276.869,5976.14C276.869,5979.36 279.488,5981.97 282.705,5981.97ZM285.45,5973.05C285.776,5972.72 286.303,5972.72 286.629,5973.05C286.955,5973.38 286.955,5973.9 286.629,5974.23L281.627,5979.23C281.464,5979.39 281.251,5979.47 281.038,5979.47C280.824,5979.47 280.611,5979.39 280.448,5979.23L277.947,5976.73C277.621,5976.4 277.621,5975.88 277.947,5975.55C278.273,5975.22 278.8,5975.22 279.126,5975.55L281.038,5977.46L285.45,5973.05Z" style="fill:white;"/>
        </g>
    </g>
</svg>
