<?xml version="1.0" encoding="UTF-8" standalone="no"?>
<!DOCTYPE svg PUBLIC "-//W3C//DTD SVG 1.1//EN" "http://www.w3.org/Graphics/SVG/1.1/DTD/svg11.dtd">
<svg width="91px" height="91px" version="1.1" xmlns="http://www.w3.org/2000/svg" xmlns:xlink="http://www.w3.org/1999/xlink" xml:space="preserve" xmlns:serif="http://www.serif.com/" style="fill-rule:evenodd;clip-rule:evenodd;stroke-linejoin:round;stroke-miterlimit:2;">
    <g transform="matrix(1,0,0,1,-240.034,-4685)">
        <g id="icon">
            <rect id="長方形-33-のコピー" serif:id="長方形 33 のコピー" x="240.034" y="4685" width="90.018" height="90.005" style="fill:rgb(129,215,207);fill-opacity:0.95;"/>
            <path id="シェイプ-802" serif:id="シェイプ 802" d="M298.636,4750.54L302.158,4746.98C302.519,4746.61 303.104,4746.61 303.465,4746.98C303.826,4747.35 303.826,4747.94 303.465,4748.3L301.52,4750.27L310.311,4750.27C310.821,4750.27 311.235,4750.69 311.235,4751.2C311.235,4751.72 310.821,4752.14 310.311,4752.14L301.52,4752.14L303.465,4754.1C303.826,4754.47 303.826,4755.06 303.465,4755.43C303.285,4755.61 303.048,4755.7 302.812,4755.7C302.575,4755.7 302.339,4755.61 302.158,4755.43L298.636,4751.86C298.275,4751.5 298.275,4750.91 298.636,4750.54Z" style="fill:rgb(251,253,253);fill-rule:nonzero;"/>
            <path id="シェイプ-803" serif:id="シェイプ 803" d="M308.794,4735.68C310.096,4735.68 311.155,4736.74 311.155,4738.04C311.155,4739.34 310.096,4740.4 308.794,4740.4L303.855,4740.4C302.411,4740.4 300.961,4740.07 299.662,4739.44C298.363,4738.81 297.204,4737.87 296.31,4736.74L295.983,4736.32L295.854,4736.48C294.076,4738.57 293.1,4741.23 293.108,4743.98L293.108,4746.3C293.106,4747.64 292.017,4748.73 290.682,4748.73C290.479,4748.73 290.282,4748.7 290.093,4748.65L281.223,4748.65L281.223,4752.29C281.223,4752.71 280.885,4753.05 280.468,4753.05C280.401,4753.05 280.333,4753.04 280.268,4753.02L264.317,4748.63L264.305,4748.62L264.275,4748.61L264.239,4748.6L264.212,4748.59L264.173,4748.57L264.152,4748.56L264.1,4748.53L264.091,4748.52C264.076,4748.51 264.057,4748.5 264.039,4748.48L264.03,4748.48C264.015,4748.46 264.002,4748.45 263.989,4748.44L263.974,4748.42L263.943,4748.39L263.928,4748.37L263.901,4748.34L263.887,4748.32L263.862,4748.27L263.855,4748.26C263.842,4748.24 263.832,4748.22 263.824,4748.2L263.815,4748.17L263.8,4748.13L263.792,4748.11L263.781,4748.07L263.776,4748.04L263.769,4747.99L263.766,4747.97C263.763,4747.94 263.762,4747.92 263.762,4747.9L263.762,4707.79C263.762,4707.38 264.101,4707.04 264.517,4707.04L290.192,4707.04C290.608,4707.04 290.947,4707.38 290.947,4707.79L290.947,4713.4C292.792,4713.72 294.2,4715.33 294.201,4717.26C294.198,4719.42 292.441,4721.18 290.283,4721.18C288.123,4721.18 286.365,4719.43 286.364,4717.27C286.364,4716.22 286.772,4715.23 287.512,4714.49C288.048,4713.96 288.713,4713.6 289.437,4713.44L289.437,4708.55L271.312,4708.55L271.269,4708.87L280.668,4711.45C280.995,4711.54 281.223,4711.84 281.223,4712.18L281.223,4747.14L288.409,4747.14C288.311,4746.88 288.257,4746.6 288.257,4746.3L288.257,4742.53C288.256,4739.21 289.499,4736.04 291.755,4733.6L291.818,4733.54L290.599,4729.45L290.405,4729.66C289.128,4731.05 287.316,4731.84 285.433,4731.84L284.731,4731.84C284.058,4731.84 283.425,4731.58 282.949,4731.1C282.474,4730.63 282.212,4729.99 282.212,4729.32C282.212,4728.09 283.09,4727.05 284.3,4726.84C286.17,4726.51 287.766,4725.36 288.678,4723.69C289.136,4722.86 289.89,4722.24 290.801,4721.96L293.338,4721.18C294.526,4720.81 295.759,4720.62 297.002,4720.62L297.037,4720.62C299.452,4720.62 301.814,4721.6 303.517,4723.32L304.731,4724.53C305.179,4724.97 305.429,4725.55 305.438,4726.17C305.447,4726.79 305.213,4727.38 304.779,4727.83C304.337,4728.28 303.745,4728.53 303.111,4728.53C302.502,4728.53 301.925,4728.3 301.489,4727.87L301.443,4727.83L300.761,4727.14C299.864,4726.24 298.731,4725.63 297.483,4725.39L297.226,4725.34L299.248,4732.81L299.271,4732.84C300.806,4734.64 303.044,4735.68 305.411,4735.68L308.794,4735.68ZM308.794,4738.89C309.263,4738.89 309.645,4738.5 309.645,4738.03C309.645,4737.56 309.263,4737.18 308.794,4737.18L305.407,4737.18C302.51,4737.18 299.802,4735.89 297.976,4733.64C297.91,4733.56 297.862,4733.46 297.835,4733.36L295.491,4724.7C295.439,4724.51 295.465,4724.31 295.565,4724.13C295.666,4723.95 295.828,4723.83 296.023,4723.78C296.087,4723.76 296.153,4723.75 296.22,4723.75L296.242,4723.75C298.324,4723.75 300.36,4724.6 301.829,4726.07L302.509,4726.76C302.665,4726.9 302.864,4726.98 303.074,4726.98C303.297,4726.98 303.514,4726.89 303.667,4726.73C303.965,4726.41 303.965,4725.92 303.667,4725.6L302.448,4724.38C301.024,4722.95 299.05,4722.13 297.031,4722.13L297.009,4722.13C295.915,4722.13 294.831,4722.3 293.787,4722.62L291.253,4723.41C290.718,4723.57 290.274,4723.93 290.004,4724.42C288.872,4726.49 286.891,4727.91 284.571,4728.32C284.144,4728.4 283.808,4728.74 283.736,4729.16C283.652,4729.72 284.032,4730.23 284.582,4730.32C284.632,4730.33 284.683,4730.33 284.734,4730.33L285.436,4730.33C287.444,4730.32 289.304,4729.15 290.174,4727.34C290.299,4727.08 290.565,4726.91 290.853,4726.91L290.918,4726.91C291.225,4726.94 291.489,4727.15 291.577,4727.45L293.392,4733.53C293.472,4733.8 293.398,4734.09 293.2,4734.28C290.995,4736.49 289.776,4739.42 289.769,4742.53L289.769,4746.3C289.762,4746.54 289.851,4746.78 290.019,4746.95C290.098,4747.04 290.192,4747.1 290.293,4747.15C290.378,4747.16 290.458,4747.19 290.532,4747.23C290.574,4747.23 290.616,4747.24 290.659,4747.24L290.684,4747.24C291.183,4747.24 291.585,4746.85 291.599,4746.35L291.599,4746.3L291.599,4743.98C291.599,4742.25 291.935,4740.56 292.598,4738.95C293.261,4737.35 294.219,4735.92 295.444,4734.69L295.502,4734.63C295.644,4734.49 295.834,4734.41 296.036,4734.41C296.237,4734.41 296.427,4734.49 296.569,4734.63C296.59,4734.65 296.61,4734.68 296.628,4734.7L297.495,4735.8C299.031,4737.76 301.342,4738.89 303.833,4738.89L308.794,4738.89ZM279.713,4751.3L279.713,4712.76L265.272,4708.78L265.272,4747.32L279.713,4751.3ZM275.563,4733.84C274.037,4733.84 272.795,4732.6 272.795,4731.07C272.795,4729.55 274.037,4728.3 275.563,4728.3C277.089,4728.3 278.33,4729.55 278.33,4731.07C278.328,4732.6 277.087,4733.84 275.563,4733.84ZM275.563,4729.81C274.87,4729.81 274.305,4730.38 274.305,4731.07C274.305,4731.77 274.869,4732.33 275.563,4732.33C276.255,4732.33 276.82,4731.77 276.82,4731.07C276.82,4730.38 276.256,4729.82 275.563,4729.81ZM292.691,4717.27C292.689,4715.94 291.609,4714.86 290.283,4714.86L290.237,4714.86L290.192,4714.86L290.177,4714.86C288.899,4714.91 287.875,4715.97 287.875,4717.26C287.874,4718.59 288.954,4719.67 290.282,4719.68C291.61,4719.68 292.69,4718.59 292.691,4717.27Z" style="fill:rgb(251,253,253);"/>
        </g>
    </g>
</svg>
