<?xml version="1.0" encoding="UTF-8" standalone="no"?>
<!DOCTYPE svg PUBLIC "-//W3C//DTD SVG 1.1//EN" "http://www.w3.org/Graphics/SVG/1.1/DTD/svg11.dtd">
<svg width="1581px" height="366px" version="1.1" xmlns="http://www.w3.org/2000/svg" xmlns:xlink="http://www.w3.org/1999/xlink" xml:space="preserve" xmlns:serif="http://www.serif.com/" style="fill-rule:evenodd;clip-rule:evenodd;stroke-linejoin:round;stroke-miterlimit:2;">
    <g transform="matrix(1,0,0,1,-499.552,-22208.3)">
        <g transform="matrix(1,0,0,1,169.455,17703.3)">
            <path id="シェイプ-718" serif:id="シェイプ 718" d="M720.469,4746.64C559.983,4744.59 420.921,4824.74 356.514,4870.99L330.097,4851C397.52,4802.58 533.455,4734.66 703.436,4745.12C709.367,4745.49 715.032,4746 720.469,4746.64ZM720.469,4746.64C720.842,4746.64 721.213,4746.64 721.587,4746.64C728.735,4746.75 735.925,4747.02 743.152,4747.47C863.78,4754.89 871.343,4822.85 914.107,4842.76C914.86,4842.73 915.614,4842.7 916.383,4842.65C944.695,4840.9 973.772,4827.72 1001.09,4810.69C1038.59,4779.09 1073.06,4753.67 1105.31,4732.48C1107.55,4730.93 1109.7,4729.52 1111.72,4728.3L1111.72,4728.3C1174.6,4687.67 1229.06,4662.86 1281.2,4638.86C1334.62,4614.27 1354.14,4611.41 1357.6,4617.88L1368.49,4639.85C1369.97,4640.82 1370.62,4642.29 1370.61,4644.12C1370.54,4654.02 1351.38,4674.67 1341.58,4686.23C1331.38,4698.26 1323.62,4712.53 1320.2,4724.37C1328.9,4722.65 1341.92,4715.57 1360.25,4700.74C1413.36,4657.74 1474.1,4618.04 1517.71,4625.92C1521.33,4626.57 1524.82,4627.55 1528.18,4628.88L1546.72,4634.13C1547.72,4634.38 1548.7,4634.65 1549.67,4634.96C1551.98,4635.71 1554.22,4636.65 1556.38,4637.77C1621.74,4578.26 1737.02,4513.91 1897.88,4505L1910.3,4528.61C1748.78,4537.57 1635.36,4596.8 1572.15,4651.24C1573.05,4652.4 1573.92,4653.62 1574.77,4654.9C1591.35,4679.97 1565.2,4749.55 1524.27,4746.32C1523.02,4746.22 1521.88,4746.02 1520.84,4745.71L1504.21,4742.73C1480.26,4740.83 1496.25,4695.17 1549.4,4644.28C1545.23,4639.43 1540.66,4635.56 1535.74,4632.61C1490.02,4631.01 1425.45,4681.62 1372.66,4724.35C1339.13,4751.5 1323.34,4752.7 1319.34,4742.51L1307.71,4720.49C1307.49,4720.13 1307.29,4719.76 1307.11,4719.36C1302.2,4708.26 1312.38,4682.41 1329.16,4662.62C1333.99,4656.92 1341.1,4649.01 1347.07,4641.26C1335.13,4644.63 1317.86,4651.31 1293.62,4662.48C1245.27,4684.73 1186.8,4716.98 1126.65,4752.71L1126.67,4752.74C1021.67,4814.43 1021.21,4843.36 945.496,4848.05C941.107,4848.32 937.034,4848.26 933.227,4847.89C929.856,4847.56 926.704,4846.98 923.715,4846.2L900.693,4842.13C898.95,4841.89 897.251,4841.59 895.599,4841.23C843.333,4829.8 834.434,4760.39 721.585,4746.76C721.217,4746.72 720.839,4746.68 720.469,4746.64ZM1515.2,4741.84C1544.69,4734.64 1563.68,4690.05 1559.07,4663.1C1521.86,4698.71 1507.03,4730.39 1515.2,4741.84Z" style="fill:rgb(129,215,207);fill-opacity:0.6;"/>
        </g>
    </g>
</svg>
