<?xml version="1.0" encoding="UTF-8" standalone="no"?>
<!DOCTYPE svg PUBLIC "-//W3C//DTD SVG 1.1//EN" "http://www.w3.org/Graphics/SVG/1.1/DTD/svg11.dtd">
<svg width="91px" height="90px" version="1.1" xmlns="http://www.w3.org/2000/svg" xmlns:xlink="http://www.w3.org/1999/xlink" xml:space="preserve" xmlns:serif="http://www.serif.com/" style="fill-rule:evenodd;clip-rule:evenodd;stroke-linejoin:round;stroke-miterlimit:2;">
    <g transform="matrix(1,0,0,1,-240.034,-11566.4)">
        <g id="icon">
            <rect id="長方形-33-のコピー" serif:id="長方形 33 のコピー" x="240.034" y="11566.4" width="90.018" height="89.992" style="fill:rgb(129,215,207);fill-opacity:0.95;"/>
            <path id="シェイプ-1094" serif:id="シェイプ 1094" d="M274.201,11631.4C268.152,11631.4 263.231,11626.4 263.231,11620.4C263.231,11616.9 264.831,11613.7 267.62,11611.6L267.747,11611.5L267.747,11611.4C267.747,11607.4 269.57,11603.8 272.881,11601C274.656,11599.5 276.732,11598.4 279.051,11597.7L279.462,11597.6L279.222,11597.2C278.806,11596.6 278.586,11595.9 278.586,11595.1C278.586,11593.1 280.265,11591.4 282.33,11591.4C283.252,11591.4 284.138,11591.7 284.826,11592.3L285.04,11592.5L285.253,11592.3C285.942,11591.7 286.828,11591.4 287.75,11591.4C289.814,11591.4 291.494,11593.1 291.494,11595.1C291.494,11595.9 291.274,11596.6 290.858,11597.2L290.618,11597.6L291.028,11597.7C293.347,11598.4 295.423,11599.5 297.198,11601C300.509,11603.8 302.333,11607.4 302.333,11611.4L302.333,11611.5L302.446,11611.6L302.453,11611.6C305.249,11613.7 306.849,11616.9 306.849,11620.4C306.849,11626.4 301.928,11631.4 295.879,11631.4L274.201,11631.4ZM274.201,11611.5C269.293,11611.5 265.301,11615.5 265.301,11620.4C265.301,11625.3 269.293,11629.3 274.201,11629.3L295.879,11629.3C300.786,11629.3 304.779,11625.3 304.779,11620.4C304.779,11615.5 300.786,11611.5 295.879,11611.5L295.825,11611.5C295.301,11611.5 294.859,11611.1 294.797,11610.6C294.314,11606.5 290.029,11603.4 285.04,11603.4C280.051,11603.4 275.765,11606.5 275.283,11610.6C275.221,11611.1 274.779,11611.5 274.255,11611.5L274.201,11611.5ZM285.04,11601.3C287.779,11601.3 290.448,11602.1 292.555,11603.6C294.635,11605 296.089,11607 296.648,11609.2L296.704,11609.5L296.928,11609.5C297.88,11609.6 298.817,11609.8 299.711,11610.1L300.224,11610.3L300.14,11609.8C299.173,11603.6 292.681,11598.9 285.04,11598.9C277.399,11598.9 270.907,11603.6 269.94,11609.8L269.856,11610.3L270.368,11610.1C271.264,11609.8 272.201,11609.6 273.151,11609.5L273.376,11609.5L273.432,11609.2C273.991,11607 275.445,11605 277.525,11603.6C279.632,11602.1 282.301,11601.3 285.04,11601.3ZM287.75,11593.4C286.826,11593.4 286.075,11594.2 286.075,11595.1C286.075,11596 286.826,11596.8 287.75,11596.8C288.673,11596.8 289.425,11596 289.425,11595.1C289.425,11594.2 288.673,11593.4 287.75,11593.4ZM282.33,11593.4C281.407,11593.4 280.655,11594.2 280.655,11595.1C280.655,11596 281.407,11596.8 282.33,11596.8C283.254,11596.8 284.005,11596 284.005,11595.1C284.005,11594.2 283.254,11593.4 282.33,11593.4Z" style="fill:rgb(251,253,253);fill-rule:nonzero;"/>
        </g>
    </g>
</svg>
