<?xml version="1.0" encoding="UTF-8" standalone="no"?>
<!DOCTYPE svg PUBLIC "-//W3C//DTD SVG 1.1//EN" "http://www.w3.org/Graphics/SVG/1.1/DTD/svg11.dtd">
<svg width="91px" height="91px" version="1.1" xmlns="http://www.w3.org/2000/svg" xmlns:xlink="http://www.w3.org/1999/xlink" xml:space="preserve" xmlns:serif="http://www.serif.com/" style="fill-rule:evenodd;clip-rule:evenodd;stroke-linejoin:round;stroke-miterlimit:2;">
    <g transform="matrix(1,0,0,1,-240,-8653)">
        <g id="icon">
            <rect id="長方形-33-のコピー" serif:id="長方形 33 のコピー" x="240" y="8653" width="90.003" height="90.003" style="fill:rgb(129,215,207);fill-opacity:0.95;"/>
            <path id="シェイプ-759-のコピー" serif:id="シェイプ 759 のコピー" d="M290.77,8720C290.198,8720 289.732,8719.53 289.732,8718.96L289.732,8702.78L289.733,8702.77L289.736,8702.7L289.739,8702.67L289.749,8702.61L289.756,8702.57L289.771,8702.51L289.784,8702.47L289.8,8702.42L289.818,8702.38L289.828,8702.35L296.714,8687.44C296.841,8687.16 296.851,8686.84 296.74,8686.55C296.628,8686.25 296.41,8686.02 296.124,8685.89C295.82,8685.75 295.487,8685.74 295.186,8685.85C294.891,8685.96 294.657,8686.17 294.527,8686.46L294.522,8686.47L290.338,8694.85C290.243,8697.71 287.866,8700.02 285,8700.02C282.134,8700.02 279.757,8697.71 279.662,8694.85L275.485,8686.48C275.211,8685.88 274.507,8685.61 273.917,8685.87C273.595,8686.02 273.375,8686.25 273.26,8686.55C273.149,8686.84 273.159,8687.16 273.289,8687.45L280.179,8702.37L280.205,8702.44L280.214,8702.46L280.234,8702.53L280.243,8702.56L280.253,8702.62L280.261,8702.67L280.264,8702.71L280.267,8702.77L280.268,8702.79L280.268,8718.96C280.268,8719.53 279.803,8720 279.231,8720C278.659,8720 278.193,8719.53 278.193,8718.96L278.193,8703.01L272.71,8691.14C272.588,8692.39 271.535,8693.36 270.259,8693.36L265.468,8693.36C264.11,8693.36 263.005,8692.26 263.005,8690.9L263.005,8678.47C263.005,8677.11 264.11,8676.01 265.468,8676.01L270.259,8676.01C271.617,8676.01 272.721,8677.11 272.721,8678.47L272.721,8683.65L297.278,8683.65L297.278,8678.47C297.278,8677.11 298.383,8676.01 299.742,8676.01L304.532,8676.01C305.89,8676.01 306.995,8677.11 306.995,8678.47L306.995,8690.9C306.995,8692.26 305.89,8693.36 304.532,8693.36L299.742,8693.36C298.465,8693.36 297.412,8692.39 297.29,8691.14L291.807,8703.02L291.807,8718.96C291.807,8719.53 291.342,8720 290.77,8720ZM277.422,8685.72L280.476,8691.84C281.446,8690.3 283.159,8689.34 285,8689.34C286.841,8689.34 288.554,8690.3 289.524,8691.84L292.578,8685.72L277.422,8685.72ZM285,8691.41C283.198,8691.41 281.732,8692.88 281.732,8694.68C281.732,8696.48 283.198,8697.94 285,8697.94C286.802,8697.94 288.268,8696.48 288.268,8694.68C288.268,8692.88 286.802,8691.41 285,8691.41ZM299.742,8678.08C299.527,8678.08 299.353,8678.25 299.353,8678.47L299.353,8690.9C299.353,8691.11 299.527,8691.29 299.742,8691.29L304.532,8691.29C304.746,8691.29 304.92,8691.11 304.92,8690.9L304.92,8678.47C304.92,8678.25 304.746,8678.08 304.532,8678.08L299.742,8678.08ZM265.468,8678.08C265.254,8678.08 265.079,8678.25 265.079,8678.47L265.079,8690.9C265.079,8691.11 265.254,8691.29 265.468,8691.29L270.259,8691.29C270.473,8691.29 270.647,8691.11 270.647,8690.9L270.647,8678.47C270.647,8678.25 270.473,8678.08 270.259,8678.08L265.468,8678.08Z" style="fill:white;"/>
        </g>
    </g>
</svg>
