<?xml version="1.0" encoding="UTF-8" standalone="no"?>
<!DOCTYPE svg PUBLIC "-//W3C//DTD SVG 1.1//EN" "http://www.w3.org/Graphics/SVG/1.1/DTD/svg11.dtd">
<svg width="100%" height="100%" viewBox="0 0 1581 366" version="1.1" xmlns="http://www.w3.org/2000/svg" xmlns:xlink="http://www.w3.org/1999/xlink" xml:space="preserve" xmlns:serif="http://www.serif.com/" style="fill-rule:evenodd;clip-rule:evenodd;stroke-linejoin:round;stroke-miterlimit:2;">
    <g transform="matrix(1,0,0,1,-439.546,-2410.89)">
        <path id="シェイプ-718" serif:id="シェイプ 718" d="M829.87,2535.12C830.24,2535.08 830.618,2535.04 830.986,2535C943.821,2521.38 952.719,2452.03 1004.98,2440.62C1006.63,2440.26 1008.33,2439.96 1010.07,2439.72L1033.09,2435.65C1036.08,2434.87 1039.23,2434.29 1042.6,2433.97C1046.41,2433.6 1050.48,2433.53 1054.87,2433.8C1130.58,2438.49 1131.03,2467.39 1236.02,2529.03L1236,2529.06C1296.14,2564.75 1354.61,2596.97 1402.95,2619.2C1427.19,2630.36 1444.45,2637.03 1456.4,2640.4C1450.43,2632.66 1443.32,2624.76 1438.49,2619.06C1421.71,2599.29 1411.53,2573.46 1416.44,2562.38C1416.62,2561.98 1416.82,2561.6 1417.04,2561.24L1428.66,2539.24C1432.66,2529.06 1448.46,2530.26 1481.98,2557.38C1534.77,2600.08 1599.33,2650.64 1645.04,2649.04C1649.96,2646.1 1654.53,2642.23 1658.7,2637.38C1605.55,2586.54 1589.56,2540.92 1613.52,2539.03L1630.14,2536.05C1631.18,2535.74 1632.33,2535.53 1633.58,2535.44C1674.5,2532.21 1700.64,2601.73 1684.06,2626.78C1683.22,2628.05 1682.34,2629.27 1681.45,2630.43C1744.64,2684.82 1858.05,2744 2019.55,2752.94L2007.13,2776.53C1846.3,2767.63 1731.04,2703.34 1665.68,2643.88C1663.52,2645.01 1661.28,2645.94 1658.97,2646.69C1658,2647 1657.02,2647.27 1656.02,2647.52L1637.49,2652.77C1634.12,2654.1 1630.63,2655.08 1627.02,2655.73C1583.41,2663.6 1522.67,2623.93 1469.57,2580.97C1451.25,2566.16 1438.23,2559.09 1429.53,2557.37C1432.95,2569.2 1440.7,2583.45 1450.9,2595.47C1460.7,2607.02 1479.86,2627.65 1479.93,2637.54C1479.94,2639.37 1479.29,2640.84 1477.81,2641.8L1466.93,2663.76C1463.47,2670.22 1443.94,2667.37 1390.54,2642.8C1338.4,2618.81 1283.94,2594.03 1221.07,2553.44L1221.07,2553.45C1219.05,2552.22 1216.91,2550.82 1214.66,2549.27C1182.42,2528.09 1147.95,2502.7 1110.46,2471.13C1083.14,2454.12 1054.07,2440.95 1025.76,2439.2C1024.99,2439.15 1024.24,2439.12 1023.49,2439.09C980.726,2458.98 973.164,2526.87 852.55,2534.29C845.324,2534.74 838.135,2535.01 830.988,2535.12C830.614,2535.12 830.243,2535.12 829.87,2535.12ZM829.87,2535.12C824.434,2535.76 818.769,2536.27 812.839,2536.63C642.879,2547.09 506.961,2479.23 439.546,2430.86L465.96,2410.89C530.359,2457.1 669.404,2537.16 829.87,2535.12ZM1624.5,2539.91C1616.33,2551.36 1631.16,2583.01 1668.37,2618.58C1672.98,2591.66 1653.99,2547.11 1624.5,2539.91Z" style="fill:rgb(129,215,207);fill-opacity:0.6;"/>
    </g>
</svg>
